G04 EAGLE Gerber RS-274X export*
G75*
%MOMM*%
%FSLAX34Y34*%
%LPD*%
%INBottom Copper*%
%IPPOS*%
%AMOC8*
5,1,8,0,0,1.08239X$1,22.5*%
G01*
%ADD10R,0.635000X5.969000*%
%ADD11R,1.651000X1.524000*%
%ADD12R,0.250000X4.000000*%
%ADD13R,0.250000X3.500000*%
%ADD14C,0.908000*%
%ADD15C,0.254000*%
%ADD16P,2.749271X8X112.500000*%


D10*
X71755Y42545D03*
D11*
X75565Y11430D03*
D12*
X74100Y115200D03*
X89100Y115200D03*
X114100Y115200D03*
X129100Y115200D03*
D13*
X79100Y112700D03*
X84100Y112700D03*
X94100Y112700D03*
X99100Y112700D03*
X104100Y112700D03*
X109100Y112700D03*
X119100Y112700D03*
X124100Y112700D03*
D14*
X131600Y73200D03*
X110100Y75700D03*
X93100Y75700D03*
X71600Y73200D03*
X84100Y85200D03*
X131600Y85200D03*
D15*
X99100Y81700D02*
X99100Y95200D01*
X99100Y81700D02*
X93100Y75700D01*
X104100Y87200D02*
X104100Y96200D01*
X104100Y87200D02*
X107600Y83700D01*
X114100Y83700D01*
X118600Y79200D01*
X118600Y71700D01*
X114600Y67700D01*
X97100Y67700D01*
X93100Y71700D01*
X93100Y75200D01*
X114100Y90700D02*
X114100Y96200D01*
X121100Y62700D02*
X93100Y62700D01*
X84100Y71700D01*
X84100Y85200D01*
X89100Y90200D02*
X89100Y95200D01*
X89100Y90200D02*
X84100Y85200D01*
X129100Y87700D02*
X129100Y96200D01*
X129100Y87700D02*
X131600Y85200D01*
X134600Y85200D01*
X140600Y79200D01*
X140600Y68200D01*
X130100Y57700D01*
X81100Y57700D01*
X71600Y67200D01*
X71600Y73200D01*
X74100Y75700D02*
X74100Y96200D01*
X74100Y75700D02*
X71600Y73200D01*
X114100Y90700D02*
X131600Y73200D01*
X121100Y62700D01*
D16*
X127000Y12700D03*
X76200Y12700D03*
M02*
