G04 EAGLE Gerber RS-274X export*
G75*
%MOMM*%
%FSLAX34Y34*%
%LPD*%
%IN*%
%IPPOS*%
%AMOC8*
5,1,8,0,0,1.08239X$1,22.5*%
G01*
%ADD10C,0.254000*%


D10*
X31750Y39370D02*
X57150Y39370D01*
X57150Y-6350D01*
X146050Y-6350D01*
X146050Y38100D01*
X177800Y38100D01*
X177800Y139700D01*
X144850Y139700D01*
X144676Y139692D01*
X144503Y139670D01*
X144332Y139632D01*
X144166Y139579D01*
X144005Y139513D01*
X143850Y139432D01*
X143703Y139338D01*
X143564Y139232D01*
X143436Y139114D01*
X143318Y138986D01*
X143212Y138847D01*
X143118Y138700D01*
X143037Y138545D01*
X142971Y138384D01*
X142918Y138218D01*
X142880Y138047D01*
X142858Y137874D01*
X142850Y137700D01*
X142850Y95200D01*
X142835Y94860D01*
X142791Y94523D01*
X142717Y94191D01*
X142615Y93866D01*
X142485Y93552D01*
X142328Y93250D01*
X142145Y92963D01*
X141938Y92693D01*
X141708Y92442D01*
X141457Y92212D01*
X141187Y92005D01*
X140900Y91823D01*
X140598Y91665D01*
X140284Y91535D01*
X139959Y91433D01*
X139627Y91359D01*
X139290Y91315D01*
X138950Y91300D01*
X138610Y91315D01*
X138273Y91359D01*
X137941Y91433D01*
X137616Y91535D01*
X137302Y91665D01*
X137000Y91823D01*
X136713Y92005D01*
X136443Y92212D01*
X136192Y92442D01*
X135962Y92693D01*
X135755Y92963D01*
X135573Y93250D01*
X135415Y93552D01*
X135285Y93866D01*
X135183Y94191D01*
X135109Y94523D01*
X135065Y94860D01*
X135050Y95200D01*
X135050Y112200D01*
X134832Y112210D01*
X134616Y112238D01*
X134403Y112285D01*
X134195Y112351D01*
X133993Y112434D01*
X133800Y112535D01*
X133616Y112652D01*
X133443Y112785D01*
X133282Y112932D01*
X133135Y113093D01*
X133002Y113266D01*
X132885Y113450D01*
X132784Y113643D01*
X132701Y113845D01*
X132635Y114053D01*
X132588Y114266D01*
X132560Y114482D01*
X132550Y114700D01*
X132550Y124700D01*
X132560Y124918D01*
X132588Y125134D01*
X132635Y125347D01*
X132701Y125555D01*
X132784Y125757D01*
X132885Y125950D01*
X133002Y126134D01*
X133135Y126307D01*
X133282Y126468D01*
X133443Y126615D01*
X133616Y126748D01*
X133800Y126865D01*
X133993Y126966D01*
X134195Y127049D01*
X134403Y127115D01*
X134616Y127162D01*
X134832Y127191D01*
X135050Y127200D01*
X135050Y132200D01*
X132050Y139700D01*
X71150Y139700D01*
X68150Y132200D01*
X68150Y127200D01*
X68368Y127191D01*
X68584Y127162D01*
X68797Y127115D01*
X69005Y127049D01*
X69207Y126966D01*
X69400Y126865D01*
X69584Y126748D01*
X69757Y126615D01*
X69918Y126468D01*
X70065Y126307D01*
X70198Y126134D01*
X70315Y125950D01*
X70416Y125757D01*
X70499Y125555D01*
X70565Y125347D01*
X70612Y125134D01*
X70641Y124918D01*
X70650Y124700D01*
X70650Y114700D01*
X70641Y114482D01*
X70612Y114266D01*
X70565Y114053D01*
X70499Y113845D01*
X70416Y113643D01*
X70315Y113450D01*
X70198Y113266D01*
X70065Y113093D01*
X69918Y112932D01*
X69757Y112785D01*
X69584Y112652D01*
X69400Y112535D01*
X69207Y112434D01*
X69005Y112351D01*
X68797Y112285D01*
X68584Y112238D01*
X68368Y112210D01*
X68150Y112200D01*
X68150Y95200D01*
X68135Y94860D01*
X68091Y94523D01*
X68017Y94191D01*
X67915Y93866D01*
X67785Y93552D01*
X67628Y93250D01*
X67445Y92963D01*
X67238Y92693D01*
X67008Y92442D01*
X66757Y92212D01*
X66487Y92005D01*
X66200Y91823D01*
X65898Y91665D01*
X65584Y91535D01*
X65259Y91433D01*
X64927Y91359D01*
X64590Y91315D01*
X64250Y91300D01*
X63910Y91315D01*
X63573Y91359D01*
X63241Y91433D01*
X62916Y91535D01*
X62602Y91665D01*
X62300Y91823D01*
X62013Y92005D01*
X61743Y92212D01*
X61492Y92442D01*
X61262Y92693D01*
X61055Y92963D01*
X60873Y93250D01*
X60715Y93552D01*
X60585Y93866D01*
X60483Y94191D01*
X60409Y94523D01*
X60365Y94860D01*
X60350Y95200D01*
X60350Y137700D01*
X60342Y137874D01*
X60320Y138047D01*
X60282Y138218D01*
X60229Y138384D01*
X60163Y138545D01*
X60082Y138700D01*
X59988Y138847D01*
X59882Y138986D01*
X59764Y139114D01*
X59636Y139232D01*
X59497Y139338D01*
X59350Y139432D01*
X59195Y139513D01*
X59034Y139579D01*
X58868Y139632D01*
X58697Y139670D01*
X58524Y139692D01*
X58350Y139700D01*
X31750Y139700D01*
X31750Y39370D01*
M02*
