G04 EAGLE Gerber RS-274X export*
G75*
%MOMM*%
%FSLAX34Y34*%
%LPD*%
%INBottom Copper*%
%IPPOS*%
%AMOC8*
5,1,8,0,0,1.08239X$1,22.5*%
G01*
%ADD10P,2.749271X8X22.500000*%
%ADD11C,0.452400*%

G36*
X894432Y14830D02*
X894432Y14830D01*
X894451Y14828D01*
X894553Y14850D01*
X894655Y14866D01*
X894672Y14876D01*
X894692Y14880D01*
X894781Y14933D01*
X894872Y14982D01*
X894886Y14996D01*
X894903Y15006D01*
X894970Y15085D01*
X895042Y15160D01*
X895050Y15178D01*
X895063Y15193D01*
X895102Y15289D01*
X895145Y15383D01*
X895147Y15403D01*
X895155Y15421D01*
X895173Y15588D01*
X895173Y214412D01*
X895170Y214432D01*
X895172Y214451D01*
X895150Y214553D01*
X895134Y214655D01*
X895124Y214672D01*
X895120Y214692D01*
X895067Y214781D01*
X895018Y214872D01*
X895004Y214886D01*
X894994Y214903D01*
X894915Y214970D01*
X894840Y215042D01*
X894822Y215050D01*
X894807Y215063D01*
X894711Y215102D01*
X894617Y215145D01*
X894597Y215147D01*
X894579Y215155D01*
X894412Y215173D01*
X886718Y215173D01*
X886647Y215162D01*
X886576Y215160D01*
X886527Y215142D01*
X886475Y215134D01*
X886412Y215100D01*
X886345Y215075D01*
X886304Y215043D01*
X886258Y215018D01*
X886209Y214966D01*
X886153Y214922D01*
X886125Y214878D01*
X886089Y214840D01*
X886058Y214775D01*
X886020Y214715D01*
X886007Y214664D01*
X885985Y214617D01*
X885977Y214546D01*
X885960Y214476D01*
X885964Y214424D01*
X885958Y214373D01*
X885973Y214302D01*
X885979Y214231D01*
X885999Y214183D01*
X886010Y214132D01*
X886047Y214071D01*
X886075Y214005D01*
X886120Y213949D01*
X886136Y213921D01*
X886154Y213906D01*
X886180Y213874D01*
X890541Y209513D01*
X890541Y204723D01*
X876062Y204723D01*
X876042Y204720D01*
X876023Y204722D01*
X875921Y204700D01*
X875819Y204683D01*
X875802Y204674D01*
X875782Y204670D01*
X875693Y204617D01*
X875602Y204568D01*
X875588Y204554D01*
X875571Y204544D01*
X875504Y204465D01*
X875433Y204390D01*
X875424Y204372D01*
X875411Y204357D01*
X875373Y204261D01*
X875329Y204167D01*
X875327Y204147D01*
X875319Y204129D01*
X875301Y203962D01*
X875301Y203199D01*
X875299Y203199D01*
X875299Y203962D01*
X875296Y203982D01*
X875298Y204001D01*
X875276Y204103D01*
X875259Y204205D01*
X875250Y204222D01*
X875246Y204242D01*
X875193Y204331D01*
X875144Y204422D01*
X875130Y204436D01*
X875120Y204453D01*
X875041Y204520D01*
X874966Y204591D01*
X874948Y204600D01*
X874933Y204613D01*
X874837Y204652D01*
X874743Y204695D01*
X874723Y204697D01*
X874705Y204705D01*
X874538Y204723D01*
X860059Y204723D01*
X860059Y209513D01*
X864420Y213874D01*
X864462Y213932D01*
X864511Y213984D01*
X864533Y214031D01*
X864564Y214073D01*
X864585Y214142D01*
X864615Y214207D01*
X864621Y214259D01*
X864636Y214309D01*
X864634Y214380D01*
X864642Y214451D01*
X864631Y214502D01*
X864630Y214554D01*
X864605Y214622D01*
X864590Y214692D01*
X864563Y214737D01*
X864545Y214785D01*
X864500Y214841D01*
X864464Y214903D01*
X864424Y214937D01*
X864391Y214977D01*
X864331Y215016D01*
X864277Y215063D01*
X864228Y215082D01*
X864185Y215110D01*
X864115Y215128D01*
X864049Y215155D01*
X863977Y215163D01*
X863946Y215171D01*
X863923Y215169D01*
X863882Y215173D01*
X785373Y215173D01*
X785303Y215162D01*
X785231Y215160D01*
X785182Y215142D01*
X785131Y215134D01*
X785067Y215100D01*
X785000Y215075D01*
X784959Y215043D01*
X784913Y215018D01*
X784864Y214966D01*
X784808Y214922D01*
X784780Y214878D01*
X784744Y214840D01*
X784714Y214775D01*
X784675Y214715D01*
X784662Y214664D01*
X784640Y214617D01*
X784632Y214546D01*
X784615Y214476D01*
X784619Y214424D01*
X784613Y214373D01*
X784628Y214302D01*
X784634Y214231D01*
X784654Y214183D01*
X784665Y214132D01*
X784702Y214071D01*
X784730Y214005D01*
X784775Y213949D01*
X784792Y213921D01*
X784809Y213906D01*
X784835Y213874D01*
X788565Y210144D01*
X788565Y196256D01*
X778744Y186435D01*
X764856Y186435D01*
X755035Y196256D01*
X755035Y210144D01*
X758765Y213874D01*
X758807Y213932D01*
X758856Y213984D01*
X758878Y214031D01*
X758908Y214073D01*
X758929Y214142D01*
X758960Y214207D01*
X758965Y214259D01*
X758981Y214309D01*
X758979Y214380D01*
X758987Y214451D01*
X758976Y214502D01*
X758974Y214554D01*
X758950Y214622D01*
X758935Y214692D01*
X758908Y214737D01*
X758890Y214785D01*
X758845Y214841D01*
X758808Y214903D01*
X758769Y214937D01*
X758736Y214977D01*
X758676Y215016D01*
X758621Y215063D01*
X758573Y215082D01*
X758529Y215110D01*
X758460Y215128D01*
X758393Y215155D01*
X758322Y215163D01*
X758291Y215171D01*
X758268Y215169D01*
X758227Y215173D01*
X669718Y215173D01*
X669647Y215162D01*
X669576Y215160D01*
X669527Y215142D01*
X669475Y215134D01*
X669412Y215100D01*
X669345Y215075D01*
X669304Y215043D01*
X669258Y215018D01*
X669209Y214966D01*
X669153Y214922D01*
X669125Y214878D01*
X669089Y214840D01*
X669058Y214775D01*
X669020Y214715D01*
X669007Y214664D01*
X668985Y214617D01*
X668977Y214546D01*
X668960Y214476D01*
X668964Y214424D01*
X668958Y214373D01*
X668973Y214302D01*
X668979Y214231D01*
X668999Y214183D01*
X669010Y214132D01*
X669047Y214071D01*
X669075Y214005D01*
X669120Y213949D01*
X669136Y213921D01*
X669154Y213906D01*
X669180Y213874D01*
X673541Y209513D01*
X673541Y204723D01*
X659062Y204723D01*
X659042Y204720D01*
X659023Y204722D01*
X658921Y204700D01*
X658819Y204683D01*
X658802Y204674D01*
X658782Y204670D01*
X658693Y204617D01*
X658602Y204568D01*
X658588Y204554D01*
X658571Y204544D01*
X658504Y204465D01*
X658433Y204390D01*
X658424Y204372D01*
X658411Y204357D01*
X658373Y204261D01*
X658329Y204167D01*
X658327Y204147D01*
X658319Y204129D01*
X658301Y203962D01*
X658301Y203199D01*
X658299Y203199D01*
X658299Y203962D01*
X658296Y203982D01*
X658298Y204001D01*
X658276Y204103D01*
X658259Y204205D01*
X658250Y204222D01*
X658246Y204242D01*
X658193Y204331D01*
X658144Y204422D01*
X658130Y204436D01*
X658120Y204453D01*
X658041Y204520D01*
X657966Y204591D01*
X657948Y204600D01*
X657933Y204613D01*
X657837Y204652D01*
X657743Y204695D01*
X657723Y204697D01*
X657705Y204705D01*
X657538Y204723D01*
X643059Y204723D01*
X643059Y209513D01*
X647420Y213874D01*
X647462Y213932D01*
X647511Y213984D01*
X647533Y214031D01*
X647564Y214073D01*
X647585Y214142D01*
X647615Y214207D01*
X647621Y214259D01*
X647636Y214309D01*
X647634Y214380D01*
X647642Y214451D01*
X647631Y214502D01*
X647630Y214554D01*
X647605Y214622D01*
X647590Y214692D01*
X647563Y214737D01*
X647545Y214785D01*
X647500Y214841D01*
X647464Y214903D01*
X647424Y214937D01*
X647391Y214977D01*
X647331Y215016D01*
X647277Y215063D01*
X647228Y215082D01*
X647185Y215110D01*
X647115Y215128D01*
X647049Y215155D01*
X646977Y215163D01*
X646946Y215171D01*
X646923Y215169D01*
X646882Y215173D01*
X558373Y215173D01*
X558303Y215162D01*
X558231Y215160D01*
X558182Y215142D01*
X558131Y215134D01*
X558067Y215100D01*
X558000Y215075D01*
X557959Y215043D01*
X557913Y215018D01*
X557864Y214966D01*
X557808Y214922D01*
X557780Y214878D01*
X557744Y214840D01*
X557714Y214775D01*
X557675Y214715D01*
X557662Y214664D01*
X557640Y214617D01*
X557632Y214546D01*
X557615Y214476D01*
X557619Y214424D01*
X557613Y214373D01*
X557628Y214302D01*
X557634Y214231D01*
X557654Y214183D01*
X557665Y214132D01*
X557702Y214071D01*
X557730Y214005D01*
X557775Y213949D01*
X557792Y213921D01*
X557809Y213906D01*
X557835Y213874D01*
X561565Y210144D01*
X561565Y196256D01*
X551744Y186435D01*
X537856Y186435D01*
X528035Y196256D01*
X528035Y210144D01*
X531765Y213874D01*
X531807Y213932D01*
X531856Y213984D01*
X531878Y214031D01*
X531908Y214073D01*
X531929Y214142D01*
X531960Y214207D01*
X531965Y214259D01*
X531981Y214309D01*
X531979Y214380D01*
X531987Y214451D01*
X531976Y214502D01*
X531974Y214554D01*
X531950Y214622D01*
X531935Y214692D01*
X531908Y214737D01*
X531890Y214785D01*
X531845Y214841D01*
X531808Y214903D01*
X531769Y214937D01*
X531736Y214977D01*
X531676Y215016D01*
X531621Y215063D01*
X531573Y215082D01*
X531529Y215110D01*
X531460Y215128D01*
X531393Y215155D01*
X531322Y215163D01*
X531291Y215171D01*
X531268Y215169D01*
X531227Y215173D01*
X435418Y215173D01*
X435347Y215162D01*
X435276Y215160D01*
X435227Y215142D01*
X435175Y215134D01*
X435112Y215100D01*
X435045Y215075D01*
X435004Y215043D01*
X434958Y215018D01*
X434909Y214966D01*
X434853Y214922D01*
X434825Y214878D01*
X434789Y214840D01*
X434758Y214775D01*
X434720Y214715D01*
X434707Y214664D01*
X434685Y214617D01*
X434677Y214546D01*
X434660Y214476D01*
X434664Y214424D01*
X434658Y214373D01*
X434673Y214302D01*
X434679Y214231D01*
X434699Y214183D01*
X434710Y214132D01*
X434747Y214071D01*
X434775Y214005D01*
X434820Y213949D01*
X434836Y213921D01*
X434854Y213906D01*
X434880Y213874D01*
X439241Y209513D01*
X439241Y204723D01*
X424762Y204723D01*
X424742Y204720D01*
X424723Y204722D01*
X424621Y204700D01*
X424519Y204683D01*
X424502Y204674D01*
X424482Y204670D01*
X424393Y204617D01*
X424302Y204568D01*
X424288Y204554D01*
X424271Y204544D01*
X424204Y204465D01*
X424133Y204390D01*
X424124Y204372D01*
X424111Y204357D01*
X424073Y204261D01*
X424029Y204167D01*
X424027Y204147D01*
X424019Y204129D01*
X424001Y203962D01*
X424001Y203199D01*
X423999Y203199D01*
X423999Y203962D01*
X423996Y203982D01*
X423998Y204001D01*
X423976Y204103D01*
X423959Y204205D01*
X423950Y204222D01*
X423946Y204242D01*
X423893Y204331D01*
X423844Y204422D01*
X423830Y204436D01*
X423820Y204453D01*
X423741Y204520D01*
X423666Y204591D01*
X423648Y204600D01*
X423633Y204613D01*
X423537Y204652D01*
X423443Y204695D01*
X423423Y204697D01*
X423405Y204705D01*
X423238Y204723D01*
X408759Y204723D01*
X408759Y209513D01*
X413120Y213874D01*
X413162Y213932D01*
X413211Y213984D01*
X413233Y214031D01*
X413264Y214073D01*
X413285Y214142D01*
X413315Y214207D01*
X413321Y214259D01*
X413336Y214309D01*
X413334Y214380D01*
X413342Y214451D01*
X413331Y214502D01*
X413330Y214554D01*
X413305Y214622D01*
X413290Y214692D01*
X413263Y214737D01*
X413245Y214785D01*
X413200Y214841D01*
X413164Y214903D01*
X413124Y214937D01*
X413091Y214977D01*
X413031Y215016D01*
X412977Y215063D01*
X412928Y215082D01*
X412885Y215110D01*
X412815Y215128D01*
X412749Y215155D01*
X412677Y215163D01*
X412646Y215171D01*
X412623Y215169D01*
X412582Y215173D01*
X326773Y215173D01*
X326703Y215162D01*
X326631Y215160D01*
X326582Y215142D01*
X326531Y215134D01*
X326467Y215100D01*
X326400Y215075D01*
X326359Y215043D01*
X326313Y215018D01*
X326264Y214966D01*
X326208Y214922D01*
X326180Y214878D01*
X326144Y214840D01*
X326114Y214775D01*
X326075Y214715D01*
X326062Y214664D01*
X326040Y214617D01*
X326032Y214546D01*
X326015Y214476D01*
X326019Y214424D01*
X326013Y214373D01*
X326028Y214302D01*
X326034Y214231D01*
X326054Y214183D01*
X326065Y214132D01*
X326102Y214071D01*
X326130Y214005D01*
X326175Y213949D01*
X326192Y213921D01*
X326209Y213906D01*
X326235Y213874D01*
X329965Y210144D01*
X329965Y196256D01*
X320144Y186435D01*
X306256Y186435D01*
X296435Y196256D01*
X296435Y210144D01*
X300165Y213874D01*
X300207Y213932D01*
X300256Y213984D01*
X300278Y214031D01*
X300308Y214073D01*
X300329Y214142D01*
X300360Y214207D01*
X300365Y214259D01*
X300381Y214309D01*
X300379Y214380D01*
X300387Y214451D01*
X300376Y214502D01*
X300374Y214554D01*
X300350Y214622D01*
X300335Y214692D01*
X300308Y214737D01*
X300290Y214785D01*
X300245Y214841D01*
X300208Y214903D01*
X300169Y214937D01*
X300136Y214977D01*
X300076Y215016D01*
X300021Y215063D01*
X299973Y215082D01*
X299929Y215110D01*
X299860Y215128D01*
X299793Y215155D01*
X299722Y215163D01*
X299691Y215171D01*
X299668Y215169D01*
X299627Y215173D01*
X239408Y215173D01*
X239337Y215162D01*
X239266Y215160D01*
X239217Y215142D01*
X239165Y215134D01*
X239102Y215100D01*
X239035Y215075D01*
X238994Y215043D01*
X238948Y215018D01*
X238899Y214966D01*
X238843Y214922D01*
X238815Y214878D01*
X238779Y214840D01*
X238748Y214775D01*
X238710Y214715D01*
X238697Y214664D01*
X238675Y214617D01*
X238667Y214546D01*
X238650Y214476D01*
X238654Y214424D01*
X238648Y214373D01*
X238663Y214302D01*
X238669Y214231D01*
X238689Y214183D01*
X238700Y214132D01*
X238737Y214071D01*
X238765Y214005D01*
X238810Y213949D01*
X238826Y213921D01*
X238844Y213906D01*
X238870Y213874D01*
X246221Y206523D01*
X246221Y201733D01*
X231742Y201733D01*
X231722Y201730D01*
X231703Y201732D01*
X231601Y201710D01*
X231499Y201693D01*
X231482Y201684D01*
X231462Y201680D01*
X231373Y201627D01*
X231282Y201578D01*
X231268Y201564D01*
X231251Y201554D01*
X231184Y201475D01*
X231113Y201400D01*
X231104Y201382D01*
X231091Y201367D01*
X231053Y201271D01*
X231009Y201177D01*
X231007Y201157D01*
X230999Y201139D01*
X230981Y200972D01*
X230981Y200209D01*
X230979Y200209D01*
X230979Y200972D01*
X230976Y200992D01*
X230978Y201011D01*
X230956Y201113D01*
X230939Y201215D01*
X230930Y201232D01*
X230926Y201252D01*
X230873Y201341D01*
X230824Y201432D01*
X230810Y201446D01*
X230800Y201463D01*
X230721Y201530D01*
X230646Y201601D01*
X230628Y201610D01*
X230613Y201623D01*
X230517Y201662D01*
X230423Y201705D01*
X230403Y201707D01*
X230385Y201715D01*
X230218Y201733D01*
X215739Y201733D01*
X215739Y206523D01*
X223090Y213874D01*
X223132Y213932D01*
X223181Y213984D01*
X223203Y214031D01*
X223234Y214073D01*
X223255Y214142D01*
X223285Y214207D01*
X223291Y214259D01*
X223306Y214309D01*
X223304Y214380D01*
X223312Y214451D01*
X223301Y214502D01*
X223300Y214554D01*
X223275Y214622D01*
X223260Y214692D01*
X223233Y214737D01*
X223215Y214785D01*
X223170Y214841D01*
X223134Y214903D01*
X223094Y214937D01*
X223061Y214977D01*
X223001Y215016D01*
X222947Y215063D01*
X222898Y215082D01*
X222855Y215110D01*
X222785Y215128D01*
X222719Y215155D01*
X222647Y215163D01*
X222616Y215171D01*
X222593Y215169D01*
X222552Y215173D01*
X29153Y215173D01*
X29083Y215162D01*
X29011Y215160D01*
X28962Y215142D01*
X28911Y215134D01*
X28847Y215100D01*
X28780Y215075D01*
X28739Y215043D01*
X28693Y215018D01*
X28644Y214966D01*
X28588Y214922D01*
X28560Y214878D01*
X28524Y214840D01*
X28494Y214775D01*
X28455Y214715D01*
X28442Y214664D01*
X28420Y214617D01*
X28412Y214546D01*
X28395Y214476D01*
X28399Y214424D01*
X28393Y214373D01*
X28408Y214302D01*
X28414Y214231D01*
X28434Y214183D01*
X28445Y214132D01*
X28482Y214071D01*
X28510Y214005D01*
X28555Y213949D01*
X28572Y213921D01*
X28589Y213906D01*
X28615Y213874D01*
X37565Y204924D01*
X37565Y191036D01*
X27705Y181176D01*
X27693Y181160D01*
X27677Y181147D01*
X27621Y181060D01*
X27561Y180976D01*
X27555Y180957D01*
X27544Y180940D01*
X27519Y180840D01*
X27489Y180741D01*
X27489Y180721D01*
X27484Y180702D01*
X27492Y180599D01*
X27495Y180495D01*
X27502Y180476D01*
X27503Y180456D01*
X27544Y180362D01*
X27579Y180264D01*
X27592Y180248D01*
X27600Y180230D01*
X27705Y180099D01*
X36361Y171443D01*
X36361Y166653D01*
X21882Y166653D01*
X21862Y166650D01*
X21843Y166652D01*
X21741Y166630D01*
X21639Y166613D01*
X21622Y166604D01*
X21602Y166600D01*
X21513Y166547D01*
X21422Y166498D01*
X21408Y166484D01*
X21391Y166474D01*
X21324Y166395D01*
X21253Y166320D01*
X21244Y166302D01*
X21231Y166287D01*
X21193Y166191D01*
X21149Y166097D01*
X21147Y166077D01*
X21139Y166059D01*
X21121Y165892D01*
X21121Y165129D01*
X20358Y165129D01*
X20338Y165126D01*
X20319Y165128D01*
X20217Y165106D01*
X20115Y165089D01*
X20098Y165080D01*
X20078Y165076D01*
X19989Y165023D01*
X19898Y164974D01*
X19884Y164960D01*
X19867Y164950D01*
X19800Y164871D01*
X19729Y164796D01*
X19720Y164778D01*
X19707Y164763D01*
X19668Y164667D01*
X19625Y164573D01*
X19623Y164553D01*
X19615Y164535D01*
X19597Y164368D01*
X19597Y149889D01*
X14807Y149889D01*
X6126Y158570D01*
X6068Y158612D01*
X6016Y158661D01*
X5969Y158683D01*
X5927Y158714D01*
X5858Y158735D01*
X5793Y158765D01*
X5741Y158771D01*
X5691Y158786D01*
X5620Y158784D01*
X5549Y158792D01*
X5498Y158781D01*
X5446Y158780D01*
X5378Y158755D01*
X5308Y158740D01*
X5263Y158713D01*
X5215Y158695D01*
X5159Y158650D01*
X5097Y158614D01*
X5063Y158574D01*
X5023Y158541D01*
X4984Y158481D01*
X4937Y158427D01*
X4918Y158378D01*
X4890Y158335D01*
X4872Y158265D01*
X4845Y158199D01*
X4837Y158127D01*
X4829Y158096D01*
X4831Y158073D01*
X4827Y158032D01*
X4827Y131183D01*
X4838Y131113D01*
X4840Y131041D01*
X4858Y130992D01*
X4866Y130941D01*
X4900Y130877D01*
X4925Y130810D01*
X4957Y130769D01*
X4982Y130723D01*
X5034Y130674D01*
X5078Y130618D01*
X5122Y130590D01*
X5160Y130554D01*
X5225Y130524D01*
X5285Y130485D01*
X5336Y130472D01*
X5383Y130450D01*
X5454Y130442D01*
X5524Y130425D01*
X5576Y130429D01*
X5627Y130423D01*
X5698Y130438D01*
X5769Y130444D01*
X5817Y130464D01*
X5868Y130475D01*
X5929Y130512D01*
X5995Y130540D01*
X6051Y130585D01*
X6079Y130602D01*
X6094Y130619D01*
X6126Y130645D01*
X14646Y139165D01*
X28534Y139165D01*
X38355Y129344D01*
X38355Y115456D01*
X28534Y105635D01*
X14646Y105635D01*
X6126Y114155D01*
X6068Y114197D01*
X6016Y114246D01*
X5969Y114268D01*
X5927Y114298D01*
X5858Y114319D01*
X5793Y114350D01*
X5741Y114355D01*
X5691Y114371D01*
X5620Y114369D01*
X5549Y114377D01*
X5498Y114366D01*
X5446Y114364D01*
X5378Y114340D01*
X5308Y114325D01*
X5263Y114298D01*
X5215Y114280D01*
X5159Y114235D01*
X5097Y114198D01*
X5063Y114159D01*
X5023Y114126D01*
X4984Y114066D01*
X4937Y114011D01*
X4918Y113963D01*
X4890Y113919D01*
X4872Y113850D01*
X4845Y113783D01*
X4837Y113712D01*
X4829Y113681D01*
X4831Y113658D01*
X4827Y113617D01*
X4827Y19812D01*
X4841Y19722D01*
X4849Y19631D01*
X4861Y19601D01*
X4866Y19569D01*
X4909Y19489D01*
X4945Y19405D01*
X4971Y19373D01*
X4982Y19352D01*
X5005Y19330D01*
X5050Y19274D01*
X9274Y15050D01*
X9348Y14997D01*
X9417Y14937D01*
X9447Y14925D01*
X9473Y14906D01*
X9560Y14879D01*
X9645Y14845D01*
X9686Y14841D01*
X9709Y14834D01*
X9741Y14835D01*
X9812Y14827D01*
X894412Y14827D01*
X894432Y14830D01*
G37*
%LPC*%
G36*
X109232Y106703D02*
X109232Y106703D01*
X106906Y107666D01*
X105126Y109446D01*
X104163Y111772D01*
X104163Y114288D01*
X104836Y115914D01*
X104857Y116003D01*
X104886Y116089D01*
X104885Y116122D01*
X104893Y116153D01*
X104884Y116244D01*
X104883Y116335D01*
X104872Y116375D01*
X104870Y116398D01*
X104856Y116427D01*
X104836Y116496D01*
X104163Y118122D01*
X104163Y120638D01*
X105126Y122964D01*
X105482Y123319D01*
X105509Y123356D01*
X105542Y123387D01*
X105580Y123456D01*
X105625Y123519D01*
X105639Y123563D01*
X105661Y123603D01*
X105675Y123679D01*
X105698Y123754D01*
X105696Y123800D01*
X105705Y123845D01*
X105693Y123922D01*
X105691Y124000D01*
X105675Y124043D01*
X105669Y124088D01*
X105634Y124158D01*
X105607Y124231D01*
X105578Y124267D01*
X105557Y124307D01*
X105502Y124362D01*
X105453Y124423D01*
X105415Y124448D01*
X105382Y124480D01*
X105262Y124546D01*
X105246Y124556D01*
X105241Y124557D01*
X105235Y124561D01*
X105042Y124640D01*
X104928Y124667D01*
X104815Y124696D01*
X104809Y124695D01*
X104803Y124697D01*
X104687Y124686D01*
X104570Y124676D01*
X104564Y124674D01*
X104558Y124673D01*
X104451Y124626D01*
X104344Y124580D01*
X104338Y124576D01*
X104333Y124573D01*
X104320Y124561D01*
X104213Y124475D01*
X103914Y124176D01*
X101588Y123213D01*
X99072Y123213D01*
X96746Y124176D01*
X94966Y125956D01*
X94003Y128282D01*
X94003Y130798D01*
X94966Y133124D01*
X96746Y134904D01*
X99072Y135867D01*
X101588Y135867D01*
X101968Y135710D01*
X102081Y135683D01*
X102195Y135654D01*
X102201Y135655D01*
X102207Y135653D01*
X102323Y135664D01*
X102440Y135674D01*
X102446Y135676D01*
X102452Y135677D01*
X102559Y135724D01*
X102666Y135770D01*
X102672Y135774D01*
X102677Y135777D01*
X102690Y135789D01*
X102797Y135875D01*
X103096Y136174D01*
X105422Y137137D01*
X107938Y137137D01*
X110264Y136174D01*
X110935Y135503D01*
X111029Y135435D01*
X111123Y135365D01*
X111129Y135363D01*
X111134Y135359D01*
X111245Y135325D01*
X111357Y135289D01*
X111363Y135289D01*
X111369Y135287D01*
X111486Y135290D01*
X111603Y135291D01*
X111610Y135293D01*
X111615Y135293D01*
X111633Y135300D01*
X111764Y135338D01*
X113042Y135867D01*
X115558Y135867D01*
X117884Y134904D01*
X119477Y133311D01*
X119493Y133299D01*
X119505Y133283D01*
X119593Y133227D01*
X119676Y133167D01*
X119695Y133161D01*
X119712Y133150D01*
X119813Y133125D01*
X119912Y133095D01*
X119931Y133095D01*
X119951Y133090D01*
X120054Y133098D01*
X120157Y133101D01*
X120176Y133108D01*
X120196Y133109D01*
X120291Y133150D01*
X120388Y133186D01*
X120404Y133198D01*
X120422Y133206D01*
X120553Y133311D01*
X122146Y134904D01*
X124472Y135867D01*
X126988Y135867D01*
X129314Y134904D01*
X131094Y133124D01*
X132057Y130798D01*
X132057Y128282D01*
X131094Y125956D01*
X129314Y124176D01*
X126988Y123213D01*
X124472Y123213D01*
X123307Y123696D01*
X123237Y123712D01*
X123170Y123738D01*
X123118Y123740D01*
X123068Y123752D01*
X122996Y123745D01*
X122925Y123748D01*
X122874Y123734D01*
X122823Y123729D01*
X122757Y123700D01*
X122688Y123680D01*
X122645Y123650D01*
X122598Y123629D01*
X122545Y123580D01*
X122486Y123539D01*
X122455Y123498D01*
X122417Y123462D01*
X122382Y123399D01*
X122339Y123342D01*
X122323Y123292D01*
X122298Y123247D01*
X122285Y123176D01*
X122263Y123108D01*
X122264Y123056D01*
X122255Y123005D01*
X122265Y122934D01*
X122266Y122862D01*
X122286Y122793D01*
X122290Y122761D01*
X122301Y122741D01*
X122312Y122701D01*
X123167Y120638D01*
X123167Y118122D01*
X122494Y116496D01*
X122473Y116408D01*
X122444Y116321D01*
X122445Y116288D01*
X122437Y116257D01*
X122446Y116166D01*
X122447Y116075D01*
X122458Y116035D01*
X122460Y116012D01*
X122474Y115983D01*
X122494Y115914D01*
X123167Y114288D01*
X123167Y111772D01*
X122204Y109446D01*
X120424Y107666D01*
X118098Y106703D01*
X115582Y106703D01*
X113956Y107376D01*
X113868Y107397D01*
X113781Y107426D01*
X113748Y107425D01*
X113717Y107433D01*
X113626Y107424D01*
X113535Y107423D01*
X113495Y107412D01*
X113472Y107410D01*
X113443Y107396D01*
X113374Y107376D01*
X111748Y106703D01*
X109232Y106703D01*
G37*
%LPD*%
%LPC*%
G36*
X123202Y154963D02*
X123202Y154963D01*
X120876Y155926D01*
X120205Y156597D01*
X120111Y156665D01*
X120017Y156735D01*
X120011Y156737D01*
X120006Y156741D01*
X119895Y156775D01*
X119783Y156811D01*
X119777Y156811D01*
X119771Y156813D01*
X119654Y156810D01*
X119537Y156809D01*
X119530Y156807D01*
X119525Y156807D01*
X119507Y156800D01*
X119376Y156762D01*
X118098Y156233D01*
X115582Y156233D01*
X113321Y157170D01*
X113232Y157190D01*
X113146Y157219D01*
X113113Y157218D01*
X113082Y157226D01*
X112991Y157217D01*
X112900Y157216D01*
X112860Y157205D01*
X112837Y157203D01*
X112808Y157189D01*
X112739Y157170D01*
X110478Y156233D01*
X107962Y156233D01*
X105636Y157196D01*
X103856Y158976D01*
X102893Y161302D01*
X102893Y163818D01*
X103856Y166144D01*
X105449Y167737D01*
X105461Y167753D01*
X105477Y167765D01*
X105533Y167853D01*
X105593Y167936D01*
X105599Y167955D01*
X105610Y167972D01*
X105635Y168073D01*
X105665Y168172D01*
X105665Y168191D01*
X105670Y168211D01*
X105662Y168314D01*
X105659Y168417D01*
X105652Y168436D01*
X105651Y168456D01*
X105610Y168551D01*
X105574Y168648D01*
X105562Y168664D01*
X105554Y168682D01*
X105449Y168813D01*
X103856Y170406D01*
X102893Y172732D01*
X102893Y175248D01*
X103566Y176874D01*
X103587Y176963D01*
X103616Y177049D01*
X103615Y177082D01*
X103623Y177113D01*
X103614Y177204D01*
X103613Y177295D01*
X103602Y177335D01*
X103600Y177358D01*
X103586Y177387D01*
X103566Y177456D01*
X102893Y179082D01*
X102893Y181598D01*
X103856Y183924D01*
X105636Y185704D01*
X107962Y186667D01*
X110478Y186667D01*
X112804Y185704D01*
X113127Y185381D01*
X113143Y185369D01*
X113155Y185353D01*
X113243Y185297D01*
X113326Y185237D01*
X113345Y185231D01*
X113362Y185220D01*
X113463Y185195D01*
X113561Y185165D01*
X113581Y185165D01*
X113601Y185160D01*
X113704Y185168D01*
X113807Y185171D01*
X113826Y185178D01*
X113846Y185179D01*
X113941Y185220D01*
X114038Y185256D01*
X114054Y185268D01*
X114072Y185276D01*
X114203Y185381D01*
X114526Y185704D01*
X116852Y186667D01*
X119368Y186667D01*
X121694Y185704D01*
X123474Y183924D01*
X124437Y181598D01*
X124437Y179082D01*
X123764Y177456D01*
X123743Y177367D01*
X123714Y177281D01*
X123715Y177248D01*
X123707Y177217D01*
X123716Y177126D01*
X123717Y177035D01*
X123728Y176995D01*
X123730Y176972D01*
X123744Y176943D01*
X123764Y176874D01*
X124437Y175248D01*
X124437Y172732D01*
X123474Y170406D01*
X121610Y168543D01*
X121553Y168464D01*
X121491Y168389D01*
X121482Y168364D01*
X121466Y168343D01*
X121438Y168250D01*
X121403Y168159D01*
X121402Y168133D01*
X121394Y168108D01*
X121397Y168011D01*
X121393Y167913D01*
X121400Y167888D01*
X121400Y167862D01*
X121434Y167771D01*
X121461Y167677D01*
X121476Y167656D01*
X121485Y167631D01*
X121546Y167555D01*
X121601Y167475D01*
X121622Y167459D01*
X121639Y167439D01*
X121721Y167386D01*
X121799Y167328D01*
X121823Y167320D01*
X121846Y167306D01*
X121940Y167282D01*
X122033Y167252D01*
X122059Y167252D01*
X122084Y167246D01*
X122181Y167253D01*
X122279Y167254D01*
X122310Y167264D01*
X122329Y167265D01*
X122360Y167278D01*
X122440Y167301D01*
X123202Y167617D01*
X125718Y167617D01*
X128044Y166654D01*
X129824Y164874D01*
X130787Y162548D01*
X130787Y160032D01*
X129824Y157706D01*
X128044Y155926D01*
X125718Y154963D01*
X123202Y154963D01*
G37*
%LPD*%
%LPC*%
G36*
X96532Y189253D02*
X96532Y189253D01*
X94206Y190216D01*
X92426Y191996D01*
X91463Y194322D01*
X91463Y196838D01*
X92426Y199164D01*
X94206Y200944D01*
X96532Y201907D01*
X99048Y201907D01*
X101309Y200970D01*
X101398Y200950D01*
X101484Y200921D01*
X101517Y200922D01*
X101548Y200914D01*
X101639Y200923D01*
X101730Y200924D01*
X101770Y200935D01*
X101793Y200937D01*
X101822Y200951D01*
X101891Y200970D01*
X104152Y201907D01*
X106668Y201907D01*
X108929Y200970D01*
X109018Y200950D01*
X109104Y200921D01*
X109137Y200922D01*
X109168Y200914D01*
X109259Y200923D01*
X109350Y200924D01*
X109390Y200935D01*
X109413Y200937D01*
X109442Y200951D01*
X109511Y200970D01*
X111772Y201907D01*
X114288Y201907D01*
X116549Y200970D01*
X116638Y200950D01*
X116724Y200921D01*
X116757Y200922D01*
X116788Y200914D01*
X116879Y200923D01*
X116970Y200924D01*
X117010Y200935D01*
X117033Y200937D01*
X117062Y200951D01*
X117131Y200970D01*
X119392Y201907D01*
X121908Y201907D01*
X124169Y200970D01*
X124258Y200950D01*
X124344Y200921D01*
X124377Y200922D01*
X124408Y200914D01*
X124499Y200923D01*
X124590Y200924D01*
X124630Y200935D01*
X124653Y200937D01*
X124682Y200951D01*
X124751Y200970D01*
X127012Y201907D01*
X129528Y201907D01*
X131854Y200944D01*
X133634Y199164D01*
X134597Y196838D01*
X134597Y194322D01*
X133634Y191996D01*
X131854Y190216D01*
X129528Y189253D01*
X127012Y189253D01*
X124751Y190190D01*
X124663Y190210D01*
X124576Y190239D01*
X124543Y190238D01*
X124512Y190246D01*
X124421Y190237D01*
X124330Y190236D01*
X124290Y190225D01*
X124267Y190223D01*
X124238Y190209D01*
X124169Y190190D01*
X121908Y189253D01*
X119392Y189253D01*
X117131Y190190D01*
X117043Y190210D01*
X116956Y190239D01*
X116923Y190238D01*
X116892Y190246D01*
X116801Y190237D01*
X116710Y190236D01*
X116670Y190225D01*
X116647Y190223D01*
X116618Y190209D01*
X116549Y190190D01*
X114288Y189253D01*
X111772Y189253D01*
X109511Y190190D01*
X109423Y190210D01*
X109336Y190239D01*
X109303Y190238D01*
X109272Y190246D01*
X109181Y190237D01*
X109090Y190236D01*
X109050Y190225D01*
X109027Y190223D01*
X108998Y190209D01*
X108929Y190190D01*
X106668Y189253D01*
X104152Y189253D01*
X101891Y190190D01*
X101803Y190210D01*
X101716Y190239D01*
X101683Y190238D01*
X101652Y190246D01*
X101561Y190237D01*
X101470Y190236D01*
X101430Y190225D01*
X101407Y190223D01*
X101378Y190209D01*
X101309Y190190D01*
X99048Y189253D01*
X96532Y189253D01*
G37*
%LPD*%
%LPC*%
G36*
X111772Y83843D02*
X111772Y83843D01*
X109446Y84806D01*
X107666Y86586D01*
X106703Y88912D01*
X106703Y90206D01*
X106701Y90219D01*
X106702Y90230D01*
X106690Y90284D01*
X106684Y90321D01*
X106667Y90437D01*
X106665Y90442D01*
X106664Y90449D01*
X106609Y90551D01*
X106556Y90656D01*
X106551Y90660D01*
X106548Y90666D01*
X106464Y90746D01*
X106380Y90828D01*
X106374Y90832D01*
X106370Y90835D01*
X106353Y90843D01*
X106233Y90909D01*
X105636Y91156D01*
X103856Y92936D01*
X102893Y95262D01*
X102893Y97778D01*
X103856Y100104D01*
X105636Y101884D01*
X107962Y102847D01*
X110478Y102847D01*
X112104Y102174D01*
X112192Y102153D01*
X112279Y102124D01*
X112312Y102125D01*
X112343Y102117D01*
X112434Y102126D01*
X112525Y102127D01*
X112565Y102138D01*
X112588Y102140D01*
X112617Y102154D01*
X112686Y102174D01*
X114312Y102847D01*
X116828Y102847D01*
X118454Y102174D01*
X118542Y102153D01*
X118629Y102124D01*
X118662Y102125D01*
X118693Y102117D01*
X118784Y102126D01*
X118875Y102127D01*
X118915Y102138D01*
X118938Y102140D01*
X118967Y102154D01*
X119036Y102174D01*
X120662Y102847D01*
X123178Y102847D01*
X125504Y101884D01*
X127284Y100104D01*
X128247Y97778D01*
X128247Y95262D01*
X127284Y92936D01*
X126985Y92637D01*
X126917Y92543D01*
X126847Y92449D01*
X126845Y92443D01*
X126841Y92438D01*
X126806Y92324D01*
X126771Y92215D01*
X126771Y92209D01*
X126769Y92203D01*
X126772Y92086D01*
X126773Y91969D01*
X126775Y91962D01*
X126775Y91957D01*
X126781Y91939D01*
X126820Y91808D01*
X126977Y91428D01*
X126977Y88912D01*
X126014Y86586D01*
X124234Y84806D01*
X121908Y83843D01*
X119392Y83843D01*
X117131Y84780D01*
X117042Y84800D01*
X116956Y84829D01*
X116923Y84828D01*
X116892Y84836D01*
X116801Y84827D01*
X116710Y84826D01*
X116670Y84815D01*
X116647Y84813D01*
X116618Y84799D01*
X116549Y84780D01*
X114288Y83843D01*
X111772Y83843D01*
G37*
%LPD*%
%LPC*%
G36*
X90182Y156233D02*
X90182Y156233D01*
X87856Y157196D01*
X86076Y158976D01*
X85113Y161302D01*
X85113Y163434D01*
X85099Y163524D01*
X85091Y163615D01*
X85079Y163645D01*
X85074Y163677D01*
X85031Y163758D01*
X84995Y163841D01*
X84969Y163874D01*
X84958Y163894D01*
X84935Y163916D01*
X84890Y163972D01*
X83536Y165326D01*
X82573Y167652D01*
X82573Y168946D01*
X82554Y169061D01*
X82537Y169177D01*
X82535Y169182D01*
X82534Y169189D01*
X82479Y169291D01*
X82426Y169396D01*
X82421Y169400D01*
X82418Y169406D01*
X82334Y169486D01*
X82250Y169568D01*
X82244Y169572D01*
X82240Y169575D01*
X82223Y169583D01*
X82103Y169649D01*
X81506Y169896D01*
X79726Y171676D01*
X78763Y174002D01*
X78763Y176518D01*
X79726Y178844D01*
X81506Y180624D01*
X83832Y181587D01*
X86348Y181587D01*
X88674Y180624D01*
X90454Y178844D01*
X91417Y176518D01*
X91417Y175224D01*
X91436Y175109D01*
X91453Y174993D01*
X91455Y174988D01*
X91456Y174981D01*
X91511Y174879D01*
X91564Y174774D01*
X91569Y174770D01*
X91572Y174764D01*
X91656Y174684D01*
X91740Y174602D01*
X91746Y174598D01*
X91750Y174595D01*
X91767Y174587D01*
X91887Y174521D01*
X92484Y174274D01*
X94264Y172494D01*
X95227Y170168D01*
X95227Y168036D01*
X95241Y167946D01*
X95249Y167855D01*
X95261Y167825D01*
X95266Y167793D01*
X95309Y167712D01*
X95345Y167629D01*
X95371Y167596D01*
X95382Y167576D01*
X95405Y167554D01*
X95450Y167498D01*
X96804Y166144D01*
X97767Y163818D01*
X97767Y161302D01*
X96804Y158976D01*
X95024Y157196D01*
X92698Y156233D01*
X90182Y156233D01*
G37*
%LPD*%
%LPC*%
G36*
X138442Y162583D02*
X138442Y162583D01*
X136116Y163546D01*
X134336Y165326D01*
X133373Y167652D01*
X133373Y170168D01*
X134046Y171794D01*
X134067Y171882D01*
X134096Y171969D01*
X134095Y172002D01*
X134103Y172033D01*
X134094Y172124D01*
X134093Y172215D01*
X134082Y172255D01*
X134080Y172278D01*
X134066Y172307D01*
X134046Y172376D01*
X133373Y174002D01*
X133373Y176518D01*
X134336Y178844D01*
X136116Y180624D01*
X138442Y181587D01*
X140958Y181587D01*
X143284Y180624D01*
X145064Y178844D01*
X146027Y176518D01*
X146027Y174002D01*
X145354Y172376D01*
X145333Y172287D01*
X145304Y172201D01*
X145305Y172168D01*
X145297Y172137D01*
X145306Y172046D01*
X145307Y171955D01*
X145318Y171915D01*
X145320Y171892D01*
X145334Y171863D01*
X145354Y171794D01*
X146027Y170168D01*
X146027Y167652D01*
X145064Y165326D01*
X143284Y163546D01*
X140958Y162583D01*
X138442Y162583D01*
G37*
%LPD*%
%LPC*%
G36*
X425523Y187959D02*
X425523Y187959D01*
X425523Y201677D01*
X439241Y201677D01*
X439241Y196887D01*
X430313Y187959D01*
X425523Y187959D01*
G37*
%LPD*%
%LPC*%
G36*
X876823Y187959D02*
X876823Y187959D01*
X876823Y201677D01*
X890541Y201677D01*
X890541Y196887D01*
X881613Y187959D01*
X876823Y187959D01*
G37*
%LPD*%
%LPC*%
G36*
X232503Y184969D02*
X232503Y184969D01*
X232503Y198687D01*
X246221Y198687D01*
X246221Y193897D01*
X237293Y184969D01*
X232503Y184969D01*
G37*
%LPD*%
%LPC*%
G36*
X22643Y149889D02*
X22643Y149889D01*
X22643Y163607D01*
X36361Y163607D01*
X36361Y158817D01*
X27433Y149889D01*
X22643Y149889D01*
G37*
%LPD*%
%LPC*%
G36*
X659823Y187959D02*
X659823Y187959D01*
X659823Y201677D01*
X673541Y201677D01*
X673541Y196887D01*
X664613Y187959D01*
X659823Y187959D01*
G37*
%LPD*%
%LPC*%
G36*
X224667Y184969D02*
X224667Y184969D01*
X215739Y193897D01*
X215739Y198687D01*
X229457Y198687D01*
X229457Y184969D01*
X224667Y184969D01*
G37*
%LPD*%
%LPC*%
G36*
X417687Y187959D02*
X417687Y187959D01*
X408759Y196887D01*
X408759Y201677D01*
X422477Y201677D01*
X422477Y187959D01*
X417687Y187959D01*
G37*
%LPD*%
%LPC*%
G36*
X868987Y187959D02*
X868987Y187959D01*
X860059Y196887D01*
X860059Y201677D01*
X873777Y201677D01*
X873777Y187959D01*
X868987Y187959D01*
G37*
%LPD*%
%LPC*%
G36*
X651987Y187959D02*
X651987Y187959D01*
X643059Y196887D01*
X643059Y201677D01*
X656777Y201677D01*
X656777Y187959D01*
X651987Y187959D01*
G37*
%LPD*%
D10*
X313200Y203200D03*
X424000Y203200D03*
X20800Y197980D03*
X21120Y165130D03*
X544800Y203200D03*
X658300Y203200D03*
X771800Y203200D03*
X875300Y203200D03*
X21590Y122400D03*
X230980Y200210D03*
D11*
X109220Y180340D03*
X118110Y180340D03*
X109220Y173990D03*
X118110Y173990D03*
X128270Y195580D03*
X120650Y195580D03*
X113030Y195580D03*
X105410Y195580D03*
X97790Y195580D03*
X85090Y175260D03*
X88900Y168910D03*
X91440Y162560D03*
X109220Y162560D03*
X116840Y162560D03*
X124460Y161290D03*
X139700Y168910D03*
X139700Y175260D03*
X110490Y119380D03*
X116840Y119380D03*
X116840Y113030D03*
X110490Y113030D03*
X109220Y96520D03*
X115570Y96520D03*
X121920Y96520D03*
X113030Y90170D03*
X120650Y90170D03*
X125730Y129540D03*
X114300Y129540D03*
X106680Y130810D03*
X100330Y129540D03*
M02*
