G04 EAGLE Gerber RS-274X export*
G75*
%MOMM*%
%FSLAX34Y34*%
%LPD*%
%INTop Copper*%
%IPPOS*%
%AMOC8*
5,1,8,0,0,1.08239X$1,22.5*%
G01*
%ADD10R,0.508000X0.508000*%
%ADD11C,0.067500*%
%ADD12R,1.630000X1.430000*%
%ADD13P,2.749271X8X22.500000*%
%ADD14R,0.700000X0.600000*%
%ADD15R,1.050000X1.080000*%
%ADD16R,0.800000X0.800000*%
%ADD17R,0.600000X0.700000*%
%ADD18R,0.800000X0.300000*%
%ADD19R,1.750000X1.900000*%
%ADD20R,1.080000X1.050000*%
%ADD21R,0.711200X0.254000*%
%ADD22R,0.381000X1.320800*%
%ADD23R,0.560000X1.500000*%
%ADD24R,1.500000X2.300000*%
%ADD25R,1.400000X1.300000*%
%ADD26R,1.800000X3.200000*%
%ADD27R,1.300000X1.500000*%
%ADD28R,1.803400X1.155700*%
%ADD29C,0.381000*%
%ADD30C,0.127000*%
%ADD31C,0.452400*%

G36*
X895956Y13306D02*
X895956Y13306D01*
X895975Y13304D01*
X896077Y13326D01*
X896179Y13342D01*
X896196Y13352D01*
X896216Y13356D01*
X896305Y13409D01*
X896396Y13458D01*
X896410Y13472D01*
X896427Y13482D01*
X896494Y13561D01*
X896566Y13636D01*
X896574Y13654D01*
X896587Y13669D01*
X896626Y13765D01*
X896669Y13859D01*
X896671Y13879D01*
X896679Y13897D01*
X896697Y14064D01*
X896697Y215936D01*
X896694Y215956D01*
X896696Y215975D01*
X896674Y216077D01*
X896658Y216179D01*
X896648Y216196D01*
X896644Y216216D01*
X896591Y216305D01*
X896542Y216396D01*
X896528Y216410D01*
X896518Y216427D01*
X896439Y216494D01*
X896364Y216566D01*
X896346Y216574D01*
X896331Y216587D01*
X896235Y216626D01*
X896141Y216669D01*
X896121Y216671D01*
X896103Y216679D01*
X895936Y216697D01*
X885194Y216697D01*
X885123Y216686D01*
X885052Y216684D01*
X885003Y216666D01*
X884951Y216658D01*
X884888Y216624D01*
X884821Y216599D01*
X884780Y216567D01*
X884734Y216542D01*
X884685Y216490D01*
X884629Y216446D01*
X884601Y216402D01*
X884565Y216364D01*
X884534Y216299D01*
X884496Y216239D01*
X884483Y216188D01*
X884461Y216141D01*
X884453Y216070D01*
X884436Y216000D01*
X884440Y215948D01*
X884434Y215897D01*
X884449Y215826D01*
X884455Y215755D01*
X884475Y215707D01*
X884486Y215656D01*
X884523Y215595D01*
X884551Y215529D01*
X884596Y215473D01*
X884612Y215445D01*
X884630Y215430D01*
X884656Y215398D01*
X890541Y209513D01*
X890541Y204723D01*
X876062Y204723D01*
X876042Y204720D01*
X876023Y204722D01*
X875921Y204700D01*
X875819Y204683D01*
X875802Y204674D01*
X875782Y204670D01*
X875693Y204617D01*
X875602Y204568D01*
X875588Y204554D01*
X875571Y204544D01*
X875504Y204465D01*
X875433Y204390D01*
X875424Y204372D01*
X875411Y204357D01*
X875373Y204261D01*
X875329Y204167D01*
X875327Y204147D01*
X875319Y204129D01*
X875301Y203962D01*
X875301Y203199D01*
X875299Y203199D01*
X875299Y203962D01*
X875296Y203982D01*
X875298Y204001D01*
X875276Y204103D01*
X875259Y204205D01*
X875250Y204222D01*
X875246Y204242D01*
X875193Y204331D01*
X875144Y204422D01*
X875130Y204436D01*
X875120Y204453D01*
X875041Y204520D01*
X874966Y204591D01*
X874948Y204600D01*
X874933Y204613D01*
X874837Y204652D01*
X874743Y204695D01*
X874723Y204697D01*
X874705Y204705D01*
X874538Y204723D01*
X860059Y204723D01*
X860059Y209513D01*
X865944Y215398D01*
X865986Y215456D01*
X866035Y215508D01*
X866057Y215555D01*
X866088Y215597D01*
X866109Y215666D01*
X866139Y215731D01*
X866145Y215783D01*
X866160Y215833D01*
X866158Y215904D01*
X866166Y215975D01*
X866155Y216026D01*
X866154Y216078D01*
X866129Y216146D01*
X866114Y216216D01*
X866087Y216261D01*
X866069Y216309D01*
X866024Y216365D01*
X865988Y216427D01*
X865948Y216461D01*
X865915Y216501D01*
X865855Y216540D01*
X865801Y216587D01*
X865752Y216606D01*
X865709Y216634D01*
X865639Y216652D01*
X865573Y216679D01*
X865501Y216687D01*
X865470Y216695D01*
X865447Y216693D01*
X865406Y216697D01*
X781694Y216697D01*
X781623Y216686D01*
X781552Y216684D01*
X781503Y216666D01*
X781451Y216658D01*
X781388Y216624D01*
X781321Y216599D01*
X781280Y216567D01*
X781234Y216542D01*
X781185Y216490D01*
X781129Y216446D01*
X781101Y216402D01*
X781065Y216364D01*
X781034Y216299D01*
X780996Y216239D01*
X780983Y216188D01*
X780961Y216141D01*
X780953Y216070D01*
X780936Y216000D01*
X780940Y215948D01*
X780934Y215897D01*
X780949Y215826D01*
X780955Y215755D01*
X780975Y215707D01*
X780986Y215656D01*
X781023Y215595D01*
X781051Y215529D01*
X781096Y215473D01*
X781112Y215445D01*
X781130Y215430D01*
X781156Y215398D01*
X787041Y209513D01*
X787041Y196887D01*
X778113Y187959D01*
X765487Y187959D01*
X764568Y188879D01*
X764551Y188890D01*
X764539Y188906D01*
X764452Y188962D01*
X764368Y189022D01*
X764349Y189028D01*
X764332Y189039D01*
X764232Y189064D01*
X764133Y189095D01*
X764113Y189094D01*
X764094Y189099D01*
X763991Y189091D01*
X763887Y189088D01*
X763868Y189081D01*
X763848Y189080D01*
X763753Y189040D01*
X763656Y189004D01*
X763640Y188991D01*
X763622Y188984D01*
X763491Y188879D01*
X757492Y182879D01*
X649668Y182879D01*
X634016Y198531D01*
X633943Y198584D01*
X633873Y198644D01*
X633843Y198656D01*
X633817Y198675D01*
X633730Y198702D01*
X633645Y198736D01*
X633604Y198740D01*
X633582Y198747D01*
X633549Y198746D01*
X633478Y198754D01*
X560802Y198754D01*
X560782Y198751D01*
X560763Y198753D01*
X560661Y198731D01*
X560559Y198715D01*
X560542Y198705D01*
X560522Y198701D01*
X560433Y198648D01*
X560342Y198599D01*
X560328Y198585D01*
X560311Y198575D01*
X560244Y198496D01*
X560172Y198421D01*
X560164Y198403D01*
X560151Y198388D01*
X560112Y198292D01*
X560069Y198198D01*
X560067Y198178D01*
X560059Y198160D01*
X560041Y197993D01*
X560041Y196887D01*
X551113Y187959D01*
X538487Y187959D01*
X529559Y196887D01*
X529559Y197358D01*
X529556Y197378D01*
X529558Y197397D01*
X529536Y197499D01*
X529520Y197601D01*
X529510Y197618D01*
X529506Y197638D01*
X529453Y197727D01*
X529404Y197818D01*
X529390Y197832D01*
X529380Y197849D01*
X529301Y197916D01*
X529226Y197988D01*
X529208Y197996D01*
X529193Y198009D01*
X529097Y198048D01*
X529003Y198091D01*
X528983Y198093D01*
X528965Y198101D01*
X528798Y198119D01*
X448562Y198119D01*
X448472Y198105D01*
X448381Y198097D01*
X448351Y198085D01*
X448319Y198080D01*
X448238Y198037D01*
X448155Y198001D01*
X448122Y197975D01*
X448102Y197964D01*
X448080Y197941D01*
X448024Y197896D01*
X433007Y182879D01*
X328358Y182879D01*
X321934Y189304D01*
X321918Y189315D01*
X321905Y189331D01*
X321818Y189387D01*
X321734Y189447D01*
X321715Y189453D01*
X321698Y189464D01*
X321598Y189489D01*
X321499Y189520D01*
X321479Y189519D01*
X321460Y189524D01*
X321357Y189516D01*
X321253Y189513D01*
X321235Y189506D01*
X321215Y189505D01*
X321120Y189465D01*
X321022Y189429D01*
X321007Y189416D01*
X320988Y189409D01*
X320857Y189304D01*
X319513Y187959D01*
X306887Y187959D01*
X306033Y188814D01*
X306016Y188825D01*
X306004Y188841D01*
X305917Y188897D01*
X305833Y188957D01*
X305814Y188963D01*
X305797Y188974D01*
X305697Y188999D01*
X305598Y189030D01*
X305578Y189029D01*
X305559Y189034D01*
X305456Y189026D01*
X305352Y189023D01*
X305333Y189016D01*
X305313Y189015D01*
X305218Y188975D01*
X305121Y188939D01*
X305105Y188926D01*
X305087Y188919D01*
X304956Y188814D01*
X202723Y86581D01*
X202711Y86565D01*
X202696Y86552D01*
X202640Y86465D01*
X202579Y86381D01*
X202574Y86362D01*
X202563Y86345D01*
X202538Y86245D01*
X202507Y86146D01*
X202508Y86126D01*
X202503Y86107D01*
X202511Y86004D01*
X202513Y85900D01*
X202520Y85881D01*
X202522Y85861D01*
X202562Y85766D01*
X202598Y85669D01*
X202610Y85653D01*
X202618Y85635D01*
X202723Y85504D01*
X213361Y74867D01*
X213361Y60802D01*
X213364Y60782D01*
X213362Y60763D01*
X213384Y60661D01*
X213400Y60559D01*
X213410Y60542D01*
X213414Y60522D01*
X213467Y60433D01*
X213516Y60342D01*
X213530Y60328D01*
X213540Y60311D01*
X213619Y60244D01*
X213694Y60172D01*
X213712Y60164D01*
X213727Y60151D01*
X213823Y60112D01*
X213917Y60069D01*
X213937Y60067D01*
X213955Y60059D01*
X214122Y60041D01*
X217052Y60041D01*
X218541Y58552D01*
X218541Y41448D01*
X217052Y39959D01*
X201948Y39959D01*
X200538Y41369D01*
X200522Y41380D01*
X200510Y41396D01*
X200422Y41452D01*
X200339Y41512D01*
X200320Y41518D01*
X200303Y41529D01*
X200202Y41554D01*
X200103Y41584D01*
X200084Y41584D01*
X200064Y41589D01*
X199961Y41581D01*
X199858Y41578D01*
X199839Y41571D01*
X199819Y41570D01*
X199724Y41529D01*
X199627Y41494D01*
X199611Y41481D01*
X199593Y41473D01*
X199462Y41369D01*
X198052Y39959D01*
X182948Y39959D01*
X181459Y41448D01*
X181459Y44958D01*
X181456Y44978D01*
X181458Y44997D01*
X181436Y45099D01*
X181420Y45201D01*
X181410Y45218D01*
X181406Y45238D01*
X181353Y45327D01*
X181304Y45418D01*
X181290Y45432D01*
X181280Y45449D01*
X181201Y45516D01*
X181126Y45588D01*
X181108Y45596D01*
X181093Y45609D01*
X180997Y45648D01*
X180903Y45691D01*
X180883Y45693D01*
X180865Y45701D01*
X180698Y45719D01*
X170243Y45719D01*
X150891Y65072D01*
X150875Y65084D01*
X150862Y65099D01*
X150775Y65155D01*
X150691Y65216D01*
X150672Y65221D01*
X150655Y65232D01*
X150555Y65258D01*
X150456Y65288D01*
X150436Y65287D01*
X150417Y65292D01*
X150314Y65284D01*
X150210Y65282D01*
X150191Y65275D01*
X150171Y65273D01*
X150077Y65233D01*
X149979Y65197D01*
X149963Y65185D01*
X149945Y65177D01*
X149814Y65072D01*
X149121Y64379D01*
X140388Y64379D01*
X140275Y64361D01*
X140161Y64345D01*
X140152Y64341D01*
X140145Y64340D01*
X140126Y64329D01*
X140008Y64277D01*
X139906Y64218D01*
X139259Y64045D01*
X137755Y64045D01*
X137684Y64034D01*
X137612Y64032D01*
X137563Y64014D01*
X137512Y64006D01*
X137449Y63972D01*
X137381Y63947D01*
X137341Y63915D01*
X137295Y63890D01*
X137245Y63838D01*
X137189Y63794D01*
X137161Y63750D01*
X137125Y63712D01*
X137095Y63647D01*
X137056Y63587D01*
X137044Y63536D01*
X137022Y63489D01*
X137014Y63418D01*
X136996Y63348D01*
X137000Y63296D01*
X136995Y63245D01*
X137010Y63174D01*
X137015Y63103D01*
X137036Y63055D01*
X137047Y63004D01*
X137084Y62943D01*
X137112Y62877D01*
X137156Y62821D01*
X137173Y62793D01*
X137191Y62778D01*
X137216Y62746D01*
X138144Y61819D01*
X140971Y58992D01*
X140971Y39433D01*
X136114Y34576D01*
X136019Y34481D01*
X136007Y34465D01*
X135991Y34452D01*
X135935Y34366D01*
X135875Y34282D01*
X135869Y34262D01*
X135858Y34245D01*
X135833Y34145D01*
X135803Y34047D01*
X135803Y34026D01*
X135798Y34007D01*
X135806Y33904D01*
X135809Y33801D01*
X135816Y33782D01*
X135817Y33762D01*
X135831Y33730D01*
X135831Y18488D01*
X134342Y16999D01*
X118238Y16999D01*
X116749Y18488D01*
X116749Y30988D01*
X116746Y31008D01*
X116748Y31027D01*
X116726Y31129D01*
X116710Y31231D01*
X116700Y31248D01*
X116696Y31268D01*
X116643Y31357D01*
X116594Y31448D01*
X116580Y31462D01*
X116570Y31479D01*
X116491Y31546D01*
X116416Y31618D01*
X116398Y31626D01*
X116383Y31639D01*
X116287Y31678D01*
X116193Y31721D01*
X116173Y31723D01*
X116155Y31731D01*
X115988Y31749D01*
X112647Y31749D01*
X112557Y31735D01*
X112466Y31727D01*
X112436Y31715D01*
X112404Y31710D01*
X112323Y31667D01*
X112240Y31631D01*
X112207Y31605D01*
X112187Y31594D01*
X112165Y31571D01*
X112109Y31526D01*
X98997Y18414D01*
X40068Y18414D01*
X14604Y43878D01*
X14604Y60228D01*
X14601Y60248D01*
X14603Y60267D01*
X14581Y60369D01*
X14565Y60471D01*
X14555Y60488D01*
X14551Y60508D01*
X14498Y60597D01*
X14449Y60688D01*
X14435Y60702D01*
X14425Y60719D01*
X14346Y60786D01*
X14271Y60858D01*
X14253Y60866D01*
X14238Y60879D01*
X14142Y60918D01*
X14048Y60961D01*
X14028Y60963D01*
X14010Y60971D01*
X13843Y60989D01*
X8778Y60989D01*
X7289Y62478D01*
X7289Y96582D01*
X8778Y98071D01*
X15748Y98071D01*
X15768Y98074D01*
X15787Y98072D01*
X15889Y98094D01*
X15991Y98110D01*
X16008Y98120D01*
X16028Y98124D01*
X16117Y98177D01*
X16208Y98226D01*
X16222Y98240D01*
X16239Y98250D01*
X16306Y98329D01*
X16378Y98404D01*
X16386Y98422D01*
X16399Y98437D01*
X16438Y98533D01*
X16481Y98627D01*
X16483Y98647D01*
X16491Y98665D01*
X16509Y98832D01*
X16509Y106398D01*
X16506Y106418D01*
X16508Y106437D01*
X16486Y106539D01*
X16470Y106641D01*
X16460Y106658D01*
X16456Y106678D01*
X16403Y106767D01*
X16354Y106858D01*
X16340Y106872D01*
X16330Y106889D01*
X16251Y106956D01*
X16176Y107028D01*
X16158Y107036D01*
X16143Y107049D01*
X16047Y107088D01*
X15953Y107131D01*
X15933Y107133D01*
X15915Y107141D01*
X15748Y107159D01*
X15277Y107159D01*
X6349Y116087D01*
X6349Y128713D01*
X15277Y137641D01*
X27903Y137641D01*
X31970Y133574D01*
X32044Y133521D01*
X32113Y133461D01*
X32144Y133449D01*
X32170Y133430D01*
X32257Y133403D01*
X32342Y133369D01*
X32382Y133365D01*
X32405Y133358D01*
X32437Y133359D01*
X32508Y133351D01*
X49098Y133351D01*
X49118Y133354D01*
X49137Y133352D01*
X49239Y133374D01*
X49341Y133390D01*
X49358Y133400D01*
X49378Y133404D01*
X49467Y133457D01*
X49558Y133506D01*
X49572Y133520D01*
X49589Y133530D01*
X49656Y133609D01*
X49728Y133684D01*
X49736Y133702D01*
X49749Y133717D01*
X49788Y133813D01*
X49831Y133907D01*
X49833Y133927D01*
X49841Y133945D01*
X49859Y134112D01*
X49859Y135572D01*
X51348Y137061D01*
X64252Y137061D01*
X65741Y135572D01*
X65741Y122968D01*
X64252Y121479D01*
X51348Y121479D01*
X49859Y122968D01*
X49859Y123698D01*
X49857Y123712D01*
X49858Y123723D01*
X49857Y123728D01*
X49858Y123737D01*
X49836Y123839D01*
X49820Y123941D01*
X49810Y123958D01*
X49806Y123978D01*
X49753Y124067D01*
X49704Y124158D01*
X49690Y124172D01*
X49680Y124189D01*
X49601Y124256D01*
X49526Y124328D01*
X49508Y124336D01*
X49493Y124349D01*
X49397Y124388D01*
X49303Y124431D01*
X49283Y124433D01*
X49265Y124441D01*
X49098Y124459D01*
X37592Y124459D01*
X37572Y124456D01*
X37553Y124458D01*
X37451Y124436D01*
X37349Y124420D01*
X37332Y124410D01*
X37312Y124406D01*
X37223Y124353D01*
X37132Y124304D01*
X37118Y124290D01*
X37101Y124280D01*
X37034Y124201D01*
X36962Y124126D01*
X36954Y124108D01*
X36941Y124093D01*
X36902Y123997D01*
X36859Y123903D01*
X36857Y123883D01*
X36849Y123865D01*
X36831Y123698D01*
X36831Y116087D01*
X27903Y107159D01*
X26162Y107159D01*
X26142Y107156D01*
X26123Y107158D01*
X26021Y107136D01*
X25919Y107120D01*
X25902Y107110D01*
X25882Y107106D01*
X25793Y107053D01*
X25702Y107004D01*
X25688Y106990D01*
X25671Y106980D01*
X25604Y106901D01*
X25532Y106826D01*
X25524Y106808D01*
X25511Y106793D01*
X25472Y106697D01*
X25429Y106603D01*
X25427Y106583D01*
X25419Y106565D01*
X25401Y106398D01*
X25401Y98832D01*
X25404Y98812D01*
X25402Y98793D01*
X25424Y98691D01*
X25440Y98589D01*
X25450Y98572D01*
X25454Y98552D01*
X25507Y98463D01*
X25556Y98372D01*
X25570Y98358D01*
X25580Y98341D01*
X25659Y98274D01*
X25734Y98202D01*
X25752Y98194D01*
X25767Y98181D01*
X25863Y98142D01*
X25957Y98099D01*
X25977Y98097D01*
X25995Y98089D01*
X26162Y98071D01*
X28882Y98071D01*
X30371Y96582D01*
X30371Y62478D01*
X28882Y60989D01*
X24257Y60989D01*
X24237Y60986D01*
X24218Y60988D01*
X24116Y60966D01*
X24014Y60950D01*
X23997Y60940D01*
X23977Y60936D01*
X23888Y60883D01*
X23797Y60834D01*
X23783Y60820D01*
X23766Y60810D01*
X23699Y60731D01*
X23627Y60656D01*
X23619Y60638D01*
X23606Y60623D01*
X23567Y60527D01*
X23524Y60433D01*
X23522Y60413D01*
X23514Y60395D01*
X23496Y60228D01*
X23496Y47877D01*
X23510Y47787D01*
X23518Y47696D01*
X23530Y47666D01*
X23535Y47634D01*
X23578Y47553D01*
X23614Y47470D01*
X23640Y47437D01*
X23651Y47417D01*
X23674Y47395D01*
X23719Y47339D01*
X31540Y39517D01*
X31598Y39476D01*
X31650Y39426D01*
X31697Y39404D01*
X31739Y39374D01*
X31808Y39353D01*
X31873Y39323D01*
X31925Y39317D01*
X31975Y39302D01*
X32046Y39303D01*
X32117Y39296D01*
X32168Y39307D01*
X32220Y39308D01*
X32288Y39333D01*
X32358Y39348D01*
X32403Y39375D01*
X32451Y39392D01*
X32507Y39437D01*
X32569Y39474D01*
X32603Y39514D01*
X32643Y39546D01*
X32682Y39606D01*
X32729Y39661D01*
X32748Y39709D01*
X32776Y39753D01*
X32794Y39822D01*
X32821Y39889D01*
X32829Y39960D01*
X32837Y39992D01*
X32835Y40015D01*
X32839Y40056D01*
X32839Y40511D01*
X37542Y40511D01*
X37561Y40514D01*
X37581Y40512D01*
X37683Y40534D01*
X37785Y40550D01*
X37802Y40560D01*
X37822Y40564D01*
X37911Y40617D01*
X38002Y40666D01*
X38016Y40680D01*
X38033Y40690D01*
X38100Y40769D01*
X38171Y40844D01*
X38180Y40862D01*
X38193Y40877D01*
X38231Y40973D01*
X38275Y41067D01*
X38277Y41087D01*
X38285Y41105D01*
X38303Y41272D01*
X38303Y41787D01*
X38818Y41787D01*
X38838Y41790D01*
X38857Y41788D01*
X38959Y41810D01*
X39061Y41827D01*
X39078Y41836D01*
X39098Y41840D01*
X39187Y41893D01*
X39278Y41942D01*
X39292Y41956D01*
X39309Y41966D01*
X39376Y42045D01*
X39448Y42120D01*
X39456Y42138D01*
X39469Y42153D01*
X39508Y42250D01*
X39551Y42343D01*
X39553Y42363D01*
X39561Y42381D01*
X39579Y42548D01*
X39579Y51951D01*
X41314Y51951D01*
X41961Y51778D01*
X42592Y51413D01*
X42633Y51398D01*
X42670Y51374D01*
X42747Y51354D01*
X42822Y51326D01*
X42866Y51324D01*
X42908Y51314D01*
X42988Y51320D01*
X43068Y51317D01*
X43110Y51330D01*
X43154Y51333D01*
X43227Y51364D01*
X43304Y51387D01*
X43340Y51412D01*
X43380Y51429D01*
X43494Y51520D01*
X43505Y51528D01*
X43507Y51531D01*
X43511Y51534D01*
X43928Y51951D01*
X51632Y51951D01*
X53121Y50462D01*
X53121Y47117D01*
X53124Y47097D01*
X53122Y47078D01*
X53144Y46976D01*
X53160Y46874D01*
X53170Y46857D01*
X53174Y46837D01*
X53227Y46748D01*
X53276Y46657D01*
X53290Y46643D01*
X53300Y46626D01*
X53379Y46559D01*
X53454Y46487D01*
X53472Y46479D01*
X53487Y46466D01*
X53583Y46427D01*
X53677Y46384D01*
X53697Y46382D01*
X53715Y46374D01*
X53882Y46356D01*
X76988Y46356D01*
X77008Y46359D01*
X77027Y46357D01*
X77129Y46379D01*
X77231Y46395D01*
X77248Y46405D01*
X77268Y46409D01*
X77357Y46462D01*
X77448Y46511D01*
X77462Y46525D01*
X77479Y46535D01*
X77546Y46614D01*
X77618Y46689D01*
X77626Y46707D01*
X77639Y46722D01*
X77678Y46818D01*
X77721Y46912D01*
X77723Y46932D01*
X77731Y46950D01*
X77749Y47117D01*
X77749Y50092D01*
X79238Y51581D01*
X94599Y51581D01*
X94670Y51592D01*
X94742Y51594D01*
X94791Y51612D01*
X94842Y51620D01*
X94905Y51654D01*
X94973Y51679D01*
X95013Y51711D01*
X95059Y51736D01*
X95109Y51787D01*
X95165Y51832D01*
X95193Y51876D01*
X95229Y51914D01*
X95259Y51979D01*
X95298Y52039D01*
X95310Y52090D01*
X95332Y52137D01*
X95340Y52208D01*
X95358Y52278D01*
X95354Y52330D01*
X95359Y52381D01*
X95344Y52452D01*
X95339Y52523D01*
X95318Y52571D01*
X95307Y52622D01*
X95270Y52683D01*
X95242Y52749D01*
X95198Y52805D01*
X95181Y52833D01*
X95163Y52848D01*
X95138Y52880D01*
X86494Y61524D01*
X86478Y61536D01*
X86465Y61551D01*
X86378Y61607D01*
X86294Y61668D01*
X86275Y61673D01*
X86258Y61684D01*
X86158Y61710D01*
X86059Y61740D01*
X86039Y61739D01*
X86020Y61744D01*
X85917Y61736D01*
X85813Y61734D01*
X85794Y61727D01*
X85774Y61725D01*
X85680Y61685D01*
X85582Y61649D01*
X85566Y61637D01*
X85548Y61629D01*
X85417Y61524D01*
X84882Y60989D01*
X64778Y60989D01*
X63289Y62478D01*
X63289Y96582D01*
X64778Y98071D01*
X72266Y98071D01*
X72337Y98082D01*
X72409Y98084D01*
X72458Y98102D01*
X72509Y98110D01*
X72572Y98144D01*
X72640Y98169D01*
X72680Y98201D01*
X72726Y98226D01*
X72776Y98278D01*
X72832Y98322D01*
X72860Y98366D01*
X72896Y98404D01*
X72926Y98469D01*
X72965Y98529D01*
X72978Y98580D01*
X72999Y98627D01*
X73007Y98698D01*
X73025Y98768D01*
X73021Y98820D01*
X73027Y98871D01*
X73011Y98942D01*
X73006Y99013D01*
X72985Y99061D01*
X72974Y99112D01*
X72937Y99173D01*
X72909Y99239D01*
X72865Y99295D01*
X72848Y99323D01*
X72830Y99338D01*
X72805Y99370D01*
X71312Y100863D01*
X71312Y114524D01*
X72770Y115982D01*
X72781Y115998D01*
X72797Y116010D01*
X72853Y116098D01*
X72913Y116181D01*
X72919Y116200D01*
X72930Y116217D01*
X72955Y116318D01*
X72985Y116417D01*
X72985Y116436D01*
X72990Y116456D01*
X72982Y116559D01*
X72979Y116662D01*
X72972Y116681D01*
X72971Y116701D01*
X72930Y116796D01*
X72895Y116893D01*
X72882Y116909D01*
X72874Y116927D01*
X72770Y117058D01*
X71312Y118516D01*
X71312Y132177D01*
X72801Y133666D01*
X92939Y133666D01*
X94440Y132165D01*
X94441Y132125D01*
X94459Y132076D01*
X94467Y132025D01*
X94501Y131962D01*
X94526Y131894D01*
X94558Y131854D01*
X94583Y131807D01*
X94635Y131758D01*
X94679Y131702D01*
X94723Y131674D01*
X94761Y131638D01*
X94826Y131608D01*
X94886Y131569D01*
X94937Y131556D01*
X94984Y131534D01*
X95055Y131527D01*
X95125Y131509D01*
X95177Y131513D01*
X95228Y131507D01*
X95299Y131523D01*
X95370Y131528D01*
X95418Y131549D01*
X95469Y131560D01*
X95530Y131596D01*
X95596Y131625D01*
X95652Y131669D01*
X95680Y131686D01*
X95695Y131704D01*
X95727Y131729D01*
X98341Y134343D01*
X102319Y134343D01*
X102332Y134330D01*
X102348Y134319D01*
X102360Y134303D01*
X102448Y134247D01*
X102531Y134187D01*
X102550Y134181D01*
X102567Y134170D01*
X102668Y134145D01*
X102767Y134114D01*
X102786Y134115D01*
X102806Y134110D01*
X102909Y134118D01*
X103012Y134121D01*
X103031Y134128D01*
X103051Y134129D01*
X103146Y134170D01*
X103243Y134205D01*
X103259Y134218D01*
X103277Y134226D01*
X103408Y134330D01*
X104691Y135613D01*
X108669Y135613D01*
X110587Y133695D01*
X110603Y133684D01*
X110615Y133668D01*
X110703Y133612D01*
X110786Y133552D01*
X110805Y133546D01*
X110822Y133535D01*
X110923Y133510D01*
X111022Y133479D01*
X111041Y133480D01*
X111061Y133475D01*
X111164Y133483D01*
X111267Y133486D01*
X111286Y133493D01*
X111306Y133494D01*
X111401Y133535D01*
X111498Y133570D01*
X111514Y133583D01*
X111532Y133591D01*
X111663Y133695D01*
X111667Y133699D01*
X111677Y133714D01*
X111690Y133724D01*
X111691Y133726D01*
X111694Y133728D01*
X111750Y133815D01*
X111811Y133899D01*
X111816Y133918D01*
X111827Y133935D01*
X111853Y134035D01*
X111883Y134134D01*
X111882Y134154D01*
X111887Y134173D01*
X111879Y134276D01*
X111877Y134380D01*
X111870Y134399D01*
X111868Y134418D01*
X111828Y134513D01*
X111792Y134611D01*
X111780Y134626D01*
X111772Y134645D01*
X111667Y134776D01*
X108556Y137886D01*
X108482Y137939D01*
X108413Y137999D01*
X108383Y138011D01*
X108357Y138030D01*
X108270Y138057D01*
X108185Y138091D01*
X108144Y138095D01*
X108122Y138102D01*
X108089Y138101D01*
X108018Y138109D01*
X99248Y138109D01*
X97759Y139598D01*
X97759Y147098D01*
X97745Y147188D01*
X97737Y147279D01*
X97725Y147309D01*
X97720Y147341D01*
X97677Y147422D01*
X97641Y147505D01*
X97615Y147538D01*
X97604Y147558D01*
X97581Y147580D01*
X97536Y147636D01*
X96519Y148653D01*
X96519Y159009D01*
X96508Y159080D01*
X96506Y159152D01*
X96488Y159201D01*
X96480Y159252D01*
X96446Y159315D01*
X96421Y159383D01*
X96389Y159423D01*
X96364Y159470D01*
X96312Y159519D01*
X96268Y159575D01*
X96224Y159603D01*
X96186Y159639D01*
X96121Y159669D01*
X96061Y159708D01*
X96010Y159721D01*
X95963Y159743D01*
X95892Y159750D01*
X95822Y159768D01*
X95770Y159764D01*
X95719Y159770D01*
X95648Y159754D01*
X95577Y159749D01*
X95529Y159728D01*
X95478Y159717D01*
X95417Y159681D01*
X95351Y159652D01*
X95295Y159608D01*
X95267Y159591D01*
X95252Y159573D01*
X95220Y159548D01*
X93429Y157757D01*
X89451Y157757D01*
X86637Y160571D01*
X86637Y164065D01*
X86623Y164155D01*
X86615Y164246D01*
X86603Y164276D01*
X86598Y164308D01*
X86555Y164389D01*
X86519Y164473D01*
X86493Y164505D01*
X86482Y164525D01*
X86459Y164548D01*
X86414Y164604D01*
X84097Y166921D01*
X84097Y169696D01*
X84094Y169716D01*
X84096Y169735D01*
X84074Y169837D01*
X84058Y169939D01*
X84048Y169956D01*
X84044Y169976D01*
X83991Y170065D01*
X83942Y170156D01*
X83928Y170170D01*
X83918Y170187D01*
X83839Y170254D01*
X83764Y170326D01*
X83746Y170334D01*
X83731Y170347D01*
X83635Y170386D01*
X83541Y170429D01*
X83521Y170431D01*
X83503Y170439D01*
X83336Y170457D01*
X83101Y170457D01*
X80287Y173271D01*
X80287Y176403D01*
X80284Y176423D01*
X80286Y176442D01*
X80264Y176544D01*
X80248Y176646D01*
X80238Y176663D01*
X80234Y176683D01*
X80181Y176772D01*
X80132Y176863D01*
X80118Y176877D01*
X80108Y176894D01*
X80029Y176961D01*
X79954Y177033D01*
X79936Y177041D01*
X79921Y177054D01*
X79825Y177093D01*
X79731Y177136D01*
X79711Y177138D01*
X79693Y177146D01*
X79526Y177164D01*
X62293Y177164D01*
X57121Y182336D01*
X57048Y182389D01*
X56978Y182449D01*
X56948Y182461D01*
X56922Y182480D01*
X56835Y182507D01*
X56750Y182541D01*
X56709Y182545D01*
X56687Y182552D01*
X56654Y182551D01*
X56583Y182559D01*
X48448Y182559D01*
X46959Y184048D01*
X46959Y186563D01*
X46956Y186583D01*
X46958Y186602D01*
X46936Y186704D01*
X46920Y186806D01*
X46910Y186823D01*
X46906Y186843D01*
X46853Y186932D01*
X46804Y187023D01*
X46790Y187037D01*
X46780Y187054D01*
X46701Y187121D01*
X46626Y187193D01*
X46608Y187201D01*
X46593Y187214D01*
X46497Y187253D01*
X46403Y187296D01*
X46383Y187298D01*
X46365Y187306D01*
X46198Y187324D01*
X32013Y187324D01*
X31923Y187310D01*
X31832Y187302D01*
X31802Y187290D01*
X31770Y187285D01*
X31690Y187242D01*
X31606Y187206D01*
X31574Y187180D01*
X31553Y187169D01*
X31531Y187146D01*
X31475Y187101D01*
X27113Y182739D01*
X14487Y182739D01*
X5559Y191667D01*
X5559Y204293D01*
X14487Y213221D01*
X27113Y213221D01*
X36041Y204293D01*
X36041Y196977D01*
X36044Y196957D01*
X36042Y196938D01*
X36064Y196836D01*
X36080Y196734D01*
X36090Y196717D01*
X36094Y196697D01*
X36147Y196608D01*
X36196Y196517D01*
X36210Y196503D01*
X36220Y196486D01*
X36299Y196419D01*
X36374Y196347D01*
X36392Y196339D01*
X36407Y196326D01*
X36503Y196287D01*
X36597Y196244D01*
X36617Y196242D01*
X36635Y196234D01*
X36802Y196216D01*
X46198Y196216D01*
X46218Y196219D01*
X46237Y196217D01*
X46339Y196239D01*
X46441Y196255D01*
X46458Y196265D01*
X46478Y196269D01*
X46567Y196322D01*
X46658Y196371D01*
X46672Y196385D01*
X46689Y196395D01*
X46756Y196474D01*
X46828Y196549D01*
X46836Y196567D01*
X46849Y196582D01*
X46888Y196678D01*
X46931Y196772D01*
X46933Y196792D01*
X46941Y196810D01*
X46956Y196949D01*
X48448Y198441D01*
X61052Y198441D01*
X62541Y196952D01*
X62541Y189807D01*
X62555Y189717D01*
X62563Y189626D01*
X62575Y189596D01*
X62580Y189564D01*
X62623Y189484D01*
X62659Y189400D01*
X62685Y189367D01*
X62696Y189347D01*
X62719Y189325D01*
X62764Y189269D01*
X63160Y188873D01*
X63218Y188831D01*
X63270Y188781D01*
X63317Y188759D01*
X63359Y188729D01*
X63428Y188708D01*
X63493Y188678D01*
X63545Y188672D01*
X63595Y188657D01*
X63666Y188658D01*
X63737Y188651D01*
X63788Y188662D01*
X63840Y188663D01*
X63908Y188688D01*
X63978Y188703D01*
X64023Y188730D01*
X64071Y188747D01*
X64127Y188792D01*
X64189Y188829D01*
X64223Y188869D01*
X64263Y188901D01*
X64302Y188961D01*
X64315Y188977D01*
X71488Y188977D01*
X71508Y188980D01*
X71527Y188978D01*
X71629Y189000D01*
X71731Y189017D01*
X71748Y189026D01*
X71768Y189030D01*
X71857Y189083D01*
X71948Y189132D01*
X71962Y189146D01*
X71979Y189156D01*
X72046Y189235D01*
X72117Y189310D01*
X72126Y189328D01*
X72139Y189343D01*
X72178Y189439D01*
X72221Y189533D01*
X72223Y189553D01*
X72231Y189571D01*
X72249Y189738D01*
X72249Y190501D01*
X72251Y190501D01*
X72251Y189738D01*
X72254Y189718D01*
X72252Y189699D01*
X72274Y189597D01*
X72291Y189495D01*
X72300Y189478D01*
X72304Y189458D01*
X72357Y189369D01*
X72406Y189278D01*
X72420Y189264D01*
X72430Y189247D01*
X72509Y189180D01*
X72584Y189109D01*
X72602Y189100D01*
X72617Y189087D01*
X72713Y189048D01*
X72807Y189005D01*
X72827Y189003D01*
X72845Y188995D01*
X73012Y188977D01*
X79504Y188977D01*
X79594Y188992D01*
X79685Y188999D01*
X79715Y189011D01*
X79747Y189017D01*
X79828Y189059D01*
X79912Y189095D01*
X79944Y189121D01*
X79964Y189132D01*
X79987Y189155D01*
X80043Y189200D01*
X80073Y189231D01*
X97569Y189231D01*
X97609Y189237D01*
X97649Y189235D01*
X97811Y189270D01*
X97812Y189270D01*
X97812Y189271D01*
X97813Y189271D01*
X97883Y189295D01*
X97884Y189295D01*
X97982Y189347D01*
X98101Y189410D01*
X98182Y189495D01*
X98270Y189588D01*
X98271Y189588D01*
X98320Y189694D01*
X98374Y189811D01*
X98374Y189812D01*
X98385Y189913D01*
X98401Y190055D01*
X98401Y190056D01*
X98375Y190173D01*
X98349Y190296D01*
X98348Y190296D01*
X98290Y190394D01*
X98222Y190507D01*
X98128Y190588D01*
X98036Y190667D01*
X98035Y190667D01*
X97938Y190706D01*
X97807Y190759D01*
X97806Y190759D01*
X97641Y190777D01*
X95801Y190777D01*
X92987Y193591D01*
X92987Y197569D01*
X95801Y200383D01*
X99779Y200383D01*
X101062Y199100D01*
X101078Y199089D01*
X101090Y199073D01*
X101178Y199017D01*
X101261Y198957D01*
X101280Y198951D01*
X101297Y198940D01*
X101398Y198915D01*
X101497Y198884D01*
X101516Y198885D01*
X101536Y198880D01*
X101639Y198888D01*
X101742Y198891D01*
X101761Y198898D01*
X101781Y198899D01*
X101876Y198940D01*
X101973Y198975D01*
X101989Y198988D01*
X102007Y198996D01*
X102138Y199100D01*
X103421Y200383D01*
X107399Y200383D01*
X108682Y199100D01*
X108698Y199089D01*
X108710Y199073D01*
X108798Y199017D01*
X108881Y198957D01*
X108900Y198951D01*
X108917Y198940D01*
X109018Y198915D01*
X109117Y198884D01*
X109136Y198885D01*
X109156Y198880D01*
X109259Y198888D01*
X109362Y198891D01*
X109381Y198898D01*
X109401Y198899D01*
X109496Y198940D01*
X109593Y198975D01*
X109609Y198988D01*
X109627Y198996D01*
X109758Y199100D01*
X111041Y200383D01*
X115019Y200383D01*
X116302Y199100D01*
X116318Y199089D01*
X116330Y199073D01*
X116418Y199017D01*
X116501Y198957D01*
X116520Y198951D01*
X116537Y198940D01*
X116638Y198915D01*
X116737Y198884D01*
X116756Y198885D01*
X116776Y198880D01*
X116879Y198888D01*
X116982Y198891D01*
X117001Y198898D01*
X117021Y198899D01*
X117116Y198940D01*
X117213Y198975D01*
X117229Y198988D01*
X117247Y198996D01*
X117378Y199100D01*
X118661Y200383D01*
X122639Y200383D01*
X123922Y199100D01*
X123938Y199089D01*
X123950Y199073D01*
X124038Y199017D01*
X124121Y198957D01*
X124140Y198951D01*
X124157Y198940D01*
X124258Y198915D01*
X124357Y198884D01*
X124376Y198885D01*
X124396Y198880D01*
X124499Y198888D01*
X124602Y198891D01*
X124621Y198898D01*
X124641Y198899D01*
X124736Y198940D01*
X124833Y198975D01*
X124849Y198988D01*
X124867Y198996D01*
X124998Y199100D01*
X126281Y200383D01*
X130259Y200383D01*
X133073Y197569D01*
X133073Y193591D01*
X130259Y190777D01*
X126281Y190777D01*
X124998Y192060D01*
X124982Y192071D01*
X124970Y192087D01*
X124882Y192143D01*
X124799Y192203D01*
X124780Y192209D01*
X124763Y192220D01*
X124662Y192245D01*
X124563Y192276D01*
X124544Y192275D01*
X124524Y192280D01*
X124421Y192272D01*
X124318Y192269D01*
X124299Y192262D01*
X124279Y192261D01*
X124184Y192220D01*
X124087Y192185D01*
X124071Y192172D01*
X124053Y192164D01*
X123922Y192060D01*
X122639Y190777D01*
X118661Y190777D01*
X117378Y192060D01*
X117362Y192071D01*
X117350Y192087D01*
X117262Y192143D01*
X117179Y192203D01*
X117160Y192209D01*
X117143Y192220D01*
X117042Y192245D01*
X116943Y192276D01*
X116924Y192275D01*
X116904Y192280D01*
X116801Y192272D01*
X116698Y192269D01*
X116679Y192262D01*
X116659Y192261D01*
X116564Y192220D01*
X116467Y192185D01*
X116451Y192172D01*
X116433Y192164D01*
X116302Y192060D01*
X115019Y190777D01*
X111041Y190777D01*
X109758Y192060D01*
X109742Y192071D01*
X109730Y192087D01*
X109642Y192143D01*
X109559Y192203D01*
X109540Y192209D01*
X109523Y192220D01*
X109422Y192245D01*
X109323Y192276D01*
X109304Y192275D01*
X109284Y192280D01*
X109181Y192272D01*
X109078Y192269D01*
X109059Y192262D01*
X109039Y192261D01*
X108944Y192220D01*
X108847Y192185D01*
X108831Y192172D01*
X108813Y192164D01*
X108682Y192060D01*
X107399Y190777D01*
X103421Y190777D01*
X102138Y192060D01*
X102122Y192071D01*
X102110Y192087D01*
X102022Y192143D01*
X101939Y192203D01*
X101920Y192209D01*
X101903Y192220D01*
X101802Y192245D01*
X101703Y192276D01*
X101684Y192275D01*
X101664Y192280D01*
X101561Y192272D01*
X101458Y192269D01*
X101439Y192262D01*
X101419Y192261D01*
X101324Y192220D01*
X101227Y192185D01*
X101211Y192172D01*
X101193Y192164D01*
X101062Y192060D01*
X100240Y191238D01*
X100229Y191222D01*
X100213Y191209D01*
X100157Y191122D01*
X100097Y191039D01*
X100091Y191019D01*
X100080Y191002D01*
X100055Y190902D01*
X100024Y190803D01*
X100025Y190783D01*
X100020Y190763D01*
X100028Y190661D01*
X100031Y190558D01*
X100038Y190538D01*
X100039Y190518D01*
X100080Y190424D01*
X100115Y190327D01*
X100128Y190311D01*
X100136Y190292D01*
X100204Y190215D01*
X100269Y190135D01*
X100286Y190124D01*
X100300Y190108D01*
X100441Y190018D01*
X101952Y189270D01*
X102038Y189243D01*
X102123Y189209D01*
X102164Y189205D01*
X102187Y189198D01*
X102219Y189199D01*
X102289Y189191D01*
X105005Y189191D01*
X106482Y187714D01*
X106556Y187661D01*
X106625Y187601D01*
X106655Y187589D01*
X106681Y187570D01*
X106768Y187543D01*
X106853Y187509D01*
X106894Y187505D01*
X106917Y187498D01*
X106949Y187499D01*
X107020Y187491D01*
X112777Y187491D01*
X112777Y183891D01*
X112792Y183801D01*
X112799Y183710D01*
X112811Y183680D01*
X112817Y183648D01*
X112859Y183567D01*
X112895Y183483D01*
X112921Y183451D01*
X112932Y183430D01*
X112955Y183408D01*
X113000Y183352D01*
X113127Y183225D01*
X113143Y183214D01*
X113155Y183198D01*
X113243Y183142D01*
X113326Y183082D01*
X113345Y183076D01*
X113362Y183065D01*
X113462Y183040D01*
X113561Y183009D01*
X113581Y183010D01*
X113601Y183005D01*
X113704Y183013D01*
X113807Y183016D01*
X113826Y183023D01*
X113846Y183024D01*
X113941Y183065D01*
X114038Y183100D01*
X114054Y183113D01*
X114072Y183121D01*
X114203Y183225D01*
X115600Y184622D01*
X115653Y184696D01*
X115713Y184766D01*
X115725Y184796D01*
X115744Y184822D01*
X115771Y184909D01*
X115805Y184994D01*
X115809Y185035D01*
X115816Y185057D01*
X115815Y185089D01*
X115823Y185161D01*
X115823Y187491D01*
X121580Y187491D01*
X121670Y187505D01*
X121761Y187513D01*
X121791Y187525D01*
X121823Y187530D01*
X121903Y187573D01*
X121987Y187609D01*
X122019Y187635D01*
X122040Y187646D01*
X122062Y187669D01*
X122118Y187714D01*
X123595Y189191D01*
X133705Y189191D01*
X135391Y187505D01*
X135391Y186916D01*
X135405Y186826D01*
X135413Y186735D01*
X135425Y186705D01*
X135430Y186673D01*
X135473Y186592D01*
X135509Y186508D01*
X135535Y186476D01*
X135546Y186456D01*
X135569Y186433D01*
X135614Y186377D01*
X135713Y186279D01*
X135787Y186225D01*
X135856Y186166D01*
X135886Y186154D01*
X135912Y186135D01*
X135999Y186108D01*
X136084Y186074D01*
X136125Y186070D01*
X136147Y186063D01*
X136179Y186064D01*
X136251Y186056D01*
X145598Y186056D01*
X145618Y186059D01*
X145637Y186057D01*
X145739Y186079D01*
X145841Y186095D01*
X145858Y186105D01*
X145878Y186109D01*
X145967Y186162D01*
X146058Y186211D01*
X146072Y186225D01*
X146089Y186235D01*
X146156Y186314D01*
X146228Y186389D01*
X146236Y186407D01*
X146249Y186422D01*
X146288Y186518D01*
X146331Y186612D01*
X146333Y186632D01*
X146341Y186650D01*
X146359Y186817D01*
X146359Y186852D01*
X147848Y188341D01*
X156952Y188341D01*
X158441Y186852D01*
X158441Y178748D01*
X158024Y178331D01*
X157998Y178295D01*
X157966Y178266D01*
X157927Y178196D01*
X157881Y178131D01*
X157868Y178089D01*
X157846Y178051D01*
X157832Y177973D01*
X157808Y177896D01*
X157809Y177852D01*
X157801Y177809D01*
X157812Y177730D01*
X157815Y177650D01*
X157830Y177609D01*
X157836Y177566D01*
X157894Y177432D01*
X157899Y177419D01*
X157901Y177417D01*
X157903Y177412D01*
X158268Y176781D01*
X158441Y176134D01*
X158441Y174299D01*
X153138Y174299D01*
X153119Y174296D01*
X153099Y174298D01*
X152997Y174276D01*
X152895Y174260D01*
X152878Y174250D01*
X152858Y174246D01*
X152769Y174193D01*
X152678Y174144D01*
X152664Y174130D01*
X152647Y174120D01*
X152580Y174041D01*
X152509Y173966D01*
X152500Y173948D01*
X152487Y173933D01*
X152449Y173837D01*
X152405Y173743D01*
X152403Y173723D01*
X152396Y173705D01*
X152383Y173781D01*
X152374Y173798D01*
X152370Y173818D01*
X152317Y173907D01*
X152268Y173998D01*
X152254Y174012D01*
X152244Y174029D01*
X152165Y174096D01*
X152090Y174168D01*
X152072Y174176D01*
X152057Y174189D01*
X151960Y174228D01*
X151867Y174271D01*
X151847Y174273D01*
X151829Y174281D01*
X151662Y174299D01*
X146359Y174299D01*
X146359Y176134D01*
X146532Y176781D01*
X146897Y177412D01*
X146912Y177453D01*
X146936Y177490D01*
X146956Y177567D01*
X146984Y177642D01*
X146986Y177686D01*
X146996Y177728D01*
X146990Y177808D01*
X146993Y177888D01*
X146980Y177930D01*
X146977Y177974D01*
X146946Y178047D01*
X146923Y178124D01*
X146898Y178160D01*
X146881Y178200D01*
X146790Y178314D01*
X146782Y178325D01*
X146779Y178327D01*
X146776Y178331D01*
X146359Y178748D01*
X146359Y178943D01*
X146356Y178963D01*
X146358Y178982D01*
X146336Y179084D01*
X146320Y179186D01*
X146310Y179203D01*
X146306Y179223D01*
X146253Y179312D01*
X146204Y179403D01*
X146190Y179417D01*
X146180Y179434D01*
X146101Y179501D01*
X146026Y179573D01*
X146008Y179581D01*
X145993Y179594D01*
X145897Y179633D01*
X145803Y179676D01*
X145783Y179678D01*
X145765Y179686D01*
X145598Y179704D01*
X143886Y179704D01*
X143815Y179693D01*
X143743Y179691D01*
X143694Y179673D01*
X143643Y179665D01*
X143580Y179631D01*
X143512Y179606D01*
X143472Y179574D01*
X143425Y179549D01*
X143376Y179497D01*
X143320Y179453D01*
X143292Y179409D01*
X143256Y179371D01*
X143226Y179306D01*
X143187Y179246D01*
X143174Y179195D01*
X143152Y179148D01*
X143145Y179077D01*
X143127Y179007D01*
X143131Y178955D01*
X143125Y178904D01*
X143141Y178833D01*
X143146Y178762D01*
X143167Y178714D01*
X143178Y178663D01*
X143214Y178602D01*
X143243Y178536D01*
X143287Y178480D01*
X143304Y178452D01*
X143322Y178437D01*
X143347Y178405D01*
X144503Y177249D01*
X144503Y173271D01*
X143855Y172623D01*
X143844Y172607D01*
X143828Y172595D01*
X143772Y172507D01*
X143712Y172424D01*
X143706Y172405D01*
X143695Y172388D01*
X143670Y172287D01*
X143639Y172188D01*
X143640Y172169D01*
X143635Y172149D01*
X143643Y172046D01*
X143646Y171943D01*
X143653Y171924D01*
X143654Y171904D01*
X143695Y171809D01*
X143730Y171712D01*
X143743Y171696D01*
X143751Y171678D01*
X143855Y171547D01*
X144503Y170899D01*
X144503Y166921D01*
X141689Y164107D01*
X141307Y164107D01*
X141236Y164096D01*
X141164Y164094D01*
X141115Y164076D01*
X141064Y164068D01*
X141001Y164034D01*
X140933Y164009D01*
X140893Y163977D01*
X140847Y163952D01*
X140797Y163900D01*
X140741Y163856D01*
X140713Y163812D01*
X140677Y163774D01*
X140647Y163709D01*
X140608Y163649D01*
X140596Y163598D01*
X140574Y163551D01*
X140566Y163480D01*
X140548Y163410D01*
X140552Y163358D01*
X140546Y163307D01*
X140562Y163236D01*
X140567Y163165D01*
X140588Y163117D01*
X140599Y163066D01*
X140636Y163005D01*
X140664Y162939D01*
X140708Y162883D01*
X140725Y162855D01*
X140743Y162840D01*
X140768Y162808D01*
X147777Y155799D01*
X147851Y155746D01*
X147921Y155686D01*
X147951Y155674D01*
X147977Y155655D01*
X148064Y155628D01*
X148149Y155594D01*
X148190Y155590D01*
X148212Y155583D01*
X148244Y155584D01*
X148316Y155576D01*
X150298Y155576D01*
X150318Y155579D01*
X150337Y155577D01*
X150439Y155599D01*
X150541Y155615D01*
X150558Y155625D01*
X150578Y155629D01*
X150667Y155682D01*
X150758Y155731D01*
X150772Y155745D01*
X150789Y155755D01*
X150856Y155834D01*
X150928Y155909D01*
X150936Y155927D01*
X150949Y155942D01*
X150988Y156038D01*
X151031Y156132D01*
X151033Y156152D01*
X151041Y156170D01*
X151059Y156337D01*
X151059Y157452D01*
X152548Y158941D01*
X162652Y158941D01*
X164141Y157452D01*
X164141Y147348D01*
X162652Y145859D01*
X152548Y145859D01*
X151059Y147348D01*
X151059Y148463D01*
X151056Y148483D01*
X151058Y148502D01*
X151036Y148604D01*
X151020Y148706D01*
X151010Y148723D01*
X151006Y148743D01*
X150953Y148832D01*
X150904Y148923D01*
X150890Y148937D01*
X150880Y148954D01*
X150801Y149021D01*
X150726Y149093D01*
X150708Y149101D01*
X150693Y149114D01*
X150597Y149153D01*
X150503Y149196D01*
X150483Y149198D01*
X150465Y149206D01*
X150298Y149224D01*
X145370Y149224D01*
X130562Y164032D01*
X130504Y164073D01*
X130452Y164123D01*
X130405Y164145D01*
X130363Y164175D01*
X130294Y164196D01*
X130229Y164226D01*
X130177Y164232D01*
X130127Y164247D01*
X130056Y164246D01*
X129985Y164254D01*
X129934Y164242D01*
X129882Y164241D01*
X129814Y164216D01*
X129744Y164201D01*
X129699Y164175D01*
X129651Y164157D01*
X129595Y164112D01*
X129533Y164075D01*
X129499Y164036D01*
X129459Y164003D01*
X129420Y163943D01*
X129373Y163888D01*
X129354Y163840D01*
X129326Y163796D01*
X129308Y163727D01*
X129281Y163660D01*
X129273Y163589D01*
X129265Y163558D01*
X129267Y163534D01*
X129263Y163493D01*
X129263Y159301D01*
X126449Y156487D01*
X122471Y156487D01*
X120553Y158405D01*
X120537Y158416D01*
X120525Y158432D01*
X120437Y158488D01*
X120354Y158548D01*
X120335Y158554D01*
X120318Y158565D01*
X120217Y158590D01*
X120118Y158621D01*
X120099Y158620D01*
X120079Y158625D01*
X119976Y158617D01*
X119873Y158614D01*
X119854Y158607D01*
X119834Y158606D01*
X119739Y158565D01*
X119642Y158530D01*
X119626Y158517D01*
X119608Y158509D01*
X119477Y158405D01*
X118829Y157757D01*
X114851Y157757D01*
X113568Y159040D01*
X113552Y159051D01*
X113540Y159067D01*
X113452Y159123D01*
X113369Y159183D01*
X113350Y159189D01*
X113333Y159200D01*
X113232Y159225D01*
X113133Y159256D01*
X113114Y159255D01*
X113094Y159260D01*
X112991Y159252D01*
X112888Y159249D01*
X112869Y159242D01*
X112849Y159241D01*
X112754Y159200D01*
X112657Y159165D01*
X112641Y159152D01*
X112623Y159144D01*
X112492Y159040D01*
X111209Y157757D01*
X107231Y157757D01*
X106710Y158278D01*
X106652Y158320D01*
X106600Y158369D01*
X106553Y158391D01*
X106511Y158421D01*
X106442Y158442D01*
X106377Y158473D01*
X106325Y158478D01*
X106275Y158494D01*
X106204Y158492D01*
X106133Y158500D01*
X106082Y158489D01*
X106030Y158487D01*
X105962Y158463D01*
X105892Y158447D01*
X105847Y158421D01*
X105799Y158403D01*
X105743Y158358D01*
X105681Y158321D01*
X105647Y158282D01*
X105607Y158249D01*
X105568Y158189D01*
X105521Y158134D01*
X105502Y158086D01*
X105474Y158042D01*
X105456Y157973D01*
X105429Y157906D01*
X105421Y157835D01*
X105413Y157804D01*
X105415Y157780D01*
X105411Y157739D01*
X105411Y154752D01*
X105414Y154732D01*
X105412Y154713D01*
X105434Y154611D01*
X105450Y154509D01*
X105460Y154492D01*
X105464Y154472D01*
X105517Y154383D01*
X105566Y154292D01*
X105580Y154278D01*
X105590Y154261D01*
X105669Y154194D01*
X105744Y154122D01*
X105762Y154114D01*
X105777Y154101D01*
X105873Y154062D01*
X105967Y154019D01*
X105987Y154017D01*
X106005Y154009D01*
X106172Y153991D01*
X111852Y153991D01*
X113341Y152502D01*
X113341Y145992D01*
X113355Y145902D01*
X113363Y145811D01*
X113375Y145781D01*
X113380Y145749D01*
X113423Y145668D01*
X113459Y145585D01*
X113485Y145552D01*
X113496Y145532D01*
X113519Y145510D01*
X113564Y145454D01*
X114267Y144750D01*
X114341Y144697D01*
X114411Y144637D01*
X114441Y144625D01*
X114467Y144606D01*
X114554Y144579D01*
X114639Y144545D01*
X114680Y144541D01*
X114702Y144534D01*
X114734Y144535D01*
X114806Y144527D01*
X122288Y144527D01*
X122308Y144530D01*
X122327Y144528D01*
X122429Y144550D01*
X122531Y144567D01*
X122548Y144576D01*
X122568Y144580D01*
X122657Y144633D01*
X122748Y144682D01*
X122762Y144696D01*
X122779Y144706D01*
X122846Y144785D01*
X122917Y144860D01*
X122926Y144878D01*
X122939Y144893D01*
X122978Y144989D01*
X123021Y145083D01*
X123023Y145103D01*
X123031Y145121D01*
X123049Y145288D01*
X123049Y146051D01*
X123051Y146051D01*
X123051Y145288D01*
X123054Y145268D01*
X123052Y145249D01*
X123074Y145147D01*
X123091Y145045D01*
X123100Y145028D01*
X123104Y145008D01*
X123157Y144919D01*
X123206Y144828D01*
X123220Y144814D01*
X123230Y144797D01*
X123309Y144730D01*
X123384Y144659D01*
X123402Y144650D01*
X123417Y144637D01*
X123513Y144598D01*
X123607Y144555D01*
X123627Y144553D01*
X123645Y144545D01*
X123812Y144527D01*
X130841Y144527D01*
X130841Y142367D01*
X130844Y142347D01*
X130842Y142328D01*
X130864Y142226D01*
X130880Y142124D01*
X130890Y142107D01*
X130894Y142087D01*
X130947Y141998D01*
X130996Y141907D01*
X131010Y141893D01*
X131020Y141876D01*
X131099Y141809D01*
X131174Y141737D01*
X131192Y141729D01*
X131207Y141716D01*
X131303Y141677D01*
X131397Y141634D01*
X131417Y141632D01*
X131435Y141624D01*
X131602Y141606D01*
X146622Y141606D01*
X149449Y138779D01*
X166055Y122172D01*
X166094Y122145D01*
X166126Y122109D01*
X166193Y122073D01*
X166254Y122029D01*
X166300Y122015D01*
X166342Y121992D01*
X166417Y121979D01*
X166490Y121957D01*
X166537Y121958D01*
X166585Y121950D01*
X166660Y121961D01*
X166735Y121963D01*
X166781Y121979D01*
X166828Y121987D01*
X166895Y122021D01*
X166966Y122047D01*
X167004Y122077D01*
X167047Y122099D01*
X167099Y122154D01*
X167158Y122201D01*
X167184Y122241D01*
X167218Y122276D01*
X167250Y122344D01*
X167291Y122408D01*
X167303Y122455D01*
X167324Y122498D01*
X167333Y122573D01*
X167352Y122647D01*
X167348Y122694D01*
X167354Y122742D01*
X167334Y122870D01*
X167332Y122892D01*
X167330Y122898D01*
X167328Y122908D01*
X167259Y123166D01*
X167259Y125501D01*
X171301Y125501D01*
X171301Y120959D01*
X169466Y120959D01*
X169208Y121028D01*
X169160Y121033D01*
X169114Y121047D01*
X169038Y121045D01*
X168963Y121053D01*
X168916Y121042D01*
X168868Y121041D01*
X168797Y121015D01*
X168723Y120998D01*
X168682Y120973D01*
X168637Y120956D01*
X168578Y120909D01*
X168514Y120869D01*
X168483Y120833D01*
X168445Y120803D01*
X168404Y120739D01*
X168356Y120681D01*
X168338Y120636D01*
X168312Y120596D01*
X168294Y120522D01*
X168266Y120452D01*
X168264Y120404D01*
X168252Y120357D01*
X168258Y120282D01*
X168255Y120206D01*
X168268Y120160D01*
X168271Y120112D01*
X168301Y120042D01*
X168322Y119969D01*
X168349Y119930D01*
X168368Y119886D01*
X168448Y119785D01*
X168461Y119767D01*
X168466Y119763D01*
X168472Y119755D01*
X195359Y92868D01*
X195375Y92856D01*
X195388Y92841D01*
X195475Y92785D01*
X195559Y92724D01*
X195578Y92719D01*
X195595Y92708D01*
X195695Y92683D01*
X195794Y92652D01*
X195814Y92653D01*
X195833Y92648D01*
X195936Y92656D01*
X196040Y92658D01*
X196059Y92665D01*
X196078Y92667D01*
X196173Y92707D01*
X196271Y92743D01*
X196287Y92755D01*
X196305Y92763D01*
X196436Y92868D01*
X298669Y195101D01*
X298680Y195117D01*
X298696Y195130D01*
X298752Y195217D01*
X298812Y195301D01*
X298818Y195320D01*
X298829Y195337D01*
X298854Y195437D01*
X298885Y195536D01*
X298884Y195556D01*
X298889Y195575D01*
X298881Y195678D01*
X298878Y195782D01*
X298871Y195801D01*
X298870Y195820D01*
X298830Y195915D01*
X298794Y196013D01*
X298781Y196028D01*
X298774Y196047D01*
X298669Y196178D01*
X297959Y196887D01*
X297959Y209513D01*
X303844Y215398D01*
X303886Y215456D01*
X303935Y215508D01*
X303957Y215555D01*
X303988Y215597D01*
X304009Y215666D01*
X304039Y215731D01*
X304045Y215783D01*
X304060Y215833D01*
X304058Y215904D01*
X304066Y215975D01*
X304055Y216026D01*
X304054Y216078D01*
X304029Y216146D01*
X304014Y216216D01*
X303987Y216261D01*
X303969Y216309D01*
X303924Y216365D01*
X303888Y216427D01*
X303848Y216461D01*
X303815Y216501D01*
X303755Y216540D01*
X303701Y216587D01*
X303652Y216606D01*
X303609Y216634D01*
X303539Y216652D01*
X303473Y216679D01*
X303401Y216687D01*
X303370Y216695D01*
X303347Y216693D01*
X303306Y216697D01*
X237884Y216697D01*
X237813Y216686D01*
X237742Y216684D01*
X237693Y216666D01*
X237641Y216658D01*
X237578Y216624D01*
X237511Y216599D01*
X237470Y216567D01*
X237424Y216542D01*
X237375Y216490D01*
X237319Y216446D01*
X237291Y216402D01*
X237255Y216364D01*
X237224Y216299D01*
X237186Y216239D01*
X237173Y216188D01*
X237151Y216141D01*
X237143Y216070D01*
X237126Y216000D01*
X237130Y215948D01*
X237124Y215897D01*
X237139Y215826D01*
X237145Y215755D01*
X237165Y215707D01*
X237176Y215656D01*
X237213Y215595D01*
X237241Y215529D01*
X237286Y215473D01*
X237302Y215445D01*
X237320Y215430D01*
X237346Y215398D01*
X246221Y206523D01*
X246221Y201733D01*
X231742Y201733D01*
X231722Y201730D01*
X231703Y201732D01*
X231601Y201710D01*
X231499Y201693D01*
X231482Y201684D01*
X231462Y201680D01*
X231373Y201627D01*
X231282Y201578D01*
X231268Y201564D01*
X231251Y201554D01*
X231184Y201475D01*
X231113Y201400D01*
X231104Y201382D01*
X231091Y201367D01*
X231053Y201271D01*
X231009Y201177D01*
X231007Y201157D01*
X230999Y201139D01*
X230981Y200972D01*
X230981Y200209D01*
X230979Y200209D01*
X230979Y200972D01*
X230976Y200992D01*
X230978Y201011D01*
X230956Y201113D01*
X230939Y201215D01*
X230930Y201232D01*
X230926Y201252D01*
X230873Y201341D01*
X230824Y201432D01*
X230810Y201446D01*
X230800Y201463D01*
X230721Y201530D01*
X230646Y201601D01*
X230628Y201610D01*
X230613Y201623D01*
X230517Y201662D01*
X230423Y201705D01*
X230403Y201707D01*
X230385Y201715D01*
X230218Y201733D01*
X215739Y201733D01*
X215739Y206523D01*
X224614Y215398D01*
X224656Y215456D01*
X224705Y215508D01*
X224727Y215555D01*
X224758Y215597D01*
X224779Y215666D01*
X224809Y215731D01*
X224815Y215783D01*
X224830Y215833D01*
X224828Y215904D01*
X224836Y215975D01*
X224825Y216026D01*
X224824Y216078D01*
X224799Y216146D01*
X224784Y216216D01*
X224757Y216261D01*
X224739Y216309D01*
X224694Y216365D01*
X224658Y216427D01*
X224618Y216461D01*
X224585Y216501D01*
X224525Y216540D01*
X224471Y216587D01*
X224422Y216606D01*
X224379Y216634D01*
X224309Y216652D01*
X224243Y216679D01*
X224171Y216687D01*
X224140Y216695D01*
X224117Y216693D01*
X224076Y216697D01*
X4064Y216697D01*
X4044Y216694D01*
X4025Y216696D01*
X3923Y216674D01*
X3821Y216658D01*
X3804Y216648D01*
X3784Y216644D01*
X3695Y216591D01*
X3604Y216542D01*
X3590Y216528D01*
X3573Y216518D01*
X3506Y216439D01*
X3434Y216364D01*
X3426Y216346D01*
X3413Y216331D01*
X3374Y216235D01*
X3331Y216141D01*
X3329Y216121D01*
X3321Y216103D01*
X3303Y215936D01*
X3303Y14064D01*
X3306Y14044D01*
X3304Y14025D01*
X3326Y13923D01*
X3342Y13821D01*
X3352Y13804D01*
X3356Y13784D01*
X3409Y13695D01*
X3458Y13604D01*
X3472Y13590D01*
X3482Y13573D01*
X3561Y13506D01*
X3636Y13434D01*
X3654Y13426D01*
X3669Y13413D01*
X3765Y13374D01*
X3859Y13331D01*
X3879Y13329D01*
X3897Y13321D01*
X4064Y13303D01*
X895936Y13303D01*
X895956Y13306D01*
G37*
G36*
X753583Y191785D02*
X753583Y191785D01*
X753674Y191793D01*
X753704Y191805D01*
X753736Y191810D01*
X753816Y191853D01*
X753900Y191889D01*
X753933Y191915D01*
X753953Y191926D01*
X753975Y191949D01*
X754031Y191994D01*
X757204Y195166D01*
X757215Y195182D01*
X757231Y195195D01*
X757287Y195282D01*
X757347Y195366D01*
X757353Y195385D01*
X757364Y195402D01*
X757389Y195502D01*
X757420Y195601D01*
X757419Y195621D01*
X757424Y195640D01*
X757416Y195743D01*
X757413Y195847D01*
X757406Y195865D01*
X757405Y195885D01*
X757365Y195980D01*
X757329Y196078D01*
X757316Y196093D01*
X757309Y196112D01*
X757204Y196243D01*
X756559Y196887D01*
X756559Y209513D01*
X762444Y215398D01*
X762486Y215456D01*
X762535Y215508D01*
X762557Y215555D01*
X762588Y215597D01*
X762609Y215666D01*
X762639Y215731D01*
X762645Y215783D01*
X762660Y215833D01*
X762658Y215904D01*
X762666Y215975D01*
X762655Y216026D01*
X762654Y216078D01*
X762629Y216146D01*
X762614Y216216D01*
X762587Y216261D01*
X762569Y216309D01*
X762524Y216365D01*
X762488Y216427D01*
X762448Y216461D01*
X762415Y216501D01*
X762355Y216540D01*
X762301Y216587D01*
X762252Y216606D01*
X762209Y216634D01*
X762139Y216652D01*
X762073Y216679D01*
X762001Y216687D01*
X761970Y216695D01*
X761947Y216693D01*
X761906Y216697D01*
X668194Y216697D01*
X668123Y216686D01*
X668052Y216684D01*
X668003Y216666D01*
X667951Y216658D01*
X667888Y216624D01*
X667821Y216599D01*
X667780Y216567D01*
X667734Y216542D01*
X667685Y216490D01*
X667629Y216446D01*
X667601Y216402D01*
X667565Y216364D01*
X667534Y216299D01*
X667496Y216239D01*
X667483Y216188D01*
X667461Y216141D01*
X667453Y216070D01*
X667436Y216000D01*
X667440Y215948D01*
X667434Y215897D01*
X667449Y215826D01*
X667455Y215755D01*
X667475Y215707D01*
X667486Y215656D01*
X667523Y215595D01*
X667551Y215529D01*
X667596Y215473D01*
X667612Y215445D01*
X667630Y215430D01*
X667656Y215398D01*
X673541Y209513D01*
X673541Y204723D01*
X659062Y204723D01*
X659042Y204720D01*
X659023Y204722D01*
X658921Y204700D01*
X658819Y204683D01*
X658802Y204674D01*
X658782Y204670D01*
X658693Y204617D01*
X658602Y204568D01*
X658588Y204554D01*
X658571Y204544D01*
X658504Y204465D01*
X658433Y204390D01*
X658424Y204372D01*
X658411Y204357D01*
X658373Y204261D01*
X658329Y204167D01*
X658327Y204147D01*
X658319Y204129D01*
X658301Y203962D01*
X658301Y202438D01*
X658304Y202418D01*
X658302Y202399D01*
X658324Y202297D01*
X658341Y202195D01*
X658350Y202178D01*
X658354Y202158D01*
X658407Y202069D01*
X658456Y201978D01*
X658470Y201964D01*
X658480Y201947D01*
X658559Y201880D01*
X658634Y201809D01*
X658652Y201800D01*
X658667Y201787D01*
X658763Y201748D01*
X658857Y201705D01*
X658877Y201703D01*
X658895Y201695D01*
X659062Y201677D01*
X673541Y201677D01*
X673541Y196887D01*
X669724Y193070D01*
X669682Y193012D01*
X669633Y192960D01*
X669611Y192913D01*
X669580Y192871D01*
X669559Y192802D01*
X669529Y192737D01*
X669523Y192685D01*
X669508Y192635D01*
X669510Y192564D01*
X669502Y192493D01*
X669513Y192442D01*
X669514Y192390D01*
X669539Y192322D01*
X669554Y192252D01*
X669581Y192207D01*
X669599Y192159D01*
X669644Y192103D01*
X669680Y192041D01*
X669720Y192007D01*
X669753Y191967D01*
X669813Y191928D01*
X669867Y191881D01*
X669916Y191862D01*
X669959Y191834D01*
X670029Y191816D01*
X670095Y191789D01*
X670167Y191781D01*
X670198Y191773D01*
X670221Y191775D01*
X670262Y191771D01*
X753493Y191771D01*
X753583Y191785D01*
G37*
G36*
X412109Y191782D02*
X412109Y191782D01*
X412180Y191784D01*
X412229Y191802D01*
X412281Y191810D01*
X412344Y191844D01*
X412411Y191869D01*
X412452Y191901D01*
X412498Y191926D01*
X412547Y191978D01*
X412603Y192022D01*
X412631Y192066D01*
X412667Y192104D01*
X412698Y192169D01*
X412736Y192229D01*
X412749Y192280D01*
X412771Y192327D01*
X412779Y192398D01*
X412796Y192468D01*
X412792Y192520D01*
X412798Y192571D01*
X412783Y192642D01*
X412777Y192713D01*
X412757Y192761D01*
X412746Y192812D01*
X412709Y192873D01*
X412681Y192939D01*
X412636Y192995D01*
X412620Y193023D01*
X412602Y193038D01*
X412576Y193070D01*
X408759Y196887D01*
X408759Y201677D01*
X423238Y201677D01*
X423258Y201680D01*
X423277Y201678D01*
X423379Y201700D01*
X423481Y201717D01*
X423498Y201726D01*
X423518Y201730D01*
X423607Y201783D01*
X423698Y201832D01*
X423712Y201846D01*
X423729Y201856D01*
X423796Y201935D01*
X423867Y202010D01*
X423876Y202028D01*
X423889Y202043D01*
X423927Y202139D01*
X423971Y202233D01*
X423973Y202253D01*
X423981Y202271D01*
X423999Y202438D01*
X423999Y203962D01*
X423996Y203982D01*
X423998Y204001D01*
X423976Y204103D01*
X423959Y204205D01*
X423950Y204222D01*
X423946Y204242D01*
X423893Y204331D01*
X423844Y204422D01*
X423830Y204436D01*
X423820Y204453D01*
X423741Y204520D01*
X423666Y204591D01*
X423648Y204600D01*
X423633Y204613D01*
X423537Y204652D01*
X423443Y204695D01*
X423423Y204697D01*
X423405Y204705D01*
X423238Y204723D01*
X408759Y204723D01*
X408759Y209513D01*
X414644Y215398D01*
X414686Y215456D01*
X414735Y215508D01*
X414757Y215555D01*
X414788Y215597D01*
X414809Y215666D01*
X414839Y215731D01*
X414845Y215783D01*
X414860Y215833D01*
X414858Y215904D01*
X414866Y215975D01*
X414855Y216026D01*
X414854Y216078D01*
X414829Y216146D01*
X414814Y216216D01*
X414787Y216261D01*
X414769Y216309D01*
X414724Y216365D01*
X414688Y216427D01*
X414648Y216461D01*
X414615Y216501D01*
X414555Y216540D01*
X414501Y216587D01*
X414452Y216606D01*
X414409Y216634D01*
X414339Y216652D01*
X414273Y216679D01*
X414201Y216687D01*
X414170Y216695D01*
X414147Y216693D01*
X414106Y216697D01*
X323094Y216697D01*
X323023Y216686D01*
X322952Y216684D01*
X322903Y216666D01*
X322851Y216658D01*
X322788Y216624D01*
X322721Y216599D01*
X322680Y216567D01*
X322634Y216542D01*
X322585Y216490D01*
X322529Y216446D01*
X322501Y216402D01*
X322465Y216364D01*
X322434Y216299D01*
X322396Y216239D01*
X322383Y216188D01*
X322361Y216141D01*
X322353Y216070D01*
X322336Y216000D01*
X322340Y215948D01*
X322334Y215897D01*
X322349Y215826D01*
X322355Y215755D01*
X322375Y215707D01*
X322386Y215656D01*
X322423Y215595D01*
X322451Y215529D01*
X322496Y215473D01*
X322512Y215445D01*
X322530Y215430D01*
X322556Y215398D01*
X328441Y209513D01*
X328441Y196887D01*
X328221Y196668D01*
X328210Y196651D01*
X328194Y196639D01*
X328138Y196552D01*
X328078Y196468D01*
X328072Y196449D01*
X328061Y196432D01*
X328036Y196332D01*
X328005Y196233D01*
X328006Y196213D01*
X328001Y196194D01*
X328009Y196091D01*
X328012Y195987D01*
X328019Y195968D01*
X328020Y195948D01*
X328061Y195853D01*
X328096Y195756D01*
X328109Y195740D01*
X328116Y195722D01*
X328221Y195591D01*
X331819Y191994D01*
X331893Y191941D01*
X331962Y191881D01*
X331992Y191869D01*
X332018Y191850D01*
X332105Y191823D01*
X332190Y191789D01*
X332231Y191785D01*
X332253Y191778D01*
X332286Y191779D01*
X332357Y191771D01*
X412038Y191771D01*
X412109Y191782D01*
G37*
G36*
X439004Y201692D02*
X439004Y201692D01*
X439095Y201699D01*
X439125Y201711D01*
X439157Y201717D01*
X439238Y201759D01*
X439322Y201795D01*
X439354Y201821D01*
X439374Y201832D01*
X439397Y201855D01*
X439452Y201900D01*
X444563Y207011D01*
X528798Y207011D01*
X528818Y207014D01*
X528837Y207012D01*
X528939Y207034D01*
X529041Y207050D01*
X529058Y207060D01*
X529078Y207064D01*
X529167Y207117D01*
X529258Y207166D01*
X529272Y207180D01*
X529289Y207190D01*
X529356Y207269D01*
X529428Y207344D01*
X529436Y207362D01*
X529449Y207377D01*
X529488Y207473D01*
X529531Y207567D01*
X529533Y207587D01*
X529541Y207605D01*
X529559Y207772D01*
X529559Y209513D01*
X535444Y215398D01*
X535486Y215456D01*
X535535Y215508D01*
X535557Y215555D01*
X535588Y215597D01*
X535609Y215666D01*
X535639Y215731D01*
X535645Y215783D01*
X535660Y215833D01*
X535658Y215904D01*
X535666Y215975D01*
X535655Y216026D01*
X535654Y216078D01*
X535629Y216146D01*
X535614Y216216D01*
X535587Y216261D01*
X535569Y216309D01*
X535524Y216365D01*
X535488Y216427D01*
X535448Y216461D01*
X535415Y216501D01*
X535355Y216540D01*
X535301Y216587D01*
X535252Y216606D01*
X535209Y216634D01*
X535139Y216652D01*
X535073Y216679D01*
X535001Y216687D01*
X534970Y216695D01*
X534947Y216693D01*
X534906Y216697D01*
X433894Y216697D01*
X433823Y216686D01*
X433752Y216684D01*
X433703Y216666D01*
X433651Y216658D01*
X433588Y216624D01*
X433521Y216599D01*
X433480Y216567D01*
X433434Y216542D01*
X433385Y216490D01*
X433329Y216446D01*
X433301Y216402D01*
X433265Y216364D01*
X433234Y216299D01*
X433196Y216239D01*
X433183Y216188D01*
X433161Y216141D01*
X433153Y216070D01*
X433136Y216000D01*
X433140Y215948D01*
X433134Y215897D01*
X433149Y215826D01*
X433155Y215755D01*
X433175Y215707D01*
X433186Y215656D01*
X433223Y215595D01*
X433251Y215529D01*
X433296Y215473D01*
X433312Y215445D01*
X433330Y215430D01*
X433356Y215398D01*
X439241Y209513D01*
X439241Y204723D01*
X424762Y204723D01*
X424742Y204720D01*
X424723Y204722D01*
X424621Y204700D01*
X424519Y204683D01*
X424502Y204674D01*
X424482Y204670D01*
X424393Y204617D01*
X424302Y204568D01*
X424288Y204554D01*
X424271Y204544D01*
X424204Y204465D01*
X424133Y204390D01*
X424124Y204372D01*
X424111Y204357D01*
X424073Y204261D01*
X424029Y204167D01*
X424027Y204147D01*
X424019Y204129D01*
X424001Y203962D01*
X424001Y202438D01*
X424004Y202418D01*
X424002Y202399D01*
X424024Y202297D01*
X424041Y202195D01*
X424050Y202178D01*
X424054Y202158D01*
X424107Y202069D01*
X424156Y201978D01*
X424170Y201964D01*
X424180Y201947D01*
X424259Y201880D01*
X424334Y201809D01*
X424352Y201800D01*
X424367Y201787D01*
X424463Y201748D01*
X424557Y201705D01*
X424577Y201703D01*
X424595Y201695D01*
X424762Y201677D01*
X438914Y201677D01*
X439004Y201692D01*
G37*
G36*
X657558Y201680D02*
X657558Y201680D01*
X657577Y201678D01*
X657679Y201700D01*
X657781Y201717D01*
X657798Y201726D01*
X657818Y201730D01*
X657907Y201783D01*
X657998Y201832D01*
X658012Y201846D01*
X658029Y201856D01*
X658096Y201935D01*
X658167Y202010D01*
X658176Y202028D01*
X658189Y202043D01*
X658227Y202139D01*
X658271Y202233D01*
X658273Y202253D01*
X658281Y202271D01*
X658299Y202438D01*
X658299Y203962D01*
X658296Y203982D01*
X658298Y204001D01*
X658276Y204103D01*
X658259Y204205D01*
X658250Y204222D01*
X658246Y204242D01*
X658193Y204331D01*
X658144Y204422D01*
X658130Y204436D01*
X658120Y204453D01*
X658041Y204520D01*
X657966Y204591D01*
X657948Y204600D01*
X657933Y204613D01*
X657837Y204652D01*
X657743Y204695D01*
X657723Y204697D01*
X657705Y204705D01*
X657538Y204723D01*
X643059Y204723D01*
X643059Y209513D01*
X648944Y215398D01*
X648986Y215456D01*
X649035Y215508D01*
X649057Y215555D01*
X649088Y215597D01*
X649109Y215666D01*
X649139Y215731D01*
X649145Y215783D01*
X649160Y215833D01*
X649158Y215904D01*
X649166Y215975D01*
X649155Y216026D01*
X649154Y216078D01*
X649129Y216146D01*
X649114Y216216D01*
X649087Y216261D01*
X649069Y216309D01*
X649024Y216365D01*
X648988Y216427D01*
X648948Y216461D01*
X648915Y216501D01*
X648855Y216540D01*
X648801Y216587D01*
X648752Y216606D01*
X648709Y216634D01*
X648639Y216652D01*
X648573Y216679D01*
X648501Y216687D01*
X648470Y216695D01*
X648447Y216693D01*
X648406Y216697D01*
X554694Y216697D01*
X554623Y216686D01*
X554552Y216684D01*
X554503Y216666D01*
X554451Y216658D01*
X554388Y216624D01*
X554321Y216599D01*
X554280Y216567D01*
X554234Y216542D01*
X554185Y216490D01*
X554129Y216446D01*
X554101Y216402D01*
X554065Y216364D01*
X554034Y216299D01*
X553996Y216239D01*
X553983Y216188D01*
X553961Y216141D01*
X553953Y216070D01*
X553936Y216000D01*
X553940Y215948D01*
X553934Y215897D01*
X553949Y215826D01*
X553955Y215755D01*
X553975Y215707D01*
X553986Y215656D01*
X554023Y215595D01*
X554051Y215529D01*
X554096Y215473D01*
X554112Y215445D01*
X554130Y215430D01*
X554156Y215398D01*
X560041Y209513D01*
X560041Y208407D01*
X560044Y208387D01*
X560042Y208368D01*
X560064Y208266D01*
X560080Y208164D01*
X560090Y208147D01*
X560094Y208127D01*
X560147Y208038D01*
X560196Y207947D01*
X560210Y207933D01*
X560220Y207916D01*
X560299Y207849D01*
X560374Y207777D01*
X560392Y207769D01*
X560407Y207756D01*
X560503Y207717D01*
X560597Y207674D01*
X560617Y207672D01*
X560635Y207664D01*
X560802Y207646D01*
X637477Y207646D01*
X643223Y201900D01*
X643296Y201847D01*
X643366Y201787D01*
X643396Y201775D01*
X643422Y201756D01*
X643509Y201729D01*
X643594Y201695D01*
X643635Y201691D01*
X643657Y201684D01*
X643690Y201685D01*
X643761Y201677D01*
X657538Y201677D01*
X657558Y201680D01*
G37*
%LPC*%
G36*
X174299Y120959D02*
X174299Y120959D01*
X174299Y126262D01*
X174296Y126281D01*
X174298Y126301D01*
X174276Y126403D01*
X174260Y126505D01*
X174250Y126522D01*
X174246Y126542D01*
X174193Y126631D01*
X174144Y126722D01*
X174130Y126736D01*
X174120Y126753D01*
X174041Y126820D01*
X173966Y126891D01*
X173948Y126900D01*
X173933Y126913D01*
X173837Y126951D01*
X173743Y126995D01*
X173723Y126997D01*
X173705Y127004D01*
X173781Y127017D01*
X173798Y127026D01*
X173818Y127030D01*
X173907Y127083D01*
X173998Y127132D01*
X174012Y127146D01*
X174029Y127156D01*
X174096Y127235D01*
X174168Y127310D01*
X174176Y127328D01*
X174189Y127343D01*
X174228Y127440D01*
X174271Y127533D01*
X174273Y127553D01*
X174281Y127571D01*
X174299Y127738D01*
X174299Y133041D01*
X176134Y133041D01*
X176781Y132868D01*
X177412Y132503D01*
X177453Y132488D01*
X177490Y132464D01*
X177567Y132444D01*
X177642Y132416D01*
X177686Y132414D01*
X177728Y132404D01*
X177808Y132410D01*
X177888Y132407D01*
X177930Y132420D01*
X177974Y132423D01*
X178047Y132454D01*
X178124Y132477D01*
X178160Y132502D01*
X178200Y132519D01*
X178313Y132610D01*
X178325Y132618D01*
X178327Y132621D01*
X178331Y132624D01*
X178846Y133139D01*
X178899Y133213D01*
X178959Y133283D01*
X178971Y133313D01*
X178990Y133339D01*
X179017Y133426D01*
X179051Y133511D01*
X179055Y133552D01*
X179062Y133574D01*
X179061Y133606D01*
X179069Y133678D01*
X179069Y141244D01*
X179055Y141334D01*
X179047Y141425D01*
X179035Y141455D01*
X179030Y141487D01*
X178987Y141568D01*
X178951Y141652D01*
X178925Y141684D01*
X178914Y141704D01*
X178891Y141727D01*
X178846Y141783D01*
X174993Y145636D01*
X174919Y145689D01*
X174849Y145749D01*
X174819Y145761D01*
X174793Y145780D01*
X174706Y145807D01*
X174621Y145841D01*
X174580Y145845D01*
X174558Y145852D01*
X174526Y145851D01*
X174454Y145859D01*
X167548Y145859D01*
X166059Y147348D01*
X166059Y157452D01*
X167548Y158941D01*
X177652Y158941D01*
X179141Y157452D01*
X179141Y150786D01*
X179155Y150696D01*
X179163Y150605D01*
X179175Y150575D01*
X179180Y150543D01*
X179223Y150462D01*
X179259Y150378D01*
X179285Y150346D01*
X179296Y150326D01*
X179319Y150303D01*
X179364Y150247D01*
X183337Y146274D01*
X183338Y146274D01*
X185421Y144190D01*
X185421Y133802D01*
X185424Y133782D01*
X185422Y133763D01*
X185444Y133661D01*
X185460Y133559D01*
X185470Y133542D01*
X185474Y133522D01*
X185527Y133433D01*
X185576Y133342D01*
X185590Y133328D01*
X185600Y133311D01*
X185679Y133244D01*
X185754Y133172D01*
X185772Y133164D01*
X185787Y133151D01*
X185883Y133112D01*
X185977Y133069D01*
X185997Y133067D01*
X186015Y133059D01*
X186182Y133041D01*
X186852Y133041D01*
X188341Y131552D01*
X188341Y122448D01*
X186852Y120959D01*
X178748Y120959D01*
X178331Y121376D01*
X178295Y121402D01*
X178266Y121434D01*
X178196Y121473D01*
X178131Y121519D01*
X178089Y121532D01*
X178051Y121554D01*
X177973Y121568D01*
X177896Y121592D01*
X177852Y121591D01*
X177809Y121599D01*
X177730Y121588D01*
X177650Y121585D01*
X177609Y121570D01*
X177566Y121564D01*
X177432Y121506D01*
X177419Y121501D01*
X177417Y121499D01*
X177412Y121497D01*
X176781Y121132D01*
X176134Y120959D01*
X174299Y120959D01*
G37*
%LPD*%
G36*
X122759Y71906D02*
X122759Y71906D01*
X122811Y71907D01*
X122879Y71932D01*
X122949Y71947D01*
X122994Y71974D01*
X123042Y71991D01*
X123098Y72036D01*
X123160Y72073D01*
X123194Y72113D01*
X123234Y72145D01*
X123273Y72205D01*
X123320Y72260D01*
X123339Y72308D01*
X123367Y72352D01*
X123385Y72421D01*
X123388Y72429D01*
X129527Y72429D01*
X135895Y72429D01*
X135957Y72370D01*
X135975Y72362D01*
X135990Y72349D01*
X136086Y72310D01*
X136180Y72266D01*
X136200Y72264D01*
X136218Y72257D01*
X136385Y72238D01*
X136829Y72238D01*
X136849Y72241D01*
X136869Y72239D01*
X136970Y72261D01*
X137072Y72278D01*
X137090Y72287D01*
X137109Y72291D01*
X137198Y72345D01*
X137289Y72393D01*
X137303Y72407D01*
X137320Y72418D01*
X137388Y72496D01*
X137459Y72571D01*
X137467Y72589D01*
X137480Y72605D01*
X137513Y72686D01*
X137579Y72726D01*
X137671Y72774D01*
X137684Y72789D01*
X137701Y72799D01*
X137769Y72878D01*
X137840Y72953D01*
X137848Y72971D01*
X137861Y72986D01*
X137900Y73082D01*
X137944Y73176D01*
X137946Y73195D01*
X137953Y73214D01*
X137972Y73381D01*
X137972Y82335D01*
X139259Y82335D01*
X139376Y82304D01*
X139494Y82292D01*
X139612Y82279D01*
X139617Y82279D01*
X139621Y82279D01*
X139736Y82306D01*
X139853Y82331D01*
X139856Y82333D01*
X139860Y82334D01*
X139963Y82396D01*
X140064Y82457D01*
X140067Y82460D01*
X140070Y82462D01*
X140147Y82554D01*
X140224Y82644D01*
X140225Y82648D01*
X140228Y82651D01*
X140271Y82761D01*
X140316Y82872D01*
X140316Y82877D01*
X140318Y82880D01*
X140318Y82893D01*
X140334Y83039D01*
X140334Y90742D01*
X146080Y96487D01*
X146133Y96561D01*
X146193Y96631D01*
X146205Y96661D01*
X146224Y96687D01*
X146251Y96774D01*
X146285Y96859D01*
X146289Y96900D01*
X146296Y96922D01*
X146295Y96954D01*
X146303Y97026D01*
X146303Y103518D01*
X146300Y103538D01*
X146302Y103557D01*
X146280Y103659D01*
X146263Y103761D01*
X146254Y103778D01*
X146250Y103798D01*
X146197Y103887D01*
X146148Y103978D01*
X146134Y103992D01*
X146124Y104009D01*
X146045Y104076D01*
X145970Y104147D01*
X145952Y104156D01*
X145937Y104169D01*
X145841Y104208D01*
X145747Y104251D01*
X145727Y104253D01*
X145709Y104261D01*
X145542Y104279D01*
X144018Y104279D01*
X143998Y104276D01*
X143979Y104278D01*
X143877Y104256D01*
X143775Y104239D01*
X143758Y104230D01*
X143738Y104226D01*
X143649Y104173D01*
X143558Y104124D01*
X143544Y104110D01*
X143527Y104100D01*
X143460Y104021D01*
X143389Y103946D01*
X143380Y103928D01*
X143367Y103913D01*
X143328Y103817D01*
X143285Y103723D01*
X143283Y103703D01*
X143275Y103685D01*
X143257Y103518D01*
X143257Y96489D01*
X139046Y96489D01*
X138399Y96662D01*
X137820Y96997D01*
X137347Y97470D01*
X137012Y98049D01*
X136839Y98696D01*
X136839Y103408D01*
X136828Y103479D01*
X136826Y103551D01*
X136808Y103600D01*
X136800Y103651D01*
X136766Y103714D01*
X136741Y103782D01*
X136709Y103822D01*
X136684Y103868D01*
X136632Y103918D01*
X136588Y103974D01*
X136544Y104002D01*
X136506Y104038D01*
X136441Y104068D01*
X136381Y104107D01*
X136330Y104120D01*
X136283Y104141D01*
X136212Y104149D01*
X136142Y104167D01*
X136090Y104163D01*
X136039Y104169D01*
X135968Y104153D01*
X135897Y104148D01*
X135849Y104127D01*
X135798Y104116D01*
X135737Y104079D01*
X135671Y104051D01*
X135615Y104007D01*
X135587Y103990D01*
X135572Y103972D01*
X135540Y103947D01*
X134352Y102759D01*
X133477Y102759D01*
X133457Y102756D01*
X133438Y102758D01*
X133336Y102736D01*
X133234Y102720D01*
X133217Y102710D01*
X133197Y102706D01*
X133108Y102653D01*
X133017Y102604D01*
X133003Y102590D01*
X132986Y102580D01*
X132919Y102501D01*
X132847Y102426D01*
X132839Y102408D01*
X132826Y102393D01*
X132787Y102297D01*
X132744Y102203D01*
X132742Y102183D01*
X132734Y102165D01*
X132716Y101998D01*
X132716Y82762D01*
X132719Y82742D01*
X132717Y82723D01*
X132739Y82621D01*
X132755Y82519D01*
X132765Y82502D01*
X132769Y82482D01*
X132822Y82393D01*
X132871Y82302D01*
X132885Y82288D01*
X132895Y82271D01*
X132974Y82204D01*
X133049Y82132D01*
X133067Y82124D01*
X133082Y82111D01*
X133178Y82072D01*
X133272Y82029D01*
X133292Y82027D01*
X133310Y82019D01*
X133477Y82001D01*
X133652Y82001D01*
X133765Y82019D01*
X133879Y82035D01*
X133888Y82039D01*
X133894Y82040D01*
X133914Y82051D01*
X134032Y82103D01*
X134134Y82162D01*
X134781Y82335D01*
X136068Y82335D01*
X136068Y74066D01*
X136016Y74035D01*
X135925Y73987D01*
X135911Y73973D01*
X135894Y73962D01*
X135885Y73951D01*
X129527Y73951D01*
X123430Y73951D01*
X123430Y74794D01*
X123543Y75216D01*
X123550Y75284D01*
X123567Y75349D01*
X123562Y75405D01*
X123568Y75461D01*
X123553Y75527D01*
X123547Y75594D01*
X123525Y75646D01*
X123513Y75701D01*
X123478Y75758D01*
X123451Y75821D01*
X123430Y75847D01*
X123430Y80512D01*
X124919Y82001D01*
X125603Y82001D01*
X125623Y82004D01*
X125642Y82002D01*
X125744Y82024D01*
X125846Y82040D01*
X125863Y82050D01*
X125883Y82054D01*
X125972Y82107D01*
X126063Y82156D01*
X126077Y82170D01*
X126094Y82180D01*
X126161Y82259D01*
X126233Y82334D01*
X126241Y82352D01*
X126254Y82367D01*
X126293Y82463D01*
X126336Y82557D01*
X126338Y82577D01*
X126346Y82595D01*
X126364Y82762D01*
X126364Y87254D01*
X126353Y87325D01*
X126351Y87397D01*
X126333Y87446D01*
X126325Y87497D01*
X126291Y87560D01*
X126266Y87628D01*
X126234Y87668D01*
X126209Y87715D01*
X126157Y87764D01*
X126113Y87820D01*
X126069Y87848D01*
X126031Y87884D01*
X125966Y87914D01*
X125906Y87953D01*
X125855Y87966D01*
X125808Y87988D01*
X125737Y87995D01*
X125667Y88013D01*
X125615Y88009D01*
X125564Y88015D01*
X125493Y87999D01*
X125422Y87994D01*
X125374Y87973D01*
X125323Y87962D01*
X125262Y87926D01*
X125196Y87897D01*
X125140Y87853D01*
X125112Y87836D01*
X125097Y87818D01*
X125065Y87793D01*
X122639Y85367D01*
X118661Y85367D01*
X117378Y86650D01*
X117362Y86661D01*
X117350Y86677D01*
X117262Y86733D01*
X117179Y86793D01*
X117160Y86799D01*
X117143Y86810D01*
X117042Y86835D01*
X116943Y86866D01*
X116924Y86865D01*
X116904Y86870D01*
X116801Y86862D01*
X116698Y86859D01*
X116679Y86852D01*
X116659Y86851D01*
X116564Y86810D01*
X116467Y86775D01*
X116451Y86762D01*
X116433Y86754D01*
X116302Y86650D01*
X115019Y85367D01*
X111041Y85367D01*
X108227Y88181D01*
X108227Y90956D01*
X108224Y90973D01*
X108226Y90990D01*
X108226Y90992D01*
X108226Y90995D01*
X108204Y91097D01*
X108188Y91199D01*
X108178Y91216D01*
X108174Y91236D01*
X108121Y91325D01*
X108072Y91416D01*
X108058Y91430D01*
X108048Y91447D01*
X107969Y91514D01*
X107894Y91586D01*
X107876Y91594D01*
X107861Y91607D01*
X107765Y91646D01*
X107671Y91689D01*
X107651Y91691D01*
X107633Y91699D01*
X107466Y91717D01*
X107231Y91717D01*
X105440Y93508D01*
X105382Y93550D01*
X105330Y93599D01*
X105283Y93621D01*
X105241Y93651D01*
X105172Y93672D01*
X105107Y93703D01*
X105055Y93708D01*
X105005Y93724D01*
X104934Y93722D01*
X104863Y93730D01*
X104812Y93719D01*
X104760Y93717D01*
X104692Y93693D01*
X104622Y93677D01*
X104577Y93651D01*
X104529Y93633D01*
X104473Y93588D01*
X104411Y93551D01*
X104377Y93512D01*
X104337Y93479D01*
X104298Y93419D01*
X104251Y93364D01*
X104232Y93316D01*
X104204Y93272D01*
X104186Y93203D01*
X104159Y93136D01*
X104151Y93065D01*
X104143Y93034D01*
X104145Y93010D01*
X104141Y92969D01*
X104141Y90422D01*
X104155Y90332D01*
X104163Y90241D01*
X104175Y90211D01*
X104180Y90179D01*
X104223Y90098D01*
X104259Y90015D01*
X104285Y89982D01*
X104296Y89962D01*
X104319Y89940D01*
X104364Y89884D01*
X122131Y72116D01*
X122189Y72075D01*
X122241Y72025D01*
X122288Y72003D01*
X122330Y71973D01*
X122399Y71952D01*
X122464Y71922D01*
X122516Y71916D01*
X122566Y71901D01*
X122637Y71902D01*
X122708Y71895D01*
X122759Y71906D01*
G37*
%LPC*%
G36*
X22643Y166653D02*
X22643Y166653D01*
X22643Y180371D01*
X27433Y180371D01*
X36361Y171443D01*
X36361Y166653D01*
X22643Y166653D01*
G37*
%LPD*%
%LPC*%
G36*
X232503Y184969D02*
X232503Y184969D01*
X232503Y198687D01*
X246221Y198687D01*
X246221Y193897D01*
X237293Y184969D01*
X232503Y184969D01*
G37*
%LPD*%
%LPC*%
G36*
X5879Y166653D02*
X5879Y166653D01*
X5879Y171443D01*
X14807Y180371D01*
X19597Y180371D01*
X19597Y166653D01*
X5879Y166653D01*
G37*
%LPD*%
%LPC*%
G36*
X876823Y187959D02*
X876823Y187959D01*
X876823Y201677D01*
X890541Y201677D01*
X890541Y196887D01*
X881613Y187959D01*
X876823Y187959D01*
G37*
%LPD*%
%LPC*%
G36*
X22643Y149889D02*
X22643Y149889D01*
X22643Y163607D01*
X36361Y163607D01*
X36361Y158817D01*
X27433Y149889D01*
X22643Y149889D01*
G37*
%LPD*%
%LPC*%
G36*
X224667Y184969D02*
X224667Y184969D01*
X215739Y193897D01*
X215739Y198687D01*
X229457Y198687D01*
X229457Y184969D01*
X224667Y184969D01*
G37*
%LPD*%
%LPC*%
G36*
X868987Y187959D02*
X868987Y187959D01*
X860059Y196887D01*
X860059Y201677D01*
X873777Y201677D01*
X873777Y187959D01*
X868987Y187959D01*
G37*
%LPD*%
%LPC*%
G36*
X14807Y149889D02*
X14807Y149889D01*
X5879Y158817D01*
X5879Y163607D01*
X19597Y163607D01*
X19597Y149889D01*
X14807Y149889D01*
G37*
%LPD*%
G36*
X145562Y104284D02*
X145562Y104284D01*
X145581Y104282D01*
X145683Y104304D01*
X145785Y104321D01*
X145802Y104330D01*
X145822Y104334D01*
X145911Y104387D01*
X146002Y104436D01*
X146016Y104450D01*
X146033Y104460D01*
X146100Y104539D01*
X146171Y104614D01*
X146180Y104632D01*
X146193Y104647D01*
X146232Y104743D01*
X146275Y104837D01*
X146277Y104857D01*
X146285Y104875D01*
X146303Y105042D01*
X146303Y112524D01*
X146288Y112614D01*
X146281Y112705D01*
X146269Y112735D01*
X146263Y112767D01*
X146221Y112848D01*
X146185Y112932D01*
X146159Y112964D01*
X146148Y112984D01*
X146125Y113007D01*
X146080Y113063D01*
X145376Y113766D01*
X145303Y113819D01*
X145233Y113879D01*
X145203Y113891D01*
X145177Y113910D01*
X145090Y113937D01*
X145005Y113971D01*
X144964Y113975D01*
X144942Y113982D01*
X144909Y113981D01*
X144838Y113989D01*
X138328Y113989D01*
X137092Y115225D01*
X137015Y115280D01*
X136942Y115341D01*
X136915Y115352D01*
X136893Y115368D01*
X136801Y115396D01*
X136713Y115431D01*
X136684Y115432D01*
X136657Y115440D01*
X136562Y115438D01*
X136467Y115443D01*
X136440Y115435D01*
X136412Y115434D01*
X136322Y115401D01*
X136230Y115375D01*
X136207Y115359D01*
X136181Y115350D01*
X136106Y115290D01*
X136028Y115236D01*
X136011Y115214D01*
X135989Y115196D01*
X135937Y115116D01*
X135880Y115040D01*
X135867Y115007D01*
X135856Y114989D01*
X135848Y114957D01*
X135819Y114883D01*
X135715Y114497D01*
X135704Y114383D01*
X135690Y114269D01*
X135691Y114259D01*
X135691Y114252D01*
X135696Y114231D01*
X135715Y114103D01*
X135841Y113635D01*
X135841Y112561D01*
X130061Y112561D01*
X130061Y116311D01*
X130042Y116429D01*
X130023Y116551D01*
X130022Y116553D01*
X130022Y116554D01*
X129966Y116659D01*
X129908Y116769D01*
X129907Y116770D01*
X129907Y116771D01*
X129819Y116854D01*
X129731Y116939D01*
X129729Y116940D01*
X129728Y116941D01*
X129723Y116943D01*
X129583Y117018D01*
X129542Y117027D01*
X129505Y117044D01*
X129505Y117045D01*
X129423Y117054D01*
X129342Y117071D01*
X129301Y117067D01*
X129260Y117072D01*
X129180Y117054D01*
X129098Y117045D01*
X129060Y117028D01*
X129020Y117019D01*
X128949Y116977D01*
X128874Y116943D01*
X128844Y116914D01*
X128809Y116893D01*
X128755Y116831D01*
X128695Y116774D01*
X128676Y116738D01*
X128649Y116706D01*
X128618Y116630D01*
X128579Y116557D01*
X128573Y116517D01*
X128557Y116478D01*
X128540Y116321D01*
X128539Y116315D01*
X128539Y116313D01*
X128539Y116311D01*
X128539Y111800D01*
X128542Y111781D01*
X128540Y111761D01*
X128562Y111660D01*
X128578Y111558D01*
X128588Y111540D01*
X128592Y111521D01*
X128645Y111431D01*
X128693Y111340D01*
X128694Y111340D01*
X128708Y111326D01*
X128718Y111309D01*
X128719Y111309D01*
X128797Y111242D01*
X128872Y111170D01*
X128890Y111162D01*
X128905Y111149D01*
X129002Y111110D01*
X129095Y111067D01*
X129115Y111065D01*
X129134Y111057D01*
X129300Y111039D01*
X135902Y111039D01*
X135903Y111037D01*
X135917Y110991D01*
X135960Y110929D01*
X135996Y110862D01*
X136030Y110829D01*
X136058Y110790D01*
X136119Y110745D01*
X136174Y110693D01*
X136218Y110673D01*
X136256Y110644D01*
X136328Y110621D01*
X136397Y110589D01*
X136445Y110584D01*
X136490Y110569D01*
X136566Y110570D01*
X136641Y110562D01*
X136688Y110572D01*
X136736Y110573D01*
X136808Y110598D01*
X136882Y110614D01*
X136923Y110639D01*
X136968Y110655D01*
X137028Y110702D01*
X137093Y110740D01*
X137124Y110777D01*
X137162Y110807D01*
X137238Y110910D01*
X137253Y110927D01*
X137255Y110934D01*
X137261Y110942D01*
X137347Y111090D01*
X137820Y111563D01*
X138399Y111898D01*
X139046Y112071D01*
X143257Y112071D01*
X143257Y105042D01*
X143260Y105022D01*
X143258Y105003D01*
X143280Y104901D01*
X143297Y104799D01*
X143306Y104782D01*
X143310Y104762D01*
X143363Y104673D01*
X143412Y104582D01*
X143426Y104568D01*
X143436Y104551D01*
X143515Y104484D01*
X143590Y104413D01*
X143608Y104404D01*
X143623Y104391D01*
X143719Y104352D01*
X143813Y104309D01*
X143833Y104307D01*
X143851Y104299D01*
X144018Y104281D01*
X145542Y104281D01*
X145562Y104284D01*
G37*
%LPC*%
G36*
X73773Y192023D02*
X73773Y192023D01*
X73773Y198441D01*
X77834Y198441D01*
X78481Y198268D01*
X79060Y197933D01*
X79533Y197460D01*
X79868Y196881D01*
X80041Y196234D01*
X80041Y192023D01*
X73773Y192023D01*
G37*
%LPD*%
%LPC*%
G36*
X59323Y113293D02*
X59323Y113293D01*
X59323Y119561D01*
X63534Y119561D01*
X64181Y119388D01*
X64760Y119053D01*
X65233Y118580D01*
X65568Y118001D01*
X65741Y117354D01*
X65741Y113293D01*
X59323Y113293D01*
G37*
%LPD*%
%LPC*%
G36*
X124573Y147573D02*
X124573Y147573D01*
X124573Y153991D01*
X128634Y153991D01*
X129281Y153818D01*
X129860Y153483D01*
X130333Y153010D01*
X130668Y152431D01*
X130841Y151784D01*
X130841Y147573D01*
X124573Y147573D01*
G37*
%LPD*%
%LPC*%
G36*
X49859Y113293D02*
X49859Y113293D01*
X49859Y117354D01*
X50032Y118001D01*
X50367Y118580D01*
X50840Y119053D01*
X51419Y119388D01*
X52066Y119561D01*
X56277Y119561D01*
X56277Y113293D01*
X49859Y113293D01*
G37*
%LPD*%
%LPC*%
G36*
X59323Y103979D02*
X59323Y103979D01*
X59323Y110247D01*
X65741Y110247D01*
X65741Y106186D01*
X65568Y105539D01*
X65233Y104960D01*
X64760Y104487D01*
X64181Y104152D01*
X63534Y103979D01*
X59323Y103979D01*
G37*
%LPD*%
%LPC*%
G36*
X64459Y192023D02*
X64459Y192023D01*
X64459Y196234D01*
X64632Y196881D01*
X64967Y197460D01*
X65440Y197933D01*
X66019Y198268D01*
X66666Y198441D01*
X70727Y198441D01*
X70727Y192023D01*
X64459Y192023D01*
G37*
%LPD*%
%LPC*%
G36*
X115259Y147573D02*
X115259Y147573D01*
X115259Y151784D01*
X115432Y152431D01*
X115767Y153010D01*
X116240Y153483D01*
X116819Y153818D01*
X117466Y153991D01*
X121527Y153991D01*
X121527Y147573D01*
X115259Y147573D01*
G37*
%LPD*%
%LPC*%
G36*
X52066Y103979D02*
X52066Y103979D01*
X51419Y104152D01*
X50840Y104487D01*
X50367Y104960D01*
X50032Y105539D01*
X49859Y106186D01*
X49859Y110247D01*
X56277Y110247D01*
X56277Y103979D01*
X52066Y103979D01*
G37*
%LPD*%
%LPC*%
G36*
X32839Y43309D02*
X32839Y43309D01*
X32839Y49744D01*
X33012Y50391D01*
X33347Y50970D01*
X33820Y51443D01*
X34399Y51778D01*
X35046Y51951D01*
X36781Y51951D01*
X36781Y43309D01*
X32839Y43309D01*
G37*
%LPD*%
%LPC*%
G36*
X167259Y128499D02*
X167259Y128499D01*
X167259Y130834D01*
X167432Y131481D01*
X167767Y132060D01*
X168240Y132533D01*
X168819Y132868D01*
X169466Y133041D01*
X171301Y133041D01*
X171301Y128499D01*
X167259Y128499D01*
G37*
%LPD*%
%LPC*%
G36*
X153899Y167259D02*
X153899Y167259D01*
X153899Y171301D01*
X158441Y171301D01*
X158441Y169466D01*
X158268Y168819D01*
X157933Y168240D01*
X157460Y167767D01*
X156881Y167432D01*
X156234Y167259D01*
X153899Y167259D01*
G37*
%LPD*%
%LPC*%
G36*
X148566Y167259D02*
X148566Y167259D01*
X147919Y167432D01*
X147340Y167767D01*
X146867Y168240D01*
X146532Y168819D01*
X146359Y169466D01*
X146359Y171301D01*
X150901Y171301D01*
X150901Y167259D01*
X148566Y167259D01*
G37*
%LPD*%
%LPC*%
G36*
X21119Y165129D02*
X21119Y165129D01*
X21119Y165131D01*
X21121Y165131D01*
X21121Y165129D01*
X21119Y165129D01*
G37*
%LPD*%
%LPC*%
G36*
X57799Y111769D02*
X57799Y111769D01*
X57799Y111771D01*
X57801Y111771D01*
X57801Y111769D01*
X57799Y111769D01*
G37*
%LPD*%
D10*
X99060Y182880D03*
D11*
X96087Y184287D02*
X103813Y184287D01*
X96087Y184287D02*
X96087Y186313D01*
X103813Y186313D01*
X103813Y184287D01*
X103813Y184928D02*
X96087Y184928D01*
X96087Y185569D02*
X103813Y185569D01*
X103813Y186210D02*
X96087Y186210D01*
X96087Y179287D02*
X103813Y179287D01*
X96087Y179287D02*
X96087Y181313D01*
X103813Y181313D01*
X103813Y179287D01*
X103813Y179928D02*
X96087Y179928D01*
X96087Y180569D02*
X103813Y180569D01*
X103813Y181210D02*
X96087Y181210D01*
X96087Y174287D02*
X103813Y174287D01*
X96087Y174287D02*
X96087Y176313D01*
X103813Y176313D01*
X103813Y174287D01*
X103813Y174928D02*
X96087Y174928D01*
X96087Y175569D02*
X103813Y175569D01*
X103813Y176210D02*
X96087Y176210D01*
X96087Y169287D02*
X103813Y169287D01*
X96087Y169287D02*
X96087Y171313D01*
X103813Y171313D01*
X103813Y169287D01*
X103813Y169928D02*
X96087Y169928D01*
X96087Y170569D02*
X103813Y170569D01*
X103813Y171210D02*
X96087Y171210D01*
X124787Y169287D02*
X132513Y169287D01*
X124787Y169287D02*
X124787Y171313D01*
X132513Y171313D01*
X132513Y169287D01*
X132513Y169928D02*
X124787Y169928D01*
X124787Y170569D02*
X132513Y170569D01*
X132513Y171210D02*
X124787Y171210D01*
X124787Y174287D02*
X132513Y174287D01*
X124787Y174287D02*
X124787Y176313D01*
X132513Y176313D01*
X132513Y174287D01*
X132513Y174928D02*
X124787Y174928D01*
X124787Y175569D02*
X132513Y175569D01*
X132513Y176210D02*
X124787Y176210D01*
X124787Y179287D02*
X132513Y179287D01*
X124787Y179287D02*
X124787Y181313D01*
X132513Y181313D01*
X132513Y179287D01*
X132513Y179928D02*
X124787Y179928D01*
X124787Y180569D02*
X132513Y180569D01*
X132513Y181210D02*
X124787Y181210D01*
X124787Y184287D02*
X132513Y184287D01*
X124787Y184287D02*
X124787Y186313D01*
X132513Y186313D01*
X132513Y184287D01*
X132513Y184928D02*
X124787Y184928D01*
X124787Y185569D02*
X132513Y185569D01*
X132513Y186210D02*
X124787Y186210D01*
D12*
X114300Y177800D03*
D13*
X313200Y203200D03*
X424000Y203200D03*
D14*
X152400Y172800D03*
X152400Y182800D03*
D13*
X20800Y197980D03*
X21120Y165130D03*
D15*
X54750Y190500D03*
X72250Y190500D03*
X105550Y146050D03*
X123050Y146050D03*
D16*
X172600Y152400D03*
X157600Y152400D03*
D17*
X172800Y127000D03*
X182800Y127000D03*
D18*
X99300Y121800D03*
X99300Y116800D03*
X99300Y111800D03*
X99300Y106800D03*
X129300Y106800D03*
X129300Y111800D03*
X129300Y116800D03*
X129300Y121800D03*
D19*
X114300Y114300D03*
D20*
X144780Y121780D03*
X144780Y104280D03*
X57800Y129270D03*
X57800Y111770D03*
D21*
X129527Y78190D03*
X129527Y73190D03*
X129527Y68190D03*
X144513Y68190D03*
X144513Y73190D03*
X144513Y78190D03*
D22*
X137020Y73190D03*
D13*
X544800Y203200D03*
X658300Y203200D03*
X771800Y203200D03*
X875300Y203200D03*
D23*
X47780Y41910D03*
X38180Y41910D03*
D24*
X87790Y37540D03*
D25*
X126290Y26040D03*
X126290Y49040D03*
D26*
X18830Y79530D03*
X74830Y79530D03*
D27*
X209500Y50000D03*
X190500Y50000D03*
D13*
X21590Y122400D03*
X230980Y200210D03*
D28*
X82870Y125347D03*
X82870Y107694D03*
D29*
X99695Y116840D02*
X111760Y116840D01*
X114300Y114300D01*
X99695Y116840D02*
X99300Y116800D01*
D30*
X134620Y182880D02*
X152400Y182880D01*
X134620Y182880D02*
X132715Y184785D01*
X128905Y184785D01*
X152400Y182880D02*
X152400Y182800D01*
X128905Y184785D02*
X128650Y185300D01*
D29*
X99695Y184785D02*
X81915Y184785D01*
X78740Y181610D01*
X64135Y181610D01*
X55245Y190500D01*
X99695Y184785D02*
X99950Y185300D01*
X55245Y190500D02*
X54750Y190500D01*
X53340Y191770D02*
X26670Y191770D01*
X20955Y197485D01*
X53340Y191770D02*
X54750Y190500D01*
X20955Y197485D02*
X20800Y197980D01*
X144780Y78105D02*
X144780Y73660D01*
X144513Y73190D01*
X144780Y78105D02*
X144513Y78190D01*
X144780Y121920D02*
X129540Y121920D01*
X129300Y121800D01*
X144780Y121920D02*
X144780Y121780D01*
X144780Y88900D02*
X144780Y80010D01*
X144780Y88900D02*
X153670Y97790D01*
X153670Y111760D01*
X145415Y120015D01*
X144780Y80010D02*
X144513Y78190D01*
X145415Y120015D02*
X144780Y121780D01*
X172085Y50165D02*
X190500Y50165D01*
X172085Y50165D02*
X148590Y73660D01*
X146685Y73660D01*
X190500Y50165D02*
X190500Y50000D01*
X146685Y73660D02*
X144513Y73190D01*
D30*
X146685Y152400D02*
X157600Y152400D01*
X146685Y152400D02*
X128905Y170180D01*
X128650Y170300D01*
X182245Y142875D02*
X182245Y127000D01*
X182245Y142875D02*
X172720Y152400D01*
X182245Y127000D02*
X182800Y127000D01*
X172720Y152400D02*
X172600Y152400D01*
X99060Y121920D02*
X86360Y121920D01*
X83185Y125095D01*
X99060Y121920D02*
X99300Y121800D01*
X83185Y125095D02*
X82870Y125347D01*
X86995Y111760D02*
X99060Y111760D01*
X86995Y111760D02*
X83185Y107950D01*
X99060Y111760D02*
X99300Y111800D01*
X83185Y107950D02*
X82870Y107694D01*
D29*
X57785Y128905D02*
X27940Y128905D01*
X21590Y122555D01*
X57785Y128905D02*
X57800Y129270D01*
X21590Y122555D02*
X21590Y122400D01*
X99695Y106680D02*
X99695Y88265D01*
X128905Y59055D01*
X134620Y59055D01*
X136525Y57150D01*
X136525Y41275D01*
X131445Y36195D01*
X110490Y36195D01*
X97155Y22860D01*
X41910Y22860D01*
X19050Y45720D01*
X19050Y79375D01*
X99300Y106800D02*
X99695Y106680D01*
X19050Y79375D02*
X18830Y79530D01*
X20955Y81280D02*
X20955Y120650D01*
X20955Y81280D02*
X20320Y80645D01*
X20955Y120650D02*
X21590Y122400D01*
X20320Y80645D02*
X18830Y79530D01*
D30*
X129540Y78740D02*
X129540Y106680D01*
X129540Y78740D02*
X129527Y78190D01*
X129540Y106680D02*
X129300Y106800D01*
D29*
X83820Y41910D02*
X47780Y41910D01*
X83820Y41910D02*
X87630Y38100D01*
X87790Y37540D01*
X104775Y49530D02*
X125730Y49530D01*
X104775Y49530D02*
X74930Y79375D01*
X125730Y49530D02*
X126290Y49040D01*
X74930Y79375D02*
X74830Y79530D01*
X544800Y203200D02*
X635635Y203200D01*
X651510Y187325D01*
X755650Y187325D01*
X771525Y203200D01*
X771800Y203200D01*
X100330Y175260D02*
X100330Y170815D01*
X99950Y170300D01*
X100330Y175260D02*
X99950Y175300D01*
X100965Y168910D02*
X100965Y150495D01*
X105410Y146050D01*
X100965Y168910D02*
X99950Y170300D01*
X105410Y146050D02*
X105550Y146050D01*
X208915Y73025D02*
X208915Y50165D01*
X195898Y86043D02*
X144780Y137160D01*
X195898Y86043D02*
X208915Y73025D01*
X144780Y137160D02*
X115570Y137160D01*
X107315Y145415D01*
X208915Y50165D02*
X209500Y50000D01*
X107315Y145415D02*
X105550Y146050D01*
X195898Y86043D02*
X313055Y203200D01*
X313200Y203200D01*
X446405Y202565D02*
X542925Y202565D01*
X446405Y202565D02*
X431165Y187325D01*
X330200Y187325D01*
X314960Y202565D01*
X542925Y202565D02*
X544800Y203200D01*
X314960Y202565D02*
X313200Y203200D01*
D31*
X109220Y180340D03*
X118110Y180340D03*
X109220Y173990D03*
X118110Y173990D03*
X128270Y195580D03*
X120650Y195580D03*
X113030Y195580D03*
X105410Y195580D03*
X97790Y195580D03*
X85090Y175260D03*
X88900Y168910D03*
X91440Y162560D03*
X109220Y162560D03*
X116840Y162560D03*
X124460Y161290D03*
X139700Y168910D03*
X139700Y175260D03*
X110490Y119380D03*
X116840Y119380D03*
X116840Y113030D03*
X110490Y113030D03*
X109220Y96520D03*
X115570Y96520D03*
X121920Y96520D03*
X113030Y90170D03*
X120650Y90170D03*
X125730Y129540D03*
X114300Y129540D03*
X106680Y130810D03*
X100330Y129540D03*
M02*
