G04 EAGLE Gerber RS-274X export*
G75*
%MOMM*%
%FSLAX34Y34*%
%LPD*%
%INSoldermask Top*%
%IPPOS*%
%AMOC8*
5,1,8,0,0,1.08239X$1,22.5*%
G01*
%ADD10C,0.269722*%
%ADD11R,1.833200X1.633200*%
%ADD12P,2.969212X8X22.500000*%
%ADD13R,0.903200X0.803200*%
%ADD14R,1.253200X1.283200*%
%ADD15R,1.003200X1.003200*%
%ADD16R,0.803200X0.903200*%
%ADD17R,1.003200X0.503200*%
%ADD18R,1.953200X2.103200*%
%ADD19R,1.283200X1.253200*%
%ADD20R,0.914400X0.457200*%
%ADD21R,0.584200X1.524000*%
%ADD22R,0.763200X1.703200*%
%ADD23R,1.703200X2.503200*%
%ADD24R,1.603200X1.503200*%
%ADD25R,2.003200X3.403200*%
%ADD26R,1.503200X1.703200*%
%ADD27R,2.006600X1.358900*%
%ADD28C,0.655600*%


D10*
X103818Y184282D02*
X96082Y184282D01*
X96082Y186318D01*
X103818Y186318D01*
X103818Y184282D01*
X103818Y179282D02*
X96082Y179282D01*
X96082Y181318D01*
X103818Y181318D01*
X103818Y179282D01*
X103818Y174282D02*
X96082Y174282D01*
X96082Y176318D01*
X103818Y176318D01*
X103818Y174282D01*
X103818Y169282D02*
X96082Y169282D01*
X96082Y171318D01*
X103818Y171318D01*
X103818Y169282D01*
X124782Y169282D02*
X132518Y169282D01*
X124782Y169282D02*
X124782Y171318D01*
X132518Y171318D01*
X132518Y169282D01*
X132518Y174282D02*
X124782Y174282D01*
X124782Y176318D01*
X132518Y176318D01*
X132518Y174282D01*
X132518Y179282D02*
X124782Y179282D01*
X124782Y181318D01*
X132518Y181318D01*
X132518Y179282D01*
X132518Y184282D02*
X124782Y184282D01*
X124782Y186318D01*
X132518Y186318D01*
X132518Y184282D01*
D11*
X114300Y177800D03*
D12*
X313200Y203200D03*
X424000Y203200D03*
D13*
X152400Y172800D03*
X152400Y182800D03*
D12*
X20800Y197980D03*
X21120Y165130D03*
D14*
X54750Y190500D03*
X72250Y190500D03*
X105550Y146050D03*
X123050Y146050D03*
D15*
X172600Y152400D03*
X157600Y152400D03*
D16*
X172800Y127000D03*
X182800Y127000D03*
D17*
X99300Y121800D03*
X99300Y116800D03*
X99300Y111800D03*
X99300Y106800D03*
X129300Y106800D03*
X129300Y111800D03*
X129300Y116800D03*
X129300Y121800D03*
D18*
X114300Y114300D03*
D19*
X144780Y121780D03*
X144780Y104280D03*
X57800Y129270D03*
X57800Y111770D03*
D20*
X129527Y78190D03*
X129527Y73190D03*
X129527Y68190D03*
X144513Y68190D03*
X144513Y73190D03*
X144513Y78190D03*
D21*
X137020Y73190D03*
D12*
X544800Y203200D03*
X658300Y203200D03*
X771800Y203200D03*
X875300Y203200D03*
D22*
X47780Y41910D03*
X38180Y41910D03*
D23*
X87790Y37540D03*
D24*
X126290Y26040D03*
X126290Y49040D03*
D25*
X18830Y79530D03*
X74830Y79530D03*
D26*
X209500Y50000D03*
X190500Y50000D03*
D12*
X21590Y122400D03*
X230980Y200210D03*
D27*
X82870Y125347D03*
X82870Y107694D03*
D28*
X109220Y180340D03*
X118110Y180340D03*
X109220Y173990D03*
X118110Y173990D03*
X128270Y195580D03*
X120650Y195580D03*
X113030Y195580D03*
X105410Y195580D03*
X97790Y195580D03*
X85090Y175260D03*
X88900Y168910D03*
X91440Y162560D03*
X109220Y162560D03*
X116840Y162560D03*
X124460Y161290D03*
X139700Y168910D03*
X139700Y175260D03*
X110490Y119380D03*
X116840Y119380D03*
X116840Y113030D03*
X110490Y113030D03*
X109220Y96520D03*
X115570Y96520D03*
X121920Y96520D03*
X113030Y90170D03*
X120650Y90170D03*
X125730Y129540D03*
X114300Y129540D03*
X106680Y130810D03*
X100330Y129540D03*
M02*
