G04 EAGLE Gerber RS-274X export*
G75*
%MOMM*%
%FSLAX34Y34*%
%LPD*%
%INTop Copper*%
%IPPOS*%
%AMOC8*
5,1,8,0,0,1.08239X$1,22.5*%
G01*
%ADD10C,0.067500*%
%ADD11R,1.630000X1.430000*%
%ADD12P,2.749271X8X22.500000*%
%ADD13R,0.700000X0.600000*%
%ADD14R,1.050000X1.080000*%
%ADD15R,0.800000X0.800000*%
%ADD16R,0.600000X0.700000*%
%ADD17R,0.800000X0.300000*%
%ADD18R,1.750000X1.900000*%
%ADD19R,1.080000X1.050000*%
%ADD20R,0.711200X0.254000*%
%ADD21R,0.381000X1.320800*%
%ADD22R,0.560000X1.500000*%
%ADD23R,1.600000X0.800000*%
%ADD24R,1.000000X2.000000*%
%ADD25R,1.300000X1.500000*%
%ADD26R,1.803400X1.155700*%
%ADD27C,0.502400*%
%ADD28C,0.127000*%
%ADD29C,0.381000*%

G36*
X47643Y13314D02*
X47643Y13314D01*
X47715Y13316D01*
X47764Y13334D01*
X47815Y13342D01*
X47878Y13376D01*
X47946Y13401D01*
X47986Y13433D01*
X48032Y13458D01*
X48082Y13509D01*
X48138Y13554D01*
X48166Y13598D01*
X48202Y13636D01*
X48232Y13701D01*
X48271Y13761D01*
X48283Y13812D01*
X48305Y13859D01*
X48313Y13930D01*
X48331Y14000D01*
X48327Y14052D01*
X48332Y14103D01*
X48317Y14174D01*
X48312Y14245D01*
X48291Y14293D01*
X48280Y14344D01*
X48243Y14405D01*
X48215Y14471D01*
X48171Y14527D01*
X48154Y14555D01*
X48136Y14570D01*
X48111Y14602D01*
X31066Y31646D01*
X30993Y31699D01*
X30923Y31759D01*
X30893Y31771D01*
X30867Y31790D01*
X30780Y31817D01*
X30695Y31851D01*
X30654Y31855D01*
X30632Y31862D01*
X30599Y31861D01*
X30528Y31869D01*
X23928Y31869D01*
X22439Y33358D01*
X22439Y50462D01*
X23928Y51951D01*
X31632Y51951D01*
X33121Y50462D01*
X33121Y42482D01*
X33135Y42392D01*
X33143Y42301D01*
X33155Y42271D01*
X33160Y42239D01*
X33203Y42158D01*
X33239Y42074D01*
X33265Y42042D01*
X33276Y42022D01*
X33299Y41999D01*
X33344Y41944D01*
X48950Y26337D01*
X49008Y26296D01*
X49060Y26246D01*
X49107Y26224D01*
X49149Y26194D01*
X49218Y26173D01*
X49283Y26143D01*
X49335Y26137D01*
X49385Y26122D01*
X49456Y26123D01*
X49527Y26116D01*
X49578Y26127D01*
X49630Y26128D01*
X49698Y26153D01*
X49768Y26168D01*
X49812Y26194D01*
X49861Y26212D01*
X49917Y26257D01*
X49979Y26294D01*
X50013Y26334D01*
X50053Y26366D01*
X50092Y26426D01*
X50139Y26481D01*
X50158Y26529D01*
X50186Y26573D01*
X50204Y26642D01*
X50231Y26709D01*
X50239Y26780D01*
X50247Y26812D01*
X50245Y26835D01*
X50249Y26876D01*
X50249Y48592D01*
X51738Y50081D01*
X63842Y50081D01*
X65331Y48592D01*
X65331Y46654D01*
X65342Y46583D01*
X65344Y46511D01*
X65362Y46462D01*
X65370Y46411D01*
X65404Y46348D01*
X65429Y46280D01*
X65461Y46240D01*
X65486Y46194D01*
X65538Y46144D01*
X65582Y46088D01*
X65626Y46060D01*
X65664Y46024D01*
X65729Y45994D01*
X65789Y45955D01*
X65840Y45943D01*
X65887Y45921D01*
X65958Y45913D01*
X66028Y45895D01*
X66080Y45899D01*
X66131Y45894D01*
X66202Y45909D01*
X66273Y45914D01*
X66321Y45935D01*
X66372Y45946D01*
X66433Y45983D01*
X66499Y46011D01*
X66555Y46056D01*
X66583Y46072D01*
X66598Y46090D01*
X66630Y46116D01*
X68686Y48172D01*
X73295Y50081D01*
X78285Y50081D01*
X82894Y48172D01*
X83950Y47116D01*
X84008Y47074D01*
X84060Y47024D01*
X84107Y47002D01*
X84149Y46972D01*
X84218Y46951D01*
X84283Y46921D01*
X84335Y46915D01*
X84385Y46900D01*
X84456Y46902D01*
X84527Y46894D01*
X84578Y46905D01*
X84630Y46906D01*
X84698Y46931D01*
X84768Y46946D01*
X84813Y46973D01*
X84861Y46990D01*
X84917Y47035D01*
X84979Y47072D01*
X85013Y47112D01*
X85053Y47144D01*
X85092Y47204D01*
X85139Y47259D01*
X85158Y47307D01*
X85186Y47351D01*
X85204Y47421D01*
X85231Y47487D01*
X85239Y47558D01*
X85247Y47590D01*
X85245Y47613D01*
X85249Y47654D01*
X85249Y56092D01*
X86738Y57581D01*
X90793Y57581D01*
X90813Y57584D01*
X90832Y57582D01*
X90934Y57604D01*
X91036Y57620D01*
X91053Y57630D01*
X91073Y57634D01*
X91162Y57687D01*
X91253Y57736D01*
X91267Y57750D01*
X91284Y57760D01*
X91351Y57839D01*
X91423Y57914D01*
X91431Y57932D01*
X91444Y57947D01*
X91483Y58043D01*
X91526Y58137D01*
X91528Y58157D01*
X91536Y58175D01*
X91554Y58342D01*
X91554Y58842D01*
X96331Y63619D01*
X96384Y63692D01*
X96444Y63762D01*
X96456Y63792D01*
X96475Y63818D01*
X96502Y63905D01*
X96536Y63990D01*
X96540Y64031D01*
X96547Y64053D01*
X96546Y64086D01*
X96554Y64157D01*
X96554Y85793D01*
X96551Y85813D01*
X96553Y85832D01*
X96531Y85934D01*
X96515Y86036D01*
X96505Y86053D01*
X96501Y86073D01*
X96448Y86162D01*
X96399Y86253D01*
X96385Y86267D01*
X96375Y86284D01*
X96296Y86351D01*
X96221Y86423D01*
X96203Y86431D01*
X96188Y86444D01*
X96092Y86483D01*
X95998Y86526D01*
X95978Y86528D01*
X95960Y86536D01*
X95793Y86554D01*
X37592Y86554D01*
X37572Y86551D01*
X37553Y86553D01*
X37451Y86531D01*
X37349Y86515D01*
X37332Y86505D01*
X37312Y86501D01*
X37223Y86448D01*
X37132Y86399D01*
X37118Y86385D01*
X37101Y86375D01*
X37034Y86296D01*
X36962Y86221D01*
X36961Y86217D01*
X27903Y77159D01*
X15277Y77159D01*
X6349Y86087D01*
X6349Y98713D01*
X15277Y107641D01*
X27903Y107641D01*
X28090Y107454D01*
X28106Y107442D01*
X28119Y107427D01*
X28206Y107370D01*
X28290Y107310D01*
X28309Y107304D01*
X28325Y107294D01*
X28426Y107268D01*
X28525Y107238D01*
X28545Y107238D01*
X28564Y107233D01*
X28667Y107241D01*
X28771Y107244D01*
X28789Y107251D01*
X28809Y107253D01*
X28904Y107293D01*
X29002Y107329D01*
X29017Y107341D01*
X29036Y107349D01*
X29166Y107454D01*
X49636Y127924D01*
X49689Y127997D01*
X49749Y128067D01*
X49761Y128097D01*
X49780Y128123D01*
X49807Y128210D01*
X49841Y128295D01*
X49845Y128336D01*
X49852Y128358D01*
X49851Y128391D01*
X49859Y128462D01*
X49859Y135572D01*
X51348Y137061D01*
X64252Y137061D01*
X65741Y135572D01*
X65741Y122968D01*
X64252Y121479D01*
X56082Y121479D01*
X55992Y121465D01*
X55901Y121457D01*
X55871Y121445D01*
X55839Y121440D01*
X55758Y121397D01*
X55675Y121361D01*
X55642Y121335D01*
X55622Y121324D01*
X55600Y121301D01*
X55544Y121256D01*
X35454Y101166D01*
X35442Y101150D01*
X35427Y101138D01*
X35370Y101050D01*
X35310Y100967D01*
X35304Y100948D01*
X35294Y100931D01*
X35268Y100830D01*
X35238Y100732D01*
X35238Y100712D01*
X35233Y100692D01*
X35241Y100589D01*
X35244Y100486D01*
X35251Y100467D01*
X35253Y100447D01*
X35293Y100352D01*
X35329Y100255D01*
X35341Y100239D01*
X35349Y100221D01*
X35454Y100090D01*
X36831Y98713D01*
X36831Y96207D01*
X36834Y96187D01*
X36832Y96168D01*
X36854Y96066D01*
X36870Y95964D01*
X36880Y95947D01*
X36884Y95927D01*
X36937Y95838D01*
X36986Y95747D01*
X37000Y95733D01*
X37010Y95716D01*
X37089Y95649D01*
X37164Y95577D01*
X37182Y95569D01*
X37197Y95556D01*
X37293Y95517D01*
X37387Y95474D01*
X37407Y95472D01*
X37425Y95464D01*
X37592Y95446D01*
X95793Y95446D01*
X95813Y95449D01*
X95832Y95447D01*
X95934Y95469D01*
X96036Y95485D01*
X96053Y95495D01*
X96073Y95499D01*
X96162Y95552D01*
X96253Y95601D01*
X96267Y95615D01*
X96284Y95625D01*
X96351Y95704D01*
X96423Y95779D01*
X96431Y95797D01*
X96444Y95812D01*
X96483Y95908D01*
X96526Y96002D01*
X96528Y96022D01*
X96536Y96040D01*
X96554Y96207D01*
X96554Y101998D01*
X96551Y102018D01*
X96553Y102037D01*
X96531Y102139D01*
X96515Y102241D01*
X96505Y102258D01*
X96501Y102278D01*
X96448Y102367D01*
X96399Y102458D01*
X96385Y102472D01*
X96375Y102489D01*
X96296Y102556D01*
X96221Y102628D01*
X96203Y102636D01*
X96188Y102649D01*
X96092Y102688D01*
X95998Y102731D01*
X95978Y102733D01*
X95960Y102741D01*
X95793Y102759D01*
X95189Y102759D01*
X95169Y102756D01*
X95150Y102758D01*
X95048Y102736D01*
X94946Y102720D01*
X94929Y102710D01*
X94909Y102706D01*
X94820Y102653D01*
X94729Y102604D01*
X94715Y102590D01*
X94698Y102580D01*
X94631Y102501D01*
X94559Y102426D01*
X94551Y102408D01*
X94538Y102393D01*
X94499Y102297D01*
X94456Y102203D01*
X94454Y102183D01*
X94446Y102165D01*
X94428Y101998D01*
X94428Y100863D01*
X92939Y99374D01*
X72801Y99374D01*
X71312Y100863D01*
X71312Y114524D01*
X72770Y115982D01*
X72781Y115998D01*
X72797Y116010D01*
X72853Y116098D01*
X72913Y116181D01*
X72919Y116200D01*
X72930Y116217D01*
X72955Y116318D01*
X72985Y116417D01*
X72985Y116436D01*
X72990Y116456D01*
X72982Y116559D01*
X72979Y116662D01*
X72972Y116681D01*
X72971Y116701D01*
X72930Y116796D01*
X72895Y116893D01*
X72882Y116909D01*
X72874Y116927D01*
X72770Y117058D01*
X71312Y118516D01*
X71312Y132177D01*
X72801Y133666D01*
X92939Y133666D01*
X94428Y132177D01*
X94428Y126602D01*
X94431Y126582D01*
X94429Y126563D01*
X94451Y126461D01*
X94467Y126359D01*
X94477Y126342D01*
X94481Y126322D01*
X94534Y126233D01*
X94583Y126142D01*
X94597Y126128D01*
X94607Y126111D01*
X94686Y126044D01*
X94761Y125972D01*
X94779Y125964D01*
X94794Y125951D01*
X94890Y125912D01*
X94984Y125869D01*
X95004Y125867D01*
X95022Y125859D01*
X95189Y125841D01*
X104352Y125841D01*
X105841Y124352D01*
X105841Y119248D01*
X104352Y117759D01*
X93987Y117759D01*
X93897Y117745D01*
X93806Y117737D01*
X93776Y117725D01*
X93744Y117720D01*
X93663Y117677D01*
X93579Y117641D01*
X93547Y117615D01*
X93527Y117604D01*
X93504Y117581D01*
X93448Y117536D01*
X92970Y117058D01*
X92959Y117042D01*
X92943Y117030D01*
X92887Y116942D01*
X92827Y116859D01*
X92821Y116840D01*
X92810Y116823D01*
X92785Y116722D01*
X92755Y116623D01*
X92755Y116604D01*
X92750Y116584D01*
X92758Y116481D01*
X92761Y116378D01*
X92768Y116359D01*
X92769Y116339D01*
X92810Y116244D01*
X92845Y116147D01*
X92858Y116131D01*
X92866Y116113D01*
X92970Y115982D01*
X93141Y115811D01*
X93157Y115799D01*
X93170Y115784D01*
X93257Y115728D01*
X93341Y115667D01*
X93360Y115662D01*
X93377Y115651D01*
X93477Y115625D01*
X93576Y115595D01*
X93596Y115596D01*
X93615Y115591D01*
X93718Y115599D01*
X93822Y115601D01*
X93841Y115608D01*
X93860Y115610D01*
X93955Y115650D01*
X94053Y115686D01*
X94069Y115698D01*
X94087Y115706D01*
X94218Y115811D01*
X94248Y115841D01*
X104352Y115841D01*
X105841Y114352D01*
X105841Y104248D01*
X105669Y104076D01*
X105616Y104002D01*
X105556Y103932D01*
X105544Y103902D01*
X105525Y103876D01*
X105498Y103789D01*
X105464Y103704D01*
X105460Y103663D01*
X105453Y103641D01*
X105454Y103609D01*
X105446Y103537D01*
X105446Y60158D01*
X104167Y58880D01*
X104126Y58822D01*
X104076Y58770D01*
X104054Y58723D01*
X104024Y58681D01*
X104003Y58612D01*
X103973Y58547D01*
X103967Y58495D01*
X103952Y58445D01*
X103953Y58374D01*
X103946Y58303D01*
X103957Y58252D01*
X103958Y58200D01*
X103983Y58132D01*
X103998Y58062D01*
X104025Y58017D01*
X104042Y57969D01*
X104087Y57913D01*
X104124Y57851D01*
X104164Y57817D01*
X104196Y57777D01*
X104256Y57738D01*
X104311Y57691D01*
X104359Y57672D01*
X104403Y57644D01*
X104472Y57626D01*
X104539Y57599D01*
X104610Y57591D01*
X104642Y57583D01*
X104665Y57585D01*
X104706Y57581D01*
X104842Y57581D01*
X106331Y56092D01*
X106331Y45988D01*
X105171Y44828D01*
X105160Y44812D01*
X105144Y44800D01*
X105088Y44712D01*
X105028Y44629D01*
X105022Y44610D01*
X105011Y44593D01*
X104986Y44492D01*
X104956Y44393D01*
X104956Y44374D01*
X104951Y44354D01*
X104959Y44251D01*
X104962Y44148D01*
X104969Y44129D01*
X104970Y44109D01*
X105011Y44014D01*
X105046Y43917D01*
X105059Y43901D01*
X105067Y43883D01*
X105171Y43752D01*
X106331Y42592D01*
X106331Y37272D01*
X106345Y37182D01*
X106353Y37091D01*
X106365Y37061D01*
X106370Y37029D01*
X106413Y36948D01*
X106449Y36864D01*
X106475Y36832D01*
X106486Y36812D01*
X106509Y36789D01*
X106554Y36734D01*
X111446Y31842D01*
X111446Y14064D01*
X111449Y14044D01*
X111447Y14025D01*
X111469Y13923D01*
X111485Y13821D01*
X111495Y13804D01*
X111499Y13784D01*
X111552Y13695D01*
X111601Y13604D01*
X111615Y13590D01*
X111625Y13573D01*
X111704Y13506D01*
X111779Y13434D01*
X111797Y13426D01*
X111812Y13413D01*
X111908Y13374D01*
X112002Y13331D01*
X112022Y13329D01*
X112040Y13321D01*
X112207Y13303D01*
X895936Y13303D01*
X895956Y13306D01*
X895975Y13304D01*
X896077Y13326D01*
X896179Y13342D01*
X896196Y13352D01*
X896216Y13356D01*
X896305Y13409D01*
X896396Y13458D01*
X896410Y13472D01*
X896427Y13482D01*
X896494Y13561D01*
X896566Y13636D01*
X896574Y13654D01*
X896587Y13669D01*
X896626Y13765D01*
X896669Y13859D01*
X896671Y13879D01*
X896679Y13897D01*
X896697Y14064D01*
X896697Y215936D01*
X896694Y215956D01*
X896696Y215975D01*
X896674Y216077D01*
X896658Y216179D01*
X896648Y216196D01*
X896644Y216216D01*
X896591Y216305D01*
X896542Y216396D01*
X896528Y216410D01*
X896518Y216427D01*
X896439Y216494D01*
X896364Y216566D01*
X896346Y216574D01*
X896331Y216587D01*
X896235Y216626D01*
X896141Y216669D01*
X896121Y216671D01*
X896103Y216679D01*
X895936Y216697D01*
X781694Y216697D01*
X781623Y216686D01*
X781552Y216684D01*
X781503Y216666D01*
X781451Y216658D01*
X781388Y216624D01*
X781321Y216599D01*
X781280Y216567D01*
X781234Y216542D01*
X781185Y216490D01*
X781129Y216446D01*
X781101Y216402D01*
X781065Y216364D01*
X781034Y216299D01*
X780996Y216239D01*
X780983Y216188D01*
X780961Y216141D01*
X780953Y216070D01*
X780936Y216000D01*
X780940Y215948D01*
X780934Y215897D01*
X780949Y215826D01*
X780955Y215755D01*
X780975Y215707D01*
X780986Y215656D01*
X781023Y215595D01*
X781051Y215529D01*
X781096Y215473D01*
X781112Y215445D01*
X781130Y215430D01*
X781156Y215398D01*
X787041Y209513D01*
X787041Y196887D01*
X778113Y187959D01*
X765487Y187959D01*
X756559Y196887D01*
X756559Y209513D01*
X762444Y215398D01*
X762486Y215456D01*
X762535Y215508D01*
X762557Y215555D01*
X762588Y215597D01*
X762609Y215666D01*
X762639Y215731D01*
X762645Y215783D01*
X762660Y215833D01*
X762658Y215904D01*
X762666Y215975D01*
X762655Y216026D01*
X762654Y216078D01*
X762629Y216146D01*
X762614Y216216D01*
X762587Y216261D01*
X762569Y216309D01*
X762524Y216365D01*
X762488Y216427D01*
X762448Y216461D01*
X762415Y216501D01*
X762355Y216540D01*
X762301Y216587D01*
X762252Y216606D01*
X762209Y216634D01*
X762139Y216652D01*
X762073Y216679D01*
X762001Y216687D01*
X761970Y216695D01*
X761947Y216693D01*
X761906Y216697D01*
X554694Y216697D01*
X554623Y216686D01*
X554552Y216684D01*
X554503Y216666D01*
X554451Y216658D01*
X554388Y216624D01*
X554321Y216599D01*
X554280Y216567D01*
X554234Y216542D01*
X554185Y216490D01*
X554129Y216446D01*
X554101Y216402D01*
X554065Y216364D01*
X554034Y216299D01*
X553996Y216239D01*
X553983Y216188D01*
X553961Y216141D01*
X553953Y216070D01*
X553936Y216000D01*
X553940Y215948D01*
X553934Y215897D01*
X553949Y215826D01*
X553955Y215755D01*
X553975Y215707D01*
X553986Y215656D01*
X554023Y215595D01*
X554051Y215529D01*
X554096Y215473D01*
X554112Y215445D01*
X554130Y215430D01*
X554156Y215398D01*
X560041Y209513D01*
X560041Y196887D01*
X551113Y187959D01*
X538487Y187959D01*
X529559Y196887D01*
X529559Y209513D01*
X535444Y215398D01*
X535486Y215456D01*
X535535Y215508D01*
X535557Y215555D01*
X535588Y215597D01*
X535609Y215666D01*
X535639Y215731D01*
X535645Y215783D01*
X535660Y215833D01*
X535658Y215904D01*
X535666Y215975D01*
X535655Y216026D01*
X535654Y216078D01*
X535629Y216146D01*
X535614Y216216D01*
X535587Y216261D01*
X535569Y216309D01*
X535524Y216365D01*
X535488Y216427D01*
X535448Y216461D01*
X535415Y216501D01*
X535355Y216540D01*
X535301Y216587D01*
X535252Y216606D01*
X535209Y216634D01*
X535139Y216652D01*
X535073Y216679D01*
X535001Y216687D01*
X534970Y216695D01*
X534947Y216693D01*
X534906Y216697D01*
X323094Y216697D01*
X323023Y216686D01*
X322952Y216684D01*
X322903Y216666D01*
X322851Y216658D01*
X322788Y216624D01*
X322721Y216599D01*
X322680Y216567D01*
X322634Y216542D01*
X322585Y216490D01*
X322529Y216446D01*
X322501Y216402D01*
X322465Y216364D01*
X322434Y216299D01*
X322396Y216239D01*
X322383Y216188D01*
X322361Y216141D01*
X322353Y216070D01*
X322336Y216000D01*
X322340Y215948D01*
X322334Y215897D01*
X322349Y215826D01*
X322355Y215755D01*
X322375Y215707D01*
X322386Y215656D01*
X322423Y215595D01*
X322451Y215529D01*
X322496Y215473D01*
X322512Y215445D01*
X322530Y215430D01*
X322556Y215398D01*
X328441Y209513D01*
X328441Y196887D01*
X319513Y187959D01*
X318207Y187959D01*
X318187Y187956D01*
X318168Y187958D01*
X318066Y187936D01*
X317964Y187920D01*
X317947Y187910D01*
X317927Y187906D01*
X317838Y187853D01*
X317747Y187804D01*
X317733Y187790D01*
X317716Y187780D01*
X317649Y187701D01*
X317577Y187626D01*
X317569Y187608D01*
X317556Y187593D01*
X317517Y187497D01*
X317474Y187403D01*
X317472Y187383D01*
X317464Y187365D01*
X317446Y187198D01*
X317446Y151158D01*
X248764Y82476D01*
X248711Y82403D01*
X248651Y82333D01*
X248639Y82303D01*
X248620Y82277D01*
X248593Y82190D01*
X248559Y82105D01*
X248555Y82064D01*
X248548Y82042D01*
X248549Y82009D01*
X248541Y81938D01*
X248541Y71448D01*
X247052Y69959D01*
X231948Y69959D01*
X230538Y71369D01*
X230522Y71380D01*
X230510Y71396D01*
X230422Y71452D01*
X230339Y71512D01*
X230320Y71518D01*
X230303Y71529D01*
X230202Y71554D01*
X230103Y71584D01*
X230084Y71584D01*
X230064Y71589D01*
X229961Y71581D01*
X229858Y71578D01*
X229839Y71571D01*
X229819Y71570D01*
X229724Y71529D01*
X229627Y71494D01*
X229611Y71481D01*
X229593Y71473D01*
X229462Y71369D01*
X228052Y69959D01*
X212948Y69959D01*
X212576Y70331D01*
X212502Y70384D01*
X212432Y70444D01*
X212402Y70456D01*
X212376Y70475D01*
X212289Y70502D01*
X212204Y70536D01*
X212163Y70540D01*
X212141Y70547D01*
X212109Y70546D01*
X212037Y70554D01*
X171371Y70554D01*
X171351Y70551D01*
X171332Y70553D01*
X171230Y70531D01*
X171128Y70515D01*
X171111Y70505D01*
X171091Y70501D01*
X171002Y70448D01*
X170911Y70399D01*
X170897Y70385D01*
X170880Y70375D01*
X170813Y70296D01*
X170741Y70221D01*
X170733Y70203D01*
X170720Y70188D01*
X170681Y70092D01*
X170638Y69998D01*
X170636Y69978D01*
X170628Y69960D01*
X170610Y69793D01*
X170610Y65868D01*
X169121Y64379D01*
X159905Y64379D01*
X158416Y65868D01*
X158416Y80512D01*
X159331Y81427D01*
X159384Y81501D01*
X159444Y81571D01*
X159456Y81601D01*
X159475Y81627D01*
X159502Y81714D01*
X159536Y81799D01*
X159540Y81840D01*
X159547Y81862D01*
X159546Y81894D01*
X159554Y81966D01*
X159554Y100843D01*
X159549Y100876D01*
X159550Y100886D01*
X159539Y100934D01*
X159532Y101024D01*
X159520Y101054D01*
X159515Y101086D01*
X159501Y101112D01*
X159498Y101126D01*
X159467Y101177D01*
X159436Y101250D01*
X159410Y101283D01*
X159399Y101303D01*
X159382Y101320D01*
X159371Y101337D01*
X159356Y101351D01*
X159331Y101381D01*
X146946Y113766D01*
X146873Y113819D01*
X146803Y113879D01*
X146773Y113891D01*
X146747Y113910D01*
X146660Y113937D01*
X146575Y113971D01*
X146534Y113975D01*
X146512Y113982D01*
X146479Y113981D01*
X146408Y113989D01*
X138328Y113989D01*
X136839Y115478D01*
X136839Y118408D01*
X136828Y118479D01*
X136826Y118551D01*
X136808Y118600D01*
X136800Y118651D01*
X136766Y118714D01*
X136741Y118782D01*
X136709Y118822D01*
X136684Y118868D01*
X136632Y118918D01*
X136588Y118974D01*
X136544Y119002D01*
X136506Y119038D01*
X136441Y119068D01*
X136381Y119107D01*
X136330Y119120D01*
X136283Y119141D01*
X136212Y119149D01*
X136142Y119167D01*
X136090Y119163D01*
X136039Y119169D01*
X135968Y119153D01*
X135897Y119148D01*
X135849Y119127D01*
X135798Y119116D01*
X135737Y119079D01*
X135671Y119051D01*
X135615Y119007D01*
X135587Y118990D01*
X135572Y118972D01*
X135540Y118947D01*
X134352Y117759D01*
X132362Y117759D01*
X132272Y117745D01*
X132181Y117737D01*
X132151Y117725D01*
X132119Y117720D01*
X132038Y117677D01*
X131955Y117641D01*
X131922Y117615D01*
X131902Y117604D01*
X131880Y117581D01*
X131846Y117554D01*
X130729Y117554D01*
X130708Y117551D01*
X130686Y117553D01*
X130520Y117525D01*
X128751Y117019D01*
X127591Y117663D01*
X127490Y117700D01*
X127388Y117741D01*
X127371Y117743D01*
X127360Y117747D01*
X127331Y117747D01*
X127222Y117759D01*
X124248Y117759D01*
X122759Y119248D01*
X122759Y124352D01*
X124248Y125841D01*
X127153Y125841D01*
X127175Y125844D01*
X127197Y125842D01*
X127362Y125870D01*
X127481Y125904D01*
X127580Y125950D01*
X127680Y125993D01*
X127693Y126004D01*
X127704Y126009D01*
X127725Y126029D01*
X127810Y126098D01*
X130158Y128446D01*
X136887Y128446D01*
X136977Y128460D01*
X137068Y128468D01*
X137098Y128480D01*
X137130Y128485D01*
X137211Y128528D01*
X137295Y128564D01*
X137327Y128590D01*
X137347Y128601D01*
X137370Y128624D01*
X137426Y128669D01*
X138328Y129571D01*
X151304Y129571D01*
X151375Y129582D01*
X151447Y129584D01*
X151496Y129602D01*
X151547Y129610D01*
X151610Y129644D01*
X151678Y129669D01*
X151718Y129701D01*
X151764Y129726D01*
X151814Y129778D01*
X151870Y129822D01*
X151898Y129866D01*
X151934Y129904D01*
X151964Y129969D01*
X152003Y130029D01*
X152015Y130080D01*
X152037Y130127D01*
X152045Y130198D01*
X152063Y130268D01*
X152059Y130320D01*
X152064Y130371D01*
X152049Y130442D01*
X152044Y130513D01*
X152023Y130561D01*
X152012Y130612D01*
X151975Y130673D01*
X151947Y130739D01*
X151903Y130795D01*
X151886Y130823D01*
X151868Y130838D01*
X151843Y130870D01*
X139554Y143158D01*
X139554Y154793D01*
X139551Y154813D01*
X139553Y154832D01*
X139531Y154934D01*
X139515Y155036D01*
X139505Y155053D01*
X139501Y155073D01*
X139448Y155162D01*
X139399Y155253D01*
X139385Y155267D01*
X139375Y155284D01*
X139296Y155351D01*
X139221Y155423D01*
X139203Y155431D01*
X139188Y155444D01*
X139092Y155483D01*
X138998Y155526D01*
X138978Y155528D01*
X138960Y155536D01*
X138793Y155554D01*
X110207Y155554D01*
X110187Y155551D01*
X110168Y155553D01*
X110066Y155531D01*
X109964Y155515D01*
X109947Y155505D01*
X109927Y155501D01*
X109838Y155448D01*
X109747Y155399D01*
X109733Y155385D01*
X109716Y155375D01*
X109649Y155296D01*
X109577Y155221D01*
X109569Y155203D01*
X109556Y155188D01*
X109517Y155092D01*
X109474Y154998D01*
X109472Y154978D01*
X109464Y154960D01*
X109446Y154793D01*
X109446Y154752D01*
X109449Y154732D01*
X109447Y154713D01*
X109469Y154611D01*
X109485Y154509D01*
X109495Y154492D01*
X109499Y154472D01*
X109552Y154383D01*
X109601Y154292D01*
X109615Y154278D01*
X109625Y154261D01*
X109704Y154194D01*
X109779Y154122D01*
X109797Y154114D01*
X109812Y154101D01*
X109908Y154062D01*
X110002Y154019D01*
X110022Y154017D01*
X110040Y154009D01*
X110207Y153991D01*
X111852Y153991D01*
X113341Y152502D01*
X113341Y139598D01*
X111852Y138109D01*
X99248Y138109D01*
X97759Y139598D01*
X97759Y152502D01*
X99248Y153991D01*
X99793Y153991D01*
X99813Y153994D01*
X99832Y153992D01*
X99934Y154014D01*
X100036Y154030D01*
X100053Y154040D01*
X100073Y154044D01*
X100162Y154097D01*
X100253Y154146D01*
X100267Y154160D01*
X100284Y154170D01*
X100351Y154249D01*
X100423Y154324D01*
X100431Y154342D01*
X100444Y154357D01*
X100483Y154453D01*
X100526Y154547D01*
X100528Y154567D01*
X100536Y154585D01*
X100554Y154752D01*
X100554Y162843D01*
X100540Y162933D01*
X100532Y163024D01*
X100520Y163054D01*
X100515Y163086D01*
X100472Y163166D01*
X100436Y163250D01*
X100410Y163283D01*
X100399Y163303D01*
X100376Y163325D01*
X100331Y163381D01*
X99158Y164555D01*
X99116Y164585D01*
X99081Y164622D01*
X99017Y164656D01*
X98958Y164699D01*
X98909Y164714D01*
X98864Y164738D01*
X98748Y164763D01*
X98723Y164771D01*
X98714Y164771D01*
X98700Y164774D01*
X98699Y164774D01*
X97715Y165992D01*
X97694Y166010D01*
X97661Y166052D01*
X97526Y166186D01*
X97452Y166240D01*
X97383Y166299D01*
X97353Y166311D01*
X97327Y166330D01*
X97240Y166357D01*
X97155Y166391D01*
X97114Y166395D01*
X97092Y166402D01*
X97059Y166401D01*
X96988Y166409D01*
X94895Y166409D01*
X93209Y168095D01*
X93209Y180438D01*
X93195Y180528D01*
X93187Y180619D01*
X93179Y180638D01*
X93179Y184793D01*
X93176Y184813D01*
X93178Y184832D01*
X93156Y184934D01*
X93140Y185036D01*
X93130Y185053D01*
X93126Y185073D01*
X93073Y185162D01*
X93024Y185253D01*
X93010Y185267D01*
X93000Y185284D01*
X92921Y185351D01*
X92846Y185423D01*
X92828Y185431D01*
X92813Y185444D01*
X92717Y185483D01*
X92623Y185526D01*
X92603Y185528D01*
X92585Y185536D01*
X92418Y185554D01*
X85882Y185554D01*
X85862Y185551D01*
X85843Y185553D01*
X85741Y185531D01*
X85639Y185515D01*
X85622Y185505D01*
X85602Y185501D01*
X85513Y185448D01*
X85422Y185399D01*
X85408Y185385D01*
X85391Y185375D01*
X85324Y185296D01*
X85252Y185221D01*
X85244Y185203D01*
X85231Y185188D01*
X85192Y185092D01*
X85149Y184998D01*
X85147Y184978D01*
X85139Y184960D01*
X85121Y184793D01*
X85121Y181943D01*
X84669Y181491D01*
X84616Y181417D01*
X84556Y181348D01*
X84544Y181318D01*
X84525Y181292D01*
X84498Y181205D01*
X84464Y181120D01*
X84460Y181079D01*
X84453Y181057D01*
X84454Y181024D01*
X84446Y180953D01*
X84446Y168158D01*
X81842Y165554D01*
X58158Y165554D01*
X50304Y173408D01*
X50304Y181798D01*
X50301Y181818D01*
X50303Y181837D01*
X50281Y181939D01*
X50265Y182041D01*
X50255Y182058D01*
X50251Y182078D01*
X50198Y182167D01*
X50149Y182258D01*
X50135Y182272D01*
X50125Y182289D01*
X50046Y182356D01*
X49971Y182428D01*
X49953Y182436D01*
X49938Y182449D01*
X49842Y182488D01*
X49748Y182531D01*
X49728Y182533D01*
X49710Y182541D01*
X49543Y182559D01*
X48448Y182559D01*
X46959Y184048D01*
X46959Y185793D01*
X46956Y185813D01*
X46958Y185832D01*
X46936Y185934D01*
X46920Y186036D01*
X46910Y186053D01*
X46906Y186073D01*
X46853Y186162D01*
X46804Y186253D01*
X46790Y186267D01*
X46780Y186284D01*
X46701Y186351D01*
X46626Y186423D01*
X46608Y186431D01*
X46593Y186444D01*
X46497Y186483D01*
X46403Y186526D01*
X46383Y186528D01*
X46365Y186536D01*
X46198Y186554D01*
X31243Y186554D01*
X31153Y186540D01*
X31062Y186532D01*
X31032Y186520D01*
X31000Y186515D01*
X30920Y186472D01*
X30836Y186436D01*
X30804Y186410D01*
X30783Y186399D01*
X30761Y186376D01*
X30705Y186331D01*
X27113Y182739D01*
X14487Y182739D01*
X5559Y191667D01*
X5559Y204293D01*
X14487Y213221D01*
X27113Y213221D01*
X36041Y204293D01*
X36041Y196207D01*
X36044Y196187D01*
X36042Y196168D01*
X36064Y196066D01*
X36080Y195964D01*
X36090Y195947D01*
X36094Y195927D01*
X36147Y195838D01*
X36196Y195747D01*
X36210Y195733D01*
X36220Y195716D01*
X36299Y195649D01*
X36374Y195577D01*
X36392Y195569D01*
X36407Y195556D01*
X36503Y195517D01*
X36597Y195474D01*
X36617Y195472D01*
X36635Y195464D01*
X36802Y195446D01*
X46198Y195446D01*
X46218Y195449D01*
X46237Y195447D01*
X46339Y195469D01*
X46441Y195485D01*
X46458Y195495D01*
X46478Y195499D01*
X46567Y195552D01*
X46658Y195601D01*
X46672Y195615D01*
X46689Y195625D01*
X46756Y195704D01*
X46828Y195779D01*
X46836Y195797D01*
X46849Y195812D01*
X46888Y195908D01*
X46931Y196002D01*
X46933Y196022D01*
X46941Y196040D01*
X46959Y196207D01*
X46959Y196952D01*
X48448Y198441D01*
X61052Y198441D01*
X62541Y196952D01*
X62541Y184048D01*
X61052Y182559D01*
X59957Y182559D01*
X59937Y182556D01*
X59918Y182558D01*
X59816Y182536D01*
X59714Y182520D01*
X59697Y182510D01*
X59677Y182506D01*
X59588Y182453D01*
X59497Y182404D01*
X59483Y182390D01*
X59466Y182380D01*
X59399Y182301D01*
X59327Y182226D01*
X59319Y182208D01*
X59306Y182193D01*
X59267Y182097D01*
X59224Y182003D01*
X59222Y181983D01*
X59214Y181965D01*
X59196Y181798D01*
X59196Y177407D01*
X59210Y177317D01*
X59218Y177226D01*
X59230Y177196D01*
X59235Y177164D01*
X59278Y177083D01*
X59314Y177000D01*
X59340Y176967D01*
X59351Y176947D01*
X59374Y176925D01*
X59419Y176869D01*
X61619Y174669D01*
X61692Y174616D01*
X61762Y174556D01*
X61792Y174544D01*
X61818Y174525D01*
X61905Y174498D01*
X61990Y174464D01*
X62031Y174460D01*
X62053Y174453D01*
X62086Y174454D01*
X62157Y174446D01*
X74793Y174446D01*
X74813Y174449D01*
X74832Y174447D01*
X74934Y174469D01*
X75036Y174485D01*
X75053Y174495D01*
X75073Y174499D01*
X75162Y174552D01*
X75253Y174601D01*
X75267Y174615D01*
X75284Y174625D01*
X75351Y174704D01*
X75423Y174779D01*
X75431Y174797D01*
X75444Y174812D01*
X75483Y174908D01*
X75526Y175002D01*
X75528Y175022D01*
X75536Y175040D01*
X75554Y175207D01*
X75554Y184951D01*
X76006Y185403D01*
X76059Y185477D01*
X76119Y185547D01*
X76131Y185577D01*
X76150Y185603D01*
X76177Y185690D01*
X76211Y185775D01*
X76215Y185816D01*
X76222Y185838D01*
X76221Y185870D01*
X76229Y185942D01*
X76229Y191842D01*
X78833Y194446D01*
X97092Y194446D01*
X102124Y189414D01*
X102197Y189361D01*
X102267Y189301D01*
X102297Y189289D01*
X102323Y189270D01*
X102410Y189243D01*
X102495Y189209D01*
X102536Y189205D01*
X102558Y189198D01*
X102591Y189199D01*
X102662Y189191D01*
X105005Y189191D01*
X106691Y187505D01*
X106691Y169912D01*
X106705Y169822D01*
X106713Y169731D01*
X106725Y169701D01*
X106730Y169669D01*
X106773Y169588D01*
X106809Y169505D01*
X106835Y169472D01*
X106846Y169452D01*
X106869Y169430D01*
X106914Y169374D01*
X109446Y166842D01*
X109446Y165207D01*
X109449Y165187D01*
X109447Y165168D01*
X109469Y165066D01*
X109485Y164964D01*
X109495Y164947D01*
X109499Y164927D01*
X109552Y164838D01*
X109601Y164747D01*
X109615Y164733D01*
X109625Y164716D01*
X109704Y164649D01*
X109779Y164577D01*
X109797Y164569D01*
X109812Y164556D01*
X109908Y164517D01*
X110002Y164474D01*
X110022Y164472D01*
X110040Y164464D01*
X110207Y164446D01*
X139225Y164446D01*
X139296Y164457D01*
X139368Y164459D01*
X139417Y164477D01*
X139468Y164485D01*
X139531Y164519D01*
X139599Y164544D01*
X139639Y164576D01*
X139685Y164601D01*
X139735Y164653D01*
X139791Y164697D01*
X139819Y164741D01*
X139855Y164779D01*
X139885Y164844D01*
X139924Y164904D01*
X139936Y164955D01*
X139958Y165002D01*
X139966Y165073D01*
X139984Y165143D01*
X139980Y165195D01*
X139986Y165246D01*
X139970Y165317D01*
X139965Y165388D01*
X139944Y165436D01*
X139933Y165487D01*
X139896Y165548D01*
X139868Y165614D01*
X139824Y165670D01*
X139807Y165698D01*
X139789Y165713D01*
X139764Y165745D01*
X138908Y166601D01*
X138834Y166654D01*
X138764Y166714D01*
X138734Y166726D01*
X138708Y166745D01*
X138621Y166772D01*
X138536Y166806D01*
X138495Y166810D01*
X138473Y166817D01*
X138441Y166816D01*
X138369Y166824D01*
X134435Y166824D01*
X134345Y166810D01*
X134254Y166802D01*
X134224Y166790D01*
X134192Y166785D01*
X134112Y166742D01*
X134028Y166706D01*
X133996Y166680D01*
X133975Y166669D01*
X133953Y166646D01*
X133897Y166601D01*
X133705Y166409D01*
X123595Y166409D01*
X121909Y168095D01*
X121909Y172505D01*
X123595Y174191D01*
X133705Y174191D01*
X134497Y173399D01*
X134571Y173346D01*
X134640Y173286D01*
X134670Y173274D01*
X134697Y173255D01*
X134783Y173228D01*
X134868Y173194D01*
X134909Y173190D01*
X134932Y173183D01*
X134964Y173184D01*
X135035Y173176D01*
X141315Y173176D01*
X143399Y171092D01*
X155327Y159164D01*
X155401Y159111D01*
X155471Y159051D01*
X155501Y159039D01*
X155527Y159020D01*
X155614Y158993D01*
X155699Y158959D01*
X155740Y158955D01*
X155762Y158948D01*
X155794Y158949D01*
X155866Y158941D01*
X162652Y158941D01*
X164141Y157452D01*
X164141Y147348D01*
X162652Y145859D01*
X152548Y145859D01*
X151059Y147348D01*
X151059Y154134D01*
X151056Y154154D01*
X151058Y154173D01*
X151043Y154243D01*
X151037Y154315D01*
X151025Y154345D01*
X151020Y154377D01*
X151010Y154395D01*
X151006Y154414D01*
X150970Y154475D01*
X150941Y154542D01*
X150915Y154574D01*
X150904Y154594D01*
X150890Y154608D01*
X150880Y154625D01*
X150863Y154640D01*
X150836Y154673D01*
X149745Y155764D01*
X149687Y155805D01*
X149635Y155855D01*
X149588Y155877D01*
X149546Y155907D01*
X149477Y155928D01*
X149412Y155958D01*
X149360Y155964D01*
X149310Y155979D01*
X149239Y155978D01*
X149168Y155986D01*
X149117Y155974D01*
X149065Y155973D01*
X148997Y155948D01*
X148927Y155933D01*
X148883Y155907D01*
X148834Y155889D01*
X148778Y155844D01*
X148716Y155807D01*
X148682Y155768D01*
X148642Y155735D01*
X148603Y155675D01*
X148556Y155620D01*
X148537Y155572D01*
X148509Y155528D01*
X148491Y155459D01*
X148464Y155392D01*
X148456Y155321D01*
X148448Y155290D01*
X148450Y155266D01*
X148446Y155225D01*
X148446Y147157D01*
X148460Y147067D01*
X148468Y146976D01*
X148480Y146946D01*
X148485Y146914D01*
X148528Y146833D01*
X148564Y146750D01*
X148590Y146717D01*
X148601Y146697D01*
X148624Y146675D01*
X148669Y146619D01*
X170446Y124842D01*
X170446Y124157D01*
X170460Y124067D01*
X170468Y123976D01*
X170480Y123946D01*
X170485Y123914D01*
X170528Y123833D01*
X170564Y123750D01*
X170590Y123717D01*
X170601Y123697D01*
X170624Y123675D01*
X170669Y123619D01*
X192619Y101669D01*
X192692Y101616D01*
X192762Y101556D01*
X192792Y101544D01*
X192818Y101525D01*
X192905Y101498D01*
X192990Y101464D01*
X193031Y101460D01*
X193053Y101453D01*
X193086Y101454D01*
X193157Y101446D01*
X239842Y101446D01*
X242446Y98842D01*
X242446Y90802D01*
X242449Y90782D01*
X242447Y90763D01*
X242469Y90661D01*
X242485Y90559D01*
X242495Y90542D01*
X242499Y90522D01*
X242552Y90433D01*
X242601Y90342D01*
X242615Y90328D01*
X242625Y90311D01*
X242704Y90244D01*
X242779Y90172D01*
X242797Y90164D01*
X242812Y90151D01*
X242908Y90112D01*
X243002Y90069D01*
X243022Y90067D01*
X243040Y90059D01*
X243207Y90041D01*
X243438Y90041D01*
X243528Y90055D01*
X243619Y90063D01*
X243649Y90075D01*
X243681Y90080D01*
X243762Y90123D01*
X243845Y90159D01*
X243878Y90185D01*
X243898Y90196D01*
X243920Y90219D01*
X243976Y90264D01*
X308331Y154619D01*
X308384Y154692D01*
X308444Y154762D01*
X308456Y154792D01*
X308475Y154818D01*
X308502Y154905D01*
X308536Y154990D01*
X308540Y155031D01*
X308547Y155053D01*
X308546Y155086D01*
X308554Y155157D01*
X308554Y187198D01*
X308551Y187218D01*
X308553Y187237D01*
X308531Y187339D01*
X308515Y187441D01*
X308505Y187458D01*
X308501Y187478D01*
X308448Y187567D01*
X308399Y187658D01*
X308385Y187672D01*
X308375Y187689D01*
X308296Y187756D01*
X308221Y187828D01*
X308203Y187836D01*
X308188Y187849D01*
X308092Y187888D01*
X307998Y187931D01*
X307978Y187933D01*
X307960Y187941D01*
X307793Y187959D01*
X306887Y187959D01*
X297959Y196887D01*
X297959Y209513D01*
X303844Y215398D01*
X303886Y215456D01*
X303935Y215508D01*
X303957Y215555D01*
X303988Y215597D01*
X304009Y215666D01*
X304039Y215731D01*
X304045Y215783D01*
X304060Y215833D01*
X304058Y215904D01*
X304066Y215975D01*
X304055Y216026D01*
X304054Y216078D01*
X304029Y216146D01*
X304014Y216216D01*
X303987Y216261D01*
X303969Y216309D01*
X303924Y216365D01*
X303888Y216427D01*
X303848Y216461D01*
X303815Y216501D01*
X303755Y216540D01*
X303701Y216587D01*
X303652Y216606D01*
X303609Y216634D01*
X303539Y216652D01*
X303473Y216679D01*
X303401Y216687D01*
X303370Y216695D01*
X303347Y216693D01*
X303306Y216697D01*
X4064Y216697D01*
X4044Y216694D01*
X4025Y216696D01*
X3923Y216674D01*
X3821Y216658D01*
X3804Y216648D01*
X3784Y216644D01*
X3695Y216591D01*
X3604Y216542D01*
X3590Y216528D01*
X3573Y216518D01*
X3506Y216439D01*
X3434Y216364D01*
X3426Y216346D01*
X3413Y216331D01*
X3374Y216235D01*
X3331Y216141D01*
X3329Y216121D01*
X3321Y216103D01*
X3303Y215936D01*
X3303Y14064D01*
X3306Y14044D01*
X3304Y14025D01*
X3326Y13923D01*
X3342Y13821D01*
X3352Y13804D01*
X3356Y13784D01*
X3409Y13695D01*
X3458Y13604D01*
X3472Y13590D01*
X3482Y13573D01*
X3561Y13506D01*
X3636Y13434D01*
X3654Y13426D01*
X3669Y13413D01*
X3765Y13374D01*
X3859Y13331D01*
X3879Y13329D01*
X3897Y13321D01*
X4064Y13303D01*
X47572Y13303D01*
X47643Y13314D01*
G37*
%LPC*%
G36*
X178748Y120959D02*
X178748Y120959D01*
X177259Y122448D01*
X177259Y126934D01*
X177245Y127024D01*
X177237Y127115D01*
X177225Y127145D01*
X177220Y127177D01*
X177177Y127258D01*
X177141Y127342D01*
X177115Y127374D01*
X177104Y127394D01*
X177081Y127417D01*
X177036Y127473D01*
X171908Y132601D01*
X169824Y134685D01*
X169824Y145098D01*
X169821Y145118D01*
X169823Y145137D01*
X169801Y145239D01*
X169785Y145341D01*
X169775Y145358D01*
X169771Y145378D01*
X169718Y145467D01*
X169669Y145558D01*
X169655Y145572D01*
X169645Y145589D01*
X169566Y145656D01*
X169491Y145728D01*
X169473Y145736D01*
X169458Y145749D01*
X169362Y145788D01*
X169268Y145831D01*
X169248Y145833D01*
X169230Y145841D01*
X169063Y145859D01*
X167548Y145859D01*
X166059Y147348D01*
X166059Y157452D01*
X167548Y158941D01*
X177652Y158941D01*
X179141Y157452D01*
X179141Y147348D01*
X177652Y145859D01*
X176937Y145859D01*
X176917Y145856D01*
X176898Y145858D01*
X176796Y145836D01*
X176694Y145820D01*
X176677Y145810D01*
X176657Y145806D01*
X176568Y145753D01*
X176477Y145704D01*
X176463Y145690D01*
X176446Y145680D01*
X176379Y145601D01*
X176307Y145526D01*
X176299Y145508D01*
X176286Y145493D01*
X176247Y145397D01*
X176204Y145303D01*
X176202Y145283D01*
X176194Y145265D01*
X176176Y145098D01*
X176176Y137631D01*
X176190Y137541D01*
X176198Y137450D01*
X176210Y137420D01*
X176215Y137388D01*
X176258Y137307D01*
X176294Y137223D01*
X176320Y137191D01*
X176331Y137171D01*
X176354Y137148D01*
X176399Y137092D01*
X180227Y133264D01*
X180301Y133211D01*
X180371Y133151D01*
X180401Y133139D01*
X180427Y133120D01*
X180514Y133093D01*
X180599Y133059D01*
X180640Y133055D01*
X180662Y133048D01*
X180694Y133049D01*
X180766Y133041D01*
X186852Y133041D01*
X188341Y131552D01*
X188341Y122448D01*
X186852Y120959D01*
X178748Y120959D01*
G37*
%LPD*%
%LPC*%
G36*
X144919Y74379D02*
X144919Y74379D01*
X143430Y75868D01*
X143430Y79763D01*
X143416Y79853D01*
X143408Y79944D01*
X143396Y79974D01*
X143391Y80006D01*
X143348Y80087D01*
X143312Y80171D01*
X143286Y80203D01*
X143275Y80223D01*
X143252Y80246D01*
X143207Y80302D01*
X126824Y96685D01*
X126824Y101998D01*
X126821Y102018D01*
X126823Y102037D01*
X126801Y102139D01*
X126785Y102241D01*
X126775Y102258D01*
X126771Y102278D01*
X126718Y102367D01*
X126669Y102458D01*
X126655Y102472D01*
X126645Y102489D01*
X126566Y102556D01*
X126491Y102628D01*
X126473Y102636D01*
X126458Y102649D01*
X126362Y102688D01*
X126268Y102731D01*
X126248Y102733D01*
X126230Y102741D01*
X126063Y102759D01*
X124248Y102759D01*
X122759Y104248D01*
X122759Y109352D01*
X124248Y110841D01*
X134352Y110841D01*
X135841Y109352D01*
X135841Y104248D01*
X134352Y102759D01*
X133937Y102759D01*
X133917Y102756D01*
X133898Y102758D01*
X133796Y102736D01*
X133694Y102720D01*
X133677Y102710D01*
X133657Y102706D01*
X133568Y102653D01*
X133477Y102604D01*
X133463Y102590D01*
X133446Y102580D01*
X133379Y102501D01*
X133307Y102426D01*
X133299Y102408D01*
X133286Y102393D01*
X133247Y102297D01*
X133204Y102203D01*
X133202Y102183D01*
X133194Y102165D01*
X133176Y101998D01*
X133176Y99631D01*
X133190Y99541D01*
X133198Y99450D01*
X133210Y99420D01*
X133215Y99388D01*
X133258Y99307D01*
X133294Y99223D01*
X133320Y99191D01*
X133331Y99171D01*
X133354Y99148D01*
X133399Y99092D01*
X150267Y82224D01*
X150341Y82171D01*
X150411Y82111D01*
X150441Y82099D01*
X150467Y82080D01*
X150554Y82053D01*
X150639Y82019D01*
X150680Y82015D01*
X150702Y82008D01*
X150734Y82009D01*
X150806Y82001D01*
X154135Y82001D01*
X155624Y80512D01*
X155624Y75868D01*
X154135Y74379D01*
X144919Y74379D01*
G37*
%LPD*%
%LPC*%
G36*
X123595Y176409D02*
X123595Y176409D01*
X121909Y178095D01*
X121909Y187505D01*
X123595Y189191D01*
X133705Y189191D01*
X135391Y187505D01*
X135391Y186937D01*
X135394Y186917D01*
X135392Y186898D01*
X135414Y186796D01*
X135430Y186694D01*
X135440Y186677D01*
X135444Y186657D01*
X135497Y186568D01*
X135546Y186477D01*
X135560Y186463D01*
X135570Y186446D01*
X135649Y186379D01*
X135724Y186307D01*
X135742Y186299D01*
X135757Y186286D01*
X135853Y186247D01*
X135947Y186204D01*
X135967Y186202D01*
X135985Y186194D01*
X136152Y186176D01*
X145598Y186176D01*
X145618Y186179D01*
X145637Y186177D01*
X145739Y186199D01*
X145841Y186215D01*
X145858Y186225D01*
X145878Y186229D01*
X145967Y186282D01*
X146058Y186331D01*
X146072Y186345D01*
X146089Y186355D01*
X146156Y186434D01*
X146228Y186509D01*
X146236Y186527D01*
X146249Y186542D01*
X146288Y186638D01*
X146331Y186732D01*
X146333Y186752D01*
X146341Y186770D01*
X146349Y186842D01*
X147848Y188341D01*
X156952Y188341D01*
X158441Y186852D01*
X158441Y178748D01*
X156952Y177259D01*
X147848Y177259D01*
X146359Y178748D01*
X146359Y179063D01*
X146356Y179083D01*
X146358Y179102D01*
X146336Y179204D01*
X146320Y179306D01*
X146310Y179323D01*
X146306Y179343D01*
X146253Y179432D01*
X146204Y179523D01*
X146190Y179537D01*
X146180Y179554D01*
X146101Y179621D01*
X146026Y179693D01*
X146008Y179701D01*
X145993Y179714D01*
X145897Y179753D01*
X145803Y179796D01*
X145783Y179798D01*
X145765Y179806D01*
X145598Y179824D01*
X136152Y179824D01*
X136132Y179821D01*
X136113Y179823D01*
X136011Y179801D01*
X135909Y179785D01*
X135892Y179775D01*
X135872Y179771D01*
X135783Y179718D01*
X135692Y179669D01*
X135678Y179655D01*
X135661Y179645D01*
X135594Y179566D01*
X135522Y179491D01*
X135514Y179473D01*
X135501Y179458D01*
X135462Y179362D01*
X135419Y179268D01*
X135417Y179248D01*
X135409Y179230D01*
X135391Y179063D01*
X135391Y178095D01*
X133705Y176409D01*
X123595Y176409D01*
G37*
%LPD*%
%LPC*%
G36*
X144919Y64379D02*
X144919Y64379D01*
X143430Y65868D01*
X143430Y70512D01*
X144919Y72001D01*
X154135Y72001D01*
X155624Y70512D01*
X155624Y65868D01*
X154135Y64379D01*
X144919Y64379D01*
G37*
%LPD*%
D10*
X103813Y184287D02*
X96087Y184287D01*
X96087Y186313D01*
X103813Y186313D01*
X103813Y184287D01*
X103813Y184928D02*
X96087Y184928D01*
X96087Y185569D02*
X103813Y185569D01*
X103813Y186210D02*
X96087Y186210D01*
X96087Y179287D02*
X103813Y179287D01*
X96087Y179287D02*
X96087Y181313D01*
X103813Y181313D01*
X103813Y179287D01*
X103813Y179928D02*
X96087Y179928D01*
X96087Y180569D02*
X103813Y180569D01*
X103813Y181210D02*
X96087Y181210D01*
X96087Y174287D02*
X103813Y174287D01*
X96087Y174287D02*
X96087Y176313D01*
X103813Y176313D01*
X103813Y174287D01*
X103813Y174928D02*
X96087Y174928D01*
X96087Y175569D02*
X103813Y175569D01*
X103813Y176210D02*
X96087Y176210D01*
X96087Y169287D02*
X103813Y169287D01*
X96087Y169287D02*
X96087Y171313D01*
X103813Y171313D01*
X103813Y169287D01*
X103813Y169928D02*
X96087Y169928D01*
X96087Y170569D02*
X103813Y170569D01*
X103813Y171210D02*
X96087Y171210D01*
X124787Y169287D02*
X132513Y169287D01*
X124787Y169287D02*
X124787Y171313D01*
X132513Y171313D01*
X132513Y169287D01*
X132513Y169928D02*
X124787Y169928D01*
X124787Y170569D02*
X132513Y170569D01*
X132513Y171210D02*
X124787Y171210D01*
X124787Y174287D02*
X132513Y174287D01*
X124787Y174287D02*
X124787Y176313D01*
X132513Y176313D01*
X132513Y174287D01*
X132513Y174928D02*
X124787Y174928D01*
X124787Y175569D02*
X132513Y175569D01*
X132513Y176210D02*
X124787Y176210D01*
X124787Y179287D02*
X132513Y179287D01*
X124787Y179287D02*
X124787Y181313D01*
X132513Y181313D01*
X132513Y179287D01*
X132513Y179928D02*
X124787Y179928D01*
X124787Y180569D02*
X132513Y180569D01*
X132513Y181210D02*
X124787Y181210D01*
X124787Y184287D02*
X132513Y184287D01*
X124787Y184287D02*
X124787Y186313D01*
X132513Y186313D01*
X132513Y184287D01*
X132513Y184928D02*
X124787Y184928D01*
X124787Y185569D02*
X132513Y185569D01*
X132513Y186210D02*
X124787Y186210D01*
D11*
X114300Y177800D03*
D12*
X313200Y203200D03*
X424000Y203200D03*
D13*
X152400Y172800D03*
X152400Y182800D03*
D12*
X20800Y197980D03*
X21120Y145130D03*
D14*
X54750Y190500D03*
X72250Y190500D03*
X105550Y146050D03*
X123050Y146050D03*
D15*
X172600Y152400D03*
X157600Y152400D03*
D16*
X172800Y127000D03*
X182800Y127000D03*
D17*
X99300Y121800D03*
X99300Y116800D03*
X99300Y111800D03*
X99300Y106800D03*
X129300Y106800D03*
X129300Y111800D03*
X129300Y116800D03*
X129300Y121800D03*
D18*
X114300Y114300D03*
D19*
X144780Y121780D03*
X144780Y104280D03*
X57800Y129270D03*
X57800Y111770D03*
D20*
X149527Y78190D03*
X149527Y73190D03*
X149527Y68190D03*
X164513Y68190D03*
X164513Y73190D03*
X164513Y78190D03*
D21*
X157020Y73190D03*
D12*
X544800Y203200D03*
X658300Y203200D03*
X771800Y203200D03*
X875300Y203200D03*
D22*
X27780Y41910D03*
X18180Y41910D03*
D23*
X95790Y24040D03*
X95790Y37540D03*
X95790Y51040D03*
D24*
X57790Y37540D03*
D25*
X239500Y80000D03*
X220500Y80000D03*
D12*
X21590Y92400D03*
X230980Y200210D03*
D26*
X82870Y125347D03*
X82870Y107694D03*
D27*
X110490Y120650D03*
X103360Y130190D03*
X110980Y130190D03*
X121140Y130190D03*
X112250Y95900D03*
X121140Y95900D03*
X118600Y109870D03*
X109710Y109870D03*
X118600Y120030D03*
X110490Y182880D03*
X118110Y182880D03*
X110490Y173990D03*
X118110Y173990D03*
D28*
X134000Y183000D02*
X152000Y183000D01*
X134000Y183000D02*
X132000Y185000D01*
X129000Y185000D01*
X152000Y183000D02*
X152400Y182800D01*
X129000Y185000D02*
X128650Y185300D01*
D29*
X54000Y191000D02*
X21000Y191000D01*
X21000Y197000D01*
X54000Y191000D02*
X54750Y190500D01*
X21000Y197000D02*
X20800Y197980D01*
X54750Y190500D02*
X54750Y175250D01*
X60000Y170000D01*
X80000Y170000D01*
X80000Y183110D01*
X80675Y183785D01*
X80675Y190000D01*
X95250Y190000D01*
X97625Y187625D01*
X99950Y185300D01*
X97625Y182625D02*
X99950Y180300D01*
X97625Y182625D02*
X97625Y187625D01*
X132000Y124000D02*
X130000Y122000D01*
X132000Y124000D02*
X144000Y124000D01*
X144000Y122000D01*
X130000Y122000D02*
X129300Y121800D01*
X144000Y122000D02*
X144780Y121780D01*
X165000Y78000D02*
X165000Y75000D01*
X165000Y74000D01*
X164513Y73190D01*
X165000Y78000D02*
X164513Y78190D01*
X165000Y75000D02*
X220000Y75000D01*
X220000Y80000D01*
X220500Y80000D01*
X164000Y103000D02*
X146000Y121000D01*
X164000Y103000D02*
X164000Y80000D01*
X146000Y121000D02*
X144780Y121780D01*
X164000Y80000D02*
X164513Y78190D01*
D28*
X157600Y152400D02*
X140000Y170000D01*
X129000Y170000D01*
X128650Y170300D01*
X173000Y136000D02*
X182000Y127000D01*
X173000Y136000D02*
X173000Y152000D01*
X182000Y127000D02*
X182800Y127000D01*
X173000Y152000D02*
X172600Y152400D01*
X99000Y122000D02*
X83000Y122000D01*
X83000Y125000D01*
X99000Y122000D02*
X99300Y121800D01*
X83000Y125000D02*
X82870Y125347D01*
X83000Y111000D02*
X99000Y111000D01*
X83000Y111000D02*
X83000Y108000D01*
X99000Y111000D02*
X99300Y111800D01*
X83000Y108000D02*
X82870Y107694D01*
D29*
X100000Y106000D02*
X101000Y105000D01*
X101000Y91000D02*
X101000Y62000D01*
X101000Y91000D02*
X101000Y105000D01*
X101000Y62000D02*
X96000Y57000D01*
X96000Y52000D01*
X100000Y106000D02*
X99300Y106800D01*
X96000Y52000D02*
X95790Y51040D01*
X22000Y94000D02*
X57000Y129000D01*
X22000Y94000D02*
X22000Y93000D01*
X57000Y129000D02*
X57800Y129270D01*
X22000Y93000D02*
X21590Y92400D01*
X22000Y91000D02*
X101000Y91000D01*
X22000Y91000D02*
X21590Y92400D01*
D28*
X130000Y98000D02*
X149000Y79000D01*
X130000Y98000D02*
X130000Y106000D01*
X149000Y79000D02*
X149527Y78190D01*
X130000Y106000D02*
X129300Y106800D01*
D29*
X53000Y16000D02*
X28000Y41000D01*
X53000Y16000D02*
X107000Y16000D01*
X107000Y30000D01*
X100000Y37000D01*
X96000Y37000D01*
X28000Y41000D02*
X27780Y41910D01*
X95790Y37540D02*
X96000Y37000D01*
X100000Y171000D02*
X100000Y175000D01*
X100000Y171000D02*
X99950Y170300D01*
X101000Y169000D02*
X105000Y165000D01*
X105000Y160000D02*
X105000Y147000D01*
X105000Y160000D02*
X105000Y165000D01*
X101000Y169000D02*
X99950Y170300D01*
X105000Y147000D02*
X105550Y146050D01*
X240000Y80000D02*
X313000Y153000D01*
X313000Y203000D01*
X240000Y80000D02*
X239500Y80000D01*
X313000Y203000D02*
X313200Y203200D01*
X144000Y160000D02*
X105000Y160000D01*
X144000Y160000D02*
X144000Y145000D01*
X166000Y123000D01*
X166000Y122000D01*
X191000Y97000D01*
X238000Y97000D01*
X238000Y81000D01*
X239500Y80000D01*
M02*
