G04 EAGLE Gerber RS-274X export*
G75*
%MOMM*%
%FSLAX34Y34*%
%LPD*%
%INSilkscreen Top*%
%IPPOS*%
%AMOC8*
5,1,8,0,0,1.08239X$1,22.5*%
G01*
%ADD10C,0.152400*%
%ADD11C,0.200000*%
%ADD12C,0.127000*%
%ADD13C,0.101600*%
%ADD14R,0.250000X0.250000*%
%ADD15C,0.250000*%
%ADD16C,0.076200*%
%ADD17C,0.254000*%
%ADD18R,2.250000X0.500000*%
%ADD19R,0.500000X2.250000*%


D10*
X260000Y230000D02*
X260000Y0D01*
X250000Y30000D02*
X250000Y120000D01*
X210000Y120000D01*
X210000Y30000D01*
X250000Y30000D01*
X330762Y60762D02*
X330762Y77018D01*
X335278Y77018D01*
X335411Y77016D01*
X335543Y77010D01*
X335675Y77000D01*
X335807Y76987D01*
X335939Y76969D01*
X336069Y76948D01*
X336200Y76923D01*
X336329Y76894D01*
X336457Y76861D01*
X336585Y76825D01*
X336711Y76785D01*
X336836Y76741D01*
X336960Y76693D01*
X337082Y76642D01*
X337203Y76587D01*
X337322Y76529D01*
X337440Y76467D01*
X337555Y76402D01*
X337669Y76333D01*
X337780Y76262D01*
X337889Y76186D01*
X337996Y76108D01*
X338101Y76027D01*
X338203Y75942D01*
X338303Y75855D01*
X338400Y75765D01*
X338495Y75672D01*
X338586Y75576D01*
X338675Y75478D01*
X338761Y75377D01*
X338844Y75273D01*
X338924Y75167D01*
X339000Y75059D01*
X339074Y74949D01*
X339144Y74836D01*
X339211Y74722D01*
X339274Y74605D01*
X339334Y74487D01*
X339391Y74367D01*
X339444Y74245D01*
X339493Y74122D01*
X339539Y73998D01*
X339581Y73872D01*
X339619Y73745D01*
X339654Y73617D01*
X339685Y73488D01*
X339712Y73359D01*
X339735Y73228D01*
X339755Y73097D01*
X339770Y72965D01*
X339782Y72833D01*
X339790Y72701D01*
X339794Y72568D01*
X339794Y72436D01*
X339790Y72303D01*
X339782Y72171D01*
X339770Y72039D01*
X339755Y71907D01*
X339735Y71776D01*
X339712Y71645D01*
X339685Y71516D01*
X339654Y71387D01*
X339619Y71259D01*
X339581Y71132D01*
X339539Y71006D01*
X339493Y70882D01*
X339444Y70759D01*
X339391Y70637D01*
X339334Y70517D01*
X339274Y70399D01*
X339211Y70282D01*
X339144Y70168D01*
X339074Y70055D01*
X339000Y69945D01*
X338924Y69837D01*
X338844Y69731D01*
X338761Y69627D01*
X338675Y69526D01*
X338586Y69428D01*
X338495Y69332D01*
X338400Y69239D01*
X338303Y69149D01*
X338203Y69062D01*
X338101Y68977D01*
X337996Y68896D01*
X337889Y68818D01*
X337780Y68742D01*
X337669Y68671D01*
X337555Y68602D01*
X337440Y68537D01*
X337322Y68475D01*
X337203Y68417D01*
X337082Y68362D01*
X336960Y68311D01*
X336836Y68263D01*
X336711Y68219D01*
X336585Y68179D01*
X336457Y68143D01*
X336329Y68110D01*
X336200Y68081D01*
X336069Y68056D01*
X335939Y68035D01*
X335807Y68017D01*
X335675Y68004D01*
X335543Y67994D01*
X335411Y67988D01*
X335278Y67986D01*
X335278Y67987D02*
X330762Y67987D01*
X336181Y67987D02*
X339793Y60762D01*
X348872Y60762D02*
X353388Y60762D01*
X348872Y60762D02*
X348771Y60764D01*
X348670Y60770D01*
X348569Y60779D01*
X348468Y60792D01*
X348368Y60809D01*
X348269Y60830D01*
X348171Y60854D01*
X348074Y60882D01*
X347977Y60914D01*
X347882Y60949D01*
X347789Y60988D01*
X347697Y61030D01*
X347606Y61076D01*
X347518Y61125D01*
X347431Y61177D01*
X347346Y61233D01*
X347263Y61291D01*
X347183Y61353D01*
X347105Y61418D01*
X347029Y61485D01*
X346956Y61555D01*
X346886Y61628D01*
X346819Y61704D01*
X346754Y61782D01*
X346692Y61862D01*
X346634Y61945D01*
X346578Y62030D01*
X346526Y62116D01*
X346477Y62205D01*
X346431Y62296D01*
X346389Y62388D01*
X346350Y62481D01*
X346315Y62576D01*
X346283Y62673D01*
X346255Y62770D01*
X346231Y62868D01*
X346210Y62967D01*
X346193Y63067D01*
X346180Y63168D01*
X346171Y63269D01*
X346165Y63370D01*
X346163Y63471D01*
X346163Y67987D01*
X346165Y68106D01*
X346171Y68226D01*
X346181Y68345D01*
X346195Y68463D01*
X346212Y68582D01*
X346234Y68699D01*
X346259Y68816D01*
X346289Y68931D01*
X346322Y69046D01*
X346359Y69160D01*
X346399Y69272D01*
X346444Y69383D01*
X346492Y69492D01*
X346543Y69600D01*
X346598Y69706D01*
X346657Y69810D01*
X346719Y69912D01*
X346784Y70012D01*
X346853Y70110D01*
X346925Y70206D01*
X347000Y70299D01*
X347077Y70389D01*
X347158Y70477D01*
X347242Y70562D01*
X347329Y70644D01*
X347418Y70724D01*
X347510Y70800D01*
X347604Y70874D01*
X347701Y70944D01*
X347799Y71011D01*
X347900Y71075D01*
X348004Y71135D01*
X348109Y71192D01*
X348216Y71245D01*
X348324Y71295D01*
X348434Y71341D01*
X348546Y71383D01*
X348659Y71422D01*
X348773Y71457D01*
X348888Y71488D01*
X349005Y71516D01*
X349122Y71539D01*
X349239Y71559D01*
X349358Y71575D01*
X349477Y71587D01*
X349596Y71595D01*
X349715Y71599D01*
X349835Y71599D01*
X349954Y71595D01*
X350073Y71587D01*
X350192Y71575D01*
X350311Y71559D01*
X350428Y71539D01*
X350545Y71516D01*
X350662Y71488D01*
X350777Y71457D01*
X350891Y71422D01*
X351004Y71383D01*
X351116Y71341D01*
X351226Y71295D01*
X351334Y71245D01*
X351441Y71192D01*
X351546Y71135D01*
X351650Y71075D01*
X351751Y71011D01*
X351849Y70944D01*
X351946Y70874D01*
X352040Y70800D01*
X352132Y70724D01*
X352221Y70644D01*
X352308Y70562D01*
X352392Y70477D01*
X352473Y70389D01*
X352550Y70299D01*
X352625Y70206D01*
X352697Y70110D01*
X352766Y70012D01*
X352831Y69912D01*
X352893Y69810D01*
X352952Y69706D01*
X353007Y69600D01*
X353058Y69492D01*
X353106Y69383D01*
X353151Y69272D01*
X353191Y69160D01*
X353228Y69046D01*
X353261Y68931D01*
X353291Y68816D01*
X353316Y68699D01*
X353338Y68582D01*
X353355Y68463D01*
X353369Y68345D01*
X353379Y68226D01*
X353385Y68106D01*
X353387Y67987D01*
X353388Y67987D02*
X353388Y66181D01*
X346163Y66181D01*
X359189Y71599D02*
X362801Y60762D01*
X366414Y71599D01*
X385657Y77018D02*
X385782Y77016D01*
X385907Y77010D01*
X386032Y77001D01*
X386156Y76987D01*
X386280Y76970D01*
X386404Y76949D01*
X386526Y76924D01*
X386648Y76895D01*
X386769Y76863D01*
X386889Y76827D01*
X387008Y76787D01*
X387125Y76744D01*
X387241Y76697D01*
X387356Y76646D01*
X387468Y76592D01*
X387580Y76534D01*
X387689Y76474D01*
X387796Y76409D01*
X387902Y76342D01*
X388005Y76271D01*
X388106Y76197D01*
X388205Y76120D01*
X388301Y76040D01*
X388395Y75957D01*
X388486Y75872D01*
X388575Y75783D01*
X388660Y75692D01*
X388743Y75598D01*
X388823Y75502D01*
X388900Y75403D01*
X388974Y75302D01*
X389045Y75199D01*
X389112Y75093D01*
X389177Y74986D01*
X389237Y74877D01*
X389295Y74765D01*
X389349Y74653D01*
X389400Y74538D01*
X389447Y74422D01*
X389490Y74305D01*
X389530Y74186D01*
X389566Y74066D01*
X389598Y73945D01*
X389627Y73823D01*
X389652Y73701D01*
X389673Y73577D01*
X389690Y73453D01*
X389704Y73329D01*
X389713Y73204D01*
X389719Y73079D01*
X389721Y72954D01*
X385657Y77018D02*
X385514Y77016D01*
X385372Y77010D01*
X385229Y77000D01*
X385087Y76987D01*
X384946Y76969D01*
X384804Y76948D01*
X384664Y76923D01*
X384524Y76894D01*
X384385Y76861D01*
X384247Y76824D01*
X384110Y76784D01*
X383975Y76740D01*
X383840Y76692D01*
X383707Y76640D01*
X383575Y76585D01*
X383445Y76526D01*
X383317Y76464D01*
X383190Y76398D01*
X383065Y76329D01*
X382942Y76257D01*
X382822Y76181D01*
X382703Y76102D01*
X382586Y76019D01*
X382472Y75934D01*
X382360Y75845D01*
X382251Y75754D01*
X382144Y75659D01*
X382039Y75562D01*
X381938Y75461D01*
X381839Y75358D01*
X381743Y75253D01*
X381650Y75144D01*
X381560Y75033D01*
X381473Y74920D01*
X381389Y74805D01*
X381309Y74687D01*
X381231Y74567D01*
X381157Y74445D01*
X381087Y74321D01*
X381019Y74195D01*
X380956Y74067D01*
X380895Y73938D01*
X380838Y73807D01*
X380785Y73675D01*
X380736Y73541D01*
X380690Y73406D01*
X388366Y69793D02*
X388460Y69885D01*
X388550Y69979D01*
X388638Y70076D01*
X388723Y70176D01*
X388805Y70278D01*
X388884Y70383D01*
X388959Y70490D01*
X389031Y70599D01*
X389100Y70710D01*
X389166Y70824D01*
X389228Y70939D01*
X389287Y71056D01*
X389342Y71175D01*
X389393Y71295D01*
X389441Y71417D01*
X389486Y71540D01*
X389526Y71664D01*
X389563Y71790D01*
X389596Y71917D01*
X389625Y72044D01*
X389651Y72173D01*
X389672Y72302D01*
X389690Y72432D01*
X389703Y72562D01*
X389713Y72692D01*
X389719Y72823D01*
X389721Y72954D01*
X388367Y69793D02*
X380690Y60762D01*
X389721Y60762D01*
X130762Y47018D02*
X130762Y30762D01*
X130762Y47018D02*
X135278Y47018D01*
X135411Y47016D01*
X135543Y47010D01*
X135675Y47000D01*
X135807Y46987D01*
X135939Y46969D01*
X136069Y46948D01*
X136200Y46923D01*
X136329Y46894D01*
X136457Y46861D01*
X136585Y46825D01*
X136711Y46785D01*
X136836Y46741D01*
X136960Y46693D01*
X137082Y46642D01*
X137203Y46587D01*
X137322Y46529D01*
X137440Y46467D01*
X137555Y46402D01*
X137669Y46333D01*
X137780Y46262D01*
X137889Y46186D01*
X137996Y46108D01*
X138101Y46027D01*
X138203Y45942D01*
X138303Y45855D01*
X138400Y45765D01*
X138495Y45672D01*
X138586Y45576D01*
X138675Y45478D01*
X138761Y45377D01*
X138844Y45273D01*
X138924Y45167D01*
X139000Y45059D01*
X139074Y44949D01*
X139144Y44836D01*
X139211Y44722D01*
X139274Y44605D01*
X139334Y44487D01*
X139391Y44367D01*
X139444Y44245D01*
X139493Y44122D01*
X139539Y43998D01*
X139581Y43872D01*
X139619Y43745D01*
X139654Y43617D01*
X139685Y43488D01*
X139712Y43359D01*
X139735Y43228D01*
X139755Y43097D01*
X139770Y42965D01*
X139782Y42833D01*
X139790Y42701D01*
X139794Y42568D01*
X139794Y42436D01*
X139790Y42303D01*
X139782Y42171D01*
X139770Y42039D01*
X139755Y41907D01*
X139735Y41776D01*
X139712Y41645D01*
X139685Y41516D01*
X139654Y41387D01*
X139619Y41259D01*
X139581Y41132D01*
X139539Y41006D01*
X139493Y40882D01*
X139444Y40759D01*
X139391Y40637D01*
X139334Y40517D01*
X139274Y40399D01*
X139211Y40282D01*
X139144Y40168D01*
X139074Y40055D01*
X139000Y39945D01*
X138924Y39837D01*
X138844Y39731D01*
X138761Y39627D01*
X138675Y39526D01*
X138586Y39428D01*
X138495Y39332D01*
X138400Y39239D01*
X138303Y39149D01*
X138203Y39062D01*
X138101Y38977D01*
X137996Y38896D01*
X137889Y38818D01*
X137780Y38742D01*
X137669Y38671D01*
X137555Y38602D01*
X137440Y38537D01*
X137322Y38475D01*
X137203Y38417D01*
X137082Y38362D01*
X136960Y38311D01*
X136836Y38263D01*
X136711Y38219D01*
X136585Y38179D01*
X136457Y38143D01*
X136329Y38110D01*
X136200Y38081D01*
X136069Y38056D01*
X135939Y38035D01*
X135807Y38017D01*
X135675Y38004D01*
X135543Y37994D01*
X135411Y37988D01*
X135278Y37986D01*
X135278Y37987D02*
X130762Y37987D01*
X136181Y37987D02*
X139793Y30762D01*
X148872Y30762D02*
X153388Y30762D01*
X148872Y30762D02*
X148771Y30764D01*
X148670Y30770D01*
X148569Y30779D01*
X148468Y30792D01*
X148368Y30809D01*
X148269Y30830D01*
X148171Y30854D01*
X148074Y30882D01*
X147977Y30914D01*
X147882Y30949D01*
X147789Y30988D01*
X147697Y31030D01*
X147606Y31076D01*
X147518Y31125D01*
X147431Y31177D01*
X147346Y31233D01*
X147263Y31291D01*
X147183Y31353D01*
X147105Y31418D01*
X147029Y31485D01*
X146956Y31555D01*
X146886Y31628D01*
X146819Y31704D01*
X146754Y31782D01*
X146692Y31862D01*
X146634Y31945D01*
X146578Y32030D01*
X146526Y32116D01*
X146477Y32205D01*
X146431Y32296D01*
X146389Y32388D01*
X146350Y32481D01*
X146315Y32576D01*
X146283Y32673D01*
X146255Y32770D01*
X146231Y32868D01*
X146210Y32967D01*
X146193Y33067D01*
X146180Y33168D01*
X146171Y33269D01*
X146165Y33370D01*
X146163Y33471D01*
X146163Y37987D01*
X146165Y38106D01*
X146171Y38226D01*
X146181Y38345D01*
X146195Y38463D01*
X146212Y38582D01*
X146234Y38699D01*
X146259Y38816D01*
X146289Y38931D01*
X146322Y39046D01*
X146359Y39160D01*
X146399Y39272D01*
X146444Y39383D01*
X146492Y39492D01*
X146543Y39600D01*
X146598Y39706D01*
X146657Y39810D01*
X146719Y39912D01*
X146784Y40012D01*
X146853Y40110D01*
X146925Y40206D01*
X147000Y40299D01*
X147077Y40389D01*
X147158Y40477D01*
X147242Y40562D01*
X147329Y40644D01*
X147418Y40724D01*
X147510Y40800D01*
X147604Y40874D01*
X147701Y40944D01*
X147799Y41011D01*
X147900Y41075D01*
X148004Y41135D01*
X148109Y41192D01*
X148216Y41245D01*
X148324Y41295D01*
X148434Y41341D01*
X148546Y41383D01*
X148659Y41422D01*
X148773Y41457D01*
X148888Y41488D01*
X149005Y41516D01*
X149122Y41539D01*
X149239Y41559D01*
X149358Y41575D01*
X149477Y41587D01*
X149596Y41595D01*
X149715Y41599D01*
X149835Y41599D01*
X149954Y41595D01*
X150073Y41587D01*
X150192Y41575D01*
X150311Y41559D01*
X150428Y41539D01*
X150545Y41516D01*
X150662Y41488D01*
X150777Y41457D01*
X150891Y41422D01*
X151004Y41383D01*
X151116Y41341D01*
X151226Y41295D01*
X151334Y41245D01*
X151441Y41192D01*
X151546Y41135D01*
X151650Y41075D01*
X151751Y41011D01*
X151849Y40944D01*
X151946Y40874D01*
X152040Y40800D01*
X152132Y40724D01*
X152221Y40644D01*
X152308Y40562D01*
X152392Y40477D01*
X152473Y40389D01*
X152550Y40299D01*
X152625Y40206D01*
X152697Y40110D01*
X152766Y40012D01*
X152831Y39912D01*
X152893Y39810D01*
X152952Y39706D01*
X153007Y39600D01*
X153058Y39492D01*
X153106Y39383D01*
X153151Y39272D01*
X153191Y39160D01*
X153228Y39046D01*
X153261Y38931D01*
X153291Y38816D01*
X153316Y38699D01*
X153338Y38582D01*
X153355Y38463D01*
X153369Y38345D01*
X153379Y38226D01*
X153385Y38106D01*
X153387Y37987D01*
X153388Y37987D02*
X153388Y36181D01*
X146163Y36181D01*
X159189Y41599D02*
X162801Y30762D01*
X166414Y41599D01*
X185657Y47018D02*
X185782Y47016D01*
X185907Y47010D01*
X186032Y47001D01*
X186156Y46987D01*
X186280Y46970D01*
X186404Y46949D01*
X186526Y46924D01*
X186648Y46895D01*
X186769Y46863D01*
X186889Y46827D01*
X187008Y46787D01*
X187125Y46744D01*
X187241Y46697D01*
X187356Y46646D01*
X187468Y46592D01*
X187580Y46534D01*
X187689Y46474D01*
X187796Y46409D01*
X187902Y46342D01*
X188005Y46271D01*
X188106Y46197D01*
X188205Y46120D01*
X188301Y46040D01*
X188395Y45957D01*
X188486Y45872D01*
X188575Y45783D01*
X188660Y45692D01*
X188743Y45598D01*
X188823Y45502D01*
X188900Y45403D01*
X188974Y45302D01*
X189045Y45199D01*
X189112Y45093D01*
X189177Y44986D01*
X189237Y44877D01*
X189295Y44765D01*
X189349Y44653D01*
X189400Y44538D01*
X189447Y44422D01*
X189490Y44305D01*
X189530Y44186D01*
X189566Y44066D01*
X189598Y43945D01*
X189627Y43823D01*
X189652Y43701D01*
X189673Y43577D01*
X189690Y43453D01*
X189704Y43329D01*
X189713Y43204D01*
X189719Y43079D01*
X189721Y42954D01*
X185657Y47018D02*
X185514Y47016D01*
X185372Y47010D01*
X185229Y47000D01*
X185087Y46987D01*
X184946Y46969D01*
X184804Y46948D01*
X184664Y46923D01*
X184524Y46894D01*
X184385Y46861D01*
X184247Y46824D01*
X184110Y46784D01*
X183975Y46740D01*
X183840Y46692D01*
X183707Y46640D01*
X183575Y46585D01*
X183445Y46526D01*
X183317Y46464D01*
X183190Y46398D01*
X183065Y46329D01*
X182942Y46257D01*
X182822Y46181D01*
X182703Y46102D01*
X182586Y46019D01*
X182472Y45934D01*
X182360Y45845D01*
X182251Y45754D01*
X182144Y45659D01*
X182039Y45562D01*
X181938Y45461D01*
X181839Y45358D01*
X181743Y45253D01*
X181650Y45144D01*
X181560Y45033D01*
X181473Y44920D01*
X181389Y44805D01*
X181309Y44687D01*
X181231Y44567D01*
X181157Y44445D01*
X181087Y44321D01*
X181019Y44195D01*
X180956Y44067D01*
X180895Y43938D01*
X180838Y43807D01*
X180785Y43675D01*
X180736Y43541D01*
X180690Y43406D01*
X188366Y39793D02*
X188460Y39885D01*
X188550Y39979D01*
X188638Y40076D01*
X188723Y40176D01*
X188805Y40278D01*
X188884Y40383D01*
X188959Y40490D01*
X189031Y40599D01*
X189100Y40710D01*
X189166Y40824D01*
X189228Y40939D01*
X189287Y41056D01*
X189342Y41175D01*
X189393Y41295D01*
X189441Y41417D01*
X189486Y41540D01*
X189526Y41664D01*
X189563Y41790D01*
X189596Y41917D01*
X189625Y42044D01*
X189651Y42173D01*
X189672Y42302D01*
X189690Y42432D01*
X189703Y42562D01*
X189713Y42692D01*
X189719Y42823D01*
X189721Y42954D01*
X188367Y39793D02*
X180690Y30762D01*
X189721Y30762D01*
D11*
X88550Y185300D02*
X88552Y185363D01*
X88558Y185425D01*
X88568Y185487D01*
X88581Y185549D01*
X88599Y185609D01*
X88620Y185668D01*
X88645Y185726D01*
X88674Y185782D01*
X88706Y185836D01*
X88741Y185888D01*
X88779Y185937D01*
X88821Y185985D01*
X88865Y186029D01*
X88913Y186071D01*
X88962Y186109D01*
X89014Y186144D01*
X89068Y186176D01*
X89124Y186205D01*
X89182Y186230D01*
X89241Y186251D01*
X89301Y186269D01*
X89363Y186282D01*
X89425Y186292D01*
X89487Y186298D01*
X89550Y186300D01*
X89613Y186298D01*
X89675Y186292D01*
X89737Y186282D01*
X89799Y186269D01*
X89859Y186251D01*
X89918Y186230D01*
X89976Y186205D01*
X90032Y186176D01*
X90086Y186144D01*
X90138Y186109D01*
X90187Y186071D01*
X90235Y186029D01*
X90279Y185985D01*
X90321Y185937D01*
X90359Y185888D01*
X90394Y185836D01*
X90426Y185782D01*
X90455Y185726D01*
X90480Y185668D01*
X90501Y185609D01*
X90519Y185549D01*
X90532Y185487D01*
X90542Y185425D01*
X90548Y185363D01*
X90550Y185300D01*
X90548Y185237D01*
X90542Y185175D01*
X90532Y185113D01*
X90519Y185051D01*
X90501Y184991D01*
X90480Y184932D01*
X90455Y184874D01*
X90426Y184818D01*
X90394Y184764D01*
X90359Y184712D01*
X90321Y184663D01*
X90279Y184615D01*
X90235Y184571D01*
X90187Y184529D01*
X90138Y184491D01*
X90086Y184456D01*
X90032Y184424D01*
X89976Y184395D01*
X89918Y184370D01*
X89859Y184349D01*
X89799Y184331D01*
X89737Y184318D01*
X89675Y184308D01*
X89613Y184302D01*
X89550Y184300D01*
X89487Y184302D01*
X89425Y184308D01*
X89363Y184318D01*
X89301Y184331D01*
X89241Y184349D01*
X89182Y184370D01*
X89124Y184395D01*
X89068Y184424D01*
X89014Y184456D01*
X88962Y184491D01*
X88913Y184529D01*
X88865Y184571D01*
X88821Y184615D01*
X88779Y184663D01*
X88741Y184712D01*
X88706Y184764D01*
X88674Y184818D01*
X88645Y184874D01*
X88620Y184932D01*
X88599Y184991D01*
X88581Y185051D01*
X88568Y185113D01*
X88558Y185175D01*
X88552Y185237D01*
X88550Y185300D01*
D12*
X99300Y189850D02*
X129300Y189850D01*
X129300Y165750D02*
X99300Y165750D01*
D13*
X110468Y203654D02*
X110468Y212092D01*
X110468Y203654D02*
X110470Y203541D01*
X110476Y203428D01*
X110486Y203315D01*
X110500Y203202D01*
X110517Y203090D01*
X110539Y202979D01*
X110564Y202869D01*
X110594Y202759D01*
X110627Y202651D01*
X110664Y202544D01*
X110704Y202438D01*
X110749Y202334D01*
X110797Y202231D01*
X110848Y202130D01*
X110903Y202031D01*
X110961Y201934D01*
X111023Y201839D01*
X111088Y201746D01*
X111156Y201656D01*
X111227Y201568D01*
X111302Y201482D01*
X111379Y201399D01*
X111459Y201319D01*
X111542Y201242D01*
X111628Y201167D01*
X111716Y201096D01*
X111806Y201028D01*
X111899Y200963D01*
X111994Y200901D01*
X112091Y200843D01*
X112190Y200788D01*
X112291Y200737D01*
X112394Y200689D01*
X112498Y200644D01*
X112604Y200604D01*
X112711Y200567D01*
X112819Y200534D01*
X112929Y200504D01*
X113039Y200479D01*
X113150Y200457D01*
X113262Y200440D01*
X113375Y200426D01*
X113488Y200416D01*
X113601Y200410D01*
X113714Y200408D01*
X113827Y200410D01*
X113940Y200416D01*
X114053Y200426D01*
X114166Y200440D01*
X114278Y200457D01*
X114389Y200479D01*
X114499Y200504D01*
X114609Y200534D01*
X114717Y200567D01*
X114824Y200604D01*
X114930Y200644D01*
X115034Y200689D01*
X115137Y200737D01*
X115238Y200788D01*
X115337Y200843D01*
X115434Y200901D01*
X115529Y200963D01*
X115622Y201028D01*
X115712Y201096D01*
X115800Y201167D01*
X115886Y201242D01*
X115969Y201319D01*
X116049Y201399D01*
X116126Y201482D01*
X116201Y201568D01*
X116272Y201656D01*
X116340Y201746D01*
X116405Y201839D01*
X116467Y201934D01*
X116525Y202031D01*
X116580Y202130D01*
X116631Y202231D01*
X116679Y202334D01*
X116724Y202438D01*
X116764Y202544D01*
X116801Y202651D01*
X116834Y202759D01*
X116864Y202869D01*
X116889Y202979D01*
X116911Y203090D01*
X116928Y203202D01*
X116942Y203315D01*
X116952Y203428D01*
X116958Y203541D01*
X116960Y203654D01*
X116959Y203654D02*
X116959Y212092D01*
X122279Y209496D02*
X125525Y212092D01*
X125525Y200408D01*
X128770Y200408D02*
X122279Y200408D01*
D10*
X300500Y215900D02*
X305580Y215900D01*
X300500Y215900D02*
X300500Y210820D01*
X325900Y210820D02*
X325900Y215900D01*
X320820Y215900D01*
X325900Y195580D02*
X325900Y190500D01*
X320820Y190500D01*
X305580Y190500D02*
X300500Y190500D01*
X300500Y195580D01*
D12*
X298950Y167985D02*
X295775Y167985D01*
X298950Y167985D02*
X299061Y167983D01*
X299171Y167977D01*
X299282Y167968D01*
X299392Y167954D01*
X299501Y167937D01*
X299610Y167916D01*
X299718Y167891D01*
X299825Y167862D01*
X299931Y167830D01*
X300036Y167794D01*
X300139Y167754D01*
X300241Y167711D01*
X300342Y167664D01*
X300441Y167613D01*
X300538Y167560D01*
X300632Y167503D01*
X300725Y167442D01*
X300816Y167379D01*
X300905Y167312D01*
X300991Y167242D01*
X301074Y167169D01*
X301156Y167094D01*
X301234Y167016D01*
X301309Y166934D01*
X301382Y166851D01*
X301452Y166765D01*
X301519Y166676D01*
X301582Y166585D01*
X301643Y166492D01*
X301700Y166397D01*
X301753Y166301D01*
X301804Y166202D01*
X301851Y166101D01*
X301894Y165999D01*
X301934Y165896D01*
X301970Y165791D01*
X302002Y165685D01*
X302031Y165578D01*
X302056Y165470D01*
X302077Y165361D01*
X302094Y165252D01*
X302108Y165142D01*
X302117Y165031D01*
X302123Y164921D01*
X302125Y164810D01*
X302123Y164699D01*
X302117Y164589D01*
X302108Y164478D01*
X302094Y164368D01*
X302077Y164259D01*
X302056Y164150D01*
X302031Y164042D01*
X302002Y163935D01*
X301970Y163829D01*
X301934Y163724D01*
X301894Y163621D01*
X301851Y163519D01*
X301804Y163418D01*
X301753Y163319D01*
X301700Y163222D01*
X301643Y163128D01*
X301582Y163035D01*
X301519Y162944D01*
X301452Y162855D01*
X301382Y162769D01*
X301309Y162686D01*
X301234Y162604D01*
X301156Y162526D01*
X301074Y162451D01*
X300991Y162378D01*
X300905Y162308D01*
X300816Y162241D01*
X300725Y162178D01*
X300632Y162117D01*
X300538Y162060D01*
X300441Y162007D01*
X300342Y161956D01*
X300241Y161909D01*
X300139Y161866D01*
X300036Y161826D01*
X299931Y161790D01*
X299825Y161758D01*
X299718Y161729D01*
X299610Y161704D01*
X299501Y161683D01*
X299392Y161666D01*
X299282Y161652D01*
X299171Y161643D01*
X299061Y161637D01*
X298950Y161635D01*
X295775Y161635D01*
X295775Y173065D01*
X298950Y173065D01*
X299050Y173063D01*
X299149Y173057D01*
X299249Y173047D01*
X299347Y173034D01*
X299446Y173016D01*
X299543Y172995D01*
X299639Y172970D01*
X299735Y172941D01*
X299829Y172908D01*
X299922Y172872D01*
X300013Y172832D01*
X300103Y172788D01*
X300191Y172741D01*
X300277Y172691D01*
X300361Y172637D01*
X300443Y172580D01*
X300522Y172520D01*
X300600Y172456D01*
X300674Y172390D01*
X300746Y172321D01*
X300815Y172249D01*
X300881Y172175D01*
X300945Y172097D01*
X301005Y172018D01*
X301062Y171936D01*
X301116Y171852D01*
X301166Y171766D01*
X301213Y171678D01*
X301257Y171588D01*
X301297Y171497D01*
X301333Y171404D01*
X301366Y171310D01*
X301395Y171214D01*
X301420Y171118D01*
X301441Y171021D01*
X301459Y170922D01*
X301472Y170824D01*
X301482Y170724D01*
X301488Y170625D01*
X301490Y170525D01*
X301488Y170425D01*
X301482Y170326D01*
X301472Y170226D01*
X301459Y170128D01*
X301441Y170029D01*
X301420Y169932D01*
X301395Y169836D01*
X301366Y169740D01*
X301333Y169646D01*
X301297Y169553D01*
X301257Y169462D01*
X301213Y169372D01*
X301166Y169284D01*
X301116Y169198D01*
X301062Y169114D01*
X301005Y169032D01*
X300945Y168953D01*
X300881Y168875D01*
X300815Y168801D01*
X300746Y168729D01*
X300674Y168660D01*
X300600Y168594D01*
X300522Y168530D01*
X300443Y168470D01*
X300361Y168413D01*
X300277Y168359D01*
X300191Y168309D01*
X300103Y168262D01*
X300013Y168218D01*
X299922Y168178D01*
X299829Y168142D01*
X299735Y168109D01*
X299639Y168080D01*
X299543Y168055D01*
X299446Y168034D01*
X299347Y168016D01*
X299249Y168003D01*
X299149Y167993D01*
X299050Y167987D01*
X298950Y167985D01*
X305999Y161635D02*
X309809Y173065D01*
X313619Y161635D01*
X312666Y164493D02*
X306951Y164493D01*
X320477Y161635D02*
X320477Y173065D01*
X317302Y173065D02*
X323652Y173065D01*
X327970Y170525D02*
X331145Y173065D01*
X331145Y161635D01*
X327970Y161635D02*
X334320Y161635D01*
X339527Y166080D02*
X347147Y166080D01*
X343337Y162270D02*
X343337Y169890D01*
D10*
X411300Y215900D02*
X416380Y215900D01*
X411300Y215900D02*
X411300Y210820D01*
X436700Y210820D02*
X436700Y215900D01*
X431620Y215900D01*
X436700Y195580D02*
X436700Y190500D01*
X431620Y190500D01*
X416380Y190500D02*
X411300Y190500D01*
X411300Y195580D01*
D12*
X407700Y173065D02*
X404525Y173065D01*
X407700Y173065D02*
X407811Y173063D01*
X407921Y173057D01*
X408032Y173048D01*
X408142Y173034D01*
X408251Y173017D01*
X408360Y172996D01*
X408468Y172971D01*
X408575Y172942D01*
X408681Y172910D01*
X408786Y172874D01*
X408889Y172834D01*
X408991Y172791D01*
X409092Y172744D01*
X409191Y172693D01*
X409288Y172640D01*
X409382Y172583D01*
X409475Y172522D01*
X409566Y172459D01*
X409655Y172392D01*
X409741Y172322D01*
X409824Y172249D01*
X409906Y172174D01*
X409984Y172096D01*
X410059Y172014D01*
X410132Y171931D01*
X410202Y171845D01*
X410269Y171756D01*
X410332Y171665D01*
X410393Y171572D01*
X410450Y171477D01*
X410503Y171381D01*
X410554Y171282D01*
X410601Y171181D01*
X410644Y171079D01*
X410684Y170976D01*
X410720Y170871D01*
X410752Y170765D01*
X410781Y170658D01*
X410806Y170550D01*
X410827Y170441D01*
X410844Y170332D01*
X410858Y170222D01*
X410867Y170111D01*
X410873Y170001D01*
X410875Y169890D01*
X410873Y169779D01*
X410867Y169669D01*
X410858Y169558D01*
X410844Y169448D01*
X410827Y169339D01*
X410806Y169230D01*
X410781Y169122D01*
X410752Y169015D01*
X410720Y168909D01*
X410684Y168804D01*
X410644Y168701D01*
X410601Y168599D01*
X410554Y168498D01*
X410503Y168399D01*
X410450Y168302D01*
X410393Y168208D01*
X410332Y168115D01*
X410269Y168024D01*
X410202Y167935D01*
X410132Y167849D01*
X410059Y167766D01*
X409984Y167684D01*
X409906Y167606D01*
X409824Y167531D01*
X409741Y167458D01*
X409655Y167388D01*
X409566Y167321D01*
X409475Y167258D01*
X409382Y167197D01*
X409288Y167140D01*
X409191Y167087D01*
X409092Y167036D01*
X408991Y166989D01*
X408889Y166946D01*
X408786Y166906D01*
X408681Y166870D01*
X408575Y166838D01*
X408468Y166809D01*
X408360Y166784D01*
X408251Y166763D01*
X408142Y166746D01*
X408032Y166732D01*
X407921Y166723D01*
X407811Y166717D01*
X407700Y166715D01*
X404525Y166715D01*
X404525Y178145D01*
X407700Y178145D01*
X407800Y178143D01*
X407899Y178137D01*
X407999Y178127D01*
X408097Y178114D01*
X408196Y178096D01*
X408293Y178075D01*
X408389Y178050D01*
X408485Y178021D01*
X408579Y177988D01*
X408672Y177952D01*
X408763Y177912D01*
X408853Y177868D01*
X408941Y177821D01*
X409027Y177771D01*
X409111Y177717D01*
X409193Y177660D01*
X409272Y177600D01*
X409350Y177536D01*
X409424Y177470D01*
X409496Y177401D01*
X409565Y177329D01*
X409631Y177255D01*
X409695Y177177D01*
X409755Y177098D01*
X409812Y177016D01*
X409866Y176932D01*
X409916Y176846D01*
X409963Y176758D01*
X410007Y176668D01*
X410047Y176577D01*
X410083Y176484D01*
X410116Y176390D01*
X410145Y176294D01*
X410170Y176198D01*
X410191Y176101D01*
X410209Y176002D01*
X410222Y175904D01*
X410232Y175804D01*
X410238Y175705D01*
X410240Y175605D01*
X410238Y175505D01*
X410232Y175406D01*
X410222Y175306D01*
X410209Y175208D01*
X410191Y175109D01*
X410170Y175012D01*
X410145Y174916D01*
X410116Y174820D01*
X410083Y174726D01*
X410047Y174633D01*
X410007Y174542D01*
X409963Y174452D01*
X409916Y174364D01*
X409866Y174278D01*
X409812Y174194D01*
X409755Y174112D01*
X409695Y174033D01*
X409631Y173955D01*
X409565Y173881D01*
X409496Y173809D01*
X409424Y173740D01*
X409350Y173674D01*
X409272Y173610D01*
X409193Y173550D01*
X409111Y173493D01*
X409027Y173439D01*
X408941Y173389D01*
X408853Y173342D01*
X408763Y173298D01*
X408672Y173258D01*
X408579Y173222D01*
X408485Y173189D01*
X408389Y173160D01*
X408293Y173135D01*
X408196Y173114D01*
X408097Y173096D01*
X407999Y173083D01*
X407899Y173073D01*
X407800Y173067D01*
X407700Y173065D01*
X414749Y166715D02*
X418559Y178145D01*
X422369Y166715D01*
X421416Y169573D02*
X415701Y169573D01*
X429227Y166715D02*
X429227Y178145D01*
X426052Y178145D02*
X432402Y178145D01*
X436720Y175605D02*
X439895Y178145D01*
X439895Y166715D01*
X436720Y166715D02*
X443070Y166715D01*
X448277Y171160D02*
X455897Y171160D01*
D13*
X145542Y171958D02*
X133858Y171958D01*
X133858Y175204D01*
X133860Y175317D01*
X133866Y175430D01*
X133876Y175543D01*
X133890Y175656D01*
X133907Y175768D01*
X133929Y175879D01*
X133954Y175989D01*
X133984Y176099D01*
X134017Y176207D01*
X134054Y176314D01*
X134094Y176420D01*
X134139Y176524D01*
X134187Y176627D01*
X134238Y176728D01*
X134293Y176827D01*
X134351Y176924D01*
X134413Y177019D01*
X134478Y177112D01*
X134546Y177202D01*
X134617Y177290D01*
X134692Y177376D01*
X134769Y177459D01*
X134849Y177539D01*
X134932Y177616D01*
X135018Y177691D01*
X135106Y177762D01*
X135196Y177830D01*
X135289Y177895D01*
X135384Y177957D01*
X135481Y178015D01*
X135580Y178070D01*
X135681Y178121D01*
X135784Y178169D01*
X135888Y178214D01*
X135994Y178254D01*
X136101Y178291D01*
X136209Y178324D01*
X136319Y178354D01*
X136429Y178379D01*
X136540Y178401D01*
X136652Y178418D01*
X136765Y178432D01*
X136878Y178442D01*
X136991Y178448D01*
X137104Y178450D01*
X137217Y178448D01*
X137330Y178442D01*
X137443Y178432D01*
X137556Y178418D01*
X137668Y178401D01*
X137779Y178379D01*
X137889Y178354D01*
X137999Y178324D01*
X138107Y178291D01*
X138214Y178254D01*
X138320Y178214D01*
X138424Y178169D01*
X138527Y178121D01*
X138628Y178070D01*
X138727Y178015D01*
X138824Y177957D01*
X138919Y177895D01*
X139012Y177830D01*
X139102Y177762D01*
X139190Y177691D01*
X139276Y177616D01*
X139359Y177539D01*
X139439Y177459D01*
X139516Y177376D01*
X139591Y177290D01*
X139662Y177202D01*
X139730Y177112D01*
X139795Y177019D01*
X139857Y176924D01*
X139915Y176827D01*
X139970Y176728D01*
X140021Y176627D01*
X140069Y176524D01*
X140114Y176420D01*
X140154Y176314D01*
X140191Y176207D01*
X140224Y176099D01*
X140254Y175989D01*
X140279Y175879D01*
X140301Y175768D01*
X140318Y175656D01*
X140332Y175543D01*
X140342Y175430D01*
X140348Y175317D01*
X140350Y175204D01*
X140349Y175204D02*
X140349Y171958D01*
X140349Y175853D02*
X145542Y178449D01*
X145542Y183865D02*
X133858Y183865D01*
X133858Y187110D01*
X133860Y187223D01*
X133866Y187336D01*
X133876Y187449D01*
X133890Y187562D01*
X133907Y187674D01*
X133929Y187785D01*
X133954Y187895D01*
X133984Y188005D01*
X134017Y188113D01*
X134054Y188220D01*
X134094Y188326D01*
X134139Y188430D01*
X134187Y188533D01*
X134238Y188634D01*
X134293Y188733D01*
X134351Y188830D01*
X134413Y188925D01*
X134478Y189018D01*
X134546Y189108D01*
X134617Y189196D01*
X134692Y189282D01*
X134769Y189365D01*
X134849Y189445D01*
X134932Y189522D01*
X135018Y189597D01*
X135106Y189668D01*
X135196Y189736D01*
X135289Y189801D01*
X135384Y189863D01*
X135481Y189921D01*
X135580Y189976D01*
X135681Y190027D01*
X135784Y190075D01*
X135888Y190120D01*
X135994Y190160D01*
X136101Y190197D01*
X136209Y190230D01*
X136319Y190260D01*
X136429Y190285D01*
X136540Y190307D01*
X136652Y190324D01*
X136765Y190338D01*
X136878Y190348D01*
X136991Y190354D01*
X137104Y190356D01*
X137217Y190354D01*
X137330Y190348D01*
X137443Y190338D01*
X137556Y190324D01*
X137668Y190307D01*
X137779Y190285D01*
X137889Y190260D01*
X137999Y190230D01*
X138107Y190197D01*
X138214Y190160D01*
X138320Y190120D01*
X138424Y190075D01*
X138527Y190027D01*
X138628Y189976D01*
X138727Y189921D01*
X138824Y189863D01*
X138919Y189801D01*
X139012Y189736D01*
X139102Y189668D01*
X139190Y189597D01*
X139276Y189522D01*
X139359Y189445D01*
X139439Y189365D01*
X139516Y189282D01*
X139591Y189196D01*
X139662Y189108D01*
X139730Y189018D01*
X139795Y188925D01*
X139857Y188830D01*
X139915Y188733D01*
X139970Y188634D01*
X140021Y188533D01*
X140069Y188430D01*
X140114Y188326D01*
X140154Y188220D01*
X140191Y188113D01*
X140224Y188005D01*
X140254Y187895D01*
X140279Y187785D01*
X140301Y187674D01*
X140318Y187562D01*
X140332Y187449D01*
X140342Y187336D01*
X140348Y187223D01*
X140350Y187110D01*
X140349Y187110D02*
X140349Y183865D01*
X145542Y195199D02*
X133858Y195199D01*
X133858Y198444D01*
X133860Y198557D01*
X133866Y198670D01*
X133876Y198783D01*
X133890Y198896D01*
X133907Y199008D01*
X133929Y199119D01*
X133954Y199229D01*
X133984Y199339D01*
X134017Y199447D01*
X134054Y199554D01*
X134094Y199660D01*
X134139Y199764D01*
X134187Y199867D01*
X134238Y199968D01*
X134293Y200067D01*
X134351Y200164D01*
X134413Y200259D01*
X134478Y200352D01*
X134546Y200442D01*
X134617Y200530D01*
X134692Y200616D01*
X134769Y200699D01*
X134849Y200779D01*
X134932Y200856D01*
X135018Y200931D01*
X135106Y201002D01*
X135196Y201070D01*
X135289Y201135D01*
X135384Y201197D01*
X135481Y201255D01*
X135580Y201310D01*
X135681Y201361D01*
X135784Y201409D01*
X135888Y201454D01*
X135994Y201494D01*
X136101Y201531D01*
X136209Y201564D01*
X136319Y201594D01*
X136429Y201619D01*
X136540Y201641D01*
X136652Y201658D01*
X136765Y201672D01*
X136878Y201682D01*
X136991Y201688D01*
X137104Y201690D01*
X137217Y201688D01*
X137330Y201682D01*
X137443Y201672D01*
X137556Y201658D01*
X137668Y201641D01*
X137779Y201619D01*
X137889Y201594D01*
X137999Y201564D01*
X138107Y201531D01*
X138214Y201494D01*
X138320Y201454D01*
X138424Y201409D01*
X138527Y201361D01*
X138628Y201310D01*
X138727Y201255D01*
X138824Y201197D01*
X138919Y201135D01*
X139012Y201070D01*
X139102Y201002D01*
X139190Y200931D01*
X139276Y200856D01*
X139359Y200779D01*
X139439Y200699D01*
X139516Y200616D01*
X139591Y200530D01*
X139662Y200442D01*
X139730Y200352D01*
X139795Y200259D01*
X139857Y200164D01*
X139915Y200067D01*
X139970Y199968D01*
X140021Y199867D01*
X140069Y199764D01*
X140114Y199660D01*
X140154Y199554D01*
X140191Y199447D01*
X140224Y199339D01*
X140254Y199229D01*
X140279Y199119D01*
X140301Y199008D01*
X140318Y198896D01*
X140332Y198783D01*
X140342Y198670D01*
X140348Y198557D01*
X140350Y198444D01*
X140349Y198444D02*
X140349Y195199D01*
X140349Y199094D02*
X145542Y201690D01*
X142296Y206555D02*
X137104Y206555D01*
X136991Y206557D01*
X136878Y206563D01*
X136765Y206573D01*
X136652Y206587D01*
X136540Y206604D01*
X136429Y206626D01*
X136319Y206651D01*
X136209Y206681D01*
X136101Y206714D01*
X135994Y206751D01*
X135888Y206791D01*
X135784Y206836D01*
X135681Y206884D01*
X135580Y206935D01*
X135481Y206990D01*
X135384Y207048D01*
X135289Y207110D01*
X135196Y207175D01*
X135106Y207243D01*
X135018Y207314D01*
X134932Y207389D01*
X134849Y207466D01*
X134769Y207546D01*
X134692Y207629D01*
X134617Y207715D01*
X134546Y207803D01*
X134478Y207893D01*
X134413Y207986D01*
X134351Y208081D01*
X134293Y208178D01*
X134238Y208277D01*
X134187Y208378D01*
X134139Y208481D01*
X134094Y208585D01*
X134054Y208691D01*
X134017Y208798D01*
X133984Y208906D01*
X133954Y209016D01*
X133929Y209126D01*
X133907Y209237D01*
X133890Y209349D01*
X133876Y209462D01*
X133866Y209575D01*
X133860Y209688D01*
X133858Y209801D01*
X133860Y209914D01*
X133866Y210027D01*
X133876Y210140D01*
X133890Y210253D01*
X133907Y210365D01*
X133929Y210476D01*
X133954Y210586D01*
X133984Y210696D01*
X134017Y210804D01*
X134054Y210911D01*
X134094Y211017D01*
X134139Y211121D01*
X134187Y211224D01*
X134238Y211325D01*
X134293Y211424D01*
X134351Y211521D01*
X134413Y211616D01*
X134478Y211709D01*
X134546Y211799D01*
X134617Y211887D01*
X134692Y211973D01*
X134769Y212056D01*
X134849Y212136D01*
X134932Y212213D01*
X135018Y212288D01*
X135106Y212359D01*
X135196Y212427D01*
X135289Y212492D01*
X135384Y212554D01*
X135481Y212612D01*
X135580Y212667D01*
X135681Y212718D01*
X135784Y212766D01*
X135888Y212811D01*
X135994Y212851D01*
X136101Y212888D01*
X136209Y212921D01*
X136319Y212951D01*
X136429Y212976D01*
X136540Y212998D01*
X136652Y213015D01*
X136765Y213029D01*
X136878Y213039D01*
X136991Y213045D01*
X137104Y213047D01*
X137104Y213046D02*
X142296Y213046D01*
X142296Y213047D02*
X142409Y213045D01*
X142522Y213039D01*
X142635Y213029D01*
X142748Y213015D01*
X142860Y212998D01*
X142971Y212976D01*
X143081Y212951D01*
X143191Y212921D01*
X143299Y212888D01*
X143406Y212851D01*
X143512Y212811D01*
X143616Y212766D01*
X143719Y212718D01*
X143820Y212667D01*
X143919Y212612D01*
X144016Y212554D01*
X144111Y212492D01*
X144204Y212427D01*
X144294Y212359D01*
X144382Y212288D01*
X144468Y212213D01*
X144551Y212136D01*
X144631Y212056D01*
X144708Y211973D01*
X144783Y211887D01*
X144854Y211799D01*
X144922Y211709D01*
X144987Y211616D01*
X145049Y211521D01*
X145107Y211424D01*
X145162Y211325D01*
X145213Y211224D01*
X145261Y211121D01*
X145306Y211017D01*
X145346Y210911D01*
X145383Y210804D01*
X145416Y210696D01*
X145446Y210586D01*
X145471Y210476D01*
X145493Y210365D01*
X145510Y210253D01*
X145524Y210140D01*
X145534Y210027D01*
X145540Y209914D01*
X145542Y209801D01*
X145540Y209688D01*
X145534Y209575D01*
X145524Y209462D01*
X145510Y209349D01*
X145493Y209237D01*
X145471Y209126D01*
X145446Y209016D01*
X145416Y208906D01*
X145383Y208798D01*
X145346Y208691D01*
X145306Y208585D01*
X145261Y208481D01*
X145213Y208378D01*
X145162Y208277D01*
X145107Y208178D01*
X145049Y208081D01*
X144987Y207986D01*
X144922Y207893D01*
X144854Y207803D01*
X144783Y207715D01*
X144708Y207629D01*
X144631Y207546D01*
X144551Y207466D01*
X144468Y207389D01*
X144382Y207314D01*
X144294Y207243D01*
X144204Y207175D01*
X144111Y207110D01*
X144016Y207048D01*
X143919Y206990D01*
X143820Y206935D01*
X143719Y206884D01*
X143616Y206836D01*
X143512Y206791D01*
X143406Y206751D01*
X143299Y206714D01*
X143191Y206681D01*
X143081Y206651D01*
X142971Y206626D01*
X142860Y206604D01*
X142748Y206587D01*
X142635Y206573D01*
X142522Y206563D01*
X142409Y206557D01*
X142296Y206555D01*
X139051Y222910D02*
X139051Y224857D01*
X145542Y224857D01*
X145542Y220963D01*
X145540Y220864D01*
X145534Y220764D01*
X145525Y220665D01*
X145512Y220567D01*
X145495Y220469D01*
X145474Y220371D01*
X145449Y220275D01*
X145421Y220180D01*
X145389Y220086D01*
X145354Y219993D01*
X145315Y219901D01*
X145272Y219811D01*
X145227Y219723D01*
X145177Y219636D01*
X145125Y219552D01*
X145069Y219469D01*
X145011Y219389D01*
X144949Y219311D01*
X144884Y219236D01*
X144816Y219163D01*
X144746Y219093D01*
X144673Y219025D01*
X144598Y218960D01*
X144520Y218898D01*
X144440Y218840D01*
X144357Y218784D01*
X144273Y218732D01*
X144186Y218682D01*
X144098Y218637D01*
X144008Y218594D01*
X143916Y218555D01*
X143823Y218520D01*
X143729Y218488D01*
X143634Y218460D01*
X143538Y218435D01*
X143440Y218414D01*
X143342Y218397D01*
X143244Y218384D01*
X143145Y218375D01*
X143045Y218369D01*
X142946Y218367D01*
X142946Y218366D02*
X136454Y218366D01*
X136355Y218368D01*
X136255Y218374D01*
X136156Y218383D01*
X136058Y218396D01*
X135960Y218414D01*
X135862Y218434D01*
X135766Y218459D01*
X135670Y218487D01*
X135576Y218519D01*
X135483Y218554D01*
X135392Y218593D01*
X135302Y218636D01*
X135213Y218681D01*
X135127Y218731D01*
X135042Y218783D01*
X134960Y218839D01*
X134880Y218898D01*
X134802Y218959D01*
X134726Y219024D01*
X134653Y219092D01*
X134583Y219162D01*
X134515Y219235D01*
X134450Y219311D01*
X134389Y219389D01*
X134330Y219469D01*
X134274Y219551D01*
X134222Y219636D01*
X134173Y219722D01*
X134127Y219811D01*
X134084Y219901D01*
X134045Y219992D01*
X134010Y220085D01*
X133978Y220179D01*
X133950Y220275D01*
X133925Y220371D01*
X133905Y220469D01*
X133887Y220567D01*
X133874Y220665D01*
X133865Y220764D01*
X133859Y220863D01*
X133857Y220963D01*
X133858Y220963D02*
X133858Y224857D01*
D10*
X13180Y210680D02*
X8100Y210680D01*
X8100Y205600D01*
X33500Y205600D02*
X33500Y210680D01*
X28420Y210680D01*
X33500Y190360D02*
X33500Y185280D01*
X28420Y185280D01*
X13180Y185280D02*
X8100Y185280D01*
X8100Y190360D01*
D12*
X38105Y205785D02*
X41915Y205785D01*
X42015Y205787D01*
X42114Y205793D01*
X42214Y205803D01*
X42312Y205816D01*
X42411Y205834D01*
X42508Y205855D01*
X42604Y205880D01*
X42700Y205909D01*
X42794Y205942D01*
X42887Y205978D01*
X42978Y206018D01*
X43068Y206062D01*
X43156Y206109D01*
X43242Y206159D01*
X43326Y206213D01*
X43408Y206270D01*
X43487Y206330D01*
X43565Y206394D01*
X43639Y206460D01*
X43711Y206529D01*
X43780Y206601D01*
X43846Y206675D01*
X43910Y206753D01*
X43970Y206832D01*
X44027Y206914D01*
X44081Y206998D01*
X44131Y207084D01*
X44178Y207172D01*
X44222Y207262D01*
X44262Y207353D01*
X44298Y207446D01*
X44331Y207540D01*
X44360Y207636D01*
X44385Y207732D01*
X44406Y207829D01*
X44424Y207928D01*
X44437Y208026D01*
X44447Y208126D01*
X44453Y208225D01*
X44455Y208325D01*
X44455Y209595D01*
X44453Y209695D01*
X44447Y209794D01*
X44437Y209894D01*
X44424Y209992D01*
X44406Y210091D01*
X44385Y210188D01*
X44360Y210284D01*
X44331Y210380D01*
X44298Y210474D01*
X44262Y210567D01*
X44222Y210658D01*
X44178Y210748D01*
X44131Y210836D01*
X44081Y210922D01*
X44027Y211006D01*
X43970Y211088D01*
X43910Y211167D01*
X43846Y211245D01*
X43780Y211319D01*
X43711Y211391D01*
X43639Y211460D01*
X43565Y211526D01*
X43487Y211590D01*
X43408Y211650D01*
X43326Y211707D01*
X43242Y211761D01*
X43156Y211811D01*
X43068Y211858D01*
X42978Y211902D01*
X42887Y211942D01*
X42794Y211978D01*
X42700Y212011D01*
X42604Y212040D01*
X42508Y212065D01*
X42411Y212086D01*
X42312Y212104D01*
X42214Y212117D01*
X42114Y212127D01*
X42015Y212133D01*
X41915Y212135D01*
X38105Y212135D01*
X38105Y217215D01*
X44455Y217215D01*
X48900Y217215D02*
X52710Y205785D01*
X56520Y217215D01*
X61092Y210230D02*
X68712Y210230D01*
X74808Y205785D02*
X74808Y217215D01*
X73538Y205785D02*
X76078Y205785D01*
X76078Y217215D02*
X73538Y217215D01*
X81158Y217215D02*
X81158Y205785D01*
X87508Y205785D02*
X81158Y217215D01*
X87508Y217215D02*
X87508Y205785D01*
D10*
X13500Y157830D02*
X8420Y157830D01*
X8420Y152750D01*
X33820Y152750D02*
X33820Y157830D01*
X28740Y157830D01*
X33820Y137510D02*
X33820Y132430D01*
X28740Y132430D01*
X13500Y132430D02*
X8420Y132430D01*
X8420Y137510D01*
D12*
X13500Y167355D02*
X15405Y167355D01*
X15405Y161005D01*
X11595Y161005D01*
X11495Y161007D01*
X11396Y161013D01*
X11296Y161023D01*
X11198Y161036D01*
X11099Y161054D01*
X11002Y161075D01*
X10906Y161100D01*
X10810Y161129D01*
X10716Y161162D01*
X10623Y161198D01*
X10532Y161238D01*
X10442Y161282D01*
X10354Y161329D01*
X10268Y161379D01*
X10184Y161433D01*
X10102Y161490D01*
X10023Y161550D01*
X9945Y161614D01*
X9871Y161680D01*
X9799Y161749D01*
X9730Y161821D01*
X9664Y161895D01*
X9600Y161973D01*
X9540Y162052D01*
X9483Y162134D01*
X9429Y162218D01*
X9379Y162304D01*
X9332Y162392D01*
X9288Y162482D01*
X9248Y162573D01*
X9212Y162666D01*
X9179Y162760D01*
X9150Y162856D01*
X9125Y162952D01*
X9104Y163049D01*
X9086Y163148D01*
X9073Y163246D01*
X9063Y163346D01*
X9057Y163445D01*
X9055Y163545D01*
X9055Y169895D01*
X9057Y169995D01*
X9063Y170094D01*
X9073Y170194D01*
X9086Y170292D01*
X9104Y170391D01*
X9125Y170488D01*
X9150Y170584D01*
X9179Y170680D01*
X9212Y170774D01*
X9248Y170867D01*
X9288Y170958D01*
X9332Y171048D01*
X9379Y171136D01*
X9429Y171222D01*
X9483Y171306D01*
X9540Y171388D01*
X9600Y171467D01*
X9664Y171545D01*
X9730Y171619D01*
X9799Y171691D01*
X9871Y171760D01*
X9945Y171826D01*
X10023Y171890D01*
X10102Y171950D01*
X10184Y172007D01*
X10268Y172061D01*
X10354Y172111D01*
X10442Y172158D01*
X10532Y172202D01*
X10623Y172242D01*
X10716Y172278D01*
X10810Y172311D01*
X10906Y172340D01*
X11002Y172365D01*
X11099Y172386D01*
X11198Y172404D01*
X11296Y172417D01*
X11396Y172427D01*
X11495Y172433D01*
X11595Y172435D01*
X15405Y172435D01*
X21247Y172435D02*
X21247Y161005D01*
X27597Y161005D02*
X21247Y172435D01*
X27597Y172435D02*
X27597Y161005D01*
X33439Y161005D02*
X33439Y172435D01*
X36614Y172435D01*
X36725Y172433D01*
X36835Y172427D01*
X36946Y172418D01*
X37056Y172404D01*
X37165Y172387D01*
X37274Y172366D01*
X37382Y172341D01*
X37489Y172312D01*
X37595Y172280D01*
X37700Y172244D01*
X37803Y172204D01*
X37905Y172161D01*
X38006Y172114D01*
X38105Y172063D01*
X38202Y172010D01*
X38296Y171953D01*
X38389Y171892D01*
X38480Y171829D01*
X38569Y171762D01*
X38655Y171692D01*
X38738Y171619D01*
X38820Y171544D01*
X38898Y171466D01*
X38973Y171384D01*
X39046Y171301D01*
X39116Y171215D01*
X39183Y171126D01*
X39246Y171035D01*
X39307Y170942D01*
X39364Y170848D01*
X39417Y170751D01*
X39468Y170652D01*
X39515Y170551D01*
X39558Y170449D01*
X39598Y170346D01*
X39634Y170241D01*
X39666Y170135D01*
X39695Y170028D01*
X39720Y169920D01*
X39741Y169811D01*
X39758Y169702D01*
X39772Y169592D01*
X39781Y169481D01*
X39787Y169371D01*
X39789Y169260D01*
X39789Y164180D01*
X39787Y164069D01*
X39781Y163959D01*
X39772Y163848D01*
X39758Y163738D01*
X39741Y163629D01*
X39720Y163520D01*
X39695Y163412D01*
X39666Y163305D01*
X39634Y163199D01*
X39598Y163094D01*
X39558Y162991D01*
X39515Y162889D01*
X39468Y162788D01*
X39417Y162689D01*
X39364Y162592D01*
X39307Y162498D01*
X39246Y162405D01*
X39183Y162314D01*
X39116Y162225D01*
X39046Y162139D01*
X38973Y162056D01*
X38898Y161974D01*
X38820Y161896D01*
X38738Y161821D01*
X38655Y161748D01*
X38569Y161678D01*
X38480Y161611D01*
X38389Y161548D01*
X38296Y161487D01*
X38201Y161430D01*
X38105Y161377D01*
X38006Y161326D01*
X37905Y161279D01*
X37803Y161236D01*
X37700Y161196D01*
X37595Y161160D01*
X37489Y161128D01*
X37382Y161099D01*
X37274Y161074D01*
X37165Y161053D01*
X37056Y161036D01*
X36946Y161022D01*
X36835Y161013D01*
X36725Y161007D01*
X36614Y161005D01*
X33439Y161005D01*
X45377Y165450D02*
X52997Y165450D01*
X59093Y161005D02*
X59093Y172435D01*
X57823Y161005D02*
X60363Y161005D01*
X60363Y172435D02*
X57823Y172435D01*
X65443Y172435D02*
X65443Y161005D01*
X71793Y161005D02*
X65443Y172435D01*
X71793Y172435D02*
X71793Y161005D01*
D13*
X65081Y199288D02*
X62484Y199288D01*
X62385Y199290D01*
X62285Y199296D01*
X62186Y199305D01*
X62088Y199318D01*
X61990Y199335D01*
X61892Y199356D01*
X61796Y199381D01*
X61701Y199409D01*
X61607Y199441D01*
X61514Y199476D01*
X61422Y199515D01*
X61332Y199558D01*
X61244Y199603D01*
X61157Y199653D01*
X61073Y199705D01*
X60990Y199761D01*
X60910Y199819D01*
X60832Y199881D01*
X60757Y199946D01*
X60684Y200014D01*
X60614Y200084D01*
X60546Y200157D01*
X60481Y200232D01*
X60419Y200310D01*
X60361Y200390D01*
X60305Y200473D01*
X60253Y200557D01*
X60203Y200644D01*
X60158Y200732D01*
X60115Y200822D01*
X60076Y200914D01*
X60041Y201007D01*
X60009Y201101D01*
X59981Y201196D01*
X59956Y201292D01*
X59935Y201390D01*
X59918Y201488D01*
X59905Y201586D01*
X59896Y201685D01*
X59890Y201785D01*
X59888Y201884D01*
X59888Y208376D01*
X59890Y208475D01*
X59896Y208575D01*
X59905Y208674D01*
X59918Y208772D01*
X59935Y208870D01*
X59956Y208968D01*
X59981Y209064D01*
X60009Y209159D01*
X60041Y209253D01*
X60076Y209346D01*
X60115Y209438D01*
X60158Y209528D01*
X60203Y209616D01*
X60253Y209703D01*
X60305Y209787D01*
X60361Y209870D01*
X60419Y209950D01*
X60481Y210028D01*
X60546Y210103D01*
X60614Y210176D01*
X60684Y210246D01*
X60757Y210314D01*
X60832Y210379D01*
X60910Y210441D01*
X60990Y210499D01*
X61073Y210555D01*
X61157Y210607D01*
X61244Y210657D01*
X61332Y210702D01*
X61422Y210745D01*
X61514Y210784D01*
X61606Y210819D01*
X61701Y210851D01*
X61796Y210879D01*
X61892Y210904D01*
X61990Y210925D01*
X62088Y210942D01*
X62186Y210955D01*
X62285Y210964D01*
X62385Y210970D01*
X62484Y210972D01*
X65081Y210972D01*
X69446Y208376D02*
X72692Y210972D01*
X72692Y199288D01*
X75937Y199288D02*
X69446Y199288D01*
X111054Y152908D02*
X113651Y152908D01*
X111054Y152908D02*
X110955Y152910D01*
X110855Y152916D01*
X110756Y152925D01*
X110658Y152938D01*
X110560Y152955D01*
X110462Y152976D01*
X110366Y153001D01*
X110271Y153029D01*
X110177Y153061D01*
X110084Y153096D01*
X109992Y153135D01*
X109902Y153178D01*
X109814Y153223D01*
X109727Y153273D01*
X109643Y153325D01*
X109560Y153381D01*
X109480Y153439D01*
X109402Y153501D01*
X109327Y153566D01*
X109254Y153634D01*
X109184Y153704D01*
X109116Y153777D01*
X109051Y153852D01*
X108989Y153930D01*
X108931Y154010D01*
X108875Y154093D01*
X108823Y154177D01*
X108773Y154264D01*
X108728Y154352D01*
X108685Y154442D01*
X108646Y154534D01*
X108611Y154627D01*
X108579Y154721D01*
X108551Y154816D01*
X108526Y154912D01*
X108505Y155010D01*
X108488Y155108D01*
X108475Y155206D01*
X108466Y155305D01*
X108460Y155405D01*
X108458Y155504D01*
X108458Y161996D01*
X108460Y162095D01*
X108466Y162195D01*
X108475Y162294D01*
X108488Y162392D01*
X108505Y162490D01*
X108526Y162588D01*
X108551Y162684D01*
X108579Y162779D01*
X108611Y162873D01*
X108646Y162966D01*
X108685Y163058D01*
X108728Y163148D01*
X108773Y163236D01*
X108823Y163323D01*
X108875Y163407D01*
X108931Y163490D01*
X108989Y163570D01*
X109051Y163648D01*
X109116Y163723D01*
X109184Y163796D01*
X109254Y163866D01*
X109327Y163934D01*
X109402Y163999D01*
X109480Y164061D01*
X109560Y164119D01*
X109643Y164175D01*
X109727Y164227D01*
X109814Y164277D01*
X109902Y164322D01*
X109992Y164365D01*
X110084Y164404D01*
X110176Y164439D01*
X110271Y164471D01*
X110366Y164499D01*
X110462Y164524D01*
X110560Y164545D01*
X110658Y164562D01*
X110756Y164575D01*
X110855Y164584D01*
X110955Y164590D01*
X111054Y164592D01*
X113651Y164592D01*
X121586Y164592D02*
X121693Y164590D01*
X121799Y164584D01*
X121905Y164574D01*
X122011Y164561D01*
X122117Y164543D01*
X122221Y164522D01*
X122325Y164497D01*
X122428Y164468D01*
X122529Y164436D01*
X122629Y164399D01*
X122728Y164359D01*
X122826Y164316D01*
X122922Y164269D01*
X123016Y164218D01*
X123108Y164164D01*
X123198Y164107D01*
X123286Y164047D01*
X123371Y163983D01*
X123454Y163916D01*
X123535Y163846D01*
X123613Y163774D01*
X123689Y163698D01*
X123761Y163620D01*
X123831Y163539D01*
X123898Y163456D01*
X123962Y163371D01*
X124022Y163283D01*
X124079Y163193D01*
X124133Y163101D01*
X124184Y163007D01*
X124231Y162911D01*
X124274Y162813D01*
X124314Y162714D01*
X124351Y162614D01*
X124383Y162513D01*
X124412Y162410D01*
X124437Y162306D01*
X124458Y162202D01*
X124476Y162096D01*
X124489Y161990D01*
X124499Y161884D01*
X124505Y161778D01*
X124507Y161671D01*
X121586Y164592D02*
X121465Y164590D01*
X121344Y164584D01*
X121224Y164574D01*
X121103Y164561D01*
X120984Y164543D01*
X120864Y164522D01*
X120746Y164497D01*
X120629Y164468D01*
X120512Y164435D01*
X120397Y164399D01*
X120283Y164358D01*
X120170Y164315D01*
X120058Y164267D01*
X119949Y164216D01*
X119841Y164161D01*
X119734Y164103D01*
X119630Y164042D01*
X119528Y163977D01*
X119428Y163909D01*
X119330Y163838D01*
X119234Y163764D01*
X119141Y163687D01*
X119051Y163606D01*
X118963Y163523D01*
X118878Y163437D01*
X118795Y163348D01*
X118716Y163257D01*
X118639Y163163D01*
X118566Y163067D01*
X118496Y162969D01*
X118429Y162868D01*
X118365Y162765D01*
X118305Y162660D01*
X118248Y162553D01*
X118194Y162445D01*
X118144Y162335D01*
X118098Y162223D01*
X118055Y162110D01*
X118016Y161995D01*
X123534Y159399D02*
X123613Y159476D01*
X123689Y159557D01*
X123762Y159640D01*
X123832Y159725D01*
X123899Y159813D01*
X123963Y159903D01*
X124023Y159995D01*
X124080Y160090D01*
X124134Y160186D01*
X124185Y160284D01*
X124232Y160384D01*
X124276Y160486D01*
X124316Y160589D01*
X124352Y160693D01*
X124384Y160799D01*
X124413Y160905D01*
X124438Y161013D01*
X124460Y161121D01*
X124477Y161231D01*
X124491Y161340D01*
X124500Y161450D01*
X124506Y161561D01*
X124508Y161671D01*
X123534Y159399D02*
X118016Y152908D01*
X124507Y152908D01*
D14*
X166350Y152400D03*
D13*
X152908Y159258D02*
X152908Y170942D01*
X152908Y159258D02*
X158101Y159258D01*
X162814Y159258D02*
X168007Y159258D01*
X162814Y159258D02*
X162814Y170942D01*
X168007Y170942D01*
X166709Y165749D02*
X162814Y165749D01*
X172697Y170942D02*
X172697Y159258D01*
X172697Y170942D02*
X175943Y170942D01*
X176056Y170940D01*
X176169Y170934D01*
X176282Y170924D01*
X176395Y170910D01*
X176507Y170893D01*
X176618Y170871D01*
X176728Y170846D01*
X176838Y170816D01*
X176946Y170783D01*
X177053Y170746D01*
X177159Y170706D01*
X177263Y170661D01*
X177366Y170613D01*
X177467Y170562D01*
X177566Y170507D01*
X177663Y170449D01*
X177758Y170387D01*
X177851Y170322D01*
X177941Y170254D01*
X178029Y170183D01*
X178115Y170108D01*
X178198Y170031D01*
X178278Y169951D01*
X178355Y169868D01*
X178430Y169782D01*
X178501Y169694D01*
X178569Y169604D01*
X178634Y169511D01*
X178696Y169416D01*
X178754Y169319D01*
X178809Y169220D01*
X178860Y169119D01*
X178908Y169016D01*
X178953Y168912D01*
X178993Y168806D01*
X179030Y168699D01*
X179063Y168591D01*
X179093Y168481D01*
X179118Y168371D01*
X179140Y168260D01*
X179157Y168148D01*
X179171Y168035D01*
X179181Y167922D01*
X179187Y167809D01*
X179189Y167696D01*
X179189Y162504D01*
X179187Y162391D01*
X179181Y162278D01*
X179171Y162165D01*
X179157Y162052D01*
X179140Y161940D01*
X179118Y161829D01*
X179093Y161719D01*
X179063Y161609D01*
X179030Y161501D01*
X178993Y161394D01*
X178953Y161288D01*
X178908Y161184D01*
X178860Y161081D01*
X178809Y160980D01*
X178754Y160881D01*
X178696Y160784D01*
X178634Y160689D01*
X178569Y160596D01*
X178501Y160506D01*
X178430Y160418D01*
X178355Y160332D01*
X178278Y160249D01*
X178198Y160169D01*
X178115Y160092D01*
X178029Y160017D01*
X177941Y159946D01*
X177851Y159878D01*
X177758Y159813D01*
X177663Y159751D01*
X177566Y159693D01*
X177467Y159638D01*
X177366Y159587D01*
X177263Y159539D01*
X177159Y159494D01*
X177053Y159454D01*
X176946Y159417D01*
X176838Y159384D01*
X176728Y159354D01*
X176618Y159329D01*
X176507Y159307D01*
X176395Y159290D01*
X176282Y159276D01*
X176169Y159266D01*
X176056Y159260D01*
X175943Y159258D01*
X172697Y159258D01*
X184508Y168346D02*
X187754Y170942D01*
X187754Y159258D01*
X190999Y159258D02*
X184508Y159258D01*
X171958Y145542D02*
X171958Y133858D01*
X171958Y145542D02*
X175204Y145542D01*
X175317Y145540D01*
X175430Y145534D01*
X175543Y145524D01*
X175656Y145510D01*
X175768Y145493D01*
X175879Y145471D01*
X175989Y145446D01*
X176099Y145416D01*
X176207Y145383D01*
X176314Y145346D01*
X176420Y145306D01*
X176524Y145261D01*
X176627Y145213D01*
X176728Y145162D01*
X176827Y145107D01*
X176924Y145049D01*
X177019Y144987D01*
X177112Y144922D01*
X177202Y144854D01*
X177290Y144783D01*
X177376Y144708D01*
X177459Y144631D01*
X177539Y144551D01*
X177616Y144468D01*
X177691Y144382D01*
X177762Y144294D01*
X177830Y144204D01*
X177895Y144111D01*
X177957Y144016D01*
X178015Y143919D01*
X178070Y143820D01*
X178121Y143719D01*
X178169Y143616D01*
X178214Y143512D01*
X178254Y143406D01*
X178291Y143299D01*
X178324Y143191D01*
X178354Y143081D01*
X178379Y142971D01*
X178401Y142860D01*
X178418Y142748D01*
X178432Y142635D01*
X178442Y142522D01*
X178448Y142409D01*
X178450Y142296D01*
X178448Y142183D01*
X178442Y142070D01*
X178432Y141957D01*
X178418Y141844D01*
X178401Y141732D01*
X178379Y141621D01*
X178354Y141511D01*
X178324Y141401D01*
X178291Y141293D01*
X178254Y141186D01*
X178214Y141080D01*
X178169Y140976D01*
X178121Y140873D01*
X178070Y140772D01*
X178015Y140673D01*
X177957Y140576D01*
X177895Y140481D01*
X177830Y140388D01*
X177762Y140298D01*
X177691Y140210D01*
X177616Y140124D01*
X177539Y140041D01*
X177459Y139961D01*
X177376Y139884D01*
X177290Y139809D01*
X177202Y139738D01*
X177112Y139670D01*
X177019Y139605D01*
X176924Y139543D01*
X176827Y139485D01*
X176728Y139430D01*
X176627Y139379D01*
X176524Y139331D01*
X176420Y139286D01*
X176314Y139246D01*
X176207Y139209D01*
X176099Y139176D01*
X175989Y139146D01*
X175879Y139121D01*
X175768Y139099D01*
X175656Y139082D01*
X175543Y139068D01*
X175430Y139058D01*
X175317Y139052D01*
X175204Y139050D01*
X175204Y139051D02*
X171958Y139051D01*
X175853Y139051D02*
X178449Y133858D01*
X183865Y133858D02*
X183865Y145542D01*
X187110Y145542D01*
X187223Y145540D01*
X187336Y145534D01*
X187449Y145524D01*
X187562Y145510D01*
X187674Y145493D01*
X187785Y145471D01*
X187895Y145446D01*
X188005Y145416D01*
X188113Y145383D01*
X188220Y145346D01*
X188326Y145306D01*
X188430Y145261D01*
X188533Y145213D01*
X188634Y145162D01*
X188733Y145107D01*
X188830Y145049D01*
X188925Y144987D01*
X189018Y144922D01*
X189108Y144854D01*
X189196Y144783D01*
X189282Y144708D01*
X189365Y144631D01*
X189445Y144551D01*
X189522Y144468D01*
X189597Y144382D01*
X189668Y144294D01*
X189736Y144204D01*
X189801Y144111D01*
X189863Y144016D01*
X189921Y143919D01*
X189976Y143820D01*
X190027Y143719D01*
X190075Y143616D01*
X190120Y143512D01*
X190160Y143406D01*
X190197Y143299D01*
X190230Y143191D01*
X190260Y143081D01*
X190285Y142971D01*
X190307Y142860D01*
X190324Y142748D01*
X190338Y142635D01*
X190348Y142522D01*
X190354Y142409D01*
X190356Y142296D01*
X190354Y142183D01*
X190348Y142070D01*
X190338Y141957D01*
X190324Y141844D01*
X190307Y141732D01*
X190285Y141621D01*
X190260Y141511D01*
X190230Y141401D01*
X190197Y141293D01*
X190160Y141186D01*
X190120Y141080D01*
X190075Y140976D01*
X190027Y140873D01*
X189976Y140772D01*
X189921Y140673D01*
X189863Y140576D01*
X189801Y140481D01*
X189736Y140388D01*
X189668Y140298D01*
X189597Y140210D01*
X189522Y140124D01*
X189445Y140041D01*
X189365Y139961D01*
X189282Y139884D01*
X189196Y139809D01*
X189108Y139738D01*
X189018Y139670D01*
X188925Y139605D01*
X188830Y139543D01*
X188733Y139485D01*
X188634Y139430D01*
X188533Y139379D01*
X188430Y139331D01*
X188326Y139286D01*
X188220Y139246D01*
X188113Y139209D01*
X188005Y139176D01*
X187895Y139146D01*
X187785Y139121D01*
X187674Y139099D01*
X187562Y139082D01*
X187449Y139068D01*
X187336Y139058D01*
X187223Y139052D01*
X187110Y139050D01*
X187110Y139051D02*
X183865Y139051D01*
X195199Y133858D02*
X195199Y145542D01*
X198444Y145542D01*
X198557Y145540D01*
X198670Y145534D01*
X198783Y145524D01*
X198896Y145510D01*
X199008Y145493D01*
X199119Y145471D01*
X199229Y145446D01*
X199339Y145416D01*
X199447Y145383D01*
X199554Y145346D01*
X199660Y145306D01*
X199764Y145261D01*
X199867Y145213D01*
X199968Y145162D01*
X200067Y145107D01*
X200164Y145049D01*
X200259Y144987D01*
X200352Y144922D01*
X200442Y144854D01*
X200530Y144783D01*
X200616Y144708D01*
X200699Y144631D01*
X200779Y144551D01*
X200856Y144468D01*
X200931Y144382D01*
X201002Y144294D01*
X201070Y144204D01*
X201135Y144111D01*
X201197Y144016D01*
X201255Y143919D01*
X201310Y143820D01*
X201361Y143719D01*
X201409Y143616D01*
X201454Y143512D01*
X201494Y143406D01*
X201531Y143299D01*
X201564Y143191D01*
X201594Y143081D01*
X201619Y142971D01*
X201641Y142860D01*
X201658Y142748D01*
X201672Y142635D01*
X201682Y142522D01*
X201688Y142409D01*
X201690Y142296D01*
X201688Y142183D01*
X201682Y142070D01*
X201672Y141957D01*
X201658Y141844D01*
X201641Y141732D01*
X201619Y141621D01*
X201594Y141511D01*
X201564Y141401D01*
X201531Y141293D01*
X201494Y141186D01*
X201454Y141080D01*
X201409Y140976D01*
X201361Y140873D01*
X201310Y140772D01*
X201255Y140673D01*
X201197Y140576D01*
X201135Y140481D01*
X201070Y140388D01*
X201002Y140298D01*
X200931Y140210D01*
X200856Y140124D01*
X200779Y140041D01*
X200699Y139961D01*
X200616Y139884D01*
X200530Y139809D01*
X200442Y139738D01*
X200352Y139670D01*
X200259Y139605D01*
X200164Y139543D01*
X200067Y139485D01*
X199968Y139430D01*
X199867Y139379D01*
X199764Y139331D01*
X199660Y139286D01*
X199554Y139246D01*
X199447Y139209D01*
X199339Y139176D01*
X199229Y139146D01*
X199119Y139121D01*
X199008Y139099D01*
X198896Y139082D01*
X198783Y139068D01*
X198670Y139058D01*
X198557Y139052D01*
X198444Y139050D01*
X198444Y139051D02*
X195199Y139051D01*
X199094Y139051D02*
X201690Y133858D01*
X206555Y137104D02*
X206555Y142296D01*
X206557Y142409D01*
X206563Y142522D01*
X206573Y142635D01*
X206587Y142748D01*
X206604Y142860D01*
X206626Y142971D01*
X206651Y143081D01*
X206681Y143191D01*
X206714Y143299D01*
X206751Y143406D01*
X206791Y143512D01*
X206836Y143616D01*
X206884Y143719D01*
X206935Y143820D01*
X206990Y143919D01*
X207048Y144016D01*
X207110Y144111D01*
X207175Y144204D01*
X207243Y144294D01*
X207314Y144382D01*
X207389Y144468D01*
X207466Y144551D01*
X207546Y144631D01*
X207629Y144708D01*
X207715Y144783D01*
X207803Y144854D01*
X207893Y144922D01*
X207986Y144987D01*
X208081Y145049D01*
X208178Y145107D01*
X208277Y145162D01*
X208378Y145213D01*
X208481Y145261D01*
X208585Y145306D01*
X208691Y145346D01*
X208798Y145383D01*
X208906Y145416D01*
X209016Y145446D01*
X209126Y145471D01*
X209237Y145493D01*
X209349Y145510D01*
X209462Y145524D01*
X209575Y145534D01*
X209688Y145540D01*
X209801Y145542D01*
X209914Y145540D01*
X210027Y145534D01*
X210140Y145524D01*
X210253Y145510D01*
X210365Y145493D01*
X210476Y145471D01*
X210586Y145446D01*
X210696Y145416D01*
X210804Y145383D01*
X210911Y145346D01*
X211017Y145306D01*
X211121Y145261D01*
X211224Y145213D01*
X211325Y145162D01*
X211424Y145107D01*
X211521Y145049D01*
X211616Y144987D01*
X211709Y144922D01*
X211799Y144854D01*
X211887Y144783D01*
X211973Y144708D01*
X212056Y144631D01*
X212136Y144551D01*
X212213Y144468D01*
X212288Y144382D01*
X212359Y144294D01*
X212427Y144204D01*
X212492Y144111D01*
X212554Y144016D01*
X212612Y143919D01*
X212667Y143820D01*
X212718Y143719D01*
X212766Y143616D01*
X212811Y143512D01*
X212851Y143406D01*
X212888Y143299D01*
X212921Y143191D01*
X212951Y143081D01*
X212976Y142971D01*
X212998Y142860D01*
X213015Y142748D01*
X213029Y142635D01*
X213039Y142522D01*
X213045Y142409D01*
X213047Y142296D01*
X213046Y142296D02*
X213046Y137104D01*
X213047Y137104D02*
X213045Y136991D01*
X213039Y136878D01*
X213029Y136765D01*
X213015Y136652D01*
X212998Y136540D01*
X212976Y136429D01*
X212951Y136319D01*
X212921Y136209D01*
X212888Y136101D01*
X212851Y135994D01*
X212811Y135888D01*
X212766Y135784D01*
X212718Y135681D01*
X212667Y135580D01*
X212612Y135481D01*
X212554Y135384D01*
X212492Y135289D01*
X212427Y135196D01*
X212359Y135106D01*
X212288Y135018D01*
X212213Y134932D01*
X212136Y134849D01*
X212056Y134769D01*
X211973Y134692D01*
X211887Y134617D01*
X211799Y134546D01*
X211709Y134478D01*
X211616Y134413D01*
X211521Y134351D01*
X211424Y134293D01*
X211325Y134238D01*
X211224Y134187D01*
X211121Y134139D01*
X211017Y134094D01*
X210911Y134054D01*
X210804Y134017D01*
X210696Y133984D01*
X210586Y133954D01*
X210476Y133929D01*
X210365Y133907D01*
X210253Y133890D01*
X210140Y133876D01*
X210027Y133866D01*
X209914Y133860D01*
X209801Y133858D01*
X209688Y133860D01*
X209575Y133866D01*
X209462Y133876D01*
X209349Y133890D01*
X209237Y133907D01*
X209126Y133929D01*
X209016Y133954D01*
X208906Y133984D01*
X208798Y134017D01*
X208691Y134054D01*
X208585Y134094D01*
X208481Y134139D01*
X208378Y134187D01*
X208277Y134238D01*
X208178Y134293D01*
X208081Y134351D01*
X207986Y134413D01*
X207893Y134478D01*
X207803Y134546D01*
X207715Y134617D01*
X207629Y134692D01*
X207546Y134769D01*
X207466Y134849D01*
X207389Y134932D01*
X207314Y135018D01*
X207243Y135106D01*
X207175Y135196D01*
X207110Y135289D01*
X207048Y135384D01*
X206990Y135481D01*
X206935Y135580D01*
X206884Y135681D01*
X206836Y135784D01*
X206791Y135888D01*
X206751Y135994D01*
X206714Y136101D01*
X206681Y136209D01*
X206651Y136319D01*
X206626Y136429D01*
X206604Y136540D01*
X206587Y136652D01*
X206573Y136765D01*
X206563Y136878D01*
X206557Y136991D01*
X206555Y137104D01*
X222910Y140349D02*
X224857Y140349D01*
X224857Y133858D01*
X220963Y133858D01*
X220864Y133860D01*
X220764Y133866D01*
X220665Y133875D01*
X220567Y133888D01*
X220469Y133905D01*
X220371Y133926D01*
X220275Y133951D01*
X220180Y133979D01*
X220086Y134011D01*
X219993Y134046D01*
X219901Y134085D01*
X219811Y134128D01*
X219723Y134173D01*
X219636Y134223D01*
X219552Y134275D01*
X219469Y134331D01*
X219389Y134389D01*
X219311Y134451D01*
X219236Y134516D01*
X219163Y134584D01*
X219093Y134654D01*
X219025Y134727D01*
X218960Y134802D01*
X218898Y134880D01*
X218840Y134960D01*
X218784Y135043D01*
X218732Y135127D01*
X218682Y135214D01*
X218637Y135302D01*
X218594Y135392D01*
X218555Y135484D01*
X218520Y135577D01*
X218488Y135671D01*
X218460Y135766D01*
X218435Y135862D01*
X218414Y135960D01*
X218397Y136058D01*
X218384Y136156D01*
X218375Y136255D01*
X218369Y136355D01*
X218367Y136454D01*
X218366Y136454D02*
X218366Y142946D01*
X218367Y142946D02*
X218369Y143045D01*
X218375Y143145D01*
X218384Y143244D01*
X218397Y143342D01*
X218414Y143440D01*
X218435Y143538D01*
X218460Y143634D01*
X218488Y143729D01*
X218520Y143823D01*
X218555Y143916D01*
X218594Y144008D01*
X218637Y144098D01*
X218682Y144186D01*
X218732Y144273D01*
X218784Y144357D01*
X218840Y144440D01*
X218898Y144520D01*
X218960Y144598D01*
X219025Y144673D01*
X219093Y144746D01*
X219163Y144816D01*
X219236Y144884D01*
X219311Y144949D01*
X219389Y145011D01*
X219469Y145069D01*
X219552Y145125D01*
X219636Y145177D01*
X219723Y145227D01*
X219811Y145272D01*
X219901Y145315D01*
X219993Y145354D01*
X220085Y145389D01*
X220180Y145421D01*
X220275Y145449D01*
X220371Y145474D01*
X220469Y145495D01*
X220567Y145512D01*
X220665Y145525D01*
X220764Y145534D01*
X220864Y145540D01*
X220963Y145542D01*
X224857Y145542D01*
X230177Y142946D02*
X233423Y145542D01*
X233423Y133858D01*
X236668Y133858D02*
X230177Y133858D01*
D15*
X94050Y128300D02*
X94052Y128370D01*
X94058Y128440D01*
X94068Y128509D01*
X94081Y128578D01*
X94099Y128646D01*
X94120Y128713D01*
X94145Y128778D01*
X94174Y128842D01*
X94206Y128905D01*
X94242Y128965D01*
X94281Y129023D01*
X94323Y129079D01*
X94368Y129133D01*
X94416Y129184D01*
X94467Y129232D01*
X94521Y129277D01*
X94577Y129319D01*
X94635Y129358D01*
X94695Y129394D01*
X94758Y129426D01*
X94822Y129455D01*
X94887Y129480D01*
X94954Y129501D01*
X95022Y129519D01*
X95091Y129532D01*
X95160Y129542D01*
X95230Y129548D01*
X95300Y129550D01*
X95370Y129548D01*
X95440Y129542D01*
X95509Y129532D01*
X95578Y129519D01*
X95646Y129501D01*
X95713Y129480D01*
X95778Y129455D01*
X95842Y129426D01*
X95905Y129394D01*
X95965Y129358D01*
X96023Y129319D01*
X96079Y129277D01*
X96133Y129232D01*
X96184Y129184D01*
X96232Y129133D01*
X96277Y129079D01*
X96319Y129023D01*
X96358Y128965D01*
X96394Y128905D01*
X96426Y128842D01*
X96455Y128778D01*
X96480Y128713D01*
X96501Y128646D01*
X96519Y128578D01*
X96532Y128509D01*
X96542Y128440D01*
X96548Y128370D01*
X96550Y128300D01*
X96548Y128230D01*
X96542Y128160D01*
X96532Y128091D01*
X96519Y128022D01*
X96501Y127954D01*
X96480Y127887D01*
X96455Y127822D01*
X96426Y127758D01*
X96394Y127695D01*
X96358Y127635D01*
X96319Y127577D01*
X96277Y127521D01*
X96232Y127467D01*
X96184Y127416D01*
X96133Y127368D01*
X96079Y127323D01*
X96023Y127281D01*
X95965Y127242D01*
X95905Y127206D01*
X95842Y127174D01*
X95778Y127145D01*
X95713Y127120D01*
X95646Y127099D01*
X95578Y127081D01*
X95509Y127068D01*
X95440Y127058D01*
X95370Y127052D01*
X95300Y127050D01*
X95230Y127052D01*
X95160Y127058D01*
X95091Y127068D01*
X95022Y127081D01*
X94954Y127099D01*
X94887Y127120D01*
X94822Y127145D01*
X94758Y127174D01*
X94695Y127206D01*
X94635Y127242D01*
X94577Y127281D01*
X94521Y127323D01*
X94467Y127368D01*
X94416Y127416D01*
X94368Y127467D01*
X94323Y127521D01*
X94281Y127577D01*
X94242Y127635D01*
X94206Y127695D01*
X94174Y127758D01*
X94145Y127822D01*
X94120Y127887D01*
X94099Y127954D01*
X94081Y128022D01*
X94068Y128091D01*
X94058Y128160D01*
X94052Y128230D01*
X94050Y128300D01*
D13*
X103992Y120142D02*
X103992Y108458D01*
X102694Y108458D02*
X105290Y108458D01*
X105290Y120142D02*
X102694Y120142D01*
X112454Y108458D02*
X115050Y108458D01*
X112454Y108458D02*
X112355Y108460D01*
X112255Y108466D01*
X112156Y108475D01*
X112058Y108488D01*
X111960Y108505D01*
X111862Y108526D01*
X111766Y108551D01*
X111671Y108579D01*
X111577Y108611D01*
X111484Y108646D01*
X111392Y108685D01*
X111302Y108728D01*
X111214Y108773D01*
X111127Y108823D01*
X111043Y108875D01*
X110960Y108931D01*
X110880Y108989D01*
X110802Y109051D01*
X110727Y109116D01*
X110654Y109184D01*
X110584Y109254D01*
X110516Y109327D01*
X110451Y109402D01*
X110389Y109480D01*
X110331Y109560D01*
X110275Y109643D01*
X110223Y109727D01*
X110173Y109814D01*
X110128Y109902D01*
X110085Y109992D01*
X110046Y110084D01*
X110011Y110177D01*
X109979Y110271D01*
X109951Y110366D01*
X109926Y110462D01*
X109905Y110560D01*
X109888Y110658D01*
X109875Y110756D01*
X109866Y110855D01*
X109860Y110955D01*
X109858Y111054D01*
X109857Y111054D02*
X109857Y117546D01*
X109858Y117546D02*
X109860Y117645D01*
X109866Y117745D01*
X109875Y117844D01*
X109888Y117942D01*
X109905Y118040D01*
X109926Y118138D01*
X109951Y118234D01*
X109979Y118329D01*
X110011Y118423D01*
X110046Y118516D01*
X110085Y118608D01*
X110128Y118698D01*
X110173Y118786D01*
X110223Y118873D01*
X110275Y118957D01*
X110331Y119040D01*
X110389Y119120D01*
X110451Y119198D01*
X110516Y119273D01*
X110584Y119346D01*
X110654Y119416D01*
X110727Y119484D01*
X110802Y119549D01*
X110880Y119611D01*
X110960Y119669D01*
X111043Y119725D01*
X111127Y119777D01*
X111214Y119827D01*
X111302Y119872D01*
X111392Y119915D01*
X111484Y119954D01*
X111576Y119989D01*
X111671Y120021D01*
X111766Y120049D01*
X111862Y120074D01*
X111960Y120095D01*
X112058Y120112D01*
X112156Y120125D01*
X112255Y120134D01*
X112355Y120140D01*
X112454Y120142D01*
X115050Y120142D01*
X119415Y117546D02*
X122661Y120142D01*
X122661Y108458D01*
X125906Y108458D02*
X119415Y108458D01*
X163322Y108016D02*
X163322Y105419D01*
X163320Y105320D01*
X163314Y105220D01*
X163305Y105121D01*
X163292Y105023D01*
X163275Y104925D01*
X163254Y104827D01*
X163229Y104731D01*
X163201Y104636D01*
X163169Y104542D01*
X163134Y104449D01*
X163095Y104357D01*
X163052Y104267D01*
X163007Y104179D01*
X162957Y104092D01*
X162905Y104008D01*
X162849Y103925D01*
X162791Y103845D01*
X162729Y103767D01*
X162664Y103692D01*
X162596Y103619D01*
X162526Y103549D01*
X162453Y103481D01*
X162378Y103416D01*
X162300Y103354D01*
X162220Y103296D01*
X162137Y103240D01*
X162053Y103188D01*
X161966Y103138D01*
X161878Y103093D01*
X161788Y103050D01*
X161696Y103011D01*
X161603Y102976D01*
X161509Y102944D01*
X161414Y102916D01*
X161318Y102891D01*
X161220Y102870D01*
X161122Y102853D01*
X161024Y102840D01*
X160925Y102831D01*
X160825Y102825D01*
X160726Y102823D01*
X154234Y102823D01*
X154234Y102822D02*
X154135Y102824D01*
X154035Y102830D01*
X153936Y102839D01*
X153838Y102852D01*
X153740Y102870D01*
X153642Y102890D01*
X153546Y102915D01*
X153450Y102943D01*
X153356Y102975D01*
X153263Y103010D01*
X153172Y103049D01*
X153082Y103092D01*
X152993Y103137D01*
X152907Y103187D01*
X152822Y103239D01*
X152740Y103295D01*
X152660Y103354D01*
X152582Y103415D01*
X152506Y103480D01*
X152433Y103548D01*
X152363Y103618D01*
X152295Y103691D01*
X152230Y103767D01*
X152169Y103845D01*
X152110Y103925D01*
X152054Y104007D01*
X152002Y104092D01*
X151953Y104178D01*
X151907Y104267D01*
X151864Y104357D01*
X151825Y104448D01*
X151790Y104541D01*
X151758Y104635D01*
X151730Y104731D01*
X151705Y104827D01*
X151685Y104925D01*
X151667Y105023D01*
X151654Y105121D01*
X151645Y105220D01*
X151639Y105319D01*
X151637Y105419D01*
X151638Y105419D02*
X151638Y108016D01*
X163322Y112381D02*
X163322Y115626D01*
X163320Y115739D01*
X163314Y115852D01*
X163304Y115965D01*
X163290Y116078D01*
X163273Y116190D01*
X163251Y116301D01*
X163226Y116411D01*
X163196Y116521D01*
X163163Y116629D01*
X163126Y116736D01*
X163086Y116842D01*
X163041Y116946D01*
X162993Y117049D01*
X162942Y117150D01*
X162887Y117249D01*
X162829Y117346D01*
X162767Y117441D01*
X162702Y117534D01*
X162634Y117624D01*
X162563Y117712D01*
X162488Y117798D01*
X162411Y117881D01*
X162331Y117961D01*
X162248Y118038D01*
X162162Y118113D01*
X162074Y118184D01*
X161984Y118252D01*
X161891Y118317D01*
X161796Y118379D01*
X161699Y118437D01*
X161600Y118492D01*
X161499Y118543D01*
X161396Y118591D01*
X161292Y118636D01*
X161186Y118676D01*
X161079Y118713D01*
X160971Y118746D01*
X160861Y118776D01*
X160751Y118801D01*
X160640Y118823D01*
X160528Y118840D01*
X160415Y118854D01*
X160302Y118864D01*
X160189Y118870D01*
X160076Y118872D01*
X159963Y118870D01*
X159850Y118864D01*
X159737Y118854D01*
X159624Y118840D01*
X159512Y118823D01*
X159401Y118801D01*
X159291Y118776D01*
X159181Y118746D01*
X159073Y118713D01*
X158966Y118676D01*
X158860Y118636D01*
X158756Y118591D01*
X158653Y118543D01*
X158552Y118492D01*
X158453Y118437D01*
X158356Y118379D01*
X158261Y118317D01*
X158168Y118252D01*
X158078Y118184D01*
X157990Y118113D01*
X157904Y118038D01*
X157821Y117961D01*
X157741Y117881D01*
X157664Y117798D01*
X157589Y117712D01*
X157518Y117624D01*
X157450Y117534D01*
X157385Y117441D01*
X157323Y117346D01*
X157265Y117249D01*
X157210Y117150D01*
X157159Y117049D01*
X157111Y116946D01*
X157066Y116842D01*
X157026Y116736D01*
X156989Y116629D01*
X156956Y116521D01*
X156926Y116411D01*
X156901Y116301D01*
X156879Y116190D01*
X156862Y116078D01*
X156848Y115965D01*
X156838Y115852D01*
X156832Y115739D01*
X156830Y115626D01*
X151638Y116276D02*
X151638Y112381D01*
X151638Y116276D02*
X151640Y116377D01*
X151646Y116477D01*
X151656Y116577D01*
X151669Y116677D01*
X151687Y116776D01*
X151708Y116875D01*
X151733Y116972D01*
X151762Y117069D01*
X151795Y117164D01*
X151831Y117258D01*
X151871Y117350D01*
X151914Y117441D01*
X151961Y117530D01*
X152011Y117617D01*
X152065Y117703D01*
X152122Y117786D01*
X152182Y117866D01*
X152245Y117945D01*
X152312Y118021D01*
X152381Y118094D01*
X152453Y118164D01*
X152527Y118232D01*
X152604Y118297D01*
X152684Y118358D01*
X152766Y118417D01*
X152850Y118472D01*
X152936Y118524D01*
X153024Y118573D01*
X153114Y118618D01*
X153206Y118660D01*
X153299Y118698D01*
X153394Y118732D01*
X153489Y118763D01*
X153586Y118790D01*
X153684Y118813D01*
X153783Y118833D01*
X153883Y118848D01*
X153983Y118860D01*
X154083Y118868D01*
X154184Y118872D01*
X154284Y118872D01*
X154385Y118868D01*
X154485Y118860D01*
X154585Y118848D01*
X154685Y118833D01*
X154784Y118813D01*
X154882Y118790D01*
X154979Y118763D01*
X155074Y118732D01*
X155169Y118698D01*
X155262Y118660D01*
X155354Y118618D01*
X155444Y118573D01*
X155532Y118524D01*
X155618Y118472D01*
X155702Y118417D01*
X155784Y118358D01*
X155864Y118297D01*
X155941Y118232D01*
X156015Y118164D01*
X156087Y118094D01*
X156156Y118021D01*
X156223Y117945D01*
X156286Y117866D01*
X156346Y117786D01*
X156403Y117703D01*
X156457Y117617D01*
X156507Y117530D01*
X156554Y117441D01*
X156597Y117350D01*
X156637Y117258D01*
X156673Y117164D01*
X156706Y117069D01*
X156735Y116972D01*
X156760Y116875D01*
X156781Y116776D01*
X156799Y116677D01*
X156812Y116577D01*
X156822Y116477D01*
X156828Y116377D01*
X156830Y116276D01*
X156831Y116276D02*
X156831Y113679D01*
X76342Y112909D02*
X76342Y115506D01*
X76342Y112909D02*
X76340Y112810D01*
X76334Y112710D01*
X76325Y112611D01*
X76312Y112513D01*
X76295Y112415D01*
X76274Y112317D01*
X76249Y112221D01*
X76221Y112126D01*
X76189Y112032D01*
X76154Y111939D01*
X76115Y111847D01*
X76072Y111757D01*
X76027Y111669D01*
X75977Y111582D01*
X75925Y111498D01*
X75869Y111415D01*
X75811Y111335D01*
X75749Y111257D01*
X75684Y111182D01*
X75616Y111109D01*
X75546Y111039D01*
X75473Y110971D01*
X75398Y110906D01*
X75320Y110844D01*
X75240Y110786D01*
X75157Y110730D01*
X75073Y110678D01*
X74986Y110628D01*
X74898Y110583D01*
X74808Y110540D01*
X74716Y110501D01*
X74623Y110466D01*
X74529Y110434D01*
X74434Y110406D01*
X74338Y110381D01*
X74240Y110360D01*
X74142Y110343D01*
X74044Y110330D01*
X73945Y110321D01*
X73845Y110315D01*
X73746Y110313D01*
X67254Y110313D01*
X67254Y110312D02*
X67155Y110314D01*
X67055Y110320D01*
X66956Y110329D01*
X66858Y110342D01*
X66760Y110360D01*
X66662Y110380D01*
X66566Y110405D01*
X66470Y110433D01*
X66376Y110465D01*
X66283Y110500D01*
X66192Y110539D01*
X66102Y110582D01*
X66013Y110627D01*
X65927Y110677D01*
X65842Y110729D01*
X65760Y110785D01*
X65680Y110844D01*
X65602Y110905D01*
X65526Y110970D01*
X65453Y111038D01*
X65383Y111108D01*
X65315Y111181D01*
X65250Y111257D01*
X65189Y111335D01*
X65130Y111415D01*
X65074Y111497D01*
X65022Y111582D01*
X64973Y111668D01*
X64927Y111757D01*
X64884Y111847D01*
X64845Y111938D01*
X64810Y112031D01*
X64778Y112125D01*
X64750Y112221D01*
X64725Y112317D01*
X64705Y112415D01*
X64687Y112513D01*
X64674Y112611D01*
X64665Y112710D01*
X64659Y112809D01*
X64657Y112909D01*
X64658Y112909D02*
X64658Y115506D01*
X64658Y122467D02*
X73746Y119871D01*
X73746Y126362D01*
X71149Y124415D02*
X76342Y124415D01*
D16*
X140129Y79159D02*
X140129Y67221D01*
X144108Y72527D02*
X140129Y79159D01*
X144108Y72527D02*
X148088Y79159D01*
X148088Y67221D01*
X154395Y67221D02*
X154395Y79159D01*
X153069Y67221D02*
X155722Y67221D01*
X155722Y79159D02*
X153069Y79159D01*
X162847Y67221D02*
X165500Y67221D01*
X162847Y67221D02*
X162745Y67223D01*
X162644Y67229D01*
X162543Y67239D01*
X162442Y67252D01*
X162342Y67270D01*
X162243Y67291D01*
X162144Y67316D01*
X162047Y67345D01*
X161950Y67377D01*
X161855Y67413D01*
X161762Y67453D01*
X161670Y67496D01*
X161580Y67543D01*
X161491Y67594D01*
X161405Y67647D01*
X161321Y67704D01*
X161239Y67764D01*
X161159Y67827D01*
X161082Y67893D01*
X161007Y67962D01*
X160935Y68034D01*
X160866Y68109D01*
X160800Y68186D01*
X160737Y68266D01*
X160677Y68348D01*
X160620Y68432D01*
X160567Y68518D01*
X160516Y68607D01*
X160469Y68697D01*
X160426Y68789D01*
X160386Y68882D01*
X160350Y68977D01*
X160318Y69074D01*
X160289Y69171D01*
X160264Y69270D01*
X160243Y69369D01*
X160225Y69469D01*
X160212Y69570D01*
X160202Y69671D01*
X160196Y69772D01*
X160194Y69874D01*
X160194Y76506D01*
X160196Y76608D01*
X160202Y76709D01*
X160212Y76810D01*
X160225Y76911D01*
X160243Y77011D01*
X160264Y77110D01*
X160289Y77209D01*
X160318Y77306D01*
X160350Y77403D01*
X160386Y77498D01*
X160426Y77591D01*
X160469Y77683D01*
X160516Y77773D01*
X160567Y77862D01*
X160620Y77948D01*
X160677Y78032D01*
X160737Y78114D01*
X160800Y78194D01*
X160866Y78271D01*
X160935Y78346D01*
X161007Y78418D01*
X161082Y78487D01*
X161159Y78553D01*
X161239Y78616D01*
X161321Y78676D01*
X161405Y78733D01*
X161491Y78786D01*
X161580Y78837D01*
X161670Y78884D01*
X161762Y78927D01*
X161855Y78967D01*
X161950Y79003D01*
X162047Y79035D01*
X162144Y79064D01*
X162242Y79089D01*
X162342Y79110D01*
X162442Y79128D01*
X162543Y79141D01*
X162644Y79151D01*
X162745Y79157D01*
X162847Y79159D01*
X165500Y79159D01*
X169748Y70537D02*
X169750Y70651D01*
X169756Y70766D01*
X169766Y70880D01*
X169780Y70993D01*
X169797Y71107D01*
X169819Y71219D01*
X169844Y71331D01*
X169874Y71441D01*
X169907Y71551D01*
X169944Y71659D01*
X169984Y71766D01*
X170029Y71872D01*
X170076Y71976D01*
X170128Y72078D01*
X170183Y72178D01*
X170241Y72277D01*
X170303Y72373D01*
X170368Y72468D01*
X170436Y72559D01*
X170508Y72649D01*
X170582Y72736D01*
X170659Y72820D01*
X170740Y72902D01*
X170823Y72981D01*
X170908Y73057D01*
X170997Y73130D01*
X171087Y73199D01*
X171180Y73266D01*
X171276Y73329D01*
X171373Y73389D01*
X171473Y73446D01*
X171574Y73499D01*
X171677Y73549D01*
X171782Y73595D01*
X171888Y73638D01*
X171996Y73676D01*
X172105Y73711D01*
X172215Y73742D01*
X172326Y73770D01*
X172438Y73793D01*
X172551Y73813D01*
X172664Y73829D01*
X172778Y73841D01*
X172892Y73849D01*
X173007Y73853D01*
X173121Y73853D01*
X173236Y73849D01*
X173350Y73841D01*
X173464Y73829D01*
X173577Y73813D01*
X173690Y73793D01*
X173802Y73770D01*
X173913Y73742D01*
X174023Y73711D01*
X174132Y73676D01*
X174240Y73638D01*
X174346Y73595D01*
X174451Y73549D01*
X174554Y73499D01*
X174655Y73446D01*
X174755Y73389D01*
X174852Y73329D01*
X174948Y73266D01*
X175041Y73199D01*
X175131Y73130D01*
X175220Y73057D01*
X175305Y72981D01*
X175388Y72902D01*
X175469Y72820D01*
X175546Y72736D01*
X175620Y72649D01*
X175692Y72559D01*
X175760Y72468D01*
X175825Y72373D01*
X175887Y72277D01*
X175945Y72178D01*
X176000Y72078D01*
X176052Y71976D01*
X176099Y71872D01*
X176144Y71766D01*
X176184Y71659D01*
X176221Y71551D01*
X176254Y71441D01*
X176284Y71331D01*
X176309Y71219D01*
X176331Y71107D01*
X176348Y70993D01*
X176362Y70880D01*
X176372Y70766D01*
X176378Y70651D01*
X176380Y70537D01*
X176378Y70423D01*
X176372Y70308D01*
X176362Y70194D01*
X176348Y70081D01*
X176331Y69967D01*
X176309Y69855D01*
X176284Y69743D01*
X176254Y69633D01*
X176221Y69523D01*
X176184Y69415D01*
X176144Y69308D01*
X176099Y69202D01*
X176052Y69098D01*
X176000Y68996D01*
X175945Y68896D01*
X175887Y68797D01*
X175825Y68701D01*
X175760Y68606D01*
X175692Y68515D01*
X175620Y68425D01*
X175546Y68338D01*
X175469Y68254D01*
X175388Y68172D01*
X175305Y68093D01*
X175220Y68017D01*
X175131Y67944D01*
X175041Y67875D01*
X174948Y67808D01*
X174852Y67745D01*
X174755Y67685D01*
X174655Y67628D01*
X174554Y67575D01*
X174451Y67525D01*
X174346Y67479D01*
X174240Y67436D01*
X174132Y67398D01*
X174023Y67363D01*
X173913Y67332D01*
X173802Y67304D01*
X173690Y67281D01*
X173577Y67261D01*
X173464Y67245D01*
X173350Y67233D01*
X173236Y67225D01*
X173121Y67221D01*
X173007Y67221D01*
X172892Y67225D01*
X172778Y67233D01*
X172664Y67245D01*
X172551Y67261D01*
X172438Y67281D01*
X172326Y67304D01*
X172215Y67332D01*
X172105Y67363D01*
X171996Y67398D01*
X171888Y67436D01*
X171782Y67479D01*
X171677Y67525D01*
X171574Y67575D01*
X171473Y67628D01*
X171373Y67685D01*
X171276Y67745D01*
X171180Y67808D01*
X171087Y67875D01*
X170997Y67944D01*
X170908Y68017D01*
X170823Y68093D01*
X170740Y68172D01*
X170659Y68254D01*
X170582Y68338D01*
X170508Y68425D01*
X170436Y68515D01*
X170368Y68606D01*
X170303Y68701D01*
X170241Y68797D01*
X170183Y68896D01*
X170128Y68996D01*
X170076Y69098D01*
X170029Y69202D01*
X169984Y69308D01*
X169944Y69415D01*
X169907Y69523D01*
X169874Y69633D01*
X169844Y69743D01*
X169819Y69855D01*
X169797Y69967D01*
X169780Y70081D01*
X169766Y70194D01*
X169756Y70308D01*
X169750Y70423D01*
X169748Y70537D01*
X170411Y76506D02*
X170413Y76608D01*
X170419Y76709D01*
X170429Y76810D01*
X170442Y76911D01*
X170460Y77011D01*
X170481Y77110D01*
X170506Y77209D01*
X170535Y77306D01*
X170567Y77403D01*
X170603Y77498D01*
X170643Y77591D01*
X170686Y77683D01*
X170733Y77773D01*
X170784Y77862D01*
X170837Y77948D01*
X170894Y78032D01*
X170954Y78114D01*
X171017Y78194D01*
X171083Y78271D01*
X171152Y78346D01*
X171224Y78418D01*
X171299Y78487D01*
X171376Y78553D01*
X171456Y78616D01*
X171538Y78676D01*
X171622Y78733D01*
X171708Y78786D01*
X171797Y78837D01*
X171887Y78884D01*
X171979Y78927D01*
X172072Y78967D01*
X172167Y79003D01*
X172264Y79035D01*
X172361Y79064D01*
X172460Y79089D01*
X172559Y79110D01*
X172659Y79128D01*
X172760Y79141D01*
X172861Y79151D01*
X172962Y79157D01*
X173064Y79159D01*
X173166Y79157D01*
X173267Y79151D01*
X173368Y79141D01*
X173469Y79128D01*
X173569Y79110D01*
X173668Y79089D01*
X173767Y79064D01*
X173864Y79035D01*
X173961Y79003D01*
X174056Y78967D01*
X174149Y78927D01*
X174241Y78884D01*
X174331Y78837D01*
X174420Y78786D01*
X174506Y78733D01*
X174590Y78676D01*
X174672Y78616D01*
X174752Y78553D01*
X174829Y78487D01*
X174904Y78418D01*
X174976Y78346D01*
X175045Y78271D01*
X175111Y78194D01*
X175174Y78114D01*
X175234Y78032D01*
X175291Y77948D01*
X175344Y77862D01*
X175395Y77773D01*
X175442Y77683D01*
X175485Y77591D01*
X175525Y77498D01*
X175561Y77403D01*
X175593Y77306D01*
X175622Y77209D01*
X175647Y77110D01*
X175668Y77011D01*
X175686Y76911D01*
X175699Y76810D01*
X175709Y76709D01*
X175715Y76608D01*
X175717Y76506D01*
X175715Y76404D01*
X175709Y76303D01*
X175699Y76202D01*
X175686Y76101D01*
X175668Y76001D01*
X175647Y75902D01*
X175622Y75803D01*
X175593Y75706D01*
X175561Y75609D01*
X175525Y75514D01*
X175485Y75421D01*
X175442Y75329D01*
X175395Y75239D01*
X175344Y75150D01*
X175291Y75064D01*
X175234Y74980D01*
X175174Y74898D01*
X175111Y74818D01*
X175045Y74741D01*
X174976Y74666D01*
X174904Y74594D01*
X174829Y74525D01*
X174752Y74459D01*
X174672Y74396D01*
X174590Y74336D01*
X174506Y74279D01*
X174420Y74226D01*
X174331Y74175D01*
X174241Y74128D01*
X174149Y74085D01*
X174056Y74045D01*
X173961Y74009D01*
X173864Y73977D01*
X173767Y73948D01*
X173668Y73923D01*
X173569Y73902D01*
X173469Y73884D01*
X173368Y73871D01*
X173267Y73861D01*
X173166Y73855D01*
X173064Y73853D01*
X172962Y73855D01*
X172861Y73861D01*
X172760Y73871D01*
X172659Y73884D01*
X172559Y73902D01*
X172460Y73923D01*
X172361Y73948D01*
X172264Y73977D01*
X172167Y74009D01*
X172072Y74045D01*
X171979Y74085D01*
X171887Y74128D01*
X171797Y74175D01*
X171708Y74226D01*
X171622Y74279D01*
X171538Y74336D01*
X171456Y74396D01*
X171376Y74459D01*
X171299Y74525D01*
X171224Y74594D01*
X171152Y74666D01*
X171083Y74741D01*
X171017Y74818D01*
X170954Y74898D01*
X170894Y74980D01*
X170837Y75064D01*
X170784Y75150D01*
X170733Y75239D01*
X170686Y75329D01*
X170643Y75421D01*
X170603Y75514D01*
X170567Y75609D01*
X170535Y75706D01*
X170506Y75803D01*
X170481Y75902D01*
X170460Y76001D01*
X170442Y76101D01*
X170429Y76202D01*
X170419Y76303D01*
X170413Y76404D01*
X170411Y76506D01*
X184826Y79160D02*
X184933Y79158D01*
X185039Y79152D01*
X185145Y79143D01*
X185251Y79130D01*
X185356Y79113D01*
X185461Y79092D01*
X185564Y79067D01*
X185667Y79039D01*
X185769Y79007D01*
X185869Y78972D01*
X185968Y78933D01*
X186066Y78890D01*
X186162Y78844D01*
X186257Y78795D01*
X186349Y78742D01*
X186440Y78686D01*
X186528Y78627D01*
X186615Y78565D01*
X186699Y78499D01*
X186781Y78431D01*
X186860Y78360D01*
X186937Y78286D01*
X187011Y78209D01*
X187082Y78130D01*
X187150Y78048D01*
X187216Y77964D01*
X187278Y77877D01*
X187337Y77789D01*
X187393Y77698D01*
X187446Y77606D01*
X187495Y77511D01*
X187541Y77415D01*
X187584Y77317D01*
X187623Y77218D01*
X187658Y77118D01*
X187690Y77016D01*
X187718Y76913D01*
X187743Y76810D01*
X187764Y76705D01*
X187781Y76600D01*
X187794Y76494D01*
X187803Y76388D01*
X187809Y76282D01*
X187811Y76175D01*
X184826Y79159D02*
X184705Y79157D01*
X184585Y79151D01*
X184465Y79142D01*
X184345Y79129D01*
X184226Y79112D01*
X184107Y79091D01*
X183989Y79067D01*
X183872Y79038D01*
X183756Y79007D01*
X183640Y78971D01*
X183526Y78932D01*
X183414Y78889D01*
X183302Y78843D01*
X183192Y78794D01*
X183084Y78740D01*
X182978Y78684D01*
X182873Y78624D01*
X182770Y78561D01*
X182670Y78495D01*
X182571Y78426D01*
X182475Y78353D01*
X182381Y78278D01*
X182289Y78200D01*
X182200Y78118D01*
X182113Y78034D01*
X182030Y77948D01*
X181948Y77859D01*
X181870Y77767D01*
X181795Y77673D01*
X181723Y77576D01*
X181653Y77478D01*
X181587Y77377D01*
X181524Y77274D01*
X181465Y77169D01*
X181408Y77063D01*
X181355Y76954D01*
X181306Y76845D01*
X181260Y76733D01*
X181217Y76620D01*
X181179Y76506D01*
X186816Y73853D02*
X186896Y73933D01*
X186974Y74015D01*
X187048Y74099D01*
X187120Y74187D01*
X187188Y74277D01*
X187254Y74369D01*
X187316Y74463D01*
X187374Y74559D01*
X187429Y74658D01*
X187481Y74758D01*
X187529Y74860D01*
X187574Y74964D01*
X187614Y75069D01*
X187651Y75176D01*
X187685Y75284D01*
X187714Y75393D01*
X187740Y75503D01*
X187761Y75614D01*
X187779Y75725D01*
X187793Y75837D01*
X187803Y75949D01*
X187809Y76062D01*
X187811Y76175D01*
X186816Y73853D02*
X181178Y67221D01*
X187810Y67221D01*
X192608Y73853D02*
X196587Y73853D01*
X196689Y73851D01*
X196790Y73845D01*
X196891Y73835D01*
X196992Y73822D01*
X197092Y73804D01*
X197191Y73783D01*
X197290Y73758D01*
X197387Y73729D01*
X197484Y73697D01*
X197579Y73661D01*
X197672Y73621D01*
X197764Y73578D01*
X197854Y73531D01*
X197943Y73480D01*
X198029Y73427D01*
X198113Y73370D01*
X198195Y73310D01*
X198275Y73247D01*
X198352Y73181D01*
X198427Y73112D01*
X198499Y73040D01*
X198568Y72965D01*
X198634Y72888D01*
X198697Y72808D01*
X198757Y72726D01*
X198814Y72642D01*
X198867Y72556D01*
X198918Y72467D01*
X198965Y72377D01*
X199008Y72285D01*
X199048Y72192D01*
X199084Y72097D01*
X199116Y72000D01*
X199145Y71903D01*
X199170Y71804D01*
X199191Y71705D01*
X199209Y71605D01*
X199222Y71504D01*
X199232Y71403D01*
X199238Y71302D01*
X199240Y71200D01*
X199240Y70537D01*
X199238Y70423D01*
X199232Y70308D01*
X199222Y70194D01*
X199208Y70081D01*
X199191Y69967D01*
X199169Y69855D01*
X199144Y69743D01*
X199114Y69633D01*
X199081Y69523D01*
X199044Y69415D01*
X199004Y69308D01*
X198959Y69202D01*
X198912Y69098D01*
X198860Y68996D01*
X198805Y68896D01*
X198747Y68797D01*
X198685Y68701D01*
X198620Y68606D01*
X198552Y68515D01*
X198480Y68425D01*
X198406Y68338D01*
X198329Y68254D01*
X198248Y68172D01*
X198165Y68093D01*
X198080Y68017D01*
X197991Y67944D01*
X197901Y67875D01*
X197808Y67808D01*
X197712Y67745D01*
X197615Y67685D01*
X197515Y67628D01*
X197414Y67575D01*
X197311Y67525D01*
X197206Y67479D01*
X197100Y67436D01*
X196992Y67398D01*
X196883Y67363D01*
X196773Y67332D01*
X196662Y67304D01*
X196550Y67281D01*
X196437Y67261D01*
X196324Y67245D01*
X196210Y67233D01*
X196096Y67225D01*
X195981Y67221D01*
X195867Y67221D01*
X195752Y67225D01*
X195638Y67233D01*
X195524Y67245D01*
X195411Y67261D01*
X195298Y67281D01*
X195186Y67304D01*
X195075Y67332D01*
X194965Y67363D01*
X194856Y67398D01*
X194748Y67436D01*
X194642Y67479D01*
X194537Y67525D01*
X194434Y67575D01*
X194333Y67628D01*
X194233Y67685D01*
X194136Y67745D01*
X194040Y67808D01*
X193947Y67875D01*
X193857Y67944D01*
X193768Y68017D01*
X193683Y68093D01*
X193600Y68172D01*
X193519Y68254D01*
X193442Y68338D01*
X193368Y68425D01*
X193296Y68515D01*
X193228Y68606D01*
X193163Y68701D01*
X193101Y68797D01*
X193043Y68896D01*
X192988Y68996D01*
X192936Y69098D01*
X192889Y69202D01*
X192844Y69308D01*
X192804Y69415D01*
X192767Y69523D01*
X192734Y69633D01*
X192704Y69743D01*
X192679Y69855D01*
X192657Y69967D01*
X192640Y70081D01*
X192626Y70194D01*
X192616Y70308D01*
X192610Y70423D01*
X192608Y70537D01*
X192608Y73853D01*
X192610Y73997D01*
X192616Y74140D01*
X192626Y74284D01*
X192639Y74427D01*
X192657Y74569D01*
X192678Y74711D01*
X192703Y74853D01*
X192732Y74994D01*
X192765Y75134D01*
X192801Y75273D01*
X192842Y75410D01*
X192886Y75547D01*
X192933Y75683D01*
X192985Y75817D01*
X193040Y75950D01*
X193098Y76081D01*
X193160Y76211D01*
X193226Y76338D01*
X193295Y76464D01*
X193368Y76589D01*
X193443Y76711D01*
X193522Y76831D01*
X193605Y76948D01*
X193690Y77064D01*
X193778Y77177D01*
X193870Y77288D01*
X193964Y77396D01*
X194062Y77502D01*
X194162Y77605D01*
X194265Y77705D01*
X194371Y77803D01*
X194479Y77897D01*
X194590Y77989D01*
X194703Y78077D01*
X194818Y78162D01*
X194936Y78245D01*
X195056Y78324D01*
X195178Y78399D01*
X195303Y78472D01*
X195429Y78541D01*
X195556Y78606D01*
X195686Y78669D01*
X195817Y78727D01*
X195950Y78782D01*
X196084Y78834D01*
X196220Y78881D01*
X196357Y78925D01*
X196494Y78966D01*
X196633Y79002D01*
X196773Y79035D01*
X196914Y79064D01*
X197056Y79089D01*
X197198Y79110D01*
X197340Y79128D01*
X197483Y79141D01*
X197627Y79151D01*
X197770Y79157D01*
X197914Y79159D01*
X204483Y79159D02*
X204483Y67221D01*
X204483Y79159D02*
X207800Y79159D01*
X207914Y79157D01*
X208029Y79151D01*
X208143Y79141D01*
X208256Y79127D01*
X208370Y79110D01*
X208482Y79088D01*
X208594Y79063D01*
X208704Y79033D01*
X208814Y79000D01*
X208922Y78963D01*
X209029Y78923D01*
X209135Y78878D01*
X209239Y78831D01*
X209341Y78779D01*
X209441Y78724D01*
X209540Y78666D01*
X209636Y78604D01*
X209731Y78539D01*
X209822Y78471D01*
X209912Y78399D01*
X209999Y78325D01*
X210083Y78248D01*
X210165Y78167D01*
X210244Y78084D01*
X210320Y77999D01*
X210393Y77910D01*
X210462Y77820D01*
X210529Y77727D01*
X210592Y77631D01*
X210652Y77534D01*
X210709Y77434D01*
X210762Y77333D01*
X210812Y77230D01*
X210858Y77125D01*
X210901Y77019D01*
X210939Y76911D01*
X210974Y76802D01*
X211005Y76692D01*
X211033Y76581D01*
X211056Y76469D01*
X211076Y76356D01*
X211092Y76243D01*
X211104Y76129D01*
X211112Y76015D01*
X211116Y75900D01*
X211116Y75786D01*
X211112Y75671D01*
X211104Y75557D01*
X211092Y75443D01*
X211076Y75330D01*
X211056Y75217D01*
X211033Y75105D01*
X211005Y74994D01*
X210974Y74884D01*
X210939Y74775D01*
X210901Y74667D01*
X210858Y74561D01*
X210812Y74456D01*
X210762Y74353D01*
X210709Y74252D01*
X210652Y74152D01*
X210592Y74055D01*
X210529Y73959D01*
X210462Y73866D01*
X210393Y73776D01*
X210320Y73687D01*
X210244Y73602D01*
X210165Y73519D01*
X210083Y73438D01*
X209999Y73361D01*
X209912Y73287D01*
X209822Y73215D01*
X209731Y73147D01*
X209636Y73082D01*
X209540Y73020D01*
X209441Y72962D01*
X209341Y72907D01*
X209239Y72855D01*
X209135Y72808D01*
X209029Y72763D01*
X208922Y72723D01*
X208814Y72686D01*
X208704Y72653D01*
X208594Y72623D01*
X208482Y72598D01*
X208370Y72576D01*
X208256Y72559D01*
X208143Y72545D01*
X208029Y72535D01*
X207914Y72529D01*
X207800Y72527D01*
X204483Y72527D01*
X208463Y72527D02*
X211116Y67221D01*
X219165Y73522D02*
X215186Y79159D01*
X219165Y73522D02*
X223144Y79159D01*
X219165Y73522D02*
X219165Y67221D01*
X227759Y67221D02*
X227759Y79159D01*
X231738Y72527D01*
X235717Y79159D01*
X235717Y67221D01*
X243549Y67221D02*
X243549Y79159D01*
X240233Y79159D02*
X246865Y79159D01*
X251000Y71864D02*
X258958Y71864D01*
X266409Y67221D02*
X266409Y79159D01*
X263093Y79159D02*
X269725Y79159D01*
X274206Y79159D02*
X274206Y67221D01*
X274206Y79159D02*
X277522Y79159D01*
X277636Y79157D01*
X277751Y79151D01*
X277865Y79141D01*
X277978Y79127D01*
X278092Y79110D01*
X278204Y79088D01*
X278316Y79063D01*
X278426Y79033D01*
X278536Y79000D01*
X278644Y78963D01*
X278751Y78923D01*
X278857Y78878D01*
X278961Y78831D01*
X279063Y78779D01*
X279163Y78724D01*
X279262Y78666D01*
X279358Y78604D01*
X279453Y78539D01*
X279544Y78471D01*
X279634Y78399D01*
X279721Y78325D01*
X279805Y78248D01*
X279887Y78167D01*
X279966Y78084D01*
X280042Y77999D01*
X280115Y77910D01*
X280184Y77820D01*
X280251Y77727D01*
X280314Y77631D01*
X280374Y77534D01*
X280431Y77434D01*
X280484Y77333D01*
X280534Y77230D01*
X280580Y77125D01*
X280623Y77019D01*
X280661Y76911D01*
X280696Y76802D01*
X280727Y76692D01*
X280755Y76581D01*
X280778Y76469D01*
X280798Y76356D01*
X280814Y76243D01*
X280826Y76129D01*
X280834Y76015D01*
X280838Y75900D01*
X280838Y75786D01*
X280834Y75671D01*
X280826Y75557D01*
X280814Y75443D01*
X280798Y75330D01*
X280778Y75217D01*
X280755Y75105D01*
X280727Y74994D01*
X280696Y74884D01*
X280661Y74775D01*
X280623Y74667D01*
X280580Y74561D01*
X280534Y74456D01*
X280484Y74353D01*
X280431Y74252D01*
X280374Y74152D01*
X280314Y74055D01*
X280251Y73959D01*
X280184Y73866D01*
X280115Y73776D01*
X280042Y73687D01*
X279966Y73602D01*
X279887Y73519D01*
X279805Y73438D01*
X279721Y73361D01*
X279634Y73287D01*
X279544Y73215D01*
X279453Y73147D01*
X279358Y73082D01*
X279262Y73020D01*
X279163Y72962D01*
X279063Y72907D01*
X278961Y72855D01*
X278857Y72808D01*
X278751Y72763D01*
X278644Y72723D01*
X278536Y72686D01*
X278426Y72653D01*
X278316Y72623D01*
X278204Y72598D01*
X278092Y72576D01*
X277978Y72559D01*
X277865Y72545D01*
X277751Y72535D01*
X277636Y72529D01*
X277522Y72527D01*
X274206Y72527D01*
X278186Y72527D02*
X280839Y67221D01*
D10*
X532100Y215900D02*
X537180Y215900D01*
X532100Y215900D02*
X532100Y210820D01*
X557500Y210820D02*
X557500Y215900D01*
X552420Y215900D01*
X557500Y195580D02*
X557500Y190500D01*
X552420Y190500D01*
X537180Y190500D02*
X532100Y190500D01*
X532100Y195580D01*
D12*
X524070Y169255D02*
X520895Y169255D01*
X524070Y169255D02*
X524181Y169253D01*
X524291Y169247D01*
X524402Y169238D01*
X524512Y169224D01*
X524621Y169207D01*
X524730Y169186D01*
X524838Y169161D01*
X524945Y169132D01*
X525051Y169100D01*
X525156Y169064D01*
X525259Y169024D01*
X525361Y168981D01*
X525462Y168934D01*
X525561Y168883D01*
X525658Y168830D01*
X525752Y168773D01*
X525845Y168712D01*
X525936Y168649D01*
X526025Y168582D01*
X526111Y168512D01*
X526194Y168439D01*
X526276Y168364D01*
X526354Y168286D01*
X526429Y168204D01*
X526502Y168121D01*
X526572Y168035D01*
X526639Y167946D01*
X526702Y167855D01*
X526763Y167762D01*
X526820Y167667D01*
X526873Y167571D01*
X526924Y167472D01*
X526971Y167371D01*
X527014Y167269D01*
X527054Y167166D01*
X527090Y167061D01*
X527122Y166955D01*
X527151Y166848D01*
X527176Y166740D01*
X527197Y166631D01*
X527214Y166522D01*
X527228Y166412D01*
X527237Y166301D01*
X527243Y166191D01*
X527245Y166080D01*
X527243Y165969D01*
X527237Y165859D01*
X527228Y165748D01*
X527214Y165638D01*
X527197Y165529D01*
X527176Y165420D01*
X527151Y165312D01*
X527122Y165205D01*
X527090Y165099D01*
X527054Y164994D01*
X527014Y164891D01*
X526971Y164789D01*
X526924Y164688D01*
X526873Y164589D01*
X526820Y164492D01*
X526763Y164398D01*
X526702Y164305D01*
X526639Y164214D01*
X526572Y164125D01*
X526502Y164039D01*
X526429Y163956D01*
X526354Y163874D01*
X526276Y163796D01*
X526194Y163721D01*
X526111Y163648D01*
X526025Y163578D01*
X525936Y163511D01*
X525845Y163448D01*
X525752Y163387D01*
X525658Y163330D01*
X525561Y163277D01*
X525462Y163226D01*
X525361Y163179D01*
X525259Y163136D01*
X525156Y163096D01*
X525051Y163060D01*
X524945Y163028D01*
X524838Y162999D01*
X524730Y162974D01*
X524621Y162953D01*
X524512Y162936D01*
X524402Y162922D01*
X524291Y162913D01*
X524181Y162907D01*
X524070Y162905D01*
X520895Y162905D01*
X520895Y174335D01*
X524070Y174335D01*
X524170Y174333D01*
X524269Y174327D01*
X524369Y174317D01*
X524467Y174304D01*
X524566Y174286D01*
X524663Y174265D01*
X524759Y174240D01*
X524855Y174211D01*
X524949Y174178D01*
X525042Y174142D01*
X525133Y174102D01*
X525223Y174058D01*
X525311Y174011D01*
X525397Y173961D01*
X525481Y173907D01*
X525563Y173850D01*
X525642Y173790D01*
X525720Y173726D01*
X525794Y173660D01*
X525866Y173591D01*
X525935Y173519D01*
X526001Y173445D01*
X526065Y173367D01*
X526125Y173288D01*
X526182Y173206D01*
X526236Y173122D01*
X526286Y173036D01*
X526333Y172948D01*
X526377Y172858D01*
X526417Y172767D01*
X526453Y172674D01*
X526486Y172580D01*
X526515Y172484D01*
X526540Y172388D01*
X526561Y172291D01*
X526579Y172192D01*
X526592Y172094D01*
X526602Y171994D01*
X526608Y171895D01*
X526610Y171795D01*
X526608Y171695D01*
X526602Y171596D01*
X526592Y171496D01*
X526579Y171398D01*
X526561Y171299D01*
X526540Y171202D01*
X526515Y171106D01*
X526486Y171010D01*
X526453Y170916D01*
X526417Y170823D01*
X526377Y170732D01*
X526333Y170642D01*
X526286Y170554D01*
X526236Y170468D01*
X526182Y170384D01*
X526125Y170302D01*
X526065Y170223D01*
X526001Y170145D01*
X525935Y170071D01*
X525866Y169999D01*
X525794Y169930D01*
X525720Y169864D01*
X525642Y169800D01*
X525563Y169740D01*
X525481Y169683D01*
X525397Y169629D01*
X525311Y169579D01*
X525223Y169532D01*
X525133Y169488D01*
X525042Y169448D01*
X524949Y169412D01*
X524855Y169379D01*
X524759Y169350D01*
X524663Y169325D01*
X524566Y169304D01*
X524467Y169286D01*
X524369Y169273D01*
X524269Y169263D01*
X524170Y169257D01*
X524070Y169255D01*
X531119Y162905D02*
X534929Y174335D01*
X538739Y162905D01*
X537786Y165763D02*
X532071Y165763D01*
X545597Y162905D02*
X545597Y174335D01*
X542422Y174335D02*
X548772Y174335D01*
X556582Y174336D02*
X556686Y174334D01*
X556791Y174328D01*
X556895Y174319D01*
X556998Y174306D01*
X557101Y174288D01*
X557203Y174268D01*
X557305Y174243D01*
X557405Y174215D01*
X557505Y174183D01*
X557603Y174147D01*
X557700Y174108D01*
X557795Y174066D01*
X557889Y174020D01*
X557981Y173970D01*
X558071Y173918D01*
X558159Y173862D01*
X558245Y173802D01*
X558329Y173740D01*
X558410Y173675D01*
X558489Y173607D01*
X558566Y173535D01*
X558639Y173462D01*
X558711Y173385D01*
X558779Y173306D01*
X558844Y173225D01*
X558906Y173141D01*
X558966Y173055D01*
X559022Y172967D01*
X559074Y172877D01*
X559124Y172785D01*
X559170Y172691D01*
X559212Y172596D01*
X559251Y172499D01*
X559287Y172401D01*
X559319Y172301D01*
X559347Y172201D01*
X559372Y172099D01*
X559392Y171997D01*
X559410Y171894D01*
X559423Y171791D01*
X559432Y171687D01*
X559438Y171582D01*
X559440Y171478D01*
X556582Y174335D02*
X556464Y174333D01*
X556345Y174327D01*
X556227Y174318D01*
X556110Y174305D01*
X555993Y174287D01*
X555876Y174267D01*
X555760Y174242D01*
X555645Y174214D01*
X555532Y174181D01*
X555419Y174146D01*
X555307Y174106D01*
X555197Y174064D01*
X555088Y174017D01*
X554980Y173967D01*
X554875Y173914D01*
X554771Y173857D01*
X554669Y173797D01*
X554569Y173734D01*
X554471Y173667D01*
X554375Y173598D01*
X554282Y173525D01*
X554191Y173449D01*
X554102Y173371D01*
X554016Y173289D01*
X553933Y173205D01*
X553852Y173119D01*
X553775Y173029D01*
X553700Y172938D01*
X553628Y172844D01*
X553559Y172747D01*
X553494Y172649D01*
X553431Y172548D01*
X553372Y172445D01*
X553316Y172341D01*
X553264Y172235D01*
X553215Y172127D01*
X553170Y172018D01*
X553128Y171907D01*
X553090Y171795D01*
X558487Y169256D02*
X558563Y169331D01*
X558638Y169410D01*
X558709Y169491D01*
X558778Y169575D01*
X558843Y169661D01*
X558905Y169749D01*
X558965Y169839D01*
X559021Y169931D01*
X559074Y170026D01*
X559123Y170122D01*
X559169Y170220D01*
X559212Y170319D01*
X559251Y170420D01*
X559286Y170522D01*
X559318Y170625D01*
X559346Y170729D01*
X559371Y170834D01*
X559392Y170941D01*
X559409Y171047D01*
X559422Y171154D01*
X559431Y171262D01*
X559437Y171370D01*
X559439Y171478D01*
X558487Y169255D02*
X553090Y162905D01*
X559440Y162905D01*
X564647Y167350D02*
X572267Y167350D01*
X568457Y163540D02*
X568457Y171160D01*
D10*
X645600Y215900D02*
X650680Y215900D01*
X645600Y215900D02*
X645600Y210820D01*
X671000Y210820D02*
X671000Y215900D01*
X665920Y215900D01*
X671000Y195580D02*
X671000Y190500D01*
X665920Y190500D01*
X650680Y190500D02*
X645600Y190500D01*
X645600Y195580D01*
D12*
X636950Y166715D02*
X633775Y166715D01*
X636950Y166715D02*
X637061Y166713D01*
X637171Y166707D01*
X637282Y166698D01*
X637392Y166684D01*
X637501Y166667D01*
X637610Y166646D01*
X637718Y166621D01*
X637825Y166592D01*
X637931Y166560D01*
X638036Y166524D01*
X638139Y166484D01*
X638241Y166441D01*
X638342Y166394D01*
X638441Y166343D01*
X638538Y166290D01*
X638632Y166233D01*
X638725Y166172D01*
X638816Y166109D01*
X638905Y166042D01*
X638991Y165972D01*
X639074Y165899D01*
X639156Y165824D01*
X639234Y165746D01*
X639309Y165664D01*
X639382Y165581D01*
X639452Y165495D01*
X639519Y165406D01*
X639582Y165315D01*
X639643Y165222D01*
X639700Y165127D01*
X639753Y165031D01*
X639804Y164932D01*
X639851Y164831D01*
X639894Y164729D01*
X639934Y164626D01*
X639970Y164521D01*
X640002Y164415D01*
X640031Y164308D01*
X640056Y164200D01*
X640077Y164091D01*
X640094Y163982D01*
X640108Y163872D01*
X640117Y163761D01*
X640123Y163651D01*
X640125Y163540D01*
X640123Y163429D01*
X640117Y163319D01*
X640108Y163208D01*
X640094Y163098D01*
X640077Y162989D01*
X640056Y162880D01*
X640031Y162772D01*
X640002Y162665D01*
X639970Y162559D01*
X639934Y162454D01*
X639894Y162351D01*
X639851Y162249D01*
X639804Y162148D01*
X639753Y162049D01*
X639700Y161952D01*
X639643Y161858D01*
X639582Y161765D01*
X639519Y161674D01*
X639452Y161585D01*
X639382Y161499D01*
X639309Y161416D01*
X639234Y161334D01*
X639156Y161256D01*
X639074Y161181D01*
X638991Y161108D01*
X638905Y161038D01*
X638816Y160971D01*
X638725Y160908D01*
X638632Y160847D01*
X638538Y160790D01*
X638441Y160737D01*
X638342Y160686D01*
X638241Y160639D01*
X638139Y160596D01*
X638036Y160556D01*
X637931Y160520D01*
X637825Y160488D01*
X637718Y160459D01*
X637610Y160434D01*
X637501Y160413D01*
X637392Y160396D01*
X637282Y160382D01*
X637171Y160373D01*
X637061Y160367D01*
X636950Y160365D01*
X633775Y160365D01*
X633775Y171795D01*
X636950Y171795D01*
X637050Y171793D01*
X637149Y171787D01*
X637249Y171777D01*
X637347Y171764D01*
X637446Y171746D01*
X637543Y171725D01*
X637639Y171700D01*
X637735Y171671D01*
X637829Y171638D01*
X637922Y171602D01*
X638013Y171562D01*
X638103Y171518D01*
X638191Y171471D01*
X638277Y171421D01*
X638361Y171367D01*
X638443Y171310D01*
X638522Y171250D01*
X638600Y171186D01*
X638674Y171120D01*
X638746Y171051D01*
X638815Y170979D01*
X638881Y170905D01*
X638945Y170827D01*
X639005Y170748D01*
X639062Y170666D01*
X639116Y170582D01*
X639166Y170496D01*
X639213Y170408D01*
X639257Y170318D01*
X639297Y170227D01*
X639333Y170134D01*
X639366Y170040D01*
X639395Y169944D01*
X639420Y169848D01*
X639441Y169751D01*
X639459Y169652D01*
X639472Y169554D01*
X639482Y169454D01*
X639488Y169355D01*
X639490Y169255D01*
X639488Y169155D01*
X639482Y169056D01*
X639472Y168956D01*
X639459Y168858D01*
X639441Y168759D01*
X639420Y168662D01*
X639395Y168566D01*
X639366Y168470D01*
X639333Y168376D01*
X639297Y168283D01*
X639257Y168192D01*
X639213Y168102D01*
X639166Y168014D01*
X639116Y167928D01*
X639062Y167844D01*
X639005Y167762D01*
X638945Y167683D01*
X638881Y167605D01*
X638815Y167531D01*
X638746Y167459D01*
X638674Y167390D01*
X638600Y167324D01*
X638522Y167260D01*
X638443Y167200D01*
X638361Y167143D01*
X638277Y167089D01*
X638191Y167039D01*
X638103Y166992D01*
X638013Y166948D01*
X637922Y166908D01*
X637829Y166872D01*
X637735Y166839D01*
X637639Y166810D01*
X637543Y166785D01*
X637446Y166764D01*
X637347Y166746D01*
X637249Y166733D01*
X637149Y166723D01*
X637050Y166717D01*
X636950Y166715D01*
X643999Y160365D02*
X647809Y171795D01*
X651619Y160365D01*
X650666Y163223D02*
X644951Y163223D01*
X658477Y160365D02*
X658477Y171795D01*
X655302Y171795D02*
X661652Y171795D01*
X669462Y171796D02*
X669566Y171794D01*
X669671Y171788D01*
X669775Y171779D01*
X669878Y171766D01*
X669981Y171748D01*
X670083Y171728D01*
X670185Y171703D01*
X670285Y171675D01*
X670385Y171643D01*
X670483Y171607D01*
X670580Y171568D01*
X670675Y171526D01*
X670769Y171480D01*
X670861Y171430D01*
X670951Y171378D01*
X671039Y171322D01*
X671125Y171262D01*
X671209Y171200D01*
X671290Y171135D01*
X671369Y171067D01*
X671446Y170995D01*
X671519Y170922D01*
X671591Y170845D01*
X671659Y170766D01*
X671724Y170685D01*
X671786Y170601D01*
X671846Y170515D01*
X671902Y170427D01*
X671954Y170337D01*
X672004Y170245D01*
X672050Y170151D01*
X672092Y170056D01*
X672131Y169959D01*
X672167Y169861D01*
X672199Y169761D01*
X672227Y169661D01*
X672252Y169559D01*
X672272Y169457D01*
X672290Y169354D01*
X672303Y169251D01*
X672312Y169147D01*
X672318Y169042D01*
X672320Y168938D01*
X669462Y171795D02*
X669344Y171793D01*
X669225Y171787D01*
X669107Y171778D01*
X668990Y171765D01*
X668873Y171747D01*
X668756Y171727D01*
X668640Y171702D01*
X668525Y171674D01*
X668412Y171641D01*
X668299Y171606D01*
X668187Y171566D01*
X668077Y171524D01*
X667968Y171477D01*
X667860Y171427D01*
X667755Y171374D01*
X667651Y171317D01*
X667549Y171257D01*
X667449Y171194D01*
X667351Y171127D01*
X667255Y171058D01*
X667162Y170985D01*
X667071Y170909D01*
X666982Y170831D01*
X666896Y170749D01*
X666813Y170665D01*
X666732Y170579D01*
X666655Y170489D01*
X666580Y170398D01*
X666508Y170304D01*
X666439Y170207D01*
X666374Y170109D01*
X666311Y170008D01*
X666252Y169905D01*
X666196Y169801D01*
X666144Y169695D01*
X666095Y169587D01*
X666050Y169478D01*
X666008Y169367D01*
X665970Y169255D01*
X671367Y166716D02*
X671443Y166791D01*
X671518Y166870D01*
X671589Y166951D01*
X671658Y167035D01*
X671723Y167121D01*
X671785Y167209D01*
X671845Y167299D01*
X671901Y167391D01*
X671954Y167486D01*
X672003Y167582D01*
X672049Y167680D01*
X672092Y167779D01*
X672131Y167880D01*
X672166Y167982D01*
X672198Y168085D01*
X672226Y168189D01*
X672251Y168294D01*
X672272Y168401D01*
X672289Y168507D01*
X672302Y168614D01*
X672311Y168722D01*
X672317Y168830D01*
X672319Y168938D01*
X671367Y166715D02*
X665970Y160365D01*
X672320Y160365D01*
X677527Y164810D02*
X685147Y164810D01*
D10*
X759100Y215900D02*
X764180Y215900D01*
X759100Y215900D02*
X759100Y210820D01*
X784500Y210820D02*
X784500Y215900D01*
X779420Y215900D01*
X784500Y195580D02*
X784500Y190500D01*
X779420Y190500D01*
X764180Y190500D02*
X759100Y190500D01*
X759100Y195580D01*
D12*
X752210Y166715D02*
X749035Y166715D01*
X752210Y166715D02*
X752321Y166713D01*
X752431Y166707D01*
X752542Y166698D01*
X752652Y166684D01*
X752761Y166667D01*
X752870Y166646D01*
X752978Y166621D01*
X753085Y166592D01*
X753191Y166560D01*
X753296Y166524D01*
X753399Y166484D01*
X753501Y166441D01*
X753602Y166394D01*
X753701Y166343D01*
X753798Y166290D01*
X753892Y166233D01*
X753985Y166172D01*
X754076Y166109D01*
X754165Y166042D01*
X754251Y165972D01*
X754334Y165899D01*
X754416Y165824D01*
X754494Y165746D01*
X754569Y165664D01*
X754642Y165581D01*
X754712Y165495D01*
X754779Y165406D01*
X754842Y165315D01*
X754903Y165222D01*
X754960Y165127D01*
X755013Y165031D01*
X755064Y164932D01*
X755111Y164831D01*
X755154Y164729D01*
X755194Y164626D01*
X755230Y164521D01*
X755262Y164415D01*
X755291Y164308D01*
X755316Y164200D01*
X755337Y164091D01*
X755354Y163982D01*
X755368Y163872D01*
X755377Y163761D01*
X755383Y163651D01*
X755385Y163540D01*
X755383Y163429D01*
X755377Y163319D01*
X755368Y163208D01*
X755354Y163098D01*
X755337Y162989D01*
X755316Y162880D01*
X755291Y162772D01*
X755262Y162665D01*
X755230Y162559D01*
X755194Y162454D01*
X755154Y162351D01*
X755111Y162249D01*
X755064Y162148D01*
X755013Y162049D01*
X754960Y161952D01*
X754903Y161858D01*
X754842Y161765D01*
X754779Y161674D01*
X754712Y161585D01*
X754642Y161499D01*
X754569Y161416D01*
X754494Y161334D01*
X754416Y161256D01*
X754334Y161181D01*
X754251Y161108D01*
X754165Y161038D01*
X754076Y160971D01*
X753985Y160908D01*
X753892Y160847D01*
X753798Y160790D01*
X753701Y160737D01*
X753602Y160686D01*
X753501Y160639D01*
X753399Y160596D01*
X753296Y160556D01*
X753191Y160520D01*
X753085Y160488D01*
X752978Y160459D01*
X752870Y160434D01*
X752761Y160413D01*
X752652Y160396D01*
X752542Y160382D01*
X752431Y160373D01*
X752321Y160367D01*
X752210Y160365D01*
X749035Y160365D01*
X749035Y171795D01*
X752210Y171795D01*
X752310Y171793D01*
X752409Y171787D01*
X752509Y171777D01*
X752607Y171764D01*
X752706Y171746D01*
X752803Y171725D01*
X752899Y171700D01*
X752995Y171671D01*
X753089Y171638D01*
X753182Y171602D01*
X753273Y171562D01*
X753363Y171518D01*
X753451Y171471D01*
X753537Y171421D01*
X753621Y171367D01*
X753703Y171310D01*
X753782Y171250D01*
X753860Y171186D01*
X753934Y171120D01*
X754006Y171051D01*
X754075Y170979D01*
X754141Y170905D01*
X754205Y170827D01*
X754265Y170748D01*
X754322Y170666D01*
X754376Y170582D01*
X754426Y170496D01*
X754473Y170408D01*
X754517Y170318D01*
X754557Y170227D01*
X754593Y170134D01*
X754626Y170040D01*
X754655Y169944D01*
X754680Y169848D01*
X754701Y169751D01*
X754719Y169652D01*
X754732Y169554D01*
X754742Y169454D01*
X754748Y169355D01*
X754750Y169255D01*
X754748Y169155D01*
X754742Y169056D01*
X754732Y168956D01*
X754719Y168858D01*
X754701Y168759D01*
X754680Y168662D01*
X754655Y168566D01*
X754626Y168470D01*
X754593Y168376D01*
X754557Y168283D01*
X754517Y168192D01*
X754473Y168102D01*
X754426Y168014D01*
X754376Y167928D01*
X754322Y167844D01*
X754265Y167762D01*
X754205Y167683D01*
X754141Y167605D01*
X754075Y167531D01*
X754006Y167459D01*
X753934Y167390D01*
X753860Y167324D01*
X753782Y167260D01*
X753703Y167200D01*
X753621Y167143D01*
X753537Y167089D01*
X753451Y167039D01*
X753363Y166992D01*
X753273Y166948D01*
X753182Y166908D01*
X753089Y166872D01*
X752995Y166839D01*
X752899Y166810D01*
X752803Y166785D01*
X752706Y166764D01*
X752607Y166746D01*
X752509Y166733D01*
X752409Y166723D01*
X752310Y166717D01*
X752210Y166715D01*
X759259Y160365D02*
X763069Y171795D01*
X766879Y160365D01*
X765926Y163223D02*
X760211Y163223D01*
X773737Y160365D02*
X773737Y171795D01*
X770562Y171795D02*
X776912Y171795D01*
X781230Y160365D02*
X784405Y160365D01*
X784516Y160367D01*
X784626Y160373D01*
X784737Y160382D01*
X784847Y160396D01*
X784956Y160413D01*
X785065Y160434D01*
X785173Y160459D01*
X785280Y160488D01*
X785386Y160520D01*
X785491Y160556D01*
X785594Y160596D01*
X785696Y160639D01*
X785797Y160686D01*
X785896Y160737D01*
X785993Y160790D01*
X786087Y160847D01*
X786180Y160908D01*
X786271Y160971D01*
X786360Y161038D01*
X786446Y161108D01*
X786529Y161181D01*
X786611Y161256D01*
X786689Y161334D01*
X786764Y161416D01*
X786837Y161499D01*
X786907Y161585D01*
X786974Y161674D01*
X787037Y161765D01*
X787098Y161858D01*
X787155Y161952D01*
X787208Y162049D01*
X787259Y162148D01*
X787306Y162249D01*
X787349Y162351D01*
X787389Y162454D01*
X787425Y162559D01*
X787457Y162665D01*
X787486Y162772D01*
X787511Y162880D01*
X787532Y162989D01*
X787549Y163098D01*
X787563Y163208D01*
X787572Y163319D01*
X787578Y163429D01*
X787580Y163540D01*
X787578Y163651D01*
X787572Y163761D01*
X787563Y163872D01*
X787549Y163982D01*
X787532Y164091D01*
X787511Y164200D01*
X787486Y164308D01*
X787457Y164415D01*
X787425Y164521D01*
X787389Y164626D01*
X787349Y164729D01*
X787306Y164831D01*
X787259Y164932D01*
X787208Y165031D01*
X787155Y165127D01*
X787098Y165222D01*
X787037Y165315D01*
X786974Y165406D01*
X786907Y165495D01*
X786837Y165581D01*
X786764Y165664D01*
X786689Y165746D01*
X786611Y165824D01*
X786529Y165899D01*
X786446Y165972D01*
X786360Y166042D01*
X786271Y166109D01*
X786180Y166172D01*
X786087Y166233D01*
X785993Y166290D01*
X785896Y166343D01*
X785797Y166394D01*
X785696Y166441D01*
X785594Y166484D01*
X785491Y166524D01*
X785386Y166560D01*
X785280Y166592D01*
X785173Y166621D01*
X785065Y166646D01*
X784956Y166667D01*
X784847Y166684D01*
X784737Y166698D01*
X784626Y166707D01*
X784516Y166713D01*
X784405Y166715D01*
X785040Y171795D02*
X781230Y171795D01*
X785040Y171795D02*
X785140Y171793D01*
X785239Y171787D01*
X785339Y171777D01*
X785437Y171764D01*
X785536Y171746D01*
X785633Y171725D01*
X785729Y171700D01*
X785825Y171671D01*
X785919Y171638D01*
X786012Y171602D01*
X786103Y171562D01*
X786193Y171518D01*
X786281Y171471D01*
X786367Y171421D01*
X786451Y171367D01*
X786533Y171310D01*
X786612Y171250D01*
X786690Y171186D01*
X786764Y171120D01*
X786836Y171051D01*
X786905Y170979D01*
X786971Y170905D01*
X787035Y170827D01*
X787095Y170748D01*
X787152Y170666D01*
X787206Y170582D01*
X787256Y170496D01*
X787303Y170408D01*
X787347Y170318D01*
X787387Y170227D01*
X787423Y170134D01*
X787456Y170040D01*
X787485Y169944D01*
X787510Y169848D01*
X787531Y169751D01*
X787549Y169652D01*
X787562Y169554D01*
X787572Y169454D01*
X787578Y169355D01*
X787580Y169255D01*
X787578Y169155D01*
X787572Y169056D01*
X787562Y168956D01*
X787549Y168858D01*
X787531Y168759D01*
X787510Y168662D01*
X787485Y168566D01*
X787456Y168470D01*
X787423Y168376D01*
X787387Y168283D01*
X787347Y168192D01*
X787303Y168102D01*
X787256Y168014D01*
X787206Y167928D01*
X787152Y167844D01*
X787095Y167762D01*
X787035Y167683D01*
X786971Y167605D01*
X786905Y167531D01*
X786836Y167459D01*
X786764Y167390D01*
X786690Y167324D01*
X786612Y167260D01*
X786533Y167200D01*
X786451Y167143D01*
X786367Y167089D01*
X786281Y167039D01*
X786193Y166992D01*
X786103Y166948D01*
X786012Y166908D01*
X785919Y166872D01*
X785825Y166839D01*
X785729Y166810D01*
X785633Y166785D01*
X785536Y166764D01*
X785437Y166746D01*
X785339Y166733D01*
X785239Y166723D01*
X785140Y166717D01*
X785040Y166715D01*
X782500Y166715D01*
X792787Y164810D02*
X800407Y164810D01*
X796597Y161000D02*
X796597Y168620D01*
D10*
X862600Y215900D02*
X867680Y215900D01*
X862600Y215900D02*
X862600Y210820D01*
X888000Y210820D02*
X888000Y215900D01*
X882920Y215900D01*
X888000Y195580D02*
X888000Y190500D01*
X882920Y190500D01*
X867680Y190500D02*
X862600Y190500D01*
X862600Y195580D01*
D12*
X839530Y173065D02*
X836355Y173065D01*
X839530Y173065D02*
X839641Y173063D01*
X839751Y173057D01*
X839862Y173048D01*
X839972Y173034D01*
X840081Y173017D01*
X840190Y172996D01*
X840298Y172971D01*
X840405Y172942D01*
X840511Y172910D01*
X840616Y172874D01*
X840719Y172834D01*
X840821Y172791D01*
X840922Y172744D01*
X841021Y172693D01*
X841118Y172640D01*
X841212Y172583D01*
X841305Y172522D01*
X841396Y172459D01*
X841485Y172392D01*
X841571Y172322D01*
X841654Y172249D01*
X841736Y172174D01*
X841814Y172096D01*
X841889Y172014D01*
X841962Y171931D01*
X842032Y171845D01*
X842099Y171756D01*
X842162Y171665D01*
X842223Y171572D01*
X842280Y171477D01*
X842333Y171381D01*
X842384Y171282D01*
X842431Y171181D01*
X842474Y171079D01*
X842514Y170976D01*
X842550Y170871D01*
X842582Y170765D01*
X842611Y170658D01*
X842636Y170550D01*
X842657Y170441D01*
X842674Y170332D01*
X842688Y170222D01*
X842697Y170111D01*
X842703Y170001D01*
X842705Y169890D01*
X842703Y169779D01*
X842697Y169669D01*
X842688Y169558D01*
X842674Y169448D01*
X842657Y169339D01*
X842636Y169230D01*
X842611Y169122D01*
X842582Y169015D01*
X842550Y168909D01*
X842514Y168804D01*
X842474Y168701D01*
X842431Y168599D01*
X842384Y168498D01*
X842333Y168399D01*
X842280Y168302D01*
X842223Y168208D01*
X842162Y168115D01*
X842099Y168024D01*
X842032Y167935D01*
X841962Y167849D01*
X841889Y167766D01*
X841814Y167684D01*
X841736Y167606D01*
X841654Y167531D01*
X841571Y167458D01*
X841485Y167388D01*
X841396Y167321D01*
X841305Y167258D01*
X841212Y167197D01*
X841118Y167140D01*
X841021Y167087D01*
X840922Y167036D01*
X840821Y166989D01*
X840719Y166946D01*
X840616Y166906D01*
X840511Y166870D01*
X840405Y166838D01*
X840298Y166809D01*
X840190Y166784D01*
X840081Y166763D01*
X839972Y166746D01*
X839862Y166732D01*
X839751Y166723D01*
X839641Y166717D01*
X839530Y166715D01*
X836355Y166715D01*
X836355Y178145D01*
X839530Y178145D01*
X839630Y178143D01*
X839729Y178137D01*
X839829Y178127D01*
X839927Y178114D01*
X840026Y178096D01*
X840123Y178075D01*
X840219Y178050D01*
X840315Y178021D01*
X840409Y177988D01*
X840502Y177952D01*
X840593Y177912D01*
X840683Y177868D01*
X840771Y177821D01*
X840857Y177771D01*
X840941Y177717D01*
X841023Y177660D01*
X841102Y177600D01*
X841180Y177536D01*
X841254Y177470D01*
X841326Y177401D01*
X841395Y177329D01*
X841461Y177255D01*
X841525Y177177D01*
X841585Y177098D01*
X841642Y177016D01*
X841696Y176932D01*
X841746Y176846D01*
X841793Y176758D01*
X841837Y176668D01*
X841877Y176577D01*
X841913Y176484D01*
X841946Y176390D01*
X841975Y176294D01*
X842000Y176198D01*
X842021Y176101D01*
X842039Y176002D01*
X842052Y175904D01*
X842062Y175804D01*
X842068Y175705D01*
X842070Y175605D01*
X842068Y175505D01*
X842062Y175406D01*
X842052Y175306D01*
X842039Y175208D01*
X842021Y175109D01*
X842000Y175012D01*
X841975Y174916D01*
X841946Y174820D01*
X841913Y174726D01*
X841877Y174633D01*
X841837Y174542D01*
X841793Y174452D01*
X841746Y174364D01*
X841696Y174278D01*
X841642Y174194D01*
X841585Y174112D01*
X841525Y174033D01*
X841461Y173955D01*
X841395Y173881D01*
X841326Y173809D01*
X841254Y173740D01*
X841180Y173674D01*
X841102Y173610D01*
X841023Y173550D01*
X840941Y173493D01*
X840857Y173439D01*
X840771Y173389D01*
X840683Y173342D01*
X840593Y173298D01*
X840502Y173258D01*
X840409Y173222D01*
X840315Y173189D01*
X840219Y173160D01*
X840123Y173135D01*
X840026Y173114D01*
X839927Y173096D01*
X839829Y173083D01*
X839729Y173073D01*
X839630Y173067D01*
X839530Y173065D01*
X846579Y166715D02*
X850389Y178145D01*
X854199Y166715D01*
X853246Y169573D02*
X847531Y169573D01*
X861057Y166715D02*
X861057Y178145D01*
X857882Y178145D02*
X864232Y178145D01*
X868550Y166715D02*
X871725Y166715D01*
X871836Y166717D01*
X871946Y166723D01*
X872057Y166732D01*
X872167Y166746D01*
X872276Y166763D01*
X872385Y166784D01*
X872493Y166809D01*
X872600Y166838D01*
X872706Y166870D01*
X872811Y166906D01*
X872914Y166946D01*
X873016Y166989D01*
X873117Y167036D01*
X873216Y167087D01*
X873313Y167140D01*
X873407Y167197D01*
X873500Y167258D01*
X873591Y167321D01*
X873680Y167388D01*
X873766Y167458D01*
X873849Y167531D01*
X873931Y167606D01*
X874009Y167684D01*
X874084Y167766D01*
X874157Y167849D01*
X874227Y167935D01*
X874294Y168024D01*
X874357Y168115D01*
X874418Y168208D01*
X874475Y168302D01*
X874528Y168399D01*
X874579Y168498D01*
X874626Y168599D01*
X874669Y168701D01*
X874709Y168804D01*
X874745Y168909D01*
X874777Y169015D01*
X874806Y169122D01*
X874831Y169230D01*
X874852Y169339D01*
X874869Y169448D01*
X874883Y169558D01*
X874892Y169669D01*
X874898Y169779D01*
X874900Y169890D01*
X874898Y170001D01*
X874892Y170111D01*
X874883Y170222D01*
X874869Y170332D01*
X874852Y170441D01*
X874831Y170550D01*
X874806Y170658D01*
X874777Y170765D01*
X874745Y170871D01*
X874709Y170976D01*
X874669Y171079D01*
X874626Y171181D01*
X874579Y171282D01*
X874528Y171381D01*
X874475Y171477D01*
X874418Y171572D01*
X874357Y171665D01*
X874294Y171756D01*
X874227Y171845D01*
X874157Y171931D01*
X874084Y172014D01*
X874009Y172096D01*
X873931Y172174D01*
X873849Y172249D01*
X873766Y172322D01*
X873680Y172392D01*
X873591Y172459D01*
X873500Y172522D01*
X873407Y172583D01*
X873313Y172640D01*
X873216Y172693D01*
X873117Y172744D01*
X873016Y172791D01*
X872914Y172834D01*
X872811Y172874D01*
X872706Y172910D01*
X872600Y172942D01*
X872493Y172971D01*
X872385Y172996D01*
X872276Y173017D01*
X872167Y173034D01*
X872057Y173048D01*
X871946Y173057D01*
X871836Y173063D01*
X871725Y173065D01*
X872360Y178145D02*
X868550Y178145D01*
X872360Y178145D02*
X872460Y178143D01*
X872559Y178137D01*
X872659Y178127D01*
X872757Y178114D01*
X872856Y178096D01*
X872953Y178075D01*
X873049Y178050D01*
X873145Y178021D01*
X873239Y177988D01*
X873332Y177952D01*
X873423Y177912D01*
X873513Y177868D01*
X873601Y177821D01*
X873687Y177771D01*
X873771Y177717D01*
X873853Y177660D01*
X873932Y177600D01*
X874010Y177536D01*
X874084Y177470D01*
X874156Y177401D01*
X874225Y177329D01*
X874291Y177255D01*
X874355Y177177D01*
X874415Y177098D01*
X874472Y177016D01*
X874526Y176932D01*
X874576Y176846D01*
X874623Y176758D01*
X874667Y176668D01*
X874707Y176577D01*
X874743Y176484D01*
X874776Y176390D01*
X874805Y176294D01*
X874830Y176198D01*
X874851Y176101D01*
X874869Y176002D01*
X874882Y175904D01*
X874892Y175804D01*
X874898Y175705D01*
X874900Y175605D01*
X874898Y175505D01*
X874892Y175406D01*
X874882Y175306D01*
X874869Y175208D01*
X874851Y175109D01*
X874830Y175012D01*
X874805Y174916D01*
X874776Y174820D01*
X874743Y174726D01*
X874707Y174633D01*
X874667Y174542D01*
X874623Y174452D01*
X874576Y174364D01*
X874526Y174278D01*
X874472Y174194D01*
X874415Y174112D01*
X874355Y174033D01*
X874291Y173955D01*
X874225Y173881D01*
X874156Y173809D01*
X874084Y173740D01*
X874010Y173674D01*
X873932Y173610D01*
X873853Y173550D01*
X873771Y173493D01*
X873687Y173439D01*
X873601Y173389D01*
X873513Y173342D01*
X873423Y173298D01*
X873332Y173258D01*
X873239Y173222D01*
X873145Y173189D01*
X873049Y173160D01*
X872953Y173135D01*
X872856Y173114D01*
X872757Y173096D01*
X872659Y173083D01*
X872559Y173073D01*
X872460Y173067D01*
X872360Y173065D01*
X869820Y173065D01*
X880107Y171160D02*
X887727Y171160D01*
X37180Y55910D02*
X37180Y27910D01*
X9180Y27910D01*
X9180Y55910D01*
X37180Y55910D01*
D13*
X38828Y21402D02*
X38828Y13613D01*
X34934Y17507D02*
X42723Y17507D01*
X10828Y20402D02*
X10828Y12613D01*
X13688Y16962D02*
X21477Y20207D01*
X21477Y13716D02*
X13688Y16962D01*
X26642Y16962D02*
X34431Y16962D01*
D17*
X58290Y26290D02*
X65790Y18790D01*
X89540Y18790D01*
X92040Y56290D02*
X65790Y56290D01*
X58290Y48790D01*
D13*
X61984Y37540D02*
X61988Y37879D01*
X62001Y38217D01*
X62021Y38556D01*
X62050Y38893D01*
X62088Y39230D01*
X62133Y39566D01*
X62187Y39900D01*
X62249Y40233D01*
X62319Y40565D01*
X62398Y40895D01*
X62484Y41222D01*
X62578Y41548D01*
X62681Y41871D01*
X62791Y42191D01*
X62909Y42509D01*
X63035Y42823D01*
X63168Y43135D01*
X63310Y43443D01*
X63458Y43747D01*
X63614Y44048D01*
X63778Y44345D01*
X63948Y44638D01*
X64126Y44926D01*
X64311Y45210D01*
X64502Y45490D01*
X64701Y45764D01*
X64906Y46034D01*
X65118Y46298D01*
X65336Y46558D01*
X65560Y46812D01*
X65791Y47060D01*
X66028Y47302D01*
X66270Y47539D01*
X66518Y47770D01*
X66772Y47994D01*
X67032Y48212D01*
X67296Y48424D01*
X67566Y48629D01*
X67840Y48828D01*
X68120Y49019D01*
X68404Y49204D01*
X68692Y49382D01*
X68985Y49552D01*
X69282Y49716D01*
X69583Y49872D01*
X69887Y50020D01*
X70195Y50162D01*
X70507Y50295D01*
X70821Y50421D01*
X71139Y50539D01*
X71459Y50649D01*
X71782Y50752D01*
X72108Y50846D01*
X72435Y50932D01*
X72765Y51011D01*
X73097Y51081D01*
X73430Y51143D01*
X73764Y51197D01*
X74100Y51242D01*
X74437Y51280D01*
X74774Y51309D01*
X75113Y51329D01*
X75451Y51342D01*
X75790Y51346D01*
X76129Y51342D01*
X76467Y51329D01*
X76806Y51309D01*
X77143Y51280D01*
X77480Y51242D01*
X77816Y51197D01*
X78150Y51143D01*
X78483Y51081D01*
X78815Y51011D01*
X79145Y50932D01*
X79472Y50846D01*
X79798Y50752D01*
X80121Y50649D01*
X80441Y50539D01*
X80759Y50421D01*
X81073Y50295D01*
X81385Y50162D01*
X81693Y50020D01*
X81997Y49872D01*
X82298Y49716D01*
X82595Y49552D01*
X82888Y49382D01*
X83176Y49204D01*
X83460Y49019D01*
X83740Y48828D01*
X84014Y48629D01*
X84284Y48424D01*
X84548Y48212D01*
X84808Y47994D01*
X85062Y47770D01*
X85310Y47539D01*
X85552Y47302D01*
X85789Y47060D01*
X86020Y46812D01*
X86244Y46558D01*
X86462Y46298D01*
X86674Y46034D01*
X86879Y45764D01*
X87078Y45490D01*
X87269Y45210D01*
X87454Y44926D01*
X87632Y44638D01*
X87802Y44345D01*
X87966Y44048D01*
X88122Y43747D01*
X88270Y43443D01*
X88412Y43135D01*
X88545Y42823D01*
X88671Y42509D01*
X88789Y42191D01*
X88899Y41871D01*
X89002Y41548D01*
X89096Y41222D01*
X89182Y40895D01*
X89261Y40565D01*
X89331Y40233D01*
X89393Y39900D01*
X89447Y39566D01*
X89492Y39230D01*
X89530Y38893D01*
X89559Y38556D01*
X89579Y38217D01*
X89592Y37879D01*
X89596Y37540D01*
X89592Y37201D01*
X89579Y36863D01*
X89559Y36524D01*
X89530Y36187D01*
X89492Y35850D01*
X89447Y35514D01*
X89393Y35180D01*
X89331Y34847D01*
X89261Y34515D01*
X89182Y34185D01*
X89096Y33858D01*
X89002Y33532D01*
X88899Y33209D01*
X88789Y32889D01*
X88671Y32571D01*
X88545Y32257D01*
X88412Y31945D01*
X88270Y31637D01*
X88122Y31333D01*
X87966Y31032D01*
X87802Y30735D01*
X87632Y30442D01*
X87454Y30154D01*
X87269Y29870D01*
X87078Y29590D01*
X86879Y29316D01*
X86674Y29046D01*
X86462Y28782D01*
X86244Y28522D01*
X86020Y28268D01*
X85789Y28020D01*
X85552Y27778D01*
X85310Y27541D01*
X85062Y27310D01*
X84808Y27086D01*
X84548Y26868D01*
X84284Y26656D01*
X84014Y26451D01*
X83740Y26252D01*
X83460Y26061D01*
X83176Y25876D01*
X82888Y25698D01*
X82595Y25528D01*
X82298Y25364D01*
X81997Y25208D01*
X81693Y25060D01*
X81385Y24918D01*
X81073Y24785D01*
X80759Y24659D01*
X80441Y24541D01*
X80121Y24431D01*
X79798Y24328D01*
X79472Y24234D01*
X79145Y24148D01*
X78815Y24069D01*
X78483Y23999D01*
X78150Y23937D01*
X77816Y23883D01*
X77480Y23838D01*
X77143Y23800D01*
X76806Y23771D01*
X76467Y23751D01*
X76129Y23738D01*
X75790Y23734D01*
X75451Y23738D01*
X75113Y23751D01*
X74774Y23771D01*
X74437Y23800D01*
X74100Y23838D01*
X73764Y23883D01*
X73430Y23937D01*
X73097Y23999D01*
X72765Y24069D01*
X72435Y24148D01*
X72108Y24234D01*
X71782Y24328D01*
X71459Y24431D01*
X71139Y24541D01*
X70821Y24659D01*
X70507Y24785D01*
X70195Y24918D01*
X69887Y25060D01*
X69583Y25208D01*
X69282Y25364D01*
X68985Y25528D01*
X68692Y25698D01*
X68404Y25876D01*
X68120Y26061D01*
X67840Y26252D01*
X67566Y26451D01*
X67296Y26656D01*
X67032Y26868D01*
X66772Y27086D01*
X66518Y27310D01*
X66270Y27541D01*
X66028Y27778D01*
X65791Y28020D01*
X65560Y28268D01*
X65336Y28522D01*
X65118Y28782D01*
X64906Y29046D01*
X64701Y29316D01*
X64502Y29590D01*
X64311Y29870D01*
X64126Y30154D01*
X63948Y30442D01*
X63778Y30735D01*
X63614Y31032D01*
X63458Y31333D01*
X63310Y31637D01*
X63168Y31945D01*
X63035Y32257D01*
X62909Y32571D01*
X62791Y32889D01*
X62681Y33209D01*
X62578Y33532D01*
X62484Y33858D01*
X62398Y34185D01*
X62319Y34515D01*
X62249Y34847D01*
X62187Y35180D01*
X62133Y35514D01*
X62088Y35850D01*
X62050Y36187D01*
X62021Y36524D01*
X62001Y36863D01*
X61988Y37201D01*
X61984Y37540D01*
D18*
X75790Y37540D03*
D19*
X75790Y37540D03*
D13*
X84335Y14132D02*
X84335Y2448D01*
X84335Y14132D02*
X87580Y14132D01*
X87693Y14130D01*
X87806Y14124D01*
X87919Y14114D01*
X88032Y14100D01*
X88144Y14083D01*
X88255Y14061D01*
X88365Y14036D01*
X88475Y14006D01*
X88583Y13973D01*
X88690Y13936D01*
X88796Y13896D01*
X88900Y13851D01*
X89003Y13803D01*
X89104Y13752D01*
X89203Y13697D01*
X89300Y13639D01*
X89395Y13577D01*
X89488Y13512D01*
X89578Y13444D01*
X89666Y13373D01*
X89752Y13298D01*
X89835Y13221D01*
X89915Y13141D01*
X89992Y13058D01*
X90067Y12972D01*
X90138Y12884D01*
X90206Y12794D01*
X90271Y12701D01*
X90333Y12606D01*
X90391Y12509D01*
X90446Y12410D01*
X90497Y12309D01*
X90545Y12206D01*
X90590Y12102D01*
X90630Y11996D01*
X90667Y11889D01*
X90700Y11781D01*
X90730Y11671D01*
X90755Y11561D01*
X90777Y11450D01*
X90794Y11338D01*
X90808Y11225D01*
X90818Y11112D01*
X90824Y10999D01*
X90826Y10886D01*
X90824Y10773D01*
X90818Y10660D01*
X90808Y10547D01*
X90794Y10434D01*
X90777Y10322D01*
X90755Y10211D01*
X90730Y10101D01*
X90700Y9991D01*
X90667Y9883D01*
X90630Y9776D01*
X90590Y9670D01*
X90545Y9566D01*
X90497Y9463D01*
X90446Y9362D01*
X90391Y9263D01*
X90333Y9166D01*
X90271Y9071D01*
X90206Y8978D01*
X90138Y8888D01*
X90067Y8800D01*
X89992Y8714D01*
X89915Y8631D01*
X89835Y8551D01*
X89752Y8474D01*
X89666Y8399D01*
X89578Y8328D01*
X89488Y8260D01*
X89395Y8195D01*
X89300Y8133D01*
X89203Y8075D01*
X89104Y8020D01*
X89003Y7969D01*
X88900Y7921D01*
X88796Y7876D01*
X88690Y7836D01*
X88583Y7799D01*
X88475Y7766D01*
X88365Y7736D01*
X88255Y7711D01*
X88144Y7689D01*
X88032Y7672D01*
X87919Y7658D01*
X87806Y7648D01*
X87693Y7642D01*
X87580Y7640D01*
X87580Y7641D02*
X84335Y7641D01*
X88229Y7641D02*
X90826Y2448D01*
X102182Y11211D02*
X102180Y11318D01*
X102174Y11424D01*
X102164Y11530D01*
X102151Y11636D01*
X102133Y11742D01*
X102112Y11846D01*
X102087Y11950D01*
X102058Y12053D01*
X102026Y12154D01*
X101989Y12254D01*
X101949Y12353D01*
X101906Y12451D01*
X101859Y12547D01*
X101808Y12641D01*
X101754Y12733D01*
X101697Y12823D01*
X101637Y12911D01*
X101573Y12996D01*
X101506Y13079D01*
X101436Y13160D01*
X101364Y13238D01*
X101288Y13314D01*
X101210Y13386D01*
X101129Y13456D01*
X101046Y13523D01*
X100961Y13587D01*
X100873Y13647D01*
X100783Y13704D01*
X100691Y13758D01*
X100597Y13809D01*
X100501Y13856D01*
X100403Y13899D01*
X100304Y13939D01*
X100204Y13976D01*
X100103Y14008D01*
X100000Y14037D01*
X99896Y14062D01*
X99792Y14083D01*
X99686Y14101D01*
X99580Y14114D01*
X99474Y14124D01*
X99368Y14130D01*
X99261Y14132D01*
X99140Y14130D01*
X99019Y14124D01*
X98899Y14114D01*
X98778Y14101D01*
X98659Y14083D01*
X98539Y14062D01*
X98421Y14037D01*
X98304Y14008D01*
X98187Y13975D01*
X98072Y13939D01*
X97958Y13898D01*
X97845Y13855D01*
X97733Y13807D01*
X97624Y13756D01*
X97516Y13701D01*
X97409Y13643D01*
X97305Y13582D01*
X97203Y13517D01*
X97103Y13449D01*
X97005Y13378D01*
X96909Y13304D01*
X96816Y13227D01*
X96726Y13146D01*
X96638Y13063D01*
X96553Y12977D01*
X96470Y12888D01*
X96391Y12797D01*
X96314Y12703D01*
X96241Y12607D01*
X96171Y12509D01*
X96104Y12408D01*
X96040Y12305D01*
X95980Y12200D01*
X95923Y12093D01*
X95869Y11985D01*
X95819Y11875D01*
X95773Y11763D01*
X95730Y11650D01*
X95691Y11535D01*
X101209Y8939D02*
X101288Y9016D01*
X101364Y9097D01*
X101437Y9180D01*
X101507Y9265D01*
X101574Y9353D01*
X101638Y9443D01*
X101698Y9535D01*
X101755Y9630D01*
X101809Y9726D01*
X101860Y9824D01*
X101907Y9924D01*
X101951Y10026D01*
X101991Y10129D01*
X102027Y10233D01*
X102059Y10339D01*
X102088Y10445D01*
X102113Y10553D01*
X102135Y10661D01*
X102152Y10771D01*
X102166Y10880D01*
X102175Y10990D01*
X102181Y11101D01*
X102183Y11211D01*
X101208Y8939D02*
X95691Y2448D01*
X102182Y2448D01*
X215299Y58344D02*
X215299Y67432D01*
X215299Y58344D02*
X215297Y58245D01*
X215291Y58145D01*
X215282Y58046D01*
X215269Y57948D01*
X215252Y57850D01*
X215231Y57752D01*
X215206Y57656D01*
X215178Y57561D01*
X215146Y57467D01*
X215111Y57374D01*
X215072Y57282D01*
X215029Y57192D01*
X214984Y57104D01*
X214934Y57017D01*
X214882Y56933D01*
X214826Y56850D01*
X214768Y56770D01*
X214706Y56692D01*
X214641Y56617D01*
X214573Y56544D01*
X214503Y56474D01*
X214430Y56406D01*
X214355Y56341D01*
X214277Y56279D01*
X214197Y56221D01*
X214114Y56165D01*
X214030Y56113D01*
X213943Y56063D01*
X213855Y56018D01*
X213765Y55975D01*
X213673Y55936D01*
X213580Y55901D01*
X213486Y55869D01*
X213391Y55841D01*
X213295Y55816D01*
X213197Y55795D01*
X213099Y55778D01*
X213001Y55765D01*
X212902Y55756D01*
X212802Y55750D01*
X212703Y55748D01*
X211404Y55748D01*
X220953Y58994D02*
X220953Y67432D01*
X220953Y58994D02*
X220955Y58881D01*
X220961Y58768D01*
X220971Y58655D01*
X220985Y58542D01*
X221002Y58430D01*
X221024Y58319D01*
X221049Y58209D01*
X221079Y58099D01*
X221112Y57991D01*
X221149Y57884D01*
X221189Y57778D01*
X221234Y57674D01*
X221282Y57571D01*
X221333Y57470D01*
X221388Y57371D01*
X221446Y57274D01*
X221508Y57179D01*
X221573Y57086D01*
X221641Y56996D01*
X221712Y56908D01*
X221787Y56822D01*
X221864Y56739D01*
X221944Y56659D01*
X222027Y56582D01*
X222113Y56507D01*
X222201Y56436D01*
X222291Y56368D01*
X222384Y56303D01*
X222479Y56241D01*
X222576Y56183D01*
X222675Y56128D01*
X222776Y56077D01*
X222879Y56029D01*
X222983Y55984D01*
X223089Y55944D01*
X223196Y55907D01*
X223304Y55874D01*
X223414Y55844D01*
X223524Y55819D01*
X223635Y55797D01*
X223747Y55780D01*
X223860Y55766D01*
X223973Y55756D01*
X224086Y55750D01*
X224199Y55748D01*
X224312Y55750D01*
X224425Y55756D01*
X224538Y55766D01*
X224651Y55780D01*
X224763Y55797D01*
X224874Y55819D01*
X224984Y55844D01*
X225094Y55874D01*
X225202Y55907D01*
X225309Y55944D01*
X225415Y55984D01*
X225519Y56029D01*
X225622Y56077D01*
X225723Y56128D01*
X225822Y56183D01*
X225919Y56241D01*
X226014Y56303D01*
X226107Y56368D01*
X226197Y56436D01*
X226285Y56507D01*
X226371Y56582D01*
X226454Y56659D01*
X226534Y56739D01*
X226611Y56822D01*
X226686Y56908D01*
X226757Y56996D01*
X226825Y57086D01*
X226890Y57179D01*
X226952Y57274D01*
X227010Y57371D01*
X227065Y57470D01*
X227116Y57571D01*
X227164Y57674D01*
X227209Y57778D01*
X227249Y57884D01*
X227286Y57991D01*
X227319Y58099D01*
X227349Y58209D01*
X227374Y58319D01*
X227396Y58430D01*
X227413Y58542D01*
X227427Y58655D01*
X227437Y58768D01*
X227443Y58881D01*
X227445Y58994D01*
X227444Y58994D02*
X227444Y67432D01*
X233258Y67432D02*
X233258Y55748D01*
X237153Y60941D02*
X233258Y67432D01*
X237153Y60941D02*
X241048Y67432D01*
X241048Y55748D01*
X247031Y55748D02*
X247031Y67432D01*
X250276Y67432D01*
X250389Y67430D01*
X250502Y67424D01*
X250615Y67414D01*
X250728Y67400D01*
X250840Y67383D01*
X250951Y67361D01*
X251061Y67336D01*
X251171Y67306D01*
X251279Y67273D01*
X251386Y67236D01*
X251492Y67196D01*
X251596Y67151D01*
X251699Y67103D01*
X251800Y67052D01*
X251899Y66997D01*
X251996Y66939D01*
X252091Y66877D01*
X252184Y66812D01*
X252274Y66744D01*
X252362Y66673D01*
X252448Y66598D01*
X252531Y66521D01*
X252611Y66441D01*
X252688Y66358D01*
X252763Y66272D01*
X252834Y66184D01*
X252902Y66094D01*
X252967Y66001D01*
X253029Y65906D01*
X253087Y65809D01*
X253142Y65710D01*
X253193Y65609D01*
X253241Y65506D01*
X253286Y65402D01*
X253326Y65296D01*
X253363Y65189D01*
X253396Y65081D01*
X253426Y64971D01*
X253451Y64861D01*
X253473Y64750D01*
X253490Y64638D01*
X253504Y64525D01*
X253514Y64412D01*
X253520Y64299D01*
X253522Y64186D01*
X253520Y64073D01*
X253514Y63960D01*
X253504Y63847D01*
X253490Y63734D01*
X253473Y63622D01*
X253451Y63511D01*
X253426Y63401D01*
X253396Y63291D01*
X253363Y63183D01*
X253326Y63076D01*
X253286Y62970D01*
X253241Y62866D01*
X253193Y62763D01*
X253142Y62662D01*
X253087Y62563D01*
X253029Y62466D01*
X252967Y62371D01*
X252902Y62278D01*
X252834Y62188D01*
X252763Y62100D01*
X252688Y62014D01*
X252611Y61931D01*
X252531Y61851D01*
X252448Y61774D01*
X252362Y61699D01*
X252274Y61628D01*
X252184Y61560D01*
X252091Y61495D01*
X251996Y61433D01*
X251899Y61375D01*
X251800Y61320D01*
X251699Y61269D01*
X251596Y61221D01*
X251492Y61176D01*
X251386Y61136D01*
X251279Y61099D01*
X251171Y61066D01*
X251061Y61036D01*
X250951Y61011D01*
X250840Y60989D01*
X250728Y60972D01*
X250615Y60958D01*
X250502Y60948D01*
X250389Y60942D01*
X250276Y60940D01*
X250276Y60941D02*
X247031Y60941D01*
X258314Y55748D02*
X263507Y55748D01*
X258314Y55748D02*
X258314Y67432D01*
X263507Y67432D01*
X262209Y62239D02*
X258314Y62239D01*
X268271Y67432D02*
X268271Y55748D01*
X268271Y67432D02*
X271516Y67432D01*
X271629Y67430D01*
X271742Y67424D01*
X271855Y67414D01*
X271968Y67400D01*
X272080Y67383D01*
X272191Y67361D01*
X272301Y67336D01*
X272411Y67306D01*
X272519Y67273D01*
X272626Y67236D01*
X272732Y67196D01*
X272836Y67151D01*
X272939Y67103D01*
X273040Y67052D01*
X273139Y66997D01*
X273236Y66939D01*
X273331Y66877D01*
X273424Y66812D01*
X273514Y66744D01*
X273602Y66673D01*
X273688Y66598D01*
X273771Y66521D01*
X273851Y66441D01*
X273928Y66358D01*
X274003Y66272D01*
X274074Y66184D01*
X274142Y66094D01*
X274207Y66001D01*
X274269Y65906D01*
X274327Y65809D01*
X274382Y65710D01*
X274433Y65609D01*
X274481Y65506D01*
X274526Y65402D01*
X274566Y65296D01*
X274603Y65189D01*
X274636Y65081D01*
X274666Y64971D01*
X274691Y64861D01*
X274713Y64750D01*
X274730Y64638D01*
X274744Y64525D01*
X274754Y64412D01*
X274760Y64299D01*
X274762Y64186D01*
X274760Y64073D01*
X274754Y63960D01*
X274744Y63847D01*
X274730Y63734D01*
X274713Y63622D01*
X274691Y63511D01*
X274666Y63401D01*
X274636Y63291D01*
X274603Y63183D01*
X274566Y63076D01*
X274526Y62970D01*
X274481Y62866D01*
X274433Y62763D01*
X274382Y62662D01*
X274327Y62563D01*
X274269Y62466D01*
X274207Y62371D01*
X274142Y62278D01*
X274074Y62188D01*
X274003Y62100D01*
X273928Y62014D01*
X273851Y61931D01*
X273771Y61851D01*
X273688Y61774D01*
X273602Y61699D01*
X273514Y61628D01*
X273424Y61560D01*
X273331Y61495D01*
X273236Y61433D01*
X273139Y61375D01*
X273040Y61320D01*
X272939Y61269D01*
X272836Y61221D01*
X272732Y61176D01*
X272626Y61136D01*
X272519Y61099D01*
X272411Y61066D01*
X272301Y61036D01*
X272191Y61011D01*
X272080Y60989D01*
X271968Y60972D01*
X271855Y60958D01*
X271742Y60948D01*
X271629Y60942D01*
X271516Y60940D01*
X271516Y60941D02*
X268271Y60941D01*
X272166Y60941D02*
X274762Y55748D01*
D10*
X13970Y105100D02*
X8890Y105100D01*
X8890Y100020D01*
X34290Y100020D02*
X34290Y105100D01*
X29210Y105100D01*
X34290Y84780D02*
X34290Y79700D01*
X29210Y79700D01*
X13970Y79700D02*
X8890Y79700D01*
X8890Y84780D01*
D12*
X9525Y108275D02*
X12700Y108275D01*
X12811Y108277D01*
X12921Y108283D01*
X13032Y108292D01*
X13142Y108306D01*
X13251Y108323D01*
X13360Y108344D01*
X13468Y108369D01*
X13575Y108398D01*
X13681Y108430D01*
X13786Y108466D01*
X13889Y108506D01*
X13991Y108549D01*
X14092Y108596D01*
X14191Y108647D01*
X14287Y108700D01*
X14382Y108757D01*
X14475Y108818D01*
X14566Y108881D01*
X14655Y108948D01*
X14741Y109018D01*
X14824Y109091D01*
X14906Y109166D01*
X14984Y109244D01*
X15059Y109326D01*
X15132Y109409D01*
X15202Y109495D01*
X15269Y109584D01*
X15332Y109675D01*
X15393Y109768D01*
X15450Y109862D01*
X15503Y109959D01*
X15554Y110058D01*
X15601Y110159D01*
X15644Y110261D01*
X15684Y110364D01*
X15720Y110469D01*
X15752Y110575D01*
X15781Y110682D01*
X15806Y110790D01*
X15827Y110899D01*
X15844Y111008D01*
X15858Y111118D01*
X15867Y111229D01*
X15873Y111339D01*
X15875Y111450D01*
X15873Y111561D01*
X15867Y111671D01*
X15858Y111782D01*
X15844Y111892D01*
X15827Y112001D01*
X15806Y112110D01*
X15781Y112218D01*
X15752Y112325D01*
X15720Y112431D01*
X15684Y112536D01*
X15644Y112639D01*
X15601Y112741D01*
X15554Y112842D01*
X15503Y112941D01*
X15450Y113037D01*
X15393Y113132D01*
X15332Y113225D01*
X15269Y113316D01*
X15202Y113405D01*
X15132Y113491D01*
X15059Y113574D01*
X14984Y113656D01*
X14906Y113734D01*
X14824Y113809D01*
X14741Y113882D01*
X14655Y113952D01*
X14566Y114019D01*
X14475Y114082D01*
X14382Y114143D01*
X14288Y114200D01*
X14191Y114253D01*
X14092Y114304D01*
X13991Y114351D01*
X13889Y114394D01*
X13786Y114434D01*
X13681Y114470D01*
X13575Y114502D01*
X13468Y114531D01*
X13360Y114556D01*
X13251Y114577D01*
X13142Y114594D01*
X13032Y114608D01*
X12921Y114617D01*
X12811Y114623D01*
X12700Y114625D01*
X13335Y119705D02*
X9525Y119705D01*
X13335Y119705D02*
X13435Y119703D01*
X13534Y119697D01*
X13634Y119687D01*
X13732Y119674D01*
X13831Y119656D01*
X13928Y119635D01*
X14024Y119610D01*
X14120Y119581D01*
X14214Y119548D01*
X14307Y119512D01*
X14398Y119472D01*
X14488Y119428D01*
X14576Y119381D01*
X14662Y119331D01*
X14746Y119277D01*
X14828Y119220D01*
X14907Y119160D01*
X14985Y119096D01*
X15059Y119030D01*
X15131Y118961D01*
X15200Y118889D01*
X15266Y118815D01*
X15330Y118737D01*
X15390Y118658D01*
X15447Y118576D01*
X15501Y118492D01*
X15551Y118406D01*
X15598Y118318D01*
X15642Y118228D01*
X15682Y118137D01*
X15718Y118044D01*
X15751Y117950D01*
X15780Y117854D01*
X15805Y117758D01*
X15826Y117661D01*
X15844Y117562D01*
X15857Y117464D01*
X15867Y117364D01*
X15873Y117265D01*
X15875Y117165D01*
X15873Y117065D01*
X15867Y116966D01*
X15857Y116866D01*
X15844Y116768D01*
X15826Y116669D01*
X15805Y116572D01*
X15780Y116476D01*
X15751Y116380D01*
X15718Y116286D01*
X15682Y116193D01*
X15642Y116102D01*
X15598Y116012D01*
X15551Y115924D01*
X15501Y115838D01*
X15447Y115754D01*
X15390Y115672D01*
X15330Y115593D01*
X15266Y115515D01*
X15200Y115441D01*
X15131Y115369D01*
X15059Y115300D01*
X14985Y115234D01*
X14907Y115170D01*
X14828Y115110D01*
X14746Y115053D01*
X14662Y114999D01*
X14576Y114949D01*
X14488Y114902D01*
X14398Y114858D01*
X14307Y114818D01*
X14214Y114782D01*
X14120Y114749D01*
X14024Y114720D01*
X13928Y114695D01*
X13831Y114674D01*
X13732Y114656D01*
X13634Y114643D01*
X13534Y114633D01*
X13435Y114627D01*
X13335Y114625D01*
X10795Y114625D01*
X20320Y119705D02*
X24130Y108275D01*
X27940Y119705D01*
X32385Y108275D02*
X35560Y108275D01*
X35671Y108277D01*
X35781Y108283D01*
X35892Y108292D01*
X36002Y108306D01*
X36111Y108323D01*
X36220Y108344D01*
X36328Y108369D01*
X36435Y108398D01*
X36541Y108430D01*
X36646Y108466D01*
X36749Y108506D01*
X36851Y108549D01*
X36952Y108596D01*
X37051Y108647D01*
X37147Y108700D01*
X37242Y108757D01*
X37335Y108818D01*
X37426Y108881D01*
X37515Y108948D01*
X37601Y109018D01*
X37684Y109091D01*
X37766Y109166D01*
X37844Y109244D01*
X37919Y109326D01*
X37992Y109409D01*
X38062Y109495D01*
X38129Y109584D01*
X38192Y109675D01*
X38253Y109768D01*
X38310Y109862D01*
X38363Y109959D01*
X38414Y110058D01*
X38461Y110159D01*
X38504Y110261D01*
X38544Y110364D01*
X38580Y110469D01*
X38612Y110575D01*
X38641Y110682D01*
X38666Y110790D01*
X38687Y110899D01*
X38704Y111008D01*
X38718Y111118D01*
X38727Y111229D01*
X38733Y111339D01*
X38735Y111450D01*
X38733Y111561D01*
X38727Y111671D01*
X38718Y111782D01*
X38704Y111892D01*
X38687Y112001D01*
X38666Y112110D01*
X38641Y112218D01*
X38612Y112325D01*
X38580Y112431D01*
X38544Y112536D01*
X38504Y112639D01*
X38461Y112741D01*
X38414Y112842D01*
X38363Y112941D01*
X38310Y113037D01*
X38253Y113132D01*
X38192Y113225D01*
X38129Y113316D01*
X38062Y113405D01*
X37992Y113491D01*
X37919Y113574D01*
X37844Y113656D01*
X37766Y113734D01*
X37684Y113809D01*
X37601Y113882D01*
X37515Y113952D01*
X37426Y114019D01*
X37335Y114082D01*
X37242Y114143D01*
X37148Y114200D01*
X37051Y114253D01*
X36952Y114304D01*
X36851Y114351D01*
X36749Y114394D01*
X36646Y114434D01*
X36541Y114470D01*
X36435Y114502D01*
X36328Y114531D01*
X36220Y114556D01*
X36111Y114577D01*
X36002Y114594D01*
X35892Y114608D01*
X35781Y114617D01*
X35671Y114623D01*
X35560Y114625D01*
X36195Y119705D02*
X32385Y119705D01*
X36195Y119705D02*
X36295Y119703D01*
X36394Y119697D01*
X36494Y119687D01*
X36592Y119674D01*
X36691Y119656D01*
X36788Y119635D01*
X36884Y119610D01*
X36980Y119581D01*
X37074Y119548D01*
X37167Y119512D01*
X37258Y119472D01*
X37348Y119428D01*
X37436Y119381D01*
X37522Y119331D01*
X37606Y119277D01*
X37688Y119220D01*
X37767Y119160D01*
X37845Y119096D01*
X37919Y119030D01*
X37991Y118961D01*
X38060Y118889D01*
X38126Y118815D01*
X38190Y118737D01*
X38250Y118658D01*
X38307Y118576D01*
X38361Y118492D01*
X38411Y118406D01*
X38458Y118318D01*
X38502Y118228D01*
X38542Y118137D01*
X38578Y118044D01*
X38611Y117950D01*
X38640Y117854D01*
X38665Y117758D01*
X38686Y117661D01*
X38704Y117562D01*
X38717Y117464D01*
X38727Y117364D01*
X38733Y117265D01*
X38735Y117165D01*
X38733Y117065D01*
X38727Y116966D01*
X38717Y116866D01*
X38704Y116768D01*
X38686Y116669D01*
X38665Y116572D01*
X38640Y116476D01*
X38611Y116380D01*
X38578Y116286D01*
X38542Y116193D01*
X38502Y116102D01*
X38458Y116012D01*
X38411Y115924D01*
X38361Y115838D01*
X38307Y115754D01*
X38250Y115672D01*
X38190Y115593D01*
X38126Y115515D01*
X38060Y115441D01*
X37991Y115369D01*
X37919Y115300D01*
X37845Y115234D01*
X37767Y115170D01*
X37688Y115110D01*
X37606Y115053D01*
X37522Y114999D01*
X37436Y114949D01*
X37348Y114902D01*
X37258Y114858D01*
X37167Y114818D01*
X37074Y114782D01*
X36980Y114749D01*
X36884Y114720D01*
X36788Y114695D01*
X36691Y114674D01*
X36592Y114656D01*
X36494Y114643D01*
X36394Y114633D01*
X36295Y114627D01*
X36195Y114625D01*
X33655Y114625D01*
X43815Y116530D02*
X43815Y111450D01*
X43815Y116530D02*
X43817Y116641D01*
X43823Y116751D01*
X43832Y116862D01*
X43846Y116972D01*
X43863Y117081D01*
X43884Y117190D01*
X43909Y117298D01*
X43938Y117405D01*
X43970Y117511D01*
X44006Y117616D01*
X44046Y117719D01*
X44089Y117821D01*
X44136Y117922D01*
X44187Y118021D01*
X44240Y118117D01*
X44297Y118212D01*
X44358Y118305D01*
X44421Y118396D01*
X44488Y118485D01*
X44558Y118571D01*
X44631Y118654D01*
X44706Y118736D01*
X44784Y118814D01*
X44866Y118889D01*
X44949Y118962D01*
X45035Y119032D01*
X45124Y119099D01*
X45215Y119162D01*
X45308Y119223D01*
X45402Y119280D01*
X45499Y119333D01*
X45598Y119384D01*
X45699Y119431D01*
X45801Y119474D01*
X45904Y119514D01*
X46009Y119550D01*
X46115Y119582D01*
X46222Y119611D01*
X46330Y119636D01*
X46439Y119657D01*
X46548Y119674D01*
X46658Y119688D01*
X46769Y119697D01*
X46879Y119703D01*
X46990Y119705D01*
X47101Y119703D01*
X47211Y119697D01*
X47322Y119688D01*
X47432Y119674D01*
X47541Y119657D01*
X47650Y119636D01*
X47758Y119611D01*
X47865Y119582D01*
X47971Y119550D01*
X48076Y119514D01*
X48179Y119474D01*
X48281Y119431D01*
X48382Y119384D01*
X48481Y119333D01*
X48578Y119280D01*
X48672Y119223D01*
X48765Y119162D01*
X48856Y119099D01*
X48945Y119032D01*
X49031Y118962D01*
X49114Y118889D01*
X49196Y118814D01*
X49274Y118736D01*
X49349Y118654D01*
X49422Y118571D01*
X49492Y118485D01*
X49559Y118396D01*
X49622Y118305D01*
X49683Y118212D01*
X49740Y118118D01*
X49793Y118021D01*
X49844Y117922D01*
X49891Y117821D01*
X49934Y117719D01*
X49974Y117616D01*
X50010Y117511D01*
X50042Y117405D01*
X50071Y117298D01*
X50096Y117190D01*
X50117Y117081D01*
X50134Y116972D01*
X50148Y116862D01*
X50157Y116751D01*
X50163Y116641D01*
X50165Y116530D01*
X50165Y111450D01*
X50163Y111339D01*
X50157Y111229D01*
X50148Y111118D01*
X50134Y111008D01*
X50117Y110899D01*
X50096Y110790D01*
X50071Y110682D01*
X50042Y110575D01*
X50010Y110469D01*
X49974Y110364D01*
X49934Y110261D01*
X49891Y110159D01*
X49844Y110058D01*
X49793Y109959D01*
X49740Y109862D01*
X49683Y109768D01*
X49622Y109675D01*
X49559Y109584D01*
X49492Y109495D01*
X49422Y109409D01*
X49349Y109326D01*
X49274Y109244D01*
X49196Y109166D01*
X49114Y109091D01*
X49031Y109018D01*
X48945Y108948D01*
X48856Y108881D01*
X48765Y108818D01*
X48672Y108757D01*
X48577Y108700D01*
X48481Y108647D01*
X48382Y108596D01*
X48281Y108549D01*
X48179Y108506D01*
X48076Y108466D01*
X47971Y108430D01*
X47865Y108398D01*
X47758Y108369D01*
X47650Y108344D01*
X47541Y108323D01*
X47432Y108306D01*
X47322Y108292D01*
X47211Y108283D01*
X47101Y108277D01*
X46990Y108275D01*
X46879Y108277D01*
X46769Y108283D01*
X46658Y108292D01*
X46548Y108306D01*
X46439Y108323D01*
X46330Y108344D01*
X46222Y108369D01*
X46115Y108398D01*
X46009Y108430D01*
X45904Y108466D01*
X45801Y108506D01*
X45699Y108549D01*
X45598Y108596D01*
X45499Y108647D01*
X45402Y108700D01*
X45308Y108757D01*
X45215Y108818D01*
X45124Y108881D01*
X45035Y108948D01*
X44949Y109018D01*
X44866Y109091D01*
X44784Y109166D01*
X44706Y109244D01*
X44631Y109326D01*
X44558Y109409D01*
X44488Y109495D01*
X44421Y109584D01*
X44358Y109675D01*
X44297Y109768D01*
X44240Y109863D01*
X44187Y109959D01*
X44136Y110058D01*
X44089Y110159D01*
X44046Y110261D01*
X44006Y110364D01*
X43970Y110469D01*
X43938Y110575D01*
X43909Y110682D01*
X43884Y110790D01*
X43863Y110899D01*
X43846Y111008D01*
X43832Y111118D01*
X43823Y111229D01*
X43817Y111339D01*
X43815Y111450D01*
X55626Y111450D02*
X55626Y119705D01*
X55626Y111450D02*
X55628Y111339D01*
X55634Y111229D01*
X55643Y111118D01*
X55657Y111008D01*
X55674Y110899D01*
X55695Y110790D01*
X55720Y110682D01*
X55749Y110575D01*
X55781Y110469D01*
X55817Y110364D01*
X55857Y110261D01*
X55900Y110159D01*
X55947Y110058D01*
X55998Y109959D01*
X56051Y109863D01*
X56108Y109768D01*
X56169Y109675D01*
X56232Y109584D01*
X56299Y109495D01*
X56369Y109409D01*
X56442Y109326D01*
X56517Y109244D01*
X56595Y109166D01*
X56677Y109091D01*
X56760Y109018D01*
X56846Y108948D01*
X56935Y108881D01*
X57026Y108818D01*
X57119Y108757D01*
X57213Y108700D01*
X57310Y108647D01*
X57409Y108596D01*
X57510Y108549D01*
X57612Y108506D01*
X57715Y108466D01*
X57820Y108430D01*
X57926Y108398D01*
X58033Y108369D01*
X58141Y108344D01*
X58250Y108323D01*
X58359Y108306D01*
X58469Y108292D01*
X58580Y108283D01*
X58690Y108277D01*
X58801Y108275D01*
X58912Y108277D01*
X59022Y108283D01*
X59133Y108292D01*
X59243Y108306D01*
X59352Y108323D01*
X59461Y108344D01*
X59569Y108369D01*
X59676Y108398D01*
X59782Y108430D01*
X59887Y108466D01*
X59990Y108506D01*
X60092Y108549D01*
X60193Y108596D01*
X60292Y108647D01*
X60388Y108700D01*
X60483Y108757D01*
X60576Y108818D01*
X60667Y108881D01*
X60756Y108948D01*
X60842Y109018D01*
X60925Y109091D01*
X61007Y109166D01*
X61085Y109244D01*
X61160Y109326D01*
X61233Y109409D01*
X61303Y109495D01*
X61370Y109584D01*
X61433Y109675D01*
X61494Y109768D01*
X61551Y109862D01*
X61604Y109959D01*
X61655Y110058D01*
X61702Y110159D01*
X61745Y110261D01*
X61785Y110364D01*
X61821Y110469D01*
X61853Y110575D01*
X61882Y110682D01*
X61907Y110790D01*
X61928Y110899D01*
X61945Y111008D01*
X61959Y111118D01*
X61968Y111229D01*
X61974Y111339D01*
X61976Y111450D01*
X61976Y119705D01*
X69850Y119705D02*
X69850Y108275D01*
X66675Y119705D02*
X73025Y119705D01*
D10*
X218280Y212910D02*
X223360Y212910D01*
X218280Y212910D02*
X218280Y207830D01*
X243680Y207830D02*
X243680Y212910D01*
X238600Y212910D01*
X243680Y192590D02*
X243680Y187510D01*
X238600Y187510D01*
X223360Y187510D02*
X218280Y187510D01*
X218280Y192590D01*
D12*
X199865Y179255D02*
X197960Y179255D01*
X199865Y179255D02*
X199865Y172905D01*
X196055Y172905D01*
X195955Y172907D01*
X195856Y172913D01*
X195756Y172923D01*
X195658Y172936D01*
X195559Y172954D01*
X195462Y172975D01*
X195366Y173000D01*
X195270Y173029D01*
X195176Y173062D01*
X195083Y173098D01*
X194992Y173138D01*
X194902Y173182D01*
X194814Y173229D01*
X194728Y173279D01*
X194644Y173333D01*
X194562Y173390D01*
X194483Y173450D01*
X194405Y173514D01*
X194331Y173580D01*
X194259Y173649D01*
X194190Y173721D01*
X194124Y173795D01*
X194060Y173873D01*
X194000Y173952D01*
X193943Y174034D01*
X193889Y174118D01*
X193839Y174204D01*
X193792Y174292D01*
X193748Y174382D01*
X193708Y174473D01*
X193672Y174566D01*
X193639Y174660D01*
X193610Y174756D01*
X193585Y174852D01*
X193564Y174949D01*
X193546Y175048D01*
X193533Y175146D01*
X193523Y175246D01*
X193517Y175345D01*
X193515Y175445D01*
X193515Y181795D01*
X193517Y181895D01*
X193523Y181994D01*
X193533Y182094D01*
X193546Y182192D01*
X193564Y182291D01*
X193585Y182388D01*
X193610Y182484D01*
X193639Y182580D01*
X193672Y182674D01*
X193708Y182767D01*
X193748Y182858D01*
X193792Y182948D01*
X193839Y183036D01*
X193889Y183122D01*
X193943Y183206D01*
X194000Y183288D01*
X194060Y183367D01*
X194124Y183445D01*
X194190Y183519D01*
X194259Y183591D01*
X194331Y183660D01*
X194405Y183726D01*
X194483Y183790D01*
X194562Y183850D01*
X194644Y183907D01*
X194728Y183961D01*
X194814Y184011D01*
X194902Y184058D01*
X194992Y184102D01*
X195083Y184142D01*
X195176Y184178D01*
X195270Y184211D01*
X195366Y184240D01*
X195462Y184265D01*
X195559Y184286D01*
X195658Y184304D01*
X195756Y184317D01*
X195856Y184327D01*
X195955Y184333D01*
X196055Y184335D01*
X199865Y184335D01*
X205707Y184335D02*
X205707Y172905D01*
X212057Y172905D02*
X205707Y184335D01*
X212057Y184335D02*
X212057Y172905D01*
X217899Y172905D02*
X217899Y184335D01*
X221074Y184335D01*
X221185Y184333D01*
X221295Y184327D01*
X221406Y184318D01*
X221516Y184304D01*
X221625Y184287D01*
X221734Y184266D01*
X221842Y184241D01*
X221949Y184212D01*
X222055Y184180D01*
X222160Y184144D01*
X222263Y184104D01*
X222365Y184061D01*
X222466Y184014D01*
X222565Y183963D01*
X222662Y183910D01*
X222756Y183853D01*
X222849Y183792D01*
X222940Y183729D01*
X223029Y183662D01*
X223115Y183592D01*
X223198Y183519D01*
X223280Y183444D01*
X223358Y183366D01*
X223433Y183284D01*
X223506Y183201D01*
X223576Y183115D01*
X223643Y183026D01*
X223706Y182935D01*
X223767Y182842D01*
X223824Y182748D01*
X223877Y182651D01*
X223928Y182552D01*
X223975Y182451D01*
X224018Y182349D01*
X224058Y182246D01*
X224094Y182141D01*
X224126Y182035D01*
X224155Y181928D01*
X224180Y181820D01*
X224201Y181711D01*
X224218Y181602D01*
X224232Y181492D01*
X224241Y181381D01*
X224247Y181271D01*
X224249Y181160D01*
X224249Y176080D01*
X224247Y175969D01*
X224241Y175859D01*
X224232Y175748D01*
X224218Y175638D01*
X224201Y175529D01*
X224180Y175420D01*
X224155Y175312D01*
X224126Y175205D01*
X224094Y175099D01*
X224058Y174994D01*
X224018Y174891D01*
X223975Y174789D01*
X223928Y174688D01*
X223877Y174589D01*
X223824Y174492D01*
X223767Y174398D01*
X223706Y174305D01*
X223643Y174214D01*
X223576Y174125D01*
X223506Y174039D01*
X223433Y173956D01*
X223358Y173874D01*
X223280Y173796D01*
X223198Y173721D01*
X223115Y173648D01*
X223029Y173578D01*
X222940Y173511D01*
X222849Y173448D01*
X222756Y173387D01*
X222661Y173330D01*
X222565Y173277D01*
X222466Y173226D01*
X222365Y173179D01*
X222263Y173136D01*
X222160Y173096D01*
X222055Y173060D01*
X221949Y173028D01*
X221842Y172999D01*
X221734Y172974D01*
X221625Y172953D01*
X221516Y172936D01*
X221406Y172922D01*
X221295Y172913D01*
X221185Y172907D01*
X221074Y172905D01*
X217899Y172905D01*
X229710Y176080D02*
X229710Y181160D01*
X229712Y181271D01*
X229718Y181381D01*
X229727Y181492D01*
X229741Y181602D01*
X229758Y181711D01*
X229779Y181820D01*
X229804Y181928D01*
X229833Y182035D01*
X229865Y182141D01*
X229901Y182246D01*
X229941Y182349D01*
X229984Y182451D01*
X230031Y182552D01*
X230082Y182651D01*
X230135Y182748D01*
X230192Y182842D01*
X230253Y182935D01*
X230316Y183026D01*
X230383Y183115D01*
X230453Y183201D01*
X230526Y183284D01*
X230601Y183366D01*
X230679Y183444D01*
X230761Y183519D01*
X230844Y183592D01*
X230930Y183662D01*
X231019Y183729D01*
X231110Y183792D01*
X231203Y183853D01*
X231298Y183910D01*
X231394Y183963D01*
X231493Y184014D01*
X231594Y184061D01*
X231696Y184104D01*
X231799Y184144D01*
X231904Y184180D01*
X232010Y184212D01*
X232117Y184241D01*
X232225Y184266D01*
X232334Y184287D01*
X232443Y184304D01*
X232553Y184318D01*
X232664Y184327D01*
X232774Y184333D01*
X232885Y184335D01*
X232996Y184333D01*
X233106Y184327D01*
X233217Y184318D01*
X233327Y184304D01*
X233436Y184287D01*
X233545Y184266D01*
X233653Y184241D01*
X233760Y184212D01*
X233866Y184180D01*
X233971Y184144D01*
X234074Y184104D01*
X234176Y184061D01*
X234277Y184014D01*
X234376Y183963D01*
X234473Y183910D01*
X234567Y183853D01*
X234660Y183792D01*
X234751Y183729D01*
X234840Y183662D01*
X234926Y183592D01*
X235009Y183519D01*
X235091Y183444D01*
X235169Y183366D01*
X235244Y183284D01*
X235317Y183201D01*
X235387Y183115D01*
X235454Y183026D01*
X235517Y182935D01*
X235578Y182842D01*
X235635Y182748D01*
X235688Y182651D01*
X235739Y182552D01*
X235786Y182451D01*
X235829Y182349D01*
X235869Y182246D01*
X235905Y182141D01*
X235937Y182035D01*
X235966Y181928D01*
X235991Y181820D01*
X236012Y181711D01*
X236029Y181602D01*
X236043Y181492D01*
X236052Y181381D01*
X236058Y181271D01*
X236060Y181160D01*
X236060Y176080D01*
X236058Y175969D01*
X236052Y175859D01*
X236043Y175748D01*
X236029Y175638D01*
X236012Y175529D01*
X235991Y175420D01*
X235966Y175312D01*
X235937Y175205D01*
X235905Y175099D01*
X235869Y174994D01*
X235829Y174891D01*
X235786Y174789D01*
X235739Y174688D01*
X235688Y174589D01*
X235635Y174492D01*
X235578Y174398D01*
X235517Y174305D01*
X235454Y174214D01*
X235387Y174125D01*
X235317Y174039D01*
X235244Y173956D01*
X235169Y173874D01*
X235091Y173796D01*
X235009Y173721D01*
X234926Y173648D01*
X234840Y173578D01*
X234751Y173511D01*
X234660Y173448D01*
X234567Y173387D01*
X234472Y173330D01*
X234376Y173277D01*
X234277Y173226D01*
X234176Y173179D01*
X234074Y173136D01*
X233971Y173096D01*
X233866Y173060D01*
X233760Y173028D01*
X233653Y172999D01*
X233545Y172974D01*
X233436Y172953D01*
X233327Y172936D01*
X233217Y172922D01*
X233106Y172913D01*
X232996Y172907D01*
X232885Y172905D01*
X232774Y172907D01*
X232664Y172913D01*
X232553Y172922D01*
X232443Y172936D01*
X232334Y172953D01*
X232225Y172974D01*
X232117Y172999D01*
X232010Y173028D01*
X231904Y173060D01*
X231799Y173096D01*
X231696Y173136D01*
X231594Y173179D01*
X231493Y173226D01*
X231394Y173277D01*
X231298Y173330D01*
X231203Y173387D01*
X231110Y173448D01*
X231019Y173511D01*
X230930Y173578D01*
X230844Y173648D01*
X230761Y173721D01*
X230679Y173796D01*
X230601Y173874D01*
X230526Y173956D01*
X230453Y174039D01*
X230383Y174125D01*
X230316Y174214D01*
X230253Y174305D01*
X230192Y174398D01*
X230135Y174493D01*
X230082Y174589D01*
X230031Y174688D01*
X229984Y174789D01*
X229941Y174891D01*
X229901Y174994D01*
X229865Y175099D01*
X229833Y175205D01*
X229804Y175312D01*
X229779Y175420D01*
X229758Y175529D01*
X229741Y175638D01*
X229727Y175748D01*
X229718Y175859D01*
X229712Y175969D01*
X229710Y176080D01*
X241521Y176080D02*
X241521Y184335D01*
X241521Y176080D02*
X241523Y175969D01*
X241529Y175859D01*
X241538Y175748D01*
X241552Y175638D01*
X241569Y175529D01*
X241590Y175420D01*
X241615Y175312D01*
X241644Y175205D01*
X241676Y175099D01*
X241712Y174994D01*
X241752Y174891D01*
X241795Y174789D01*
X241842Y174688D01*
X241893Y174589D01*
X241946Y174493D01*
X242003Y174398D01*
X242064Y174305D01*
X242127Y174214D01*
X242194Y174125D01*
X242264Y174039D01*
X242337Y173956D01*
X242412Y173874D01*
X242490Y173796D01*
X242572Y173721D01*
X242655Y173648D01*
X242741Y173578D01*
X242830Y173511D01*
X242921Y173448D01*
X243014Y173387D01*
X243109Y173330D01*
X243205Y173277D01*
X243304Y173226D01*
X243405Y173179D01*
X243507Y173136D01*
X243610Y173096D01*
X243715Y173060D01*
X243821Y173028D01*
X243928Y172999D01*
X244036Y172974D01*
X244145Y172953D01*
X244254Y172936D01*
X244364Y172922D01*
X244475Y172913D01*
X244585Y172907D01*
X244696Y172905D01*
X244807Y172907D01*
X244917Y172913D01*
X245028Y172922D01*
X245138Y172936D01*
X245247Y172953D01*
X245356Y172974D01*
X245464Y172999D01*
X245571Y173028D01*
X245677Y173060D01*
X245782Y173096D01*
X245885Y173136D01*
X245987Y173179D01*
X246088Y173226D01*
X246187Y173277D01*
X246283Y173330D01*
X246378Y173387D01*
X246471Y173448D01*
X246562Y173511D01*
X246651Y173578D01*
X246737Y173648D01*
X246820Y173721D01*
X246902Y173796D01*
X246980Y173874D01*
X247055Y173956D01*
X247128Y174039D01*
X247198Y174125D01*
X247265Y174214D01*
X247328Y174305D01*
X247389Y174398D01*
X247446Y174492D01*
X247499Y174589D01*
X247550Y174688D01*
X247597Y174789D01*
X247640Y174891D01*
X247680Y174994D01*
X247716Y175099D01*
X247748Y175205D01*
X247777Y175312D01*
X247802Y175420D01*
X247823Y175529D01*
X247840Y175638D01*
X247854Y175748D01*
X247863Y175859D01*
X247869Y175969D01*
X247871Y176080D01*
X247871Y184335D01*
X255745Y184335D02*
X255745Y172905D01*
X252570Y184335D02*
X258920Y184335D01*
D16*
X101539Y66595D02*
X98886Y69911D01*
X101539Y66595D02*
X89601Y66595D01*
X89601Y69911D02*
X89601Y63279D01*
X91591Y58199D02*
X97560Y58199D01*
X91591Y58199D02*
X91504Y58197D01*
X91418Y58191D01*
X91331Y58182D01*
X91245Y58169D01*
X91160Y58152D01*
X91076Y58131D01*
X90993Y58107D01*
X90910Y58079D01*
X90829Y58048D01*
X90750Y58013D01*
X90672Y57974D01*
X90596Y57932D01*
X90522Y57887D01*
X90450Y57839D01*
X90380Y57788D01*
X90312Y57733D01*
X90247Y57676D01*
X90184Y57616D01*
X90124Y57553D01*
X90067Y57488D01*
X90012Y57420D01*
X89961Y57350D01*
X89913Y57278D01*
X89868Y57204D01*
X89826Y57128D01*
X89787Y57050D01*
X89752Y56971D01*
X89721Y56890D01*
X89693Y56807D01*
X89669Y56724D01*
X89648Y56640D01*
X89631Y56555D01*
X89618Y56469D01*
X89609Y56382D01*
X89603Y56296D01*
X89601Y56209D01*
X89601Y52893D01*
X97560Y52893D01*
X99549Y47268D02*
X89601Y47268D01*
X99549Y47269D02*
X99636Y47267D01*
X99722Y47261D01*
X99809Y47252D01*
X99895Y47239D01*
X99980Y47222D01*
X100064Y47201D01*
X100147Y47177D01*
X100230Y47149D01*
X100311Y47118D01*
X100390Y47083D01*
X100468Y47044D01*
X100544Y47002D01*
X100618Y46957D01*
X100690Y46909D01*
X100760Y46858D01*
X100828Y46803D01*
X100893Y46746D01*
X100956Y46686D01*
X101016Y46623D01*
X101073Y46558D01*
X101128Y46490D01*
X101179Y46420D01*
X101227Y46348D01*
X101272Y46274D01*
X101314Y46198D01*
X101353Y46120D01*
X101388Y46041D01*
X101419Y45960D01*
X101447Y45877D01*
X101471Y45794D01*
X101492Y45710D01*
X101509Y45625D01*
X101522Y45539D01*
X101531Y45452D01*
X101537Y45366D01*
X101539Y45279D01*
X101539Y44615D01*
X97560Y44615D02*
X97560Y48595D01*
M02*
