G04 EAGLE Gerber RS-274X export*
G75*
%MOMM*%
%FSLAX34Y34*%
%LPD*%
%INSoldermask Top*%
%IPPOS*%
%AMOC8*
5,1,8,0,0,1.08239X$1,22.5*%
G01*
%ADD10C,0.269722*%
%ADD11R,1.833200X1.633200*%
%ADD12P,2.969212X8X22.500000*%
%ADD13R,0.903200X0.803200*%
%ADD14R,1.253200X1.283200*%
%ADD15R,1.003200X1.003200*%
%ADD16R,0.803200X0.903200*%
%ADD17R,1.003200X0.503200*%
%ADD18R,1.953200X2.103200*%
%ADD19R,1.283200X1.253200*%
%ADD20R,0.914400X0.457200*%
%ADD21R,0.584200X1.524000*%
%ADD22R,0.763200X1.703200*%
%ADD23R,1.803200X1.003200*%
%ADD24R,1.203200X2.203200*%
%ADD25C,2.203200*%
%ADD26R,1.503200X1.703200*%
%ADD27R,2.006600X1.358900*%
%ADD28C,0.705600*%


D10*
X103818Y184282D02*
X96082Y184282D01*
X96082Y186318D01*
X103818Y186318D01*
X103818Y184282D01*
X103818Y179282D02*
X96082Y179282D01*
X96082Y181318D01*
X103818Y181318D01*
X103818Y179282D01*
X103818Y174282D02*
X96082Y174282D01*
X96082Y176318D01*
X103818Y176318D01*
X103818Y174282D01*
X103818Y169282D02*
X96082Y169282D01*
X96082Y171318D01*
X103818Y171318D01*
X103818Y169282D01*
X124782Y169282D02*
X132518Y169282D01*
X124782Y169282D02*
X124782Y171318D01*
X132518Y171318D01*
X132518Y169282D01*
X132518Y174282D02*
X124782Y174282D01*
X124782Y176318D01*
X132518Y176318D01*
X132518Y174282D01*
X132518Y179282D02*
X124782Y179282D01*
X124782Y181318D01*
X132518Y181318D01*
X132518Y179282D01*
X132518Y184282D02*
X124782Y184282D01*
X124782Y186318D01*
X132518Y186318D01*
X132518Y184282D01*
D11*
X114300Y177800D03*
D12*
X313200Y203200D03*
X424000Y203200D03*
D13*
X152400Y172800D03*
X152400Y182800D03*
D12*
X20800Y197980D03*
X21120Y145130D03*
D14*
X54750Y190500D03*
X72250Y190500D03*
X105550Y146050D03*
X123050Y146050D03*
D15*
X172600Y152400D03*
X157600Y152400D03*
D16*
X172800Y127000D03*
X182800Y127000D03*
D17*
X99300Y121800D03*
X99300Y116800D03*
X99300Y111800D03*
X99300Y106800D03*
X129300Y106800D03*
X129300Y111800D03*
X129300Y116800D03*
X129300Y121800D03*
D18*
X114300Y114300D03*
D19*
X144780Y121780D03*
X144780Y104280D03*
X57800Y129270D03*
X57800Y111770D03*
D20*
X149527Y78190D03*
X149527Y73190D03*
X149527Y68190D03*
X164513Y68190D03*
X164513Y73190D03*
X164513Y78190D03*
D21*
X157020Y73190D03*
D12*
X544800Y203200D03*
X658300Y203200D03*
X771800Y203200D03*
X875300Y203200D03*
D22*
X27780Y41910D03*
X18180Y41910D03*
D23*
X95790Y24040D03*
X95790Y37540D03*
X95790Y51040D03*
D24*
X57790Y37540D03*
D25*
X75790Y37540D03*
D26*
X239500Y80000D03*
X220500Y80000D03*
D12*
X21590Y92400D03*
X230980Y200210D03*
D27*
X82870Y125347D03*
X82870Y107694D03*
D28*
X110490Y120650D03*
X103360Y130190D03*
X110980Y130190D03*
X121140Y130190D03*
X112250Y95900D03*
X121140Y95900D03*
X118600Y109870D03*
X109710Y109870D03*
X118600Y120030D03*
X110490Y182880D03*
X118110Y182880D03*
X110490Y173990D03*
X118110Y173990D03*
M02*
