G04 EAGLE Gerber RS-274X export*
G75*
%MOMM*%
%FSLAX34Y34*%
%LPD*%
%INSolderpaste Top*%
%IPPOS*%
%AMOC8*
5,1,8,0,0,1.08239X$1,22.5*%
G01*
%ADD10R,1.020000X0.900000*%
%ADD11C,0.067500*%
%ADD12R,0.700000X0.600000*%
%ADD13R,1.050000X1.080000*%
%ADD14R,0.800000X0.800000*%
%ADD15R,0.600000X0.700000*%
%ADD16R,0.800000X0.300000*%
%ADD17R,1.750000X1.900000*%
%ADD18R,1.080000X1.050000*%
%ADD19R,0.711200X0.254000*%
%ADD20R,0.381000X1.320800*%
%ADD21R,0.560000X1.500000*%
%ADD22R,1.600000X0.800000*%
%ADD23R,1.000000X2.000000*%
%ADD24R,1.300000X1.500000*%
%ADD25R,1.803400X1.155700*%


D10*
X114300Y177800D03*
D11*
X103813Y184287D02*
X96087Y184287D01*
X96087Y186313D01*
X103813Y186313D01*
X103813Y184287D01*
X103813Y184928D02*
X96087Y184928D01*
X96087Y185569D02*
X103813Y185569D01*
X103813Y186210D02*
X96087Y186210D01*
X96087Y179287D02*
X103813Y179287D01*
X96087Y179287D02*
X96087Y181313D01*
X103813Y181313D01*
X103813Y179287D01*
X103813Y179928D02*
X96087Y179928D01*
X96087Y180569D02*
X103813Y180569D01*
X103813Y181210D02*
X96087Y181210D01*
X96087Y174287D02*
X103813Y174287D01*
X96087Y174287D02*
X96087Y176313D01*
X103813Y176313D01*
X103813Y174287D01*
X103813Y174928D02*
X96087Y174928D01*
X96087Y175569D02*
X103813Y175569D01*
X103813Y176210D02*
X96087Y176210D01*
X96087Y169287D02*
X103813Y169287D01*
X96087Y169287D02*
X96087Y171313D01*
X103813Y171313D01*
X103813Y169287D01*
X103813Y169928D02*
X96087Y169928D01*
X96087Y170569D02*
X103813Y170569D01*
X103813Y171210D02*
X96087Y171210D01*
X124787Y169287D02*
X132513Y169287D01*
X124787Y169287D02*
X124787Y171313D01*
X132513Y171313D01*
X132513Y169287D01*
X132513Y169928D02*
X124787Y169928D01*
X124787Y170569D02*
X132513Y170569D01*
X132513Y171210D02*
X124787Y171210D01*
X124787Y174287D02*
X132513Y174287D01*
X124787Y174287D02*
X124787Y176313D01*
X132513Y176313D01*
X132513Y174287D01*
X132513Y174928D02*
X124787Y174928D01*
X124787Y175569D02*
X132513Y175569D01*
X132513Y176210D02*
X124787Y176210D01*
X124787Y179287D02*
X132513Y179287D01*
X124787Y179287D02*
X124787Y181313D01*
X132513Y181313D01*
X132513Y179287D01*
X132513Y179928D02*
X124787Y179928D01*
X124787Y180569D02*
X132513Y180569D01*
X132513Y181210D02*
X124787Y181210D01*
X124787Y184287D02*
X132513Y184287D01*
X124787Y184287D02*
X124787Y186313D01*
X132513Y186313D01*
X132513Y184287D01*
X132513Y184928D02*
X124787Y184928D01*
X124787Y185569D02*
X132513Y185569D01*
X132513Y186210D02*
X124787Y186210D01*
D12*
X152400Y172800D03*
X152400Y182800D03*
D13*
X54750Y190500D03*
X72250Y190500D03*
X105550Y146050D03*
X123050Y146050D03*
D14*
X172600Y152400D03*
X157600Y152400D03*
D15*
X172800Y127000D03*
X182800Y127000D03*
D16*
X99300Y121800D03*
X99300Y116800D03*
X99300Y111800D03*
X99300Y106800D03*
X129300Y106800D03*
X129300Y111800D03*
X129300Y116800D03*
X129300Y121800D03*
D17*
X114300Y114300D03*
D18*
X144780Y121780D03*
X144780Y104280D03*
X57800Y129270D03*
X57800Y111770D03*
D19*
X149527Y78190D03*
X149527Y73190D03*
X149527Y68190D03*
X164513Y68190D03*
X164513Y73190D03*
X164513Y78190D03*
D20*
X157020Y73190D03*
D21*
X27780Y41910D03*
X18180Y41910D03*
D22*
X95790Y24040D03*
X95790Y37540D03*
X95790Y51040D03*
D23*
X57790Y37540D03*
D24*
X239500Y80000D03*
X220500Y80000D03*
D25*
X82870Y125347D03*
X82870Y107694D03*
M02*
