G04 EAGLE Gerber RS-274X export*
G75*
%MOMM*%
%FSLAX34Y34*%
%LPD*%
%INSilkscreen Top*%
%IPPOS*%
%AMOC8*
5,1,8,0,0,1.08239X$1,22.5*%
G01*
%ADD10C,0.152400*%
%ADD11C,0.200000*%
%ADD12C,0.127000*%
%ADD13C,0.101600*%
%ADD14R,0.250000X0.250000*%
%ADD15C,0.250000*%
%ADD16C,0.076200*%
%ADD17C,0.254000*%
%ADD18R,0.300000X2.100000*%


D10*
X260000Y230000D02*
X260000Y0D01*
X220000Y0D02*
X220000Y90000D01*
X180000Y90000D01*
X180000Y0D01*
X220000Y0D01*
D11*
X88550Y185300D02*
X88552Y185363D01*
X88558Y185425D01*
X88568Y185487D01*
X88581Y185549D01*
X88599Y185609D01*
X88620Y185668D01*
X88645Y185726D01*
X88674Y185782D01*
X88706Y185836D01*
X88741Y185888D01*
X88779Y185937D01*
X88821Y185985D01*
X88865Y186029D01*
X88913Y186071D01*
X88962Y186109D01*
X89014Y186144D01*
X89068Y186176D01*
X89124Y186205D01*
X89182Y186230D01*
X89241Y186251D01*
X89301Y186269D01*
X89363Y186282D01*
X89425Y186292D01*
X89487Y186298D01*
X89550Y186300D01*
X89613Y186298D01*
X89675Y186292D01*
X89737Y186282D01*
X89799Y186269D01*
X89859Y186251D01*
X89918Y186230D01*
X89976Y186205D01*
X90032Y186176D01*
X90086Y186144D01*
X90138Y186109D01*
X90187Y186071D01*
X90235Y186029D01*
X90279Y185985D01*
X90321Y185937D01*
X90359Y185888D01*
X90394Y185836D01*
X90426Y185782D01*
X90455Y185726D01*
X90480Y185668D01*
X90501Y185609D01*
X90519Y185549D01*
X90532Y185487D01*
X90542Y185425D01*
X90548Y185363D01*
X90550Y185300D01*
X90548Y185237D01*
X90542Y185175D01*
X90532Y185113D01*
X90519Y185051D01*
X90501Y184991D01*
X90480Y184932D01*
X90455Y184874D01*
X90426Y184818D01*
X90394Y184764D01*
X90359Y184712D01*
X90321Y184663D01*
X90279Y184615D01*
X90235Y184571D01*
X90187Y184529D01*
X90138Y184491D01*
X90086Y184456D01*
X90032Y184424D01*
X89976Y184395D01*
X89918Y184370D01*
X89859Y184349D01*
X89799Y184331D01*
X89737Y184318D01*
X89675Y184308D01*
X89613Y184302D01*
X89550Y184300D01*
X89487Y184302D01*
X89425Y184308D01*
X89363Y184318D01*
X89301Y184331D01*
X89241Y184349D01*
X89182Y184370D01*
X89124Y184395D01*
X89068Y184424D01*
X89014Y184456D01*
X88962Y184491D01*
X88913Y184529D01*
X88865Y184571D01*
X88821Y184615D01*
X88779Y184663D01*
X88741Y184712D01*
X88706Y184764D01*
X88674Y184818D01*
X88645Y184874D01*
X88620Y184932D01*
X88599Y184991D01*
X88581Y185051D01*
X88568Y185113D01*
X88558Y185175D01*
X88552Y185237D01*
X88550Y185300D01*
D12*
X99300Y189850D02*
X129300Y189850D01*
X129300Y165750D02*
X99300Y165750D01*
D13*
X110468Y203654D02*
X110468Y212092D01*
X110468Y203654D02*
X110470Y203541D01*
X110476Y203428D01*
X110486Y203315D01*
X110500Y203202D01*
X110517Y203090D01*
X110539Y202979D01*
X110564Y202869D01*
X110594Y202759D01*
X110627Y202651D01*
X110664Y202544D01*
X110704Y202438D01*
X110749Y202334D01*
X110797Y202231D01*
X110848Y202130D01*
X110903Y202031D01*
X110961Y201934D01*
X111023Y201839D01*
X111088Y201746D01*
X111156Y201656D01*
X111227Y201568D01*
X111302Y201482D01*
X111379Y201399D01*
X111459Y201319D01*
X111542Y201242D01*
X111628Y201167D01*
X111716Y201096D01*
X111806Y201028D01*
X111899Y200963D01*
X111994Y200901D01*
X112091Y200843D01*
X112190Y200788D01*
X112291Y200737D01*
X112394Y200689D01*
X112498Y200644D01*
X112604Y200604D01*
X112711Y200567D01*
X112819Y200534D01*
X112929Y200504D01*
X113039Y200479D01*
X113150Y200457D01*
X113262Y200440D01*
X113375Y200426D01*
X113488Y200416D01*
X113601Y200410D01*
X113714Y200408D01*
X113827Y200410D01*
X113940Y200416D01*
X114053Y200426D01*
X114166Y200440D01*
X114278Y200457D01*
X114389Y200479D01*
X114499Y200504D01*
X114609Y200534D01*
X114717Y200567D01*
X114824Y200604D01*
X114930Y200644D01*
X115034Y200689D01*
X115137Y200737D01*
X115238Y200788D01*
X115337Y200843D01*
X115434Y200901D01*
X115529Y200963D01*
X115622Y201028D01*
X115712Y201096D01*
X115800Y201167D01*
X115886Y201242D01*
X115969Y201319D01*
X116049Y201399D01*
X116126Y201482D01*
X116201Y201568D01*
X116272Y201656D01*
X116340Y201746D01*
X116405Y201839D01*
X116467Y201934D01*
X116525Y202031D01*
X116580Y202130D01*
X116631Y202231D01*
X116679Y202334D01*
X116724Y202438D01*
X116764Y202544D01*
X116801Y202651D01*
X116834Y202759D01*
X116864Y202869D01*
X116889Y202979D01*
X116911Y203090D01*
X116928Y203202D01*
X116942Y203315D01*
X116952Y203428D01*
X116958Y203541D01*
X116960Y203654D01*
X116959Y203654D02*
X116959Y212092D01*
X122279Y209496D02*
X125525Y212092D01*
X125525Y200408D01*
X128770Y200408D02*
X122279Y200408D01*
D10*
X300500Y215900D02*
X305580Y215900D01*
X300500Y215900D02*
X300500Y210820D01*
X325900Y210820D02*
X325900Y215900D01*
X320820Y215900D01*
X325900Y195580D02*
X325900Y190500D01*
X320820Y190500D01*
X305580Y190500D02*
X300500Y190500D01*
X300500Y195580D01*
D12*
X298950Y167985D02*
X295775Y167985D01*
X298950Y167985D02*
X299061Y167983D01*
X299171Y167977D01*
X299282Y167968D01*
X299392Y167954D01*
X299501Y167937D01*
X299610Y167916D01*
X299718Y167891D01*
X299825Y167862D01*
X299931Y167830D01*
X300036Y167794D01*
X300139Y167754D01*
X300241Y167711D01*
X300342Y167664D01*
X300441Y167613D01*
X300538Y167560D01*
X300632Y167503D01*
X300725Y167442D01*
X300816Y167379D01*
X300905Y167312D01*
X300991Y167242D01*
X301074Y167169D01*
X301156Y167094D01*
X301234Y167016D01*
X301309Y166934D01*
X301382Y166851D01*
X301452Y166765D01*
X301519Y166676D01*
X301582Y166585D01*
X301643Y166492D01*
X301700Y166397D01*
X301753Y166301D01*
X301804Y166202D01*
X301851Y166101D01*
X301894Y165999D01*
X301934Y165896D01*
X301970Y165791D01*
X302002Y165685D01*
X302031Y165578D01*
X302056Y165470D01*
X302077Y165361D01*
X302094Y165252D01*
X302108Y165142D01*
X302117Y165031D01*
X302123Y164921D01*
X302125Y164810D01*
X302123Y164699D01*
X302117Y164589D01*
X302108Y164478D01*
X302094Y164368D01*
X302077Y164259D01*
X302056Y164150D01*
X302031Y164042D01*
X302002Y163935D01*
X301970Y163829D01*
X301934Y163724D01*
X301894Y163621D01*
X301851Y163519D01*
X301804Y163418D01*
X301753Y163319D01*
X301700Y163222D01*
X301643Y163128D01*
X301582Y163035D01*
X301519Y162944D01*
X301452Y162855D01*
X301382Y162769D01*
X301309Y162686D01*
X301234Y162604D01*
X301156Y162526D01*
X301074Y162451D01*
X300991Y162378D01*
X300905Y162308D01*
X300816Y162241D01*
X300725Y162178D01*
X300632Y162117D01*
X300538Y162060D01*
X300441Y162007D01*
X300342Y161956D01*
X300241Y161909D01*
X300139Y161866D01*
X300036Y161826D01*
X299931Y161790D01*
X299825Y161758D01*
X299718Y161729D01*
X299610Y161704D01*
X299501Y161683D01*
X299392Y161666D01*
X299282Y161652D01*
X299171Y161643D01*
X299061Y161637D01*
X298950Y161635D01*
X295775Y161635D01*
X295775Y173065D01*
X298950Y173065D01*
X299050Y173063D01*
X299149Y173057D01*
X299249Y173047D01*
X299347Y173034D01*
X299446Y173016D01*
X299543Y172995D01*
X299639Y172970D01*
X299735Y172941D01*
X299829Y172908D01*
X299922Y172872D01*
X300013Y172832D01*
X300103Y172788D01*
X300191Y172741D01*
X300277Y172691D01*
X300361Y172637D01*
X300443Y172580D01*
X300522Y172520D01*
X300600Y172456D01*
X300674Y172390D01*
X300746Y172321D01*
X300815Y172249D01*
X300881Y172175D01*
X300945Y172097D01*
X301005Y172018D01*
X301062Y171936D01*
X301116Y171852D01*
X301166Y171766D01*
X301213Y171678D01*
X301257Y171588D01*
X301297Y171497D01*
X301333Y171404D01*
X301366Y171310D01*
X301395Y171214D01*
X301420Y171118D01*
X301441Y171021D01*
X301459Y170922D01*
X301472Y170824D01*
X301482Y170724D01*
X301488Y170625D01*
X301490Y170525D01*
X301488Y170425D01*
X301482Y170326D01*
X301472Y170226D01*
X301459Y170128D01*
X301441Y170029D01*
X301420Y169932D01*
X301395Y169836D01*
X301366Y169740D01*
X301333Y169646D01*
X301297Y169553D01*
X301257Y169462D01*
X301213Y169372D01*
X301166Y169284D01*
X301116Y169198D01*
X301062Y169114D01*
X301005Y169032D01*
X300945Y168953D01*
X300881Y168875D01*
X300815Y168801D01*
X300746Y168729D01*
X300674Y168660D01*
X300600Y168594D01*
X300522Y168530D01*
X300443Y168470D01*
X300361Y168413D01*
X300277Y168359D01*
X300191Y168309D01*
X300103Y168262D01*
X300013Y168218D01*
X299922Y168178D01*
X299829Y168142D01*
X299735Y168109D01*
X299639Y168080D01*
X299543Y168055D01*
X299446Y168034D01*
X299347Y168016D01*
X299249Y168003D01*
X299149Y167993D01*
X299050Y167987D01*
X298950Y167985D01*
X305999Y161635D02*
X309809Y173065D01*
X313619Y161635D01*
X312666Y164493D02*
X306951Y164493D01*
X320477Y161635D02*
X320477Y173065D01*
X317302Y173065D02*
X323652Y173065D01*
X327970Y170525D02*
X331145Y173065D01*
X331145Y161635D01*
X327970Y161635D02*
X334320Y161635D01*
X339527Y166080D02*
X347147Y166080D01*
X343337Y162270D02*
X343337Y169890D01*
D10*
X411300Y215900D02*
X416380Y215900D01*
X411300Y215900D02*
X411300Y210820D01*
X436700Y210820D02*
X436700Y215900D01*
X431620Y215900D01*
X436700Y195580D02*
X436700Y190500D01*
X431620Y190500D01*
X416380Y190500D02*
X411300Y190500D01*
X411300Y195580D01*
D12*
X407700Y173065D02*
X404525Y173065D01*
X407700Y173065D02*
X407811Y173063D01*
X407921Y173057D01*
X408032Y173048D01*
X408142Y173034D01*
X408251Y173017D01*
X408360Y172996D01*
X408468Y172971D01*
X408575Y172942D01*
X408681Y172910D01*
X408786Y172874D01*
X408889Y172834D01*
X408991Y172791D01*
X409092Y172744D01*
X409191Y172693D01*
X409288Y172640D01*
X409382Y172583D01*
X409475Y172522D01*
X409566Y172459D01*
X409655Y172392D01*
X409741Y172322D01*
X409824Y172249D01*
X409906Y172174D01*
X409984Y172096D01*
X410059Y172014D01*
X410132Y171931D01*
X410202Y171845D01*
X410269Y171756D01*
X410332Y171665D01*
X410393Y171572D01*
X410450Y171477D01*
X410503Y171381D01*
X410554Y171282D01*
X410601Y171181D01*
X410644Y171079D01*
X410684Y170976D01*
X410720Y170871D01*
X410752Y170765D01*
X410781Y170658D01*
X410806Y170550D01*
X410827Y170441D01*
X410844Y170332D01*
X410858Y170222D01*
X410867Y170111D01*
X410873Y170001D01*
X410875Y169890D01*
X410873Y169779D01*
X410867Y169669D01*
X410858Y169558D01*
X410844Y169448D01*
X410827Y169339D01*
X410806Y169230D01*
X410781Y169122D01*
X410752Y169015D01*
X410720Y168909D01*
X410684Y168804D01*
X410644Y168701D01*
X410601Y168599D01*
X410554Y168498D01*
X410503Y168399D01*
X410450Y168302D01*
X410393Y168208D01*
X410332Y168115D01*
X410269Y168024D01*
X410202Y167935D01*
X410132Y167849D01*
X410059Y167766D01*
X409984Y167684D01*
X409906Y167606D01*
X409824Y167531D01*
X409741Y167458D01*
X409655Y167388D01*
X409566Y167321D01*
X409475Y167258D01*
X409382Y167197D01*
X409288Y167140D01*
X409191Y167087D01*
X409092Y167036D01*
X408991Y166989D01*
X408889Y166946D01*
X408786Y166906D01*
X408681Y166870D01*
X408575Y166838D01*
X408468Y166809D01*
X408360Y166784D01*
X408251Y166763D01*
X408142Y166746D01*
X408032Y166732D01*
X407921Y166723D01*
X407811Y166717D01*
X407700Y166715D01*
X404525Y166715D01*
X404525Y178145D01*
X407700Y178145D01*
X407800Y178143D01*
X407899Y178137D01*
X407999Y178127D01*
X408097Y178114D01*
X408196Y178096D01*
X408293Y178075D01*
X408389Y178050D01*
X408485Y178021D01*
X408579Y177988D01*
X408672Y177952D01*
X408763Y177912D01*
X408853Y177868D01*
X408941Y177821D01*
X409027Y177771D01*
X409111Y177717D01*
X409193Y177660D01*
X409272Y177600D01*
X409350Y177536D01*
X409424Y177470D01*
X409496Y177401D01*
X409565Y177329D01*
X409631Y177255D01*
X409695Y177177D01*
X409755Y177098D01*
X409812Y177016D01*
X409866Y176932D01*
X409916Y176846D01*
X409963Y176758D01*
X410007Y176668D01*
X410047Y176577D01*
X410083Y176484D01*
X410116Y176390D01*
X410145Y176294D01*
X410170Y176198D01*
X410191Y176101D01*
X410209Y176002D01*
X410222Y175904D01*
X410232Y175804D01*
X410238Y175705D01*
X410240Y175605D01*
X410238Y175505D01*
X410232Y175406D01*
X410222Y175306D01*
X410209Y175208D01*
X410191Y175109D01*
X410170Y175012D01*
X410145Y174916D01*
X410116Y174820D01*
X410083Y174726D01*
X410047Y174633D01*
X410007Y174542D01*
X409963Y174452D01*
X409916Y174364D01*
X409866Y174278D01*
X409812Y174194D01*
X409755Y174112D01*
X409695Y174033D01*
X409631Y173955D01*
X409565Y173881D01*
X409496Y173809D01*
X409424Y173740D01*
X409350Y173674D01*
X409272Y173610D01*
X409193Y173550D01*
X409111Y173493D01*
X409027Y173439D01*
X408941Y173389D01*
X408853Y173342D01*
X408763Y173298D01*
X408672Y173258D01*
X408579Y173222D01*
X408485Y173189D01*
X408389Y173160D01*
X408293Y173135D01*
X408196Y173114D01*
X408097Y173096D01*
X407999Y173083D01*
X407899Y173073D01*
X407800Y173067D01*
X407700Y173065D01*
X414749Y166715D02*
X418559Y178145D01*
X422369Y166715D01*
X421416Y169573D02*
X415701Y169573D01*
X429227Y166715D02*
X429227Y178145D01*
X426052Y178145D02*
X432402Y178145D01*
X436720Y175605D02*
X439895Y178145D01*
X439895Y166715D01*
X436720Y166715D02*
X443070Y166715D01*
X448277Y171160D02*
X455897Y171160D01*
D13*
X145542Y171958D02*
X133858Y171958D01*
X133858Y175204D01*
X133860Y175317D01*
X133866Y175430D01*
X133876Y175543D01*
X133890Y175656D01*
X133907Y175768D01*
X133929Y175879D01*
X133954Y175989D01*
X133984Y176099D01*
X134017Y176207D01*
X134054Y176314D01*
X134094Y176420D01*
X134139Y176524D01*
X134187Y176627D01*
X134238Y176728D01*
X134293Y176827D01*
X134351Y176924D01*
X134413Y177019D01*
X134478Y177112D01*
X134546Y177202D01*
X134617Y177290D01*
X134692Y177376D01*
X134769Y177459D01*
X134849Y177539D01*
X134932Y177616D01*
X135018Y177691D01*
X135106Y177762D01*
X135196Y177830D01*
X135289Y177895D01*
X135384Y177957D01*
X135481Y178015D01*
X135580Y178070D01*
X135681Y178121D01*
X135784Y178169D01*
X135888Y178214D01*
X135994Y178254D01*
X136101Y178291D01*
X136209Y178324D01*
X136319Y178354D01*
X136429Y178379D01*
X136540Y178401D01*
X136652Y178418D01*
X136765Y178432D01*
X136878Y178442D01*
X136991Y178448D01*
X137104Y178450D01*
X137217Y178448D01*
X137330Y178442D01*
X137443Y178432D01*
X137556Y178418D01*
X137668Y178401D01*
X137779Y178379D01*
X137889Y178354D01*
X137999Y178324D01*
X138107Y178291D01*
X138214Y178254D01*
X138320Y178214D01*
X138424Y178169D01*
X138527Y178121D01*
X138628Y178070D01*
X138727Y178015D01*
X138824Y177957D01*
X138919Y177895D01*
X139012Y177830D01*
X139102Y177762D01*
X139190Y177691D01*
X139276Y177616D01*
X139359Y177539D01*
X139439Y177459D01*
X139516Y177376D01*
X139591Y177290D01*
X139662Y177202D01*
X139730Y177112D01*
X139795Y177019D01*
X139857Y176924D01*
X139915Y176827D01*
X139970Y176728D01*
X140021Y176627D01*
X140069Y176524D01*
X140114Y176420D01*
X140154Y176314D01*
X140191Y176207D01*
X140224Y176099D01*
X140254Y175989D01*
X140279Y175879D01*
X140301Y175768D01*
X140318Y175656D01*
X140332Y175543D01*
X140342Y175430D01*
X140348Y175317D01*
X140350Y175204D01*
X140349Y175204D02*
X140349Y171958D01*
X140349Y175853D02*
X145542Y178449D01*
X145542Y183865D02*
X133858Y183865D01*
X133858Y187110D01*
X133860Y187223D01*
X133866Y187336D01*
X133876Y187449D01*
X133890Y187562D01*
X133907Y187674D01*
X133929Y187785D01*
X133954Y187895D01*
X133984Y188005D01*
X134017Y188113D01*
X134054Y188220D01*
X134094Y188326D01*
X134139Y188430D01*
X134187Y188533D01*
X134238Y188634D01*
X134293Y188733D01*
X134351Y188830D01*
X134413Y188925D01*
X134478Y189018D01*
X134546Y189108D01*
X134617Y189196D01*
X134692Y189282D01*
X134769Y189365D01*
X134849Y189445D01*
X134932Y189522D01*
X135018Y189597D01*
X135106Y189668D01*
X135196Y189736D01*
X135289Y189801D01*
X135384Y189863D01*
X135481Y189921D01*
X135580Y189976D01*
X135681Y190027D01*
X135784Y190075D01*
X135888Y190120D01*
X135994Y190160D01*
X136101Y190197D01*
X136209Y190230D01*
X136319Y190260D01*
X136429Y190285D01*
X136540Y190307D01*
X136652Y190324D01*
X136765Y190338D01*
X136878Y190348D01*
X136991Y190354D01*
X137104Y190356D01*
X137217Y190354D01*
X137330Y190348D01*
X137443Y190338D01*
X137556Y190324D01*
X137668Y190307D01*
X137779Y190285D01*
X137889Y190260D01*
X137999Y190230D01*
X138107Y190197D01*
X138214Y190160D01*
X138320Y190120D01*
X138424Y190075D01*
X138527Y190027D01*
X138628Y189976D01*
X138727Y189921D01*
X138824Y189863D01*
X138919Y189801D01*
X139012Y189736D01*
X139102Y189668D01*
X139190Y189597D01*
X139276Y189522D01*
X139359Y189445D01*
X139439Y189365D01*
X139516Y189282D01*
X139591Y189196D01*
X139662Y189108D01*
X139730Y189018D01*
X139795Y188925D01*
X139857Y188830D01*
X139915Y188733D01*
X139970Y188634D01*
X140021Y188533D01*
X140069Y188430D01*
X140114Y188326D01*
X140154Y188220D01*
X140191Y188113D01*
X140224Y188005D01*
X140254Y187895D01*
X140279Y187785D01*
X140301Y187674D01*
X140318Y187562D01*
X140332Y187449D01*
X140342Y187336D01*
X140348Y187223D01*
X140350Y187110D01*
X140349Y187110D02*
X140349Y183865D01*
X145542Y195199D02*
X133858Y195199D01*
X133858Y198444D01*
X133860Y198557D01*
X133866Y198670D01*
X133876Y198783D01*
X133890Y198896D01*
X133907Y199008D01*
X133929Y199119D01*
X133954Y199229D01*
X133984Y199339D01*
X134017Y199447D01*
X134054Y199554D01*
X134094Y199660D01*
X134139Y199764D01*
X134187Y199867D01*
X134238Y199968D01*
X134293Y200067D01*
X134351Y200164D01*
X134413Y200259D01*
X134478Y200352D01*
X134546Y200442D01*
X134617Y200530D01*
X134692Y200616D01*
X134769Y200699D01*
X134849Y200779D01*
X134932Y200856D01*
X135018Y200931D01*
X135106Y201002D01*
X135196Y201070D01*
X135289Y201135D01*
X135384Y201197D01*
X135481Y201255D01*
X135580Y201310D01*
X135681Y201361D01*
X135784Y201409D01*
X135888Y201454D01*
X135994Y201494D01*
X136101Y201531D01*
X136209Y201564D01*
X136319Y201594D01*
X136429Y201619D01*
X136540Y201641D01*
X136652Y201658D01*
X136765Y201672D01*
X136878Y201682D01*
X136991Y201688D01*
X137104Y201690D01*
X137217Y201688D01*
X137330Y201682D01*
X137443Y201672D01*
X137556Y201658D01*
X137668Y201641D01*
X137779Y201619D01*
X137889Y201594D01*
X137999Y201564D01*
X138107Y201531D01*
X138214Y201494D01*
X138320Y201454D01*
X138424Y201409D01*
X138527Y201361D01*
X138628Y201310D01*
X138727Y201255D01*
X138824Y201197D01*
X138919Y201135D01*
X139012Y201070D01*
X139102Y201002D01*
X139190Y200931D01*
X139276Y200856D01*
X139359Y200779D01*
X139439Y200699D01*
X139516Y200616D01*
X139591Y200530D01*
X139662Y200442D01*
X139730Y200352D01*
X139795Y200259D01*
X139857Y200164D01*
X139915Y200067D01*
X139970Y199968D01*
X140021Y199867D01*
X140069Y199764D01*
X140114Y199660D01*
X140154Y199554D01*
X140191Y199447D01*
X140224Y199339D01*
X140254Y199229D01*
X140279Y199119D01*
X140301Y199008D01*
X140318Y198896D01*
X140332Y198783D01*
X140342Y198670D01*
X140348Y198557D01*
X140350Y198444D01*
X140349Y198444D02*
X140349Y195199D01*
X140349Y199094D02*
X145542Y201690D01*
X142296Y206555D02*
X137104Y206555D01*
X136991Y206557D01*
X136878Y206563D01*
X136765Y206573D01*
X136652Y206587D01*
X136540Y206604D01*
X136429Y206626D01*
X136319Y206651D01*
X136209Y206681D01*
X136101Y206714D01*
X135994Y206751D01*
X135888Y206791D01*
X135784Y206836D01*
X135681Y206884D01*
X135580Y206935D01*
X135481Y206990D01*
X135384Y207048D01*
X135289Y207110D01*
X135196Y207175D01*
X135106Y207243D01*
X135018Y207314D01*
X134932Y207389D01*
X134849Y207466D01*
X134769Y207546D01*
X134692Y207629D01*
X134617Y207715D01*
X134546Y207803D01*
X134478Y207893D01*
X134413Y207986D01*
X134351Y208081D01*
X134293Y208178D01*
X134238Y208277D01*
X134187Y208378D01*
X134139Y208481D01*
X134094Y208585D01*
X134054Y208691D01*
X134017Y208798D01*
X133984Y208906D01*
X133954Y209016D01*
X133929Y209126D01*
X133907Y209237D01*
X133890Y209349D01*
X133876Y209462D01*
X133866Y209575D01*
X133860Y209688D01*
X133858Y209801D01*
X133860Y209914D01*
X133866Y210027D01*
X133876Y210140D01*
X133890Y210253D01*
X133907Y210365D01*
X133929Y210476D01*
X133954Y210586D01*
X133984Y210696D01*
X134017Y210804D01*
X134054Y210911D01*
X134094Y211017D01*
X134139Y211121D01*
X134187Y211224D01*
X134238Y211325D01*
X134293Y211424D01*
X134351Y211521D01*
X134413Y211616D01*
X134478Y211709D01*
X134546Y211799D01*
X134617Y211887D01*
X134692Y211973D01*
X134769Y212056D01*
X134849Y212136D01*
X134932Y212213D01*
X135018Y212288D01*
X135106Y212359D01*
X135196Y212427D01*
X135289Y212492D01*
X135384Y212554D01*
X135481Y212612D01*
X135580Y212667D01*
X135681Y212718D01*
X135784Y212766D01*
X135888Y212811D01*
X135994Y212851D01*
X136101Y212888D01*
X136209Y212921D01*
X136319Y212951D01*
X136429Y212976D01*
X136540Y212998D01*
X136652Y213015D01*
X136765Y213029D01*
X136878Y213039D01*
X136991Y213045D01*
X137104Y213047D01*
X137104Y213046D02*
X142296Y213046D01*
X142296Y213047D02*
X142409Y213045D01*
X142522Y213039D01*
X142635Y213029D01*
X142748Y213015D01*
X142860Y212998D01*
X142971Y212976D01*
X143081Y212951D01*
X143191Y212921D01*
X143299Y212888D01*
X143406Y212851D01*
X143512Y212811D01*
X143616Y212766D01*
X143719Y212718D01*
X143820Y212667D01*
X143919Y212612D01*
X144016Y212554D01*
X144111Y212492D01*
X144204Y212427D01*
X144294Y212359D01*
X144382Y212288D01*
X144468Y212213D01*
X144551Y212136D01*
X144631Y212056D01*
X144708Y211973D01*
X144783Y211887D01*
X144854Y211799D01*
X144922Y211709D01*
X144987Y211616D01*
X145049Y211521D01*
X145107Y211424D01*
X145162Y211325D01*
X145213Y211224D01*
X145261Y211121D01*
X145306Y211017D01*
X145346Y210911D01*
X145383Y210804D01*
X145416Y210696D01*
X145446Y210586D01*
X145471Y210476D01*
X145493Y210365D01*
X145510Y210253D01*
X145524Y210140D01*
X145534Y210027D01*
X145540Y209914D01*
X145542Y209801D01*
X145540Y209688D01*
X145534Y209575D01*
X145524Y209462D01*
X145510Y209349D01*
X145493Y209237D01*
X145471Y209126D01*
X145446Y209016D01*
X145416Y208906D01*
X145383Y208798D01*
X145346Y208691D01*
X145306Y208585D01*
X145261Y208481D01*
X145213Y208378D01*
X145162Y208277D01*
X145107Y208178D01*
X145049Y208081D01*
X144987Y207986D01*
X144922Y207893D01*
X144854Y207803D01*
X144783Y207715D01*
X144708Y207629D01*
X144631Y207546D01*
X144551Y207466D01*
X144468Y207389D01*
X144382Y207314D01*
X144294Y207243D01*
X144204Y207175D01*
X144111Y207110D01*
X144016Y207048D01*
X143919Y206990D01*
X143820Y206935D01*
X143719Y206884D01*
X143616Y206836D01*
X143512Y206791D01*
X143406Y206751D01*
X143299Y206714D01*
X143191Y206681D01*
X143081Y206651D01*
X142971Y206626D01*
X142860Y206604D01*
X142748Y206587D01*
X142635Y206573D01*
X142522Y206563D01*
X142409Y206557D01*
X142296Y206555D01*
X139051Y222910D02*
X139051Y224857D01*
X145542Y224857D01*
X145542Y220963D01*
X145540Y220864D01*
X145534Y220764D01*
X145525Y220665D01*
X145512Y220567D01*
X145495Y220469D01*
X145474Y220371D01*
X145449Y220275D01*
X145421Y220180D01*
X145389Y220086D01*
X145354Y219993D01*
X145315Y219901D01*
X145272Y219811D01*
X145227Y219723D01*
X145177Y219636D01*
X145125Y219552D01*
X145069Y219469D01*
X145011Y219389D01*
X144949Y219311D01*
X144884Y219236D01*
X144816Y219163D01*
X144746Y219093D01*
X144673Y219025D01*
X144598Y218960D01*
X144520Y218898D01*
X144440Y218840D01*
X144357Y218784D01*
X144273Y218732D01*
X144186Y218682D01*
X144098Y218637D01*
X144008Y218594D01*
X143916Y218555D01*
X143823Y218520D01*
X143729Y218488D01*
X143634Y218460D01*
X143538Y218435D01*
X143440Y218414D01*
X143342Y218397D01*
X143244Y218384D01*
X143145Y218375D01*
X143045Y218369D01*
X142946Y218367D01*
X142946Y218366D02*
X136454Y218366D01*
X136355Y218368D01*
X136255Y218374D01*
X136156Y218383D01*
X136058Y218396D01*
X135960Y218414D01*
X135862Y218434D01*
X135766Y218459D01*
X135670Y218487D01*
X135576Y218519D01*
X135483Y218554D01*
X135392Y218593D01*
X135302Y218636D01*
X135213Y218681D01*
X135127Y218731D01*
X135042Y218783D01*
X134960Y218839D01*
X134880Y218898D01*
X134802Y218959D01*
X134726Y219024D01*
X134653Y219092D01*
X134583Y219162D01*
X134515Y219235D01*
X134450Y219311D01*
X134389Y219389D01*
X134330Y219469D01*
X134274Y219551D01*
X134222Y219636D01*
X134173Y219722D01*
X134127Y219811D01*
X134084Y219901D01*
X134045Y219992D01*
X134010Y220085D01*
X133978Y220179D01*
X133950Y220275D01*
X133925Y220371D01*
X133905Y220469D01*
X133887Y220567D01*
X133874Y220665D01*
X133865Y220764D01*
X133859Y220863D01*
X133857Y220963D01*
X133858Y220963D02*
X133858Y224857D01*
D10*
X13180Y210680D02*
X8100Y210680D01*
X8100Y205600D01*
X33500Y205600D02*
X33500Y210680D01*
X28420Y210680D01*
X33500Y190360D02*
X33500Y185280D01*
X28420Y185280D01*
X13180Y185280D02*
X8100Y185280D01*
X8100Y190360D01*
D12*
X38105Y205785D02*
X41915Y205785D01*
X42015Y205787D01*
X42114Y205793D01*
X42214Y205803D01*
X42312Y205816D01*
X42411Y205834D01*
X42508Y205855D01*
X42604Y205880D01*
X42700Y205909D01*
X42794Y205942D01*
X42887Y205978D01*
X42978Y206018D01*
X43068Y206062D01*
X43156Y206109D01*
X43242Y206159D01*
X43326Y206213D01*
X43408Y206270D01*
X43487Y206330D01*
X43565Y206394D01*
X43639Y206460D01*
X43711Y206529D01*
X43780Y206601D01*
X43846Y206675D01*
X43910Y206753D01*
X43970Y206832D01*
X44027Y206914D01*
X44081Y206998D01*
X44131Y207084D01*
X44178Y207172D01*
X44222Y207262D01*
X44262Y207353D01*
X44298Y207446D01*
X44331Y207540D01*
X44360Y207636D01*
X44385Y207732D01*
X44406Y207829D01*
X44424Y207928D01*
X44437Y208026D01*
X44447Y208126D01*
X44453Y208225D01*
X44455Y208325D01*
X44455Y209595D01*
X44453Y209695D01*
X44447Y209794D01*
X44437Y209894D01*
X44424Y209992D01*
X44406Y210091D01*
X44385Y210188D01*
X44360Y210284D01*
X44331Y210380D01*
X44298Y210474D01*
X44262Y210567D01*
X44222Y210658D01*
X44178Y210748D01*
X44131Y210836D01*
X44081Y210922D01*
X44027Y211006D01*
X43970Y211088D01*
X43910Y211167D01*
X43846Y211245D01*
X43780Y211319D01*
X43711Y211391D01*
X43639Y211460D01*
X43565Y211526D01*
X43487Y211590D01*
X43408Y211650D01*
X43326Y211707D01*
X43242Y211761D01*
X43156Y211811D01*
X43068Y211858D01*
X42978Y211902D01*
X42887Y211942D01*
X42794Y211978D01*
X42700Y212011D01*
X42604Y212040D01*
X42508Y212065D01*
X42411Y212086D01*
X42312Y212104D01*
X42214Y212117D01*
X42114Y212127D01*
X42015Y212133D01*
X41915Y212135D01*
X38105Y212135D01*
X38105Y217215D01*
X44455Y217215D01*
X48900Y217215D02*
X52710Y205785D01*
X56520Y217215D01*
X61092Y210230D02*
X68712Y210230D01*
X74808Y205785D02*
X74808Y217215D01*
X73538Y205785D02*
X76078Y205785D01*
X76078Y217215D02*
X73538Y217215D01*
X81158Y217215D02*
X81158Y205785D01*
X87508Y205785D02*
X81158Y217215D01*
X87508Y217215D02*
X87508Y205785D01*
D10*
X13500Y177830D02*
X8420Y177830D01*
X8420Y172750D01*
X33820Y172750D02*
X33820Y177830D01*
X28740Y177830D01*
X33820Y157510D02*
X33820Y152430D01*
X28740Y152430D01*
X13500Y152430D02*
X8420Y152430D01*
X8420Y157510D01*
D12*
X13500Y187355D02*
X15405Y187355D01*
X15405Y181005D01*
X11595Y181005D01*
X11495Y181007D01*
X11396Y181013D01*
X11296Y181023D01*
X11198Y181036D01*
X11099Y181054D01*
X11002Y181075D01*
X10906Y181100D01*
X10810Y181129D01*
X10716Y181162D01*
X10623Y181198D01*
X10532Y181238D01*
X10442Y181282D01*
X10354Y181329D01*
X10268Y181379D01*
X10184Y181433D01*
X10102Y181490D01*
X10023Y181550D01*
X9945Y181614D01*
X9871Y181680D01*
X9799Y181749D01*
X9730Y181821D01*
X9664Y181895D01*
X9600Y181973D01*
X9540Y182052D01*
X9483Y182134D01*
X9429Y182218D01*
X9379Y182304D01*
X9332Y182392D01*
X9288Y182482D01*
X9248Y182573D01*
X9212Y182666D01*
X9179Y182760D01*
X9150Y182856D01*
X9125Y182952D01*
X9104Y183049D01*
X9086Y183148D01*
X9073Y183246D01*
X9063Y183346D01*
X9057Y183445D01*
X9055Y183545D01*
X9055Y189895D01*
X9057Y189995D01*
X9063Y190094D01*
X9073Y190194D01*
X9086Y190292D01*
X9104Y190391D01*
X9125Y190488D01*
X9150Y190584D01*
X9179Y190680D01*
X9212Y190774D01*
X9248Y190867D01*
X9288Y190958D01*
X9332Y191048D01*
X9379Y191136D01*
X9429Y191222D01*
X9483Y191306D01*
X9540Y191388D01*
X9600Y191467D01*
X9664Y191545D01*
X9730Y191619D01*
X9799Y191691D01*
X9871Y191760D01*
X9945Y191826D01*
X10023Y191890D01*
X10102Y191950D01*
X10184Y192007D01*
X10268Y192061D01*
X10354Y192111D01*
X10442Y192158D01*
X10532Y192202D01*
X10623Y192242D01*
X10716Y192278D01*
X10810Y192311D01*
X10906Y192340D01*
X11002Y192365D01*
X11099Y192386D01*
X11198Y192404D01*
X11296Y192417D01*
X11396Y192427D01*
X11495Y192433D01*
X11595Y192435D01*
X15405Y192435D01*
X21247Y192435D02*
X21247Y181005D01*
X27597Y181005D02*
X21247Y192435D01*
X27597Y192435D02*
X27597Y181005D01*
X33439Y181005D02*
X33439Y192435D01*
X36614Y192435D01*
X36725Y192433D01*
X36835Y192427D01*
X36946Y192418D01*
X37056Y192404D01*
X37165Y192387D01*
X37274Y192366D01*
X37382Y192341D01*
X37489Y192312D01*
X37595Y192280D01*
X37700Y192244D01*
X37803Y192204D01*
X37905Y192161D01*
X38006Y192114D01*
X38105Y192063D01*
X38202Y192010D01*
X38296Y191953D01*
X38389Y191892D01*
X38480Y191829D01*
X38569Y191762D01*
X38655Y191692D01*
X38738Y191619D01*
X38820Y191544D01*
X38898Y191466D01*
X38973Y191384D01*
X39046Y191301D01*
X39116Y191215D01*
X39183Y191126D01*
X39246Y191035D01*
X39307Y190942D01*
X39364Y190848D01*
X39417Y190751D01*
X39468Y190652D01*
X39515Y190551D01*
X39558Y190449D01*
X39598Y190346D01*
X39634Y190241D01*
X39666Y190135D01*
X39695Y190028D01*
X39720Y189920D01*
X39741Y189811D01*
X39758Y189702D01*
X39772Y189592D01*
X39781Y189481D01*
X39787Y189371D01*
X39789Y189260D01*
X39789Y184180D01*
X39787Y184069D01*
X39781Y183959D01*
X39772Y183848D01*
X39758Y183738D01*
X39741Y183629D01*
X39720Y183520D01*
X39695Y183412D01*
X39666Y183305D01*
X39634Y183199D01*
X39598Y183094D01*
X39558Y182991D01*
X39515Y182889D01*
X39468Y182788D01*
X39417Y182689D01*
X39364Y182592D01*
X39307Y182498D01*
X39246Y182405D01*
X39183Y182314D01*
X39116Y182225D01*
X39046Y182139D01*
X38973Y182056D01*
X38898Y181974D01*
X38820Y181896D01*
X38738Y181821D01*
X38655Y181748D01*
X38569Y181678D01*
X38480Y181611D01*
X38389Y181548D01*
X38296Y181487D01*
X38201Y181430D01*
X38105Y181377D01*
X38006Y181326D01*
X37905Y181279D01*
X37803Y181236D01*
X37700Y181196D01*
X37595Y181160D01*
X37489Y181128D01*
X37382Y181099D01*
X37274Y181074D01*
X37165Y181053D01*
X37056Y181036D01*
X36946Y181022D01*
X36835Y181013D01*
X36725Y181007D01*
X36614Y181005D01*
X33439Y181005D01*
X45377Y185450D02*
X52997Y185450D01*
X59093Y181005D02*
X59093Y192435D01*
X57823Y181005D02*
X60363Y181005D01*
X60363Y192435D02*
X57823Y192435D01*
X65443Y192435D02*
X65443Y181005D01*
X71793Y181005D02*
X65443Y192435D01*
X71793Y192435D02*
X71793Y181005D01*
D13*
X65081Y199288D02*
X62484Y199288D01*
X62385Y199290D01*
X62285Y199296D01*
X62186Y199305D01*
X62088Y199318D01*
X61990Y199335D01*
X61892Y199356D01*
X61796Y199381D01*
X61701Y199409D01*
X61607Y199441D01*
X61514Y199476D01*
X61422Y199515D01*
X61332Y199558D01*
X61244Y199603D01*
X61157Y199653D01*
X61073Y199705D01*
X60990Y199761D01*
X60910Y199819D01*
X60832Y199881D01*
X60757Y199946D01*
X60684Y200014D01*
X60614Y200084D01*
X60546Y200157D01*
X60481Y200232D01*
X60419Y200310D01*
X60361Y200390D01*
X60305Y200473D01*
X60253Y200557D01*
X60203Y200644D01*
X60158Y200732D01*
X60115Y200822D01*
X60076Y200914D01*
X60041Y201007D01*
X60009Y201101D01*
X59981Y201196D01*
X59956Y201292D01*
X59935Y201390D01*
X59918Y201488D01*
X59905Y201586D01*
X59896Y201685D01*
X59890Y201785D01*
X59888Y201884D01*
X59888Y208376D01*
X59890Y208475D01*
X59896Y208575D01*
X59905Y208674D01*
X59918Y208772D01*
X59935Y208870D01*
X59956Y208968D01*
X59981Y209064D01*
X60009Y209159D01*
X60041Y209253D01*
X60076Y209346D01*
X60115Y209438D01*
X60158Y209528D01*
X60203Y209616D01*
X60253Y209703D01*
X60305Y209787D01*
X60361Y209870D01*
X60419Y209950D01*
X60481Y210028D01*
X60546Y210103D01*
X60614Y210176D01*
X60684Y210246D01*
X60757Y210314D01*
X60832Y210379D01*
X60910Y210441D01*
X60990Y210499D01*
X61073Y210555D01*
X61157Y210607D01*
X61244Y210657D01*
X61332Y210702D01*
X61422Y210745D01*
X61514Y210784D01*
X61606Y210819D01*
X61701Y210851D01*
X61796Y210879D01*
X61892Y210904D01*
X61990Y210925D01*
X62088Y210942D01*
X62186Y210955D01*
X62285Y210964D01*
X62385Y210970D01*
X62484Y210972D01*
X65081Y210972D01*
X69446Y208376D02*
X72692Y210972D01*
X72692Y199288D01*
X75937Y199288D02*
X69446Y199288D01*
X111054Y152908D02*
X113651Y152908D01*
X111054Y152908D02*
X110955Y152910D01*
X110855Y152916D01*
X110756Y152925D01*
X110658Y152938D01*
X110560Y152955D01*
X110462Y152976D01*
X110366Y153001D01*
X110271Y153029D01*
X110177Y153061D01*
X110084Y153096D01*
X109992Y153135D01*
X109902Y153178D01*
X109814Y153223D01*
X109727Y153273D01*
X109643Y153325D01*
X109560Y153381D01*
X109480Y153439D01*
X109402Y153501D01*
X109327Y153566D01*
X109254Y153634D01*
X109184Y153704D01*
X109116Y153777D01*
X109051Y153852D01*
X108989Y153930D01*
X108931Y154010D01*
X108875Y154093D01*
X108823Y154177D01*
X108773Y154264D01*
X108728Y154352D01*
X108685Y154442D01*
X108646Y154534D01*
X108611Y154627D01*
X108579Y154721D01*
X108551Y154816D01*
X108526Y154912D01*
X108505Y155010D01*
X108488Y155108D01*
X108475Y155206D01*
X108466Y155305D01*
X108460Y155405D01*
X108458Y155504D01*
X108458Y161996D01*
X108460Y162095D01*
X108466Y162195D01*
X108475Y162294D01*
X108488Y162392D01*
X108505Y162490D01*
X108526Y162588D01*
X108551Y162684D01*
X108579Y162779D01*
X108611Y162873D01*
X108646Y162966D01*
X108685Y163058D01*
X108728Y163148D01*
X108773Y163236D01*
X108823Y163323D01*
X108875Y163407D01*
X108931Y163490D01*
X108989Y163570D01*
X109051Y163648D01*
X109116Y163723D01*
X109184Y163796D01*
X109254Y163866D01*
X109327Y163934D01*
X109402Y163999D01*
X109480Y164061D01*
X109560Y164119D01*
X109643Y164175D01*
X109727Y164227D01*
X109814Y164277D01*
X109902Y164322D01*
X109992Y164365D01*
X110084Y164404D01*
X110176Y164439D01*
X110271Y164471D01*
X110366Y164499D01*
X110462Y164524D01*
X110560Y164545D01*
X110658Y164562D01*
X110756Y164575D01*
X110855Y164584D01*
X110955Y164590D01*
X111054Y164592D01*
X113651Y164592D01*
X121586Y164592D02*
X121693Y164590D01*
X121799Y164584D01*
X121905Y164574D01*
X122011Y164561D01*
X122117Y164543D01*
X122221Y164522D01*
X122325Y164497D01*
X122428Y164468D01*
X122529Y164436D01*
X122629Y164399D01*
X122728Y164359D01*
X122826Y164316D01*
X122922Y164269D01*
X123016Y164218D01*
X123108Y164164D01*
X123198Y164107D01*
X123286Y164047D01*
X123371Y163983D01*
X123454Y163916D01*
X123535Y163846D01*
X123613Y163774D01*
X123689Y163698D01*
X123761Y163620D01*
X123831Y163539D01*
X123898Y163456D01*
X123962Y163371D01*
X124022Y163283D01*
X124079Y163193D01*
X124133Y163101D01*
X124184Y163007D01*
X124231Y162911D01*
X124274Y162813D01*
X124314Y162714D01*
X124351Y162614D01*
X124383Y162513D01*
X124412Y162410D01*
X124437Y162306D01*
X124458Y162202D01*
X124476Y162096D01*
X124489Y161990D01*
X124499Y161884D01*
X124505Y161778D01*
X124507Y161671D01*
X121586Y164592D02*
X121465Y164590D01*
X121344Y164584D01*
X121224Y164574D01*
X121103Y164561D01*
X120984Y164543D01*
X120864Y164522D01*
X120746Y164497D01*
X120629Y164468D01*
X120512Y164435D01*
X120397Y164399D01*
X120283Y164358D01*
X120170Y164315D01*
X120058Y164267D01*
X119949Y164216D01*
X119841Y164161D01*
X119734Y164103D01*
X119630Y164042D01*
X119528Y163977D01*
X119428Y163909D01*
X119330Y163838D01*
X119234Y163764D01*
X119141Y163687D01*
X119051Y163606D01*
X118963Y163523D01*
X118878Y163437D01*
X118795Y163348D01*
X118716Y163257D01*
X118639Y163163D01*
X118566Y163067D01*
X118496Y162969D01*
X118429Y162868D01*
X118365Y162765D01*
X118305Y162660D01*
X118248Y162553D01*
X118194Y162445D01*
X118144Y162335D01*
X118098Y162223D01*
X118055Y162110D01*
X118016Y161995D01*
X123534Y159399D02*
X123613Y159476D01*
X123689Y159557D01*
X123762Y159640D01*
X123832Y159725D01*
X123899Y159813D01*
X123963Y159903D01*
X124023Y159995D01*
X124080Y160090D01*
X124134Y160186D01*
X124185Y160284D01*
X124232Y160384D01*
X124276Y160486D01*
X124316Y160589D01*
X124352Y160693D01*
X124384Y160799D01*
X124413Y160905D01*
X124438Y161013D01*
X124460Y161121D01*
X124477Y161231D01*
X124491Y161340D01*
X124500Y161450D01*
X124506Y161561D01*
X124508Y161671D01*
X123534Y159399D02*
X118016Y152908D01*
X124507Y152908D01*
D14*
X166350Y152400D03*
D13*
X152908Y159258D02*
X152908Y170942D01*
X152908Y159258D02*
X158101Y159258D01*
X162814Y159258D02*
X168007Y159258D01*
X162814Y159258D02*
X162814Y170942D01*
X168007Y170942D01*
X166709Y165749D02*
X162814Y165749D01*
X172697Y170942D02*
X172697Y159258D01*
X172697Y170942D02*
X175943Y170942D01*
X176056Y170940D01*
X176169Y170934D01*
X176282Y170924D01*
X176395Y170910D01*
X176507Y170893D01*
X176618Y170871D01*
X176728Y170846D01*
X176838Y170816D01*
X176946Y170783D01*
X177053Y170746D01*
X177159Y170706D01*
X177263Y170661D01*
X177366Y170613D01*
X177467Y170562D01*
X177566Y170507D01*
X177663Y170449D01*
X177758Y170387D01*
X177851Y170322D01*
X177941Y170254D01*
X178029Y170183D01*
X178115Y170108D01*
X178198Y170031D01*
X178278Y169951D01*
X178355Y169868D01*
X178430Y169782D01*
X178501Y169694D01*
X178569Y169604D01*
X178634Y169511D01*
X178696Y169416D01*
X178754Y169319D01*
X178809Y169220D01*
X178860Y169119D01*
X178908Y169016D01*
X178953Y168912D01*
X178993Y168806D01*
X179030Y168699D01*
X179063Y168591D01*
X179093Y168481D01*
X179118Y168371D01*
X179140Y168260D01*
X179157Y168148D01*
X179171Y168035D01*
X179181Y167922D01*
X179187Y167809D01*
X179189Y167696D01*
X179189Y162504D01*
X179187Y162391D01*
X179181Y162278D01*
X179171Y162165D01*
X179157Y162052D01*
X179140Y161940D01*
X179118Y161829D01*
X179093Y161719D01*
X179063Y161609D01*
X179030Y161501D01*
X178993Y161394D01*
X178953Y161288D01*
X178908Y161184D01*
X178860Y161081D01*
X178809Y160980D01*
X178754Y160881D01*
X178696Y160784D01*
X178634Y160689D01*
X178569Y160596D01*
X178501Y160506D01*
X178430Y160418D01*
X178355Y160332D01*
X178278Y160249D01*
X178198Y160169D01*
X178115Y160092D01*
X178029Y160017D01*
X177941Y159946D01*
X177851Y159878D01*
X177758Y159813D01*
X177663Y159751D01*
X177566Y159693D01*
X177467Y159638D01*
X177366Y159587D01*
X177263Y159539D01*
X177159Y159494D01*
X177053Y159454D01*
X176946Y159417D01*
X176838Y159384D01*
X176728Y159354D01*
X176618Y159329D01*
X176507Y159307D01*
X176395Y159290D01*
X176282Y159276D01*
X176169Y159266D01*
X176056Y159260D01*
X175943Y159258D01*
X172697Y159258D01*
X184508Y168346D02*
X187754Y170942D01*
X187754Y159258D01*
X190999Y159258D02*
X184508Y159258D01*
X171958Y145542D02*
X171958Y133858D01*
X171958Y145542D02*
X175204Y145542D01*
X175317Y145540D01*
X175430Y145534D01*
X175543Y145524D01*
X175656Y145510D01*
X175768Y145493D01*
X175879Y145471D01*
X175989Y145446D01*
X176099Y145416D01*
X176207Y145383D01*
X176314Y145346D01*
X176420Y145306D01*
X176524Y145261D01*
X176627Y145213D01*
X176728Y145162D01*
X176827Y145107D01*
X176924Y145049D01*
X177019Y144987D01*
X177112Y144922D01*
X177202Y144854D01*
X177290Y144783D01*
X177376Y144708D01*
X177459Y144631D01*
X177539Y144551D01*
X177616Y144468D01*
X177691Y144382D01*
X177762Y144294D01*
X177830Y144204D01*
X177895Y144111D01*
X177957Y144016D01*
X178015Y143919D01*
X178070Y143820D01*
X178121Y143719D01*
X178169Y143616D01*
X178214Y143512D01*
X178254Y143406D01*
X178291Y143299D01*
X178324Y143191D01*
X178354Y143081D01*
X178379Y142971D01*
X178401Y142860D01*
X178418Y142748D01*
X178432Y142635D01*
X178442Y142522D01*
X178448Y142409D01*
X178450Y142296D01*
X178448Y142183D01*
X178442Y142070D01*
X178432Y141957D01*
X178418Y141844D01*
X178401Y141732D01*
X178379Y141621D01*
X178354Y141511D01*
X178324Y141401D01*
X178291Y141293D01*
X178254Y141186D01*
X178214Y141080D01*
X178169Y140976D01*
X178121Y140873D01*
X178070Y140772D01*
X178015Y140673D01*
X177957Y140576D01*
X177895Y140481D01*
X177830Y140388D01*
X177762Y140298D01*
X177691Y140210D01*
X177616Y140124D01*
X177539Y140041D01*
X177459Y139961D01*
X177376Y139884D01*
X177290Y139809D01*
X177202Y139738D01*
X177112Y139670D01*
X177019Y139605D01*
X176924Y139543D01*
X176827Y139485D01*
X176728Y139430D01*
X176627Y139379D01*
X176524Y139331D01*
X176420Y139286D01*
X176314Y139246D01*
X176207Y139209D01*
X176099Y139176D01*
X175989Y139146D01*
X175879Y139121D01*
X175768Y139099D01*
X175656Y139082D01*
X175543Y139068D01*
X175430Y139058D01*
X175317Y139052D01*
X175204Y139050D01*
X175204Y139051D02*
X171958Y139051D01*
X175853Y139051D02*
X178449Y133858D01*
X183865Y133858D02*
X183865Y145542D01*
X187110Y145542D01*
X187223Y145540D01*
X187336Y145534D01*
X187449Y145524D01*
X187562Y145510D01*
X187674Y145493D01*
X187785Y145471D01*
X187895Y145446D01*
X188005Y145416D01*
X188113Y145383D01*
X188220Y145346D01*
X188326Y145306D01*
X188430Y145261D01*
X188533Y145213D01*
X188634Y145162D01*
X188733Y145107D01*
X188830Y145049D01*
X188925Y144987D01*
X189018Y144922D01*
X189108Y144854D01*
X189196Y144783D01*
X189282Y144708D01*
X189365Y144631D01*
X189445Y144551D01*
X189522Y144468D01*
X189597Y144382D01*
X189668Y144294D01*
X189736Y144204D01*
X189801Y144111D01*
X189863Y144016D01*
X189921Y143919D01*
X189976Y143820D01*
X190027Y143719D01*
X190075Y143616D01*
X190120Y143512D01*
X190160Y143406D01*
X190197Y143299D01*
X190230Y143191D01*
X190260Y143081D01*
X190285Y142971D01*
X190307Y142860D01*
X190324Y142748D01*
X190338Y142635D01*
X190348Y142522D01*
X190354Y142409D01*
X190356Y142296D01*
X190354Y142183D01*
X190348Y142070D01*
X190338Y141957D01*
X190324Y141844D01*
X190307Y141732D01*
X190285Y141621D01*
X190260Y141511D01*
X190230Y141401D01*
X190197Y141293D01*
X190160Y141186D01*
X190120Y141080D01*
X190075Y140976D01*
X190027Y140873D01*
X189976Y140772D01*
X189921Y140673D01*
X189863Y140576D01*
X189801Y140481D01*
X189736Y140388D01*
X189668Y140298D01*
X189597Y140210D01*
X189522Y140124D01*
X189445Y140041D01*
X189365Y139961D01*
X189282Y139884D01*
X189196Y139809D01*
X189108Y139738D01*
X189018Y139670D01*
X188925Y139605D01*
X188830Y139543D01*
X188733Y139485D01*
X188634Y139430D01*
X188533Y139379D01*
X188430Y139331D01*
X188326Y139286D01*
X188220Y139246D01*
X188113Y139209D01*
X188005Y139176D01*
X187895Y139146D01*
X187785Y139121D01*
X187674Y139099D01*
X187562Y139082D01*
X187449Y139068D01*
X187336Y139058D01*
X187223Y139052D01*
X187110Y139050D01*
X187110Y139051D02*
X183865Y139051D01*
X195199Y133858D02*
X195199Y145542D01*
X198444Y145542D01*
X198557Y145540D01*
X198670Y145534D01*
X198783Y145524D01*
X198896Y145510D01*
X199008Y145493D01*
X199119Y145471D01*
X199229Y145446D01*
X199339Y145416D01*
X199447Y145383D01*
X199554Y145346D01*
X199660Y145306D01*
X199764Y145261D01*
X199867Y145213D01*
X199968Y145162D01*
X200067Y145107D01*
X200164Y145049D01*
X200259Y144987D01*
X200352Y144922D01*
X200442Y144854D01*
X200530Y144783D01*
X200616Y144708D01*
X200699Y144631D01*
X200779Y144551D01*
X200856Y144468D01*
X200931Y144382D01*
X201002Y144294D01*
X201070Y144204D01*
X201135Y144111D01*
X201197Y144016D01*
X201255Y143919D01*
X201310Y143820D01*
X201361Y143719D01*
X201409Y143616D01*
X201454Y143512D01*
X201494Y143406D01*
X201531Y143299D01*
X201564Y143191D01*
X201594Y143081D01*
X201619Y142971D01*
X201641Y142860D01*
X201658Y142748D01*
X201672Y142635D01*
X201682Y142522D01*
X201688Y142409D01*
X201690Y142296D01*
X201688Y142183D01*
X201682Y142070D01*
X201672Y141957D01*
X201658Y141844D01*
X201641Y141732D01*
X201619Y141621D01*
X201594Y141511D01*
X201564Y141401D01*
X201531Y141293D01*
X201494Y141186D01*
X201454Y141080D01*
X201409Y140976D01*
X201361Y140873D01*
X201310Y140772D01*
X201255Y140673D01*
X201197Y140576D01*
X201135Y140481D01*
X201070Y140388D01*
X201002Y140298D01*
X200931Y140210D01*
X200856Y140124D01*
X200779Y140041D01*
X200699Y139961D01*
X200616Y139884D01*
X200530Y139809D01*
X200442Y139738D01*
X200352Y139670D01*
X200259Y139605D01*
X200164Y139543D01*
X200067Y139485D01*
X199968Y139430D01*
X199867Y139379D01*
X199764Y139331D01*
X199660Y139286D01*
X199554Y139246D01*
X199447Y139209D01*
X199339Y139176D01*
X199229Y139146D01*
X199119Y139121D01*
X199008Y139099D01*
X198896Y139082D01*
X198783Y139068D01*
X198670Y139058D01*
X198557Y139052D01*
X198444Y139050D01*
X198444Y139051D02*
X195199Y139051D01*
X199094Y139051D02*
X201690Y133858D01*
X206555Y137104D02*
X206555Y142296D01*
X206557Y142409D01*
X206563Y142522D01*
X206573Y142635D01*
X206587Y142748D01*
X206604Y142860D01*
X206626Y142971D01*
X206651Y143081D01*
X206681Y143191D01*
X206714Y143299D01*
X206751Y143406D01*
X206791Y143512D01*
X206836Y143616D01*
X206884Y143719D01*
X206935Y143820D01*
X206990Y143919D01*
X207048Y144016D01*
X207110Y144111D01*
X207175Y144204D01*
X207243Y144294D01*
X207314Y144382D01*
X207389Y144468D01*
X207466Y144551D01*
X207546Y144631D01*
X207629Y144708D01*
X207715Y144783D01*
X207803Y144854D01*
X207893Y144922D01*
X207986Y144987D01*
X208081Y145049D01*
X208178Y145107D01*
X208277Y145162D01*
X208378Y145213D01*
X208481Y145261D01*
X208585Y145306D01*
X208691Y145346D01*
X208798Y145383D01*
X208906Y145416D01*
X209016Y145446D01*
X209126Y145471D01*
X209237Y145493D01*
X209349Y145510D01*
X209462Y145524D01*
X209575Y145534D01*
X209688Y145540D01*
X209801Y145542D01*
X209914Y145540D01*
X210027Y145534D01*
X210140Y145524D01*
X210253Y145510D01*
X210365Y145493D01*
X210476Y145471D01*
X210586Y145446D01*
X210696Y145416D01*
X210804Y145383D01*
X210911Y145346D01*
X211017Y145306D01*
X211121Y145261D01*
X211224Y145213D01*
X211325Y145162D01*
X211424Y145107D01*
X211521Y145049D01*
X211616Y144987D01*
X211709Y144922D01*
X211799Y144854D01*
X211887Y144783D01*
X211973Y144708D01*
X212056Y144631D01*
X212136Y144551D01*
X212213Y144468D01*
X212288Y144382D01*
X212359Y144294D01*
X212427Y144204D01*
X212492Y144111D01*
X212554Y144016D01*
X212612Y143919D01*
X212667Y143820D01*
X212718Y143719D01*
X212766Y143616D01*
X212811Y143512D01*
X212851Y143406D01*
X212888Y143299D01*
X212921Y143191D01*
X212951Y143081D01*
X212976Y142971D01*
X212998Y142860D01*
X213015Y142748D01*
X213029Y142635D01*
X213039Y142522D01*
X213045Y142409D01*
X213047Y142296D01*
X213046Y142296D02*
X213046Y137104D01*
X213047Y137104D02*
X213045Y136991D01*
X213039Y136878D01*
X213029Y136765D01*
X213015Y136652D01*
X212998Y136540D01*
X212976Y136429D01*
X212951Y136319D01*
X212921Y136209D01*
X212888Y136101D01*
X212851Y135994D01*
X212811Y135888D01*
X212766Y135784D01*
X212718Y135681D01*
X212667Y135580D01*
X212612Y135481D01*
X212554Y135384D01*
X212492Y135289D01*
X212427Y135196D01*
X212359Y135106D01*
X212288Y135018D01*
X212213Y134932D01*
X212136Y134849D01*
X212056Y134769D01*
X211973Y134692D01*
X211887Y134617D01*
X211799Y134546D01*
X211709Y134478D01*
X211616Y134413D01*
X211521Y134351D01*
X211424Y134293D01*
X211325Y134238D01*
X211224Y134187D01*
X211121Y134139D01*
X211017Y134094D01*
X210911Y134054D01*
X210804Y134017D01*
X210696Y133984D01*
X210586Y133954D01*
X210476Y133929D01*
X210365Y133907D01*
X210253Y133890D01*
X210140Y133876D01*
X210027Y133866D01*
X209914Y133860D01*
X209801Y133858D01*
X209688Y133860D01*
X209575Y133866D01*
X209462Y133876D01*
X209349Y133890D01*
X209237Y133907D01*
X209126Y133929D01*
X209016Y133954D01*
X208906Y133984D01*
X208798Y134017D01*
X208691Y134054D01*
X208585Y134094D01*
X208481Y134139D01*
X208378Y134187D01*
X208277Y134238D01*
X208178Y134293D01*
X208081Y134351D01*
X207986Y134413D01*
X207893Y134478D01*
X207803Y134546D01*
X207715Y134617D01*
X207629Y134692D01*
X207546Y134769D01*
X207466Y134849D01*
X207389Y134932D01*
X207314Y135018D01*
X207243Y135106D01*
X207175Y135196D01*
X207110Y135289D01*
X207048Y135384D01*
X206990Y135481D01*
X206935Y135580D01*
X206884Y135681D01*
X206836Y135784D01*
X206791Y135888D01*
X206751Y135994D01*
X206714Y136101D01*
X206681Y136209D01*
X206651Y136319D01*
X206626Y136429D01*
X206604Y136540D01*
X206587Y136652D01*
X206573Y136765D01*
X206563Y136878D01*
X206557Y136991D01*
X206555Y137104D01*
X222910Y140349D02*
X224857Y140349D01*
X224857Y133858D01*
X220963Y133858D01*
X220864Y133860D01*
X220764Y133866D01*
X220665Y133875D01*
X220567Y133888D01*
X220469Y133905D01*
X220371Y133926D01*
X220275Y133951D01*
X220180Y133979D01*
X220086Y134011D01*
X219993Y134046D01*
X219901Y134085D01*
X219811Y134128D01*
X219723Y134173D01*
X219636Y134223D01*
X219552Y134275D01*
X219469Y134331D01*
X219389Y134389D01*
X219311Y134451D01*
X219236Y134516D01*
X219163Y134584D01*
X219093Y134654D01*
X219025Y134727D01*
X218960Y134802D01*
X218898Y134880D01*
X218840Y134960D01*
X218784Y135043D01*
X218732Y135127D01*
X218682Y135214D01*
X218637Y135302D01*
X218594Y135392D01*
X218555Y135484D01*
X218520Y135577D01*
X218488Y135671D01*
X218460Y135766D01*
X218435Y135862D01*
X218414Y135960D01*
X218397Y136058D01*
X218384Y136156D01*
X218375Y136255D01*
X218369Y136355D01*
X218367Y136454D01*
X218366Y136454D02*
X218366Y142946D01*
X218367Y142946D02*
X218369Y143045D01*
X218375Y143145D01*
X218384Y143244D01*
X218397Y143342D01*
X218414Y143440D01*
X218435Y143538D01*
X218460Y143634D01*
X218488Y143729D01*
X218520Y143823D01*
X218555Y143916D01*
X218594Y144008D01*
X218637Y144098D01*
X218682Y144186D01*
X218732Y144273D01*
X218784Y144357D01*
X218840Y144440D01*
X218898Y144520D01*
X218960Y144598D01*
X219025Y144673D01*
X219093Y144746D01*
X219163Y144816D01*
X219236Y144884D01*
X219311Y144949D01*
X219389Y145011D01*
X219469Y145069D01*
X219552Y145125D01*
X219636Y145177D01*
X219723Y145227D01*
X219811Y145272D01*
X219901Y145315D01*
X219993Y145354D01*
X220085Y145389D01*
X220180Y145421D01*
X220275Y145449D01*
X220371Y145474D01*
X220469Y145495D01*
X220567Y145512D01*
X220665Y145525D01*
X220764Y145534D01*
X220864Y145540D01*
X220963Y145542D01*
X224857Y145542D01*
X230177Y142946D02*
X233423Y145542D01*
X233423Y133858D01*
X236668Y133858D02*
X230177Y133858D01*
D15*
X94050Y128300D02*
X94052Y128370D01*
X94058Y128440D01*
X94068Y128509D01*
X94081Y128578D01*
X94099Y128646D01*
X94120Y128713D01*
X94145Y128778D01*
X94174Y128842D01*
X94206Y128905D01*
X94242Y128965D01*
X94281Y129023D01*
X94323Y129079D01*
X94368Y129133D01*
X94416Y129184D01*
X94467Y129232D01*
X94521Y129277D01*
X94577Y129319D01*
X94635Y129358D01*
X94695Y129394D01*
X94758Y129426D01*
X94822Y129455D01*
X94887Y129480D01*
X94954Y129501D01*
X95022Y129519D01*
X95091Y129532D01*
X95160Y129542D01*
X95230Y129548D01*
X95300Y129550D01*
X95370Y129548D01*
X95440Y129542D01*
X95509Y129532D01*
X95578Y129519D01*
X95646Y129501D01*
X95713Y129480D01*
X95778Y129455D01*
X95842Y129426D01*
X95905Y129394D01*
X95965Y129358D01*
X96023Y129319D01*
X96079Y129277D01*
X96133Y129232D01*
X96184Y129184D01*
X96232Y129133D01*
X96277Y129079D01*
X96319Y129023D01*
X96358Y128965D01*
X96394Y128905D01*
X96426Y128842D01*
X96455Y128778D01*
X96480Y128713D01*
X96501Y128646D01*
X96519Y128578D01*
X96532Y128509D01*
X96542Y128440D01*
X96548Y128370D01*
X96550Y128300D01*
X96548Y128230D01*
X96542Y128160D01*
X96532Y128091D01*
X96519Y128022D01*
X96501Y127954D01*
X96480Y127887D01*
X96455Y127822D01*
X96426Y127758D01*
X96394Y127695D01*
X96358Y127635D01*
X96319Y127577D01*
X96277Y127521D01*
X96232Y127467D01*
X96184Y127416D01*
X96133Y127368D01*
X96079Y127323D01*
X96023Y127281D01*
X95965Y127242D01*
X95905Y127206D01*
X95842Y127174D01*
X95778Y127145D01*
X95713Y127120D01*
X95646Y127099D01*
X95578Y127081D01*
X95509Y127068D01*
X95440Y127058D01*
X95370Y127052D01*
X95300Y127050D01*
X95230Y127052D01*
X95160Y127058D01*
X95091Y127068D01*
X95022Y127081D01*
X94954Y127099D01*
X94887Y127120D01*
X94822Y127145D01*
X94758Y127174D01*
X94695Y127206D01*
X94635Y127242D01*
X94577Y127281D01*
X94521Y127323D01*
X94467Y127368D01*
X94416Y127416D01*
X94368Y127467D01*
X94323Y127521D01*
X94281Y127577D01*
X94242Y127635D01*
X94206Y127695D01*
X94174Y127758D01*
X94145Y127822D01*
X94120Y127887D01*
X94099Y127954D01*
X94081Y128022D01*
X94068Y128091D01*
X94058Y128160D01*
X94052Y128230D01*
X94050Y128300D01*
D13*
X103992Y120142D02*
X103992Y108458D01*
X102694Y108458D02*
X105290Y108458D01*
X105290Y120142D02*
X102694Y120142D01*
X112454Y108458D02*
X115050Y108458D01*
X112454Y108458D02*
X112355Y108460D01*
X112255Y108466D01*
X112156Y108475D01*
X112058Y108488D01*
X111960Y108505D01*
X111862Y108526D01*
X111766Y108551D01*
X111671Y108579D01*
X111577Y108611D01*
X111484Y108646D01*
X111392Y108685D01*
X111302Y108728D01*
X111214Y108773D01*
X111127Y108823D01*
X111043Y108875D01*
X110960Y108931D01*
X110880Y108989D01*
X110802Y109051D01*
X110727Y109116D01*
X110654Y109184D01*
X110584Y109254D01*
X110516Y109327D01*
X110451Y109402D01*
X110389Y109480D01*
X110331Y109560D01*
X110275Y109643D01*
X110223Y109727D01*
X110173Y109814D01*
X110128Y109902D01*
X110085Y109992D01*
X110046Y110084D01*
X110011Y110177D01*
X109979Y110271D01*
X109951Y110366D01*
X109926Y110462D01*
X109905Y110560D01*
X109888Y110658D01*
X109875Y110756D01*
X109866Y110855D01*
X109860Y110955D01*
X109858Y111054D01*
X109857Y111054D02*
X109857Y117546D01*
X109858Y117546D02*
X109860Y117645D01*
X109866Y117745D01*
X109875Y117844D01*
X109888Y117942D01*
X109905Y118040D01*
X109926Y118138D01*
X109951Y118234D01*
X109979Y118329D01*
X110011Y118423D01*
X110046Y118516D01*
X110085Y118608D01*
X110128Y118698D01*
X110173Y118786D01*
X110223Y118873D01*
X110275Y118957D01*
X110331Y119040D01*
X110389Y119120D01*
X110451Y119198D01*
X110516Y119273D01*
X110584Y119346D01*
X110654Y119416D01*
X110727Y119484D01*
X110802Y119549D01*
X110880Y119611D01*
X110960Y119669D01*
X111043Y119725D01*
X111127Y119777D01*
X111214Y119827D01*
X111302Y119872D01*
X111392Y119915D01*
X111484Y119954D01*
X111576Y119989D01*
X111671Y120021D01*
X111766Y120049D01*
X111862Y120074D01*
X111960Y120095D01*
X112058Y120112D01*
X112156Y120125D01*
X112255Y120134D01*
X112355Y120140D01*
X112454Y120142D01*
X115050Y120142D01*
X119415Y117546D02*
X122661Y120142D01*
X122661Y108458D01*
X125906Y108458D02*
X119415Y108458D01*
X163322Y108016D02*
X163322Y105419D01*
X163320Y105320D01*
X163314Y105220D01*
X163305Y105121D01*
X163292Y105023D01*
X163275Y104925D01*
X163254Y104827D01*
X163229Y104731D01*
X163201Y104636D01*
X163169Y104542D01*
X163134Y104449D01*
X163095Y104357D01*
X163052Y104267D01*
X163007Y104179D01*
X162957Y104092D01*
X162905Y104008D01*
X162849Y103925D01*
X162791Y103845D01*
X162729Y103767D01*
X162664Y103692D01*
X162596Y103619D01*
X162526Y103549D01*
X162453Y103481D01*
X162378Y103416D01*
X162300Y103354D01*
X162220Y103296D01*
X162137Y103240D01*
X162053Y103188D01*
X161966Y103138D01*
X161878Y103093D01*
X161788Y103050D01*
X161696Y103011D01*
X161603Y102976D01*
X161509Y102944D01*
X161414Y102916D01*
X161318Y102891D01*
X161220Y102870D01*
X161122Y102853D01*
X161024Y102840D01*
X160925Y102831D01*
X160825Y102825D01*
X160726Y102823D01*
X154234Y102823D01*
X154234Y102822D02*
X154135Y102824D01*
X154035Y102830D01*
X153936Y102839D01*
X153838Y102852D01*
X153740Y102870D01*
X153642Y102890D01*
X153546Y102915D01*
X153450Y102943D01*
X153356Y102975D01*
X153263Y103010D01*
X153172Y103049D01*
X153082Y103092D01*
X152993Y103137D01*
X152907Y103187D01*
X152822Y103239D01*
X152740Y103295D01*
X152660Y103354D01*
X152582Y103415D01*
X152506Y103480D01*
X152433Y103548D01*
X152363Y103618D01*
X152295Y103691D01*
X152230Y103767D01*
X152169Y103845D01*
X152110Y103925D01*
X152054Y104007D01*
X152002Y104092D01*
X151953Y104178D01*
X151907Y104267D01*
X151864Y104357D01*
X151825Y104448D01*
X151790Y104541D01*
X151758Y104635D01*
X151730Y104731D01*
X151705Y104827D01*
X151685Y104925D01*
X151667Y105023D01*
X151654Y105121D01*
X151645Y105220D01*
X151639Y105319D01*
X151637Y105419D01*
X151638Y105419D02*
X151638Y108016D01*
X163322Y112381D02*
X163322Y115626D01*
X163320Y115739D01*
X163314Y115852D01*
X163304Y115965D01*
X163290Y116078D01*
X163273Y116190D01*
X163251Y116301D01*
X163226Y116411D01*
X163196Y116521D01*
X163163Y116629D01*
X163126Y116736D01*
X163086Y116842D01*
X163041Y116946D01*
X162993Y117049D01*
X162942Y117150D01*
X162887Y117249D01*
X162829Y117346D01*
X162767Y117441D01*
X162702Y117534D01*
X162634Y117624D01*
X162563Y117712D01*
X162488Y117798D01*
X162411Y117881D01*
X162331Y117961D01*
X162248Y118038D01*
X162162Y118113D01*
X162074Y118184D01*
X161984Y118252D01*
X161891Y118317D01*
X161796Y118379D01*
X161699Y118437D01*
X161600Y118492D01*
X161499Y118543D01*
X161396Y118591D01*
X161292Y118636D01*
X161186Y118676D01*
X161079Y118713D01*
X160971Y118746D01*
X160861Y118776D01*
X160751Y118801D01*
X160640Y118823D01*
X160528Y118840D01*
X160415Y118854D01*
X160302Y118864D01*
X160189Y118870D01*
X160076Y118872D01*
X159963Y118870D01*
X159850Y118864D01*
X159737Y118854D01*
X159624Y118840D01*
X159512Y118823D01*
X159401Y118801D01*
X159291Y118776D01*
X159181Y118746D01*
X159073Y118713D01*
X158966Y118676D01*
X158860Y118636D01*
X158756Y118591D01*
X158653Y118543D01*
X158552Y118492D01*
X158453Y118437D01*
X158356Y118379D01*
X158261Y118317D01*
X158168Y118252D01*
X158078Y118184D01*
X157990Y118113D01*
X157904Y118038D01*
X157821Y117961D01*
X157741Y117881D01*
X157664Y117798D01*
X157589Y117712D01*
X157518Y117624D01*
X157450Y117534D01*
X157385Y117441D01*
X157323Y117346D01*
X157265Y117249D01*
X157210Y117150D01*
X157159Y117049D01*
X157111Y116946D01*
X157066Y116842D01*
X157026Y116736D01*
X156989Y116629D01*
X156956Y116521D01*
X156926Y116411D01*
X156901Y116301D01*
X156879Y116190D01*
X156862Y116078D01*
X156848Y115965D01*
X156838Y115852D01*
X156832Y115739D01*
X156830Y115626D01*
X151638Y116276D02*
X151638Y112381D01*
X151638Y116276D02*
X151640Y116377D01*
X151646Y116477D01*
X151656Y116577D01*
X151669Y116677D01*
X151687Y116776D01*
X151708Y116875D01*
X151733Y116972D01*
X151762Y117069D01*
X151795Y117164D01*
X151831Y117258D01*
X151871Y117350D01*
X151914Y117441D01*
X151961Y117530D01*
X152011Y117617D01*
X152065Y117703D01*
X152122Y117786D01*
X152182Y117866D01*
X152245Y117945D01*
X152312Y118021D01*
X152381Y118094D01*
X152453Y118164D01*
X152527Y118232D01*
X152604Y118297D01*
X152684Y118358D01*
X152766Y118417D01*
X152850Y118472D01*
X152936Y118524D01*
X153024Y118573D01*
X153114Y118618D01*
X153206Y118660D01*
X153299Y118698D01*
X153394Y118732D01*
X153489Y118763D01*
X153586Y118790D01*
X153684Y118813D01*
X153783Y118833D01*
X153883Y118848D01*
X153983Y118860D01*
X154083Y118868D01*
X154184Y118872D01*
X154284Y118872D01*
X154385Y118868D01*
X154485Y118860D01*
X154585Y118848D01*
X154685Y118833D01*
X154784Y118813D01*
X154882Y118790D01*
X154979Y118763D01*
X155074Y118732D01*
X155169Y118698D01*
X155262Y118660D01*
X155354Y118618D01*
X155444Y118573D01*
X155532Y118524D01*
X155618Y118472D01*
X155702Y118417D01*
X155784Y118358D01*
X155864Y118297D01*
X155941Y118232D01*
X156015Y118164D01*
X156087Y118094D01*
X156156Y118021D01*
X156223Y117945D01*
X156286Y117866D01*
X156346Y117786D01*
X156403Y117703D01*
X156457Y117617D01*
X156507Y117530D01*
X156554Y117441D01*
X156597Y117350D01*
X156637Y117258D01*
X156673Y117164D01*
X156706Y117069D01*
X156735Y116972D01*
X156760Y116875D01*
X156781Y116776D01*
X156799Y116677D01*
X156812Y116577D01*
X156822Y116477D01*
X156828Y116377D01*
X156830Y116276D01*
X156831Y116276D02*
X156831Y113679D01*
X76342Y112909D02*
X76342Y115506D01*
X76342Y112909D02*
X76340Y112810D01*
X76334Y112710D01*
X76325Y112611D01*
X76312Y112513D01*
X76295Y112415D01*
X76274Y112317D01*
X76249Y112221D01*
X76221Y112126D01*
X76189Y112032D01*
X76154Y111939D01*
X76115Y111847D01*
X76072Y111757D01*
X76027Y111669D01*
X75977Y111582D01*
X75925Y111498D01*
X75869Y111415D01*
X75811Y111335D01*
X75749Y111257D01*
X75684Y111182D01*
X75616Y111109D01*
X75546Y111039D01*
X75473Y110971D01*
X75398Y110906D01*
X75320Y110844D01*
X75240Y110786D01*
X75157Y110730D01*
X75073Y110678D01*
X74986Y110628D01*
X74898Y110583D01*
X74808Y110540D01*
X74716Y110501D01*
X74623Y110466D01*
X74529Y110434D01*
X74434Y110406D01*
X74338Y110381D01*
X74240Y110360D01*
X74142Y110343D01*
X74044Y110330D01*
X73945Y110321D01*
X73845Y110315D01*
X73746Y110313D01*
X67254Y110313D01*
X67254Y110312D02*
X67155Y110314D01*
X67055Y110320D01*
X66956Y110329D01*
X66858Y110342D01*
X66760Y110360D01*
X66662Y110380D01*
X66566Y110405D01*
X66470Y110433D01*
X66376Y110465D01*
X66283Y110500D01*
X66192Y110539D01*
X66102Y110582D01*
X66013Y110627D01*
X65927Y110677D01*
X65842Y110729D01*
X65760Y110785D01*
X65680Y110844D01*
X65602Y110905D01*
X65526Y110970D01*
X65453Y111038D01*
X65383Y111108D01*
X65315Y111181D01*
X65250Y111257D01*
X65189Y111335D01*
X65130Y111415D01*
X65074Y111497D01*
X65022Y111582D01*
X64973Y111668D01*
X64927Y111757D01*
X64884Y111847D01*
X64845Y111938D01*
X64810Y112031D01*
X64778Y112125D01*
X64750Y112221D01*
X64725Y112317D01*
X64705Y112415D01*
X64687Y112513D01*
X64674Y112611D01*
X64665Y112710D01*
X64659Y112809D01*
X64657Y112909D01*
X64658Y112909D02*
X64658Y115506D01*
X64658Y122467D02*
X73746Y119871D01*
X73746Y126362D01*
X71149Y124415D02*
X76342Y124415D01*
D16*
X120129Y79159D02*
X120129Y67221D01*
X124108Y72527D02*
X120129Y79159D01*
X124108Y72527D02*
X128088Y79159D01*
X128088Y67221D01*
X134395Y67221D02*
X134395Y79159D01*
X133069Y67221D02*
X135722Y67221D01*
X135722Y79159D02*
X133069Y79159D01*
X142847Y67221D02*
X145500Y67221D01*
X142847Y67221D02*
X142745Y67223D01*
X142644Y67229D01*
X142543Y67239D01*
X142442Y67252D01*
X142342Y67270D01*
X142243Y67291D01*
X142144Y67316D01*
X142047Y67345D01*
X141950Y67377D01*
X141855Y67413D01*
X141762Y67453D01*
X141670Y67496D01*
X141580Y67543D01*
X141491Y67594D01*
X141405Y67647D01*
X141321Y67704D01*
X141239Y67764D01*
X141159Y67827D01*
X141082Y67893D01*
X141007Y67962D01*
X140935Y68034D01*
X140866Y68109D01*
X140800Y68186D01*
X140737Y68266D01*
X140677Y68348D01*
X140620Y68432D01*
X140567Y68518D01*
X140516Y68607D01*
X140469Y68697D01*
X140426Y68789D01*
X140386Y68882D01*
X140350Y68977D01*
X140318Y69074D01*
X140289Y69171D01*
X140264Y69270D01*
X140243Y69369D01*
X140225Y69469D01*
X140212Y69570D01*
X140202Y69671D01*
X140196Y69772D01*
X140194Y69874D01*
X140194Y76506D01*
X140196Y76608D01*
X140202Y76709D01*
X140212Y76810D01*
X140225Y76911D01*
X140243Y77011D01*
X140264Y77110D01*
X140289Y77209D01*
X140318Y77306D01*
X140350Y77403D01*
X140386Y77498D01*
X140426Y77591D01*
X140469Y77683D01*
X140516Y77773D01*
X140567Y77862D01*
X140620Y77948D01*
X140677Y78032D01*
X140737Y78114D01*
X140800Y78194D01*
X140866Y78271D01*
X140935Y78346D01*
X141007Y78418D01*
X141082Y78487D01*
X141159Y78553D01*
X141239Y78616D01*
X141321Y78676D01*
X141405Y78733D01*
X141491Y78786D01*
X141580Y78837D01*
X141670Y78884D01*
X141762Y78927D01*
X141855Y78967D01*
X141950Y79003D01*
X142047Y79035D01*
X142144Y79064D01*
X142242Y79089D01*
X142342Y79110D01*
X142442Y79128D01*
X142543Y79141D01*
X142644Y79151D01*
X142745Y79157D01*
X142847Y79159D01*
X145500Y79159D01*
X149748Y70537D02*
X149750Y70651D01*
X149756Y70766D01*
X149766Y70880D01*
X149780Y70993D01*
X149797Y71107D01*
X149819Y71219D01*
X149844Y71331D01*
X149874Y71441D01*
X149907Y71551D01*
X149944Y71659D01*
X149984Y71766D01*
X150029Y71872D01*
X150076Y71976D01*
X150128Y72078D01*
X150183Y72178D01*
X150241Y72277D01*
X150303Y72373D01*
X150368Y72468D01*
X150436Y72559D01*
X150508Y72649D01*
X150582Y72736D01*
X150659Y72820D01*
X150740Y72902D01*
X150823Y72981D01*
X150908Y73057D01*
X150997Y73130D01*
X151087Y73199D01*
X151180Y73266D01*
X151276Y73329D01*
X151373Y73389D01*
X151473Y73446D01*
X151574Y73499D01*
X151677Y73549D01*
X151782Y73595D01*
X151888Y73638D01*
X151996Y73676D01*
X152105Y73711D01*
X152215Y73742D01*
X152326Y73770D01*
X152438Y73793D01*
X152551Y73813D01*
X152664Y73829D01*
X152778Y73841D01*
X152892Y73849D01*
X153007Y73853D01*
X153121Y73853D01*
X153236Y73849D01*
X153350Y73841D01*
X153464Y73829D01*
X153577Y73813D01*
X153690Y73793D01*
X153802Y73770D01*
X153913Y73742D01*
X154023Y73711D01*
X154132Y73676D01*
X154240Y73638D01*
X154346Y73595D01*
X154451Y73549D01*
X154554Y73499D01*
X154655Y73446D01*
X154755Y73389D01*
X154852Y73329D01*
X154948Y73266D01*
X155041Y73199D01*
X155131Y73130D01*
X155220Y73057D01*
X155305Y72981D01*
X155388Y72902D01*
X155469Y72820D01*
X155546Y72736D01*
X155620Y72649D01*
X155692Y72559D01*
X155760Y72468D01*
X155825Y72373D01*
X155887Y72277D01*
X155945Y72178D01*
X156000Y72078D01*
X156052Y71976D01*
X156099Y71872D01*
X156144Y71766D01*
X156184Y71659D01*
X156221Y71551D01*
X156254Y71441D01*
X156284Y71331D01*
X156309Y71219D01*
X156331Y71107D01*
X156348Y70993D01*
X156362Y70880D01*
X156372Y70766D01*
X156378Y70651D01*
X156380Y70537D01*
X156378Y70423D01*
X156372Y70308D01*
X156362Y70194D01*
X156348Y70081D01*
X156331Y69967D01*
X156309Y69855D01*
X156284Y69743D01*
X156254Y69633D01*
X156221Y69523D01*
X156184Y69415D01*
X156144Y69308D01*
X156099Y69202D01*
X156052Y69098D01*
X156000Y68996D01*
X155945Y68896D01*
X155887Y68797D01*
X155825Y68701D01*
X155760Y68606D01*
X155692Y68515D01*
X155620Y68425D01*
X155546Y68338D01*
X155469Y68254D01*
X155388Y68172D01*
X155305Y68093D01*
X155220Y68017D01*
X155131Y67944D01*
X155041Y67875D01*
X154948Y67808D01*
X154852Y67745D01*
X154755Y67685D01*
X154655Y67628D01*
X154554Y67575D01*
X154451Y67525D01*
X154346Y67479D01*
X154240Y67436D01*
X154132Y67398D01*
X154023Y67363D01*
X153913Y67332D01*
X153802Y67304D01*
X153690Y67281D01*
X153577Y67261D01*
X153464Y67245D01*
X153350Y67233D01*
X153236Y67225D01*
X153121Y67221D01*
X153007Y67221D01*
X152892Y67225D01*
X152778Y67233D01*
X152664Y67245D01*
X152551Y67261D01*
X152438Y67281D01*
X152326Y67304D01*
X152215Y67332D01*
X152105Y67363D01*
X151996Y67398D01*
X151888Y67436D01*
X151782Y67479D01*
X151677Y67525D01*
X151574Y67575D01*
X151473Y67628D01*
X151373Y67685D01*
X151276Y67745D01*
X151180Y67808D01*
X151087Y67875D01*
X150997Y67944D01*
X150908Y68017D01*
X150823Y68093D01*
X150740Y68172D01*
X150659Y68254D01*
X150582Y68338D01*
X150508Y68425D01*
X150436Y68515D01*
X150368Y68606D01*
X150303Y68701D01*
X150241Y68797D01*
X150183Y68896D01*
X150128Y68996D01*
X150076Y69098D01*
X150029Y69202D01*
X149984Y69308D01*
X149944Y69415D01*
X149907Y69523D01*
X149874Y69633D01*
X149844Y69743D01*
X149819Y69855D01*
X149797Y69967D01*
X149780Y70081D01*
X149766Y70194D01*
X149756Y70308D01*
X149750Y70423D01*
X149748Y70537D01*
X150411Y76506D02*
X150413Y76608D01*
X150419Y76709D01*
X150429Y76810D01*
X150442Y76911D01*
X150460Y77011D01*
X150481Y77110D01*
X150506Y77209D01*
X150535Y77306D01*
X150567Y77403D01*
X150603Y77498D01*
X150643Y77591D01*
X150686Y77683D01*
X150733Y77773D01*
X150784Y77862D01*
X150837Y77948D01*
X150894Y78032D01*
X150954Y78114D01*
X151017Y78194D01*
X151083Y78271D01*
X151152Y78346D01*
X151224Y78418D01*
X151299Y78487D01*
X151376Y78553D01*
X151456Y78616D01*
X151538Y78676D01*
X151622Y78733D01*
X151708Y78786D01*
X151797Y78837D01*
X151887Y78884D01*
X151979Y78927D01*
X152072Y78967D01*
X152167Y79003D01*
X152264Y79035D01*
X152361Y79064D01*
X152460Y79089D01*
X152559Y79110D01*
X152659Y79128D01*
X152760Y79141D01*
X152861Y79151D01*
X152962Y79157D01*
X153064Y79159D01*
X153166Y79157D01*
X153267Y79151D01*
X153368Y79141D01*
X153469Y79128D01*
X153569Y79110D01*
X153668Y79089D01*
X153767Y79064D01*
X153864Y79035D01*
X153961Y79003D01*
X154056Y78967D01*
X154149Y78927D01*
X154241Y78884D01*
X154331Y78837D01*
X154420Y78786D01*
X154506Y78733D01*
X154590Y78676D01*
X154672Y78616D01*
X154752Y78553D01*
X154829Y78487D01*
X154904Y78418D01*
X154976Y78346D01*
X155045Y78271D01*
X155111Y78194D01*
X155174Y78114D01*
X155234Y78032D01*
X155291Y77948D01*
X155344Y77862D01*
X155395Y77773D01*
X155442Y77683D01*
X155485Y77591D01*
X155525Y77498D01*
X155561Y77403D01*
X155593Y77306D01*
X155622Y77209D01*
X155647Y77110D01*
X155668Y77011D01*
X155686Y76911D01*
X155699Y76810D01*
X155709Y76709D01*
X155715Y76608D01*
X155717Y76506D01*
X155715Y76404D01*
X155709Y76303D01*
X155699Y76202D01*
X155686Y76101D01*
X155668Y76001D01*
X155647Y75902D01*
X155622Y75803D01*
X155593Y75706D01*
X155561Y75609D01*
X155525Y75514D01*
X155485Y75421D01*
X155442Y75329D01*
X155395Y75239D01*
X155344Y75150D01*
X155291Y75064D01*
X155234Y74980D01*
X155174Y74898D01*
X155111Y74818D01*
X155045Y74741D01*
X154976Y74666D01*
X154904Y74594D01*
X154829Y74525D01*
X154752Y74459D01*
X154672Y74396D01*
X154590Y74336D01*
X154506Y74279D01*
X154420Y74226D01*
X154331Y74175D01*
X154241Y74128D01*
X154149Y74085D01*
X154056Y74045D01*
X153961Y74009D01*
X153864Y73977D01*
X153767Y73948D01*
X153668Y73923D01*
X153569Y73902D01*
X153469Y73884D01*
X153368Y73871D01*
X153267Y73861D01*
X153166Y73855D01*
X153064Y73853D01*
X152962Y73855D01*
X152861Y73861D01*
X152760Y73871D01*
X152659Y73884D01*
X152559Y73902D01*
X152460Y73923D01*
X152361Y73948D01*
X152264Y73977D01*
X152167Y74009D01*
X152072Y74045D01*
X151979Y74085D01*
X151887Y74128D01*
X151797Y74175D01*
X151708Y74226D01*
X151622Y74279D01*
X151538Y74336D01*
X151456Y74396D01*
X151376Y74459D01*
X151299Y74525D01*
X151224Y74594D01*
X151152Y74666D01*
X151083Y74741D01*
X151017Y74818D01*
X150954Y74898D01*
X150894Y74980D01*
X150837Y75064D01*
X150784Y75150D01*
X150733Y75239D01*
X150686Y75329D01*
X150643Y75421D01*
X150603Y75514D01*
X150567Y75609D01*
X150535Y75706D01*
X150506Y75803D01*
X150481Y75902D01*
X150460Y76001D01*
X150442Y76101D01*
X150429Y76202D01*
X150419Y76303D01*
X150413Y76404D01*
X150411Y76506D01*
X164826Y79160D02*
X164933Y79158D01*
X165039Y79152D01*
X165145Y79143D01*
X165251Y79130D01*
X165356Y79113D01*
X165461Y79092D01*
X165564Y79067D01*
X165667Y79039D01*
X165769Y79007D01*
X165869Y78972D01*
X165968Y78933D01*
X166066Y78890D01*
X166162Y78844D01*
X166257Y78795D01*
X166349Y78742D01*
X166440Y78686D01*
X166528Y78627D01*
X166615Y78565D01*
X166699Y78499D01*
X166781Y78431D01*
X166860Y78360D01*
X166937Y78286D01*
X167011Y78209D01*
X167082Y78130D01*
X167150Y78048D01*
X167216Y77964D01*
X167278Y77877D01*
X167337Y77789D01*
X167393Y77698D01*
X167446Y77606D01*
X167495Y77511D01*
X167541Y77415D01*
X167584Y77317D01*
X167623Y77218D01*
X167658Y77118D01*
X167690Y77016D01*
X167718Y76913D01*
X167743Y76810D01*
X167764Y76705D01*
X167781Y76600D01*
X167794Y76494D01*
X167803Y76388D01*
X167809Y76282D01*
X167811Y76175D01*
X164826Y79159D02*
X164705Y79157D01*
X164585Y79151D01*
X164465Y79142D01*
X164345Y79129D01*
X164226Y79112D01*
X164107Y79091D01*
X163989Y79067D01*
X163872Y79038D01*
X163756Y79007D01*
X163640Y78971D01*
X163526Y78932D01*
X163414Y78889D01*
X163302Y78843D01*
X163192Y78794D01*
X163084Y78740D01*
X162978Y78684D01*
X162873Y78624D01*
X162770Y78561D01*
X162670Y78495D01*
X162571Y78426D01*
X162475Y78353D01*
X162381Y78278D01*
X162289Y78200D01*
X162200Y78118D01*
X162113Y78034D01*
X162030Y77948D01*
X161948Y77859D01*
X161870Y77767D01*
X161795Y77673D01*
X161723Y77576D01*
X161653Y77478D01*
X161587Y77377D01*
X161524Y77274D01*
X161465Y77169D01*
X161408Y77063D01*
X161355Y76954D01*
X161306Y76845D01*
X161260Y76733D01*
X161217Y76620D01*
X161179Y76506D01*
X166816Y73853D02*
X166896Y73933D01*
X166974Y74015D01*
X167048Y74099D01*
X167120Y74187D01*
X167188Y74277D01*
X167254Y74369D01*
X167316Y74463D01*
X167374Y74559D01*
X167429Y74658D01*
X167481Y74758D01*
X167529Y74860D01*
X167574Y74964D01*
X167614Y75069D01*
X167651Y75176D01*
X167685Y75284D01*
X167714Y75393D01*
X167740Y75503D01*
X167761Y75614D01*
X167779Y75725D01*
X167793Y75837D01*
X167803Y75949D01*
X167809Y76062D01*
X167811Y76175D01*
X166816Y73853D02*
X161178Y67221D01*
X167810Y67221D01*
X172608Y73853D02*
X176587Y73853D01*
X176689Y73851D01*
X176790Y73845D01*
X176891Y73835D01*
X176992Y73822D01*
X177092Y73804D01*
X177191Y73783D01*
X177290Y73758D01*
X177387Y73729D01*
X177484Y73697D01*
X177579Y73661D01*
X177672Y73621D01*
X177764Y73578D01*
X177854Y73531D01*
X177943Y73480D01*
X178029Y73427D01*
X178113Y73370D01*
X178195Y73310D01*
X178275Y73247D01*
X178352Y73181D01*
X178427Y73112D01*
X178499Y73040D01*
X178568Y72965D01*
X178634Y72888D01*
X178697Y72808D01*
X178757Y72726D01*
X178814Y72642D01*
X178867Y72556D01*
X178918Y72467D01*
X178965Y72377D01*
X179008Y72285D01*
X179048Y72192D01*
X179084Y72097D01*
X179116Y72000D01*
X179145Y71903D01*
X179170Y71804D01*
X179191Y71705D01*
X179209Y71605D01*
X179222Y71504D01*
X179232Y71403D01*
X179238Y71302D01*
X179240Y71200D01*
X179240Y70537D01*
X179238Y70423D01*
X179232Y70308D01*
X179222Y70194D01*
X179208Y70081D01*
X179191Y69967D01*
X179169Y69855D01*
X179144Y69743D01*
X179114Y69633D01*
X179081Y69523D01*
X179044Y69415D01*
X179004Y69308D01*
X178959Y69202D01*
X178912Y69098D01*
X178860Y68996D01*
X178805Y68896D01*
X178747Y68797D01*
X178685Y68701D01*
X178620Y68606D01*
X178552Y68515D01*
X178480Y68425D01*
X178406Y68338D01*
X178329Y68254D01*
X178248Y68172D01*
X178165Y68093D01*
X178080Y68017D01*
X177991Y67944D01*
X177901Y67875D01*
X177808Y67808D01*
X177712Y67745D01*
X177615Y67685D01*
X177515Y67628D01*
X177414Y67575D01*
X177311Y67525D01*
X177206Y67479D01*
X177100Y67436D01*
X176992Y67398D01*
X176883Y67363D01*
X176773Y67332D01*
X176662Y67304D01*
X176550Y67281D01*
X176437Y67261D01*
X176324Y67245D01*
X176210Y67233D01*
X176096Y67225D01*
X175981Y67221D01*
X175867Y67221D01*
X175752Y67225D01*
X175638Y67233D01*
X175524Y67245D01*
X175411Y67261D01*
X175298Y67281D01*
X175186Y67304D01*
X175075Y67332D01*
X174965Y67363D01*
X174856Y67398D01*
X174748Y67436D01*
X174642Y67479D01*
X174537Y67525D01*
X174434Y67575D01*
X174333Y67628D01*
X174233Y67685D01*
X174136Y67745D01*
X174040Y67808D01*
X173947Y67875D01*
X173857Y67944D01*
X173768Y68017D01*
X173683Y68093D01*
X173600Y68172D01*
X173519Y68254D01*
X173442Y68338D01*
X173368Y68425D01*
X173296Y68515D01*
X173228Y68606D01*
X173163Y68701D01*
X173101Y68797D01*
X173043Y68896D01*
X172988Y68996D01*
X172936Y69098D01*
X172889Y69202D01*
X172844Y69308D01*
X172804Y69415D01*
X172767Y69523D01*
X172734Y69633D01*
X172704Y69743D01*
X172679Y69855D01*
X172657Y69967D01*
X172640Y70081D01*
X172626Y70194D01*
X172616Y70308D01*
X172610Y70423D01*
X172608Y70537D01*
X172608Y73853D01*
X172610Y73997D01*
X172616Y74140D01*
X172626Y74284D01*
X172639Y74427D01*
X172657Y74569D01*
X172678Y74711D01*
X172703Y74853D01*
X172732Y74994D01*
X172765Y75134D01*
X172801Y75273D01*
X172842Y75410D01*
X172886Y75547D01*
X172933Y75683D01*
X172985Y75817D01*
X173040Y75950D01*
X173098Y76081D01*
X173160Y76211D01*
X173226Y76338D01*
X173295Y76464D01*
X173368Y76589D01*
X173443Y76711D01*
X173522Y76831D01*
X173605Y76948D01*
X173690Y77064D01*
X173778Y77177D01*
X173870Y77288D01*
X173964Y77396D01*
X174062Y77502D01*
X174162Y77605D01*
X174265Y77705D01*
X174371Y77803D01*
X174479Y77897D01*
X174590Y77989D01*
X174703Y78077D01*
X174818Y78162D01*
X174936Y78245D01*
X175056Y78324D01*
X175178Y78399D01*
X175303Y78472D01*
X175429Y78541D01*
X175556Y78606D01*
X175686Y78669D01*
X175817Y78727D01*
X175950Y78782D01*
X176084Y78834D01*
X176220Y78881D01*
X176357Y78925D01*
X176494Y78966D01*
X176633Y79002D01*
X176773Y79035D01*
X176914Y79064D01*
X177056Y79089D01*
X177198Y79110D01*
X177340Y79128D01*
X177483Y79141D01*
X177627Y79151D01*
X177770Y79157D01*
X177914Y79159D01*
X184483Y79159D02*
X184483Y67221D01*
X184483Y79159D02*
X187800Y79159D01*
X187914Y79157D01*
X188029Y79151D01*
X188143Y79141D01*
X188256Y79127D01*
X188370Y79110D01*
X188482Y79088D01*
X188594Y79063D01*
X188704Y79033D01*
X188814Y79000D01*
X188922Y78963D01*
X189029Y78923D01*
X189135Y78878D01*
X189239Y78831D01*
X189341Y78779D01*
X189441Y78724D01*
X189540Y78666D01*
X189636Y78604D01*
X189731Y78539D01*
X189822Y78471D01*
X189912Y78399D01*
X189999Y78325D01*
X190083Y78248D01*
X190165Y78167D01*
X190244Y78084D01*
X190320Y77999D01*
X190393Y77910D01*
X190462Y77820D01*
X190529Y77727D01*
X190592Y77631D01*
X190652Y77534D01*
X190709Y77434D01*
X190762Y77333D01*
X190812Y77230D01*
X190858Y77125D01*
X190901Y77019D01*
X190939Y76911D01*
X190974Y76802D01*
X191005Y76692D01*
X191033Y76581D01*
X191056Y76469D01*
X191076Y76356D01*
X191092Y76243D01*
X191104Y76129D01*
X191112Y76015D01*
X191116Y75900D01*
X191116Y75786D01*
X191112Y75671D01*
X191104Y75557D01*
X191092Y75443D01*
X191076Y75330D01*
X191056Y75217D01*
X191033Y75105D01*
X191005Y74994D01*
X190974Y74884D01*
X190939Y74775D01*
X190901Y74667D01*
X190858Y74561D01*
X190812Y74456D01*
X190762Y74353D01*
X190709Y74252D01*
X190652Y74152D01*
X190592Y74055D01*
X190529Y73959D01*
X190462Y73866D01*
X190393Y73776D01*
X190320Y73687D01*
X190244Y73602D01*
X190165Y73519D01*
X190083Y73438D01*
X189999Y73361D01*
X189912Y73287D01*
X189822Y73215D01*
X189731Y73147D01*
X189636Y73082D01*
X189540Y73020D01*
X189441Y72962D01*
X189341Y72907D01*
X189239Y72855D01*
X189135Y72808D01*
X189029Y72763D01*
X188922Y72723D01*
X188814Y72686D01*
X188704Y72653D01*
X188594Y72623D01*
X188482Y72598D01*
X188370Y72576D01*
X188256Y72559D01*
X188143Y72545D01*
X188029Y72535D01*
X187914Y72529D01*
X187800Y72527D01*
X184483Y72527D01*
X188463Y72527D02*
X191116Y67221D01*
X199165Y73522D02*
X195186Y79159D01*
X199165Y73522D02*
X203144Y79159D01*
X199165Y73522D02*
X199165Y67221D01*
X207759Y67221D02*
X207759Y79159D01*
X211738Y72527D01*
X215717Y79159D01*
X215717Y67221D01*
X223549Y67221D02*
X223549Y79159D01*
X220233Y79159D02*
X226865Y79159D01*
X231000Y71864D02*
X238958Y71864D01*
X246409Y67221D02*
X246409Y79159D01*
X243093Y79159D02*
X249725Y79159D01*
X254206Y79159D02*
X254206Y67221D01*
X254206Y79159D02*
X257522Y79159D01*
X257636Y79157D01*
X257751Y79151D01*
X257865Y79141D01*
X257978Y79127D01*
X258092Y79110D01*
X258204Y79088D01*
X258316Y79063D01*
X258426Y79033D01*
X258536Y79000D01*
X258644Y78963D01*
X258751Y78923D01*
X258857Y78878D01*
X258961Y78831D01*
X259063Y78779D01*
X259163Y78724D01*
X259262Y78666D01*
X259358Y78604D01*
X259453Y78539D01*
X259544Y78471D01*
X259634Y78399D01*
X259721Y78325D01*
X259805Y78248D01*
X259887Y78167D01*
X259966Y78084D01*
X260042Y77999D01*
X260115Y77910D01*
X260184Y77820D01*
X260251Y77727D01*
X260314Y77631D01*
X260374Y77534D01*
X260431Y77434D01*
X260484Y77333D01*
X260534Y77230D01*
X260580Y77125D01*
X260623Y77019D01*
X260661Y76911D01*
X260696Y76802D01*
X260727Y76692D01*
X260755Y76581D01*
X260778Y76469D01*
X260798Y76356D01*
X260814Y76243D01*
X260826Y76129D01*
X260834Y76015D01*
X260838Y75900D01*
X260838Y75786D01*
X260834Y75671D01*
X260826Y75557D01*
X260814Y75443D01*
X260798Y75330D01*
X260778Y75217D01*
X260755Y75105D01*
X260727Y74994D01*
X260696Y74884D01*
X260661Y74775D01*
X260623Y74667D01*
X260580Y74561D01*
X260534Y74456D01*
X260484Y74353D01*
X260431Y74252D01*
X260374Y74152D01*
X260314Y74055D01*
X260251Y73959D01*
X260184Y73866D01*
X260115Y73776D01*
X260042Y73687D01*
X259966Y73602D01*
X259887Y73519D01*
X259805Y73438D01*
X259721Y73361D01*
X259634Y73287D01*
X259544Y73215D01*
X259453Y73147D01*
X259358Y73082D01*
X259262Y73020D01*
X259163Y72962D01*
X259063Y72907D01*
X258961Y72855D01*
X258857Y72808D01*
X258751Y72763D01*
X258644Y72723D01*
X258536Y72686D01*
X258426Y72653D01*
X258316Y72623D01*
X258204Y72598D01*
X258092Y72576D01*
X257978Y72559D01*
X257865Y72545D01*
X257751Y72535D01*
X257636Y72529D01*
X257522Y72527D01*
X254206Y72527D01*
X258186Y72527D02*
X260839Y67221D01*
D10*
X532100Y215900D02*
X537180Y215900D01*
X532100Y215900D02*
X532100Y210820D01*
X557500Y210820D02*
X557500Y215900D01*
X552420Y215900D01*
X557500Y195580D02*
X557500Y190500D01*
X552420Y190500D01*
X537180Y190500D02*
X532100Y190500D01*
X532100Y195580D01*
D12*
X524070Y169255D02*
X520895Y169255D01*
X524070Y169255D02*
X524181Y169253D01*
X524291Y169247D01*
X524402Y169238D01*
X524512Y169224D01*
X524621Y169207D01*
X524730Y169186D01*
X524838Y169161D01*
X524945Y169132D01*
X525051Y169100D01*
X525156Y169064D01*
X525259Y169024D01*
X525361Y168981D01*
X525462Y168934D01*
X525561Y168883D01*
X525658Y168830D01*
X525752Y168773D01*
X525845Y168712D01*
X525936Y168649D01*
X526025Y168582D01*
X526111Y168512D01*
X526194Y168439D01*
X526276Y168364D01*
X526354Y168286D01*
X526429Y168204D01*
X526502Y168121D01*
X526572Y168035D01*
X526639Y167946D01*
X526702Y167855D01*
X526763Y167762D01*
X526820Y167667D01*
X526873Y167571D01*
X526924Y167472D01*
X526971Y167371D01*
X527014Y167269D01*
X527054Y167166D01*
X527090Y167061D01*
X527122Y166955D01*
X527151Y166848D01*
X527176Y166740D01*
X527197Y166631D01*
X527214Y166522D01*
X527228Y166412D01*
X527237Y166301D01*
X527243Y166191D01*
X527245Y166080D01*
X527243Y165969D01*
X527237Y165859D01*
X527228Y165748D01*
X527214Y165638D01*
X527197Y165529D01*
X527176Y165420D01*
X527151Y165312D01*
X527122Y165205D01*
X527090Y165099D01*
X527054Y164994D01*
X527014Y164891D01*
X526971Y164789D01*
X526924Y164688D01*
X526873Y164589D01*
X526820Y164492D01*
X526763Y164398D01*
X526702Y164305D01*
X526639Y164214D01*
X526572Y164125D01*
X526502Y164039D01*
X526429Y163956D01*
X526354Y163874D01*
X526276Y163796D01*
X526194Y163721D01*
X526111Y163648D01*
X526025Y163578D01*
X525936Y163511D01*
X525845Y163448D01*
X525752Y163387D01*
X525658Y163330D01*
X525561Y163277D01*
X525462Y163226D01*
X525361Y163179D01*
X525259Y163136D01*
X525156Y163096D01*
X525051Y163060D01*
X524945Y163028D01*
X524838Y162999D01*
X524730Y162974D01*
X524621Y162953D01*
X524512Y162936D01*
X524402Y162922D01*
X524291Y162913D01*
X524181Y162907D01*
X524070Y162905D01*
X520895Y162905D01*
X520895Y174335D01*
X524070Y174335D01*
X524170Y174333D01*
X524269Y174327D01*
X524369Y174317D01*
X524467Y174304D01*
X524566Y174286D01*
X524663Y174265D01*
X524759Y174240D01*
X524855Y174211D01*
X524949Y174178D01*
X525042Y174142D01*
X525133Y174102D01*
X525223Y174058D01*
X525311Y174011D01*
X525397Y173961D01*
X525481Y173907D01*
X525563Y173850D01*
X525642Y173790D01*
X525720Y173726D01*
X525794Y173660D01*
X525866Y173591D01*
X525935Y173519D01*
X526001Y173445D01*
X526065Y173367D01*
X526125Y173288D01*
X526182Y173206D01*
X526236Y173122D01*
X526286Y173036D01*
X526333Y172948D01*
X526377Y172858D01*
X526417Y172767D01*
X526453Y172674D01*
X526486Y172580D01*
X526515Y172484D01*
X526540Y172388D01*
X526561Y172291D01*
X526579Y172192D01*
X526592Y172094D01*
X526602Y171994D01*
X526608Y171895D01*
X526610Y171795D01*
X526608Y171695D01*
X526602Y171596D01*
X526592Y171496D01*
X526579Y171398D01*
X526561Y171299D01*
X526540Y171202D01*
X526515Y171106D01*
X526486Y171010D01*
X526453Y170916D01*
X526417Y170823D01*
X526377Y170732D01*
X526333Y170642D01*
X526286Y170554D01*
X526236Y170468D01*
X526182Y170384D01*
X526125Y170302D01*
X526065Y170223D01*
X526001Y170145D01*
X525935Y170071D01*
X525866Y169999D01*
X525794Y169930D01*
X525720Y169864D01*
X525642Y169800D01*
X525563Y169740D01*
X525481Y169683D01*
X525397Y169629D01*
X525311Y169579D01*
X525223Y169532D01*
X525133Y169488D01*
X525042Y169448D01*
X524949Y169412D01*
X524855Y169379D01*
X524759Y169350D01*
X524663Y169325D01*
X524566Y169304D01*
X524467Y169286D01*
X524369Y169273D01*
X524269Y169263D01*
X524170Y169257D01*
X524070Y169255D01*
X531119Y162905D02*
X534929Y174335D01*
X538739Y162905D01*
X537786Y165763D02*
X532071Y165763D01*
X545597Y162905D02*
X545597Y174335D01*
X542422Y174335D02*
X548772Y174335D01*
X556582Y174336D02*
X556686Y174334D01*
X556791Y174328D01*
X556895Y174319D01*
X556998Y174306D01*
X557101Y174288D01*
X557203Y174268D01*
X557305Y174243D01*
X557405Y174215D01*
X557505Y174183D01*
X557603Y174147D01*
X557700Y174108D01*
X557795Y174066D01*
X557889Y174020D01*
X557981Y173970D01*
X558071Y173918D01*
X558159Y173862D01*
X558245Y173802D01*
X558329Y173740D01*
X558410Y173675D01*
X558489Y173607D01*
X558566Y173535D01*
X558639Y173462D01*
X558711Y173385D01*
X558779Y173306D01*
X558844Y173225D01*
X558906Y173141D01*
X558966Y173055D01*
X559022Y172967D01*
X559074Y172877D01*
X559124Y172785D01*
X559170Y172691D01*
X559212Y172596D01*
X559251Y172499D01*
X559287Y172401D01*
X559319Y172301D01*
X559347Y172201D01*
X559372Y172099D01*
X559392Y171997D01*
X559410Y171894D01*
X559423Y171791D01*
X559432Y171687D01*
X559438Y171582D01*
X559440Y171478D01*
X556582Y174335D02*
X556464Y174333D01*
X556345Y174327D01*
X556227Y174318D01*
X556110Y174305D01*
X555993Y174287D01*
X555876Y174267D01*
X555760Y174242D01*
X555645Y174214D01*
X555532Y174181D01*
X555419Y174146D01*
X555307Y174106D01*
X555197Y174064D01*
X555088Y174017D01*
X554980Y173967D01*
X554875Y173914D01*
X554771Y173857D01*
X554669Y173797D01*
X554569Y173734D01*
X554471Y173667D01*
X554375Y173598D01*
X554282Y173525D01*
X554191Y173449D01*
X554102Y173371D01*
X554016Y173289D01*
X553933Y173205D01*
X553852Y173119D01*
X553775Y173029D01*
X553700Y172938D01*
X553628Y172844D01*
X553559Y172747D01*
X553494Y172649D01*
X553431Y172548D01*
X553372Y172445D01*
X553316Y172341D01*
X553264Y172235D01*
X553215Y172127D01*
X553170Y172018D01*
X553128Y171907D01*
X553090Y171795D01*
X558487Y169256D02*
X558563Y169331D01*
X558638Y169410D01*
X558709Y169491D01*
X558778Y169575D01*
X558843Y169661D01*
X558905Y169749D01*
X558965Y169839D01*
X559021Y169931D01*
X559074Y170026D01*
X559123Y170122D01*
X559169Y170220D01*
X559212Y170319D01*
X559251Y170420D01*
X559286Y170522D01*
X559318Y170625D01*
X559346Y170729D01*
X559371Y170834D01*
X559392Y170941D01*
X559409Y171047D01*
X559422Y171154D01*
X559431Y171262D01*
X559437Y171370D01*
X559439Y171478D01*
X558487Y169255D02*
X553090Y162905D01*
X559440Y162905D01*
X564647Y167350D02*
X572267Y167350D01*
X568457Y163540D02*
X568457Y171160D01*
D10*
X645600Y215900D02*
X650680Y215900D01*
X645600Y215900D02*
X645600Y210820D01*
X671000Y210820D02*
X671000Y215900D01*
X665920Y215900D01*
X671000Y195580D02*
X671000Y190500D01*
X665920Y190500D01*
X650680Y190500D02*
X645600Y190500D01*
X645600Y195580D01*
D12*
X636950Y166715D02*
X633775Y166715D01*
X636950Y166715D02*
X637061Y166713D01*
X637171Y166707D01*
X637282Y166698D01*
X637392Y166684D01*
X637501Y166667D01*
X637610Y166646D01*
X637718Y166621D01*
X637825Y166592D01*
X637931Y166560D01*
X638036Y166524D01*
X638139Y166484D01*
X638241Y166441D01*
X638342Y166394D01*
X638441Y166343D01*
X638538Y166290D01*
X638632Y166233D01*
X638725Y166172D01*
X638816Y166109D01*
X638905Y166042D01*
X638991Y165972D01*
X639074Y165899D01*
X639156Y165824D01*
X639234Y165746D01*
X639309Y165664D01*
X639382Y165581D01*
X639452Y165495D01*
X639519Y165406D01*
X639582Y165315D01*
X639643Y165222D01*
X639700Y165127D01*
X639753Y165031D01*
X639804Y164932D01*
X639851Y164831D01*
X639894Y164729D01*
X639934Y164626D01*
X639970Y164521D01*
X640002Y164415D01*
X640031Y164308D01*
X640056Y164200D01*
X640077Y164091D01*
X640094Y163982D01*
X640108Y163872D01*
X640117Y163761D01*
X640123Y163651D01*
X640125Y163540D01*
X640123Y163429D01*
X640117Y163319D01*
X640108Y163208D01*
X640094Y163098D01*
X640077Y162989D01*
X640056Y162880D01*
X640031Y162772D01*
X640002Y162665D01*
X639970Y162559D01*
X639934Y162454D01*
X639894Y162351D01*
X639851Y162249D01*
X639804Y162148D01*
X639753Y162049D01*
X639700Y161952D01*
X639643Y161858D01*
X639582Y161765D01*
X639519Y161674D01*
X639452Y161585D01*
X639382Y161499D01*
X639309Y161416D01*
X639234Y161334D01*
X639156Y161256D01*
X639074Y161181D01*
X638991Y161108D01*
X638905Y161038D01*
X638816Y160971D01*
X638725Y160908D01*
X638632Y160847D01*
X638538Y160790D01*
X638441Y160737D01*
X638342Y160686D01*
X638241Y160639D01*
X638139Y160596D01*
X638036Y160556D01*
X637931Y160520D01*
X637825Y160488D01*
X637718Y160459D01*
X637610Y160434D01*
X637501Y160413D01*
X637392Y160396D01*
X637282Y160382D01*
X637171Y160373D01*
X637061Y160367D01*
X636950Y160365D01*
X633775Y160365D01*
X633775Y171795D01*
X636950Y171795D01*
X637050Y171793D01*
X637149Y171787D01*
X637249Y171777D01*
X637347Y171764D01*
X637446Y171746D01*
X637543Y171725D01*
X637639Y171700D01*
X637735Y171671D01*
X637829Y171638D01*
X637922Y171602D01*
X638013Y171562D01*
X638103Y171518D01*
X638191Y171471D01*
X638277Y171421D01*
X638361Y171367D01*
X638443Y171310D01*
X638522Y171250D01*
X638600Y171186D01*
X638674Y171120D01*
X638746Y171051D01*
X638815Y170979D01*
X638881Y170905D01*
X638945Y170827D01*
X639005Y170748D01*
X639062Y170666D01*
X639116Y170582D01*
X639166Y170496D01*
X639213Y170408D01*
X639257Y170318D01*
X639297Y170227D01*
X639333Y170134D01*
X639366Y170040D01*
X639395Y169944D01*
X639420Y169848D01*
X639441Y169751D01*
X639459Y169652D01*
X639472Y169554D01*
X639482Y169454D01*
X639488Y169355D01*
X639490Y169255D01*
X639488Y169155D01*
X639482Y169056D01*
X639472Y168956D01*
X639459Y168858D01*
X639441Y168759D01*
X639420Y168662D01*
X639395Y168566D01*
X639366Y168470D01*
X639333Y168376D01*
X639297Y168283D01*
X639257Y168192D01*
X639213Y168102D01*
X639166Y168014D01*
X639116Y167928D01*
X639062Y167844D01*
X639005Y167762D01*
X638945Y167683D01*
X638881Y167605D01*
X638815Y167531D01*
X638746Y167459D01*
X638674Y167390D01*
X638600Y167324D01*
X638522Y167260D01*
X638443Y167200D01*
X638361Y167143D01*
X638277Y167089D01*
X638191Y167039D01*
X638103Y166992D01*
X638013Y166948D01*
X637922Y166908D01*
X637829Y166872D01*
X637735Y166839D01*
X637639Y166810D01*
X637543Y166785D01*
X637446Y166764D01*
X637347Y166746D01*
X637249Y166733D01*
X637149Y166723D01*
X637050Y166717D01*
X636950Y166715D01*
X643999Y160365D02*
X647809Y171795D01*
X651619Y160365D01*
X650666Y163223D02*
X644951Y163223D01*
X658477Y160365D02*
X658477Y171795D01*
X655302Y171795D02*
X661652Y171795D01*
X669462Y171796D02*
X669566Y171794D01*
X669671Y171788D01*
X669775Y171779D01*
X669878Y171766D01*
X669981Y171748D01*
X670083Y171728D01*
X670185Y171703D01*
X670285Y171675D01*
X670385Y171643D01*
X670483Y171607D01*
X670580Y171568D01*
X670675Y171526D01*
X670769Y171480D01*
X670861Y171430D01*
X670951Y171378D01*
X671039Y171322D01*
X671125Y171262D01*
X671209Y171200D01*
X671290Y171135D01*
X671369Y171067D01*
X671446Y170995D01*
X671519Y170922D01*
X671591Y170845D01*
X671659Y170766D01*
X671724Y170685D01*
X671786Y170601D01*
X671846Y170515D01*
X671902Y170427D01*
X671954Y170337D01*
X672004Y170245D01*
X672050Y170151D01*
X672092Y170056D01*
X672131Y169959D01*
X672167Y169861D01*
X672199Y169761D01*
X672227Y169661D01*
X672252Y169559D01*
X672272Y169457D01*
X672290Y169354D01*
X672303Y169251D01*
X672312Y169147D01*
X672318Y169042D01*
X672320Y168938D01*
X669462Y171795D02*
X669344Y171793D01*
X669225Y171787D01*
X669107Y171778D01*
X668990Y171765D01*
X668873Y171747D01*
X668756Y171727D01*
X668640Y171702D01*
X668525Y171674D01*
X668412Y171641D01*
X668299Y171606D01*
X668187Y171566D01*
X668077Y171524D01*
X667968Y171477D01*
X667860Y171427D01*
X667755Y171374D01*
X667651Y171317D01*
X667549Y171257D01*
X667449Y171194D01*
X667351Y171127D01*
X667255Y171058D01*
X667162Y170985D01*
X667071Y170909D01*
X666982Y170831D01*
X666896Y170749D01*
X666813Y170665D01*
X666732Y170579D01*
X666655Y170489D01*
X666580Y170398D01*
X666508Y170304D01*
X666439Y170207D01*
X666374Y170109D01*
X666311Y170008D01*
X666252Y169905D01*
X666196Y169801D01*
X666144Y169695D01*
X666095Y169587D01*
X666050Y169478D01*
X666008Y169367D01*
X665970Y169255D01*
X671367Y166716D02*
X671443Y166791D01*
X671518Y166870D01*
X671589Y166951D01*
X671658Y167035D01*
X671723Y167121D01*
X671785Y167209D01*
X671845Y167299D01*
X671901Y167391D01*
X671954Y167486D01*
X672003Y167582D01*
X672049Y167680D01*
X672092Y167779D01*
X672131Y167880D01*
X672166Y167982D01*
X672198Y168085D01*
X672226Y168189D01*
X672251Y168294D01*
X672272Y168401D01*
X672289Y168507D01*
X672302Y168614D01*
X672311Y168722D01*
X672317Y168830D01*
X672319Y168938D01*
X671367Y166715D02*
X665970Y160365D01*
X672320Y160365D01*
X677527Y164810D02*
X685147Y164810D01*
D10*
X759100Y215900D02*
X764180Y215900D01*
X759100Y215900D02*
X759100Y210820D01*
X784500Y210820D02*
X784500Y215900D01*
X779420Y215900D01*
X784500Y195580D02*
X784500Y190500D01*
X779420Y190500D01*
X764180Y190500D02*
X759100Y190500D01*
X759100Y195580D01*
D12*
X752210Y166715D02*
X749035Y166715D01*
X752210Y166715D02*
X752321Y166713D01*
X752431Y166707D01*
X752542Y166698D01*
X752652Y166684D01*
X752761Y166667D01*
X752870Y166646D01*
X752978Y166621D01*
X753085Y166592D01*
X753191Y166560D01*
X753296Y166524D01*
X753399Y166484D01*
X753501Y166441D01*
X753602Y166394D01*
X753701Y166343D01*
X753798Y166290D01*
X753892Y166233D01*
X753985Y166172D01*
X754076Y166109D01*
X754165Y166042D01*
X754251Y165972D01*
X754334Y165899D01*
X754416Y165824D01*
X754494Y165746D01*
X754569Y165664D01*
X754642Y165581D01*
X754712Y165495D01*
X754779Y165406D01*
X754842Y165315D01*
X754903Y165222D01*
X754960Y165127D01*
X755013Y165031D01*
X755064Y164932D01*
X755111Y164831D01*
X755154Y164729D01*
X755194Y164626D01*
X755230Y164521D01*
X755262Y164415D01*
X755291Y164308D01*
X755316Y164200D01*
X755337Y164091D01*
X755354Y163982D01*
X755368Y163872D01*
X755377Y163761D01*
X755383Y163651D01*
X755385Y163540D01*
X755383Y163429D01*
X755377Y163319D01*
X755368Y163208D01*
X755354Y163098D01*
X755337Y162989D01*
X755316Y162880D01*
X755291Y162772D01*
X755262Y162665D01*
X755230Y162559D01*
X755194Y162454D01*
X755154Y162351D01*
X755111Y162249D01*
X755064Y162148D01*
X755013Y162049D01*
X754960Y161952D01*
X754903Y161858D01*
X754842Y161765D01*
X754779Y161674D01*
X754712Y161585D01*
X754642Y161499D01*
X754569Y161416D01*
X754494Y161334D01*
X754416Y161256D01*
X754334Y161181D01*
X754251Y161108D01*
X754165Y161038D01*
X754076Y160971D01*
X753985Y160908D01*
X753892Y160847D01*
X753798Y160790D01*
X753701Y160737D01*
X753602Y160686D01*
X753501Y160639D01*
X753399Y160596D01*
X753296Y160556D01*
X753191Y160520D01*
X753085Y160488D01*
X752978Y160459D01*
X752870Y160434D01*
X752761Y160413D01*
X752652Y160396D01*
X752542Y160382D01*
X752431Y160373D01*
X752321Y160367D01*
X752210Y160365D01*
X749035Y160365D01*
X749035Y171795D01*
X752210Y171795D01*
X752310Y171793D01*
X752409Y171787D01*
X752509Y171777D01*
X752607Y171764D01*
X752706Y171746D01*
X752803Y171725D01*
X752899Y171700D01*
X752995Y171671D01*
X753089Y171638D01*
X753182Y171602D01*
X753273Y171562D01*
X753363Y171518D01*
X753451Y171471D01*
X753537Y171421D01*
X753621Y171367D01*
X753703Y171310D01*
X753782Y171250D01*
X753860Y171186D01*
X753934Y171120D01*
X754006Y171051D01*
X754075Y170979D01*
X754141Y170905D01*
X754205Y170827D01*
X754265Y170748D01*
X754322Y170666D01*
X754376Y170582D01*
X754426Y170496D01*
X754473Y170408D01*
X754517Y170318D01*
X754557Y170227D01*
X754593Y170134D01*
X754626Y170040D01*
X754655Y169944D01*
X754680Y169848D01*
X754701Y169751D01*
X754719Y169652D01*
X754732Y169554D01*
X754742Y169454D01*
X754748Y169355D01*
X754750Y169255D01*
X754748Y169155D01*
X754742Y169056D01*
X754732Y168956D01*
X754719Y168858D01*
X754701Y168759D01*
X754680Y168662D01*
X754655Y168566D01*
X754626Y168470D01*
X754593Y168376D01*
X754557Y168283D01*
X754517Y168192D01*
X754473Y168102D01*
X754426Y168014D01*
X754376Y167928D01*
X754322Y167844D01*
X754265Y167762D01*
X754205Y167683D01*
X754141Y167605D01*
X754075Y167531D01*
X754006Y167459D01*
X753934Y167390D01*
X753860Y167324D01*
X753782Y167260D01*
X753703Y167200D01*
X753621Y167143D01*
X753537Y167089D01*
X753451Y167039D01*
X753363Y166992D01*
X753273Y166948D01*
X753182Y166908D01*
X753089Y166872D01*
X752995Y166839D01*
X752899Y166810D01*
X752803Y166785D01*
X752706Y166764D01*
X752607Y166746D01*
X752509Y166733D01*
X752409Y166723D01*
X752310Y166717D01*
X752210Y166715D01*
X759259Y160365D02*
X763069Y171795D01*
X766879Y160365D01*
X765926Y163223D02*
X760211Y163223D01*
X773737Y160365D02*
X773737Y171795D01*
X770562Y171795D02*
X776912Y171795D01*
X781230Y160365D02*
X784405Y160365D01*
X784516Y160367D01*
X784626Y160373D01*
X784737Y160382D01*
X784847Y160396D01*
X784956Y160413D01*
X785065Y160434D01*
X785173Y160459D01*
X785280Y160488D01*
X785386Y160520D01*
X785491Y160556D01*
X785594Y160596D01*
X785696Y160639D01*
X785797Y160686D01*
X785896Y160737D01*
X785993Y160790D01*
X786087Y160847D01*
X786180Y160908D01*
X786271Y160971D01*
X786360Y161038D01*
X786446Y161108D01*
X786529Y161181D01*
X786611Y161256D01*
X786689Y161334D01*
X786764Y161416D01*
X786837Y161499D01*
X786907Y161585D01*
X786974Y161674D01*
X787037Y161765D01*
X787098Y161858D01*
X787155Y161952D01*
X787208Y162049D01*
X787259Y162148D01*
X787306Y162249D01*
X787349Y162351D01*
X787389Y162454D01*
X787425Y162559D01*
X787457Y162665D01*
X787486Y162772D01*
X787511Y162880D01*
X787532Y162989D01*
X787549Y163098D01*
X787563Y163208D01*
X787572Y163319D01*
X787578Y163429D01*
X787580Y163540D01*
X787578Y163651D01*
X787572Y163761D01*
X787563Y163872D01*
X787549Y163982D01*
X787532Y164091D01*
X787511Y164200D01*
X787486Y164308D01*
X787457Y164415D01*
X787425Y164521D01*
X787389Y164626D01*
X787349Y164729D01*
X787306Y164831D01*
X787259Y164932D01*
X787208Y165031D01*
X787155Y165127D01*
X787098Y165222D01*
X787037Y165315D01*
X786974Y165406D01*
X786907Y165495D01*
X786837Y165581D01*
X786764Y165664D01*
X786689Y165746D01*
X786611Y165824D01*
X786529Y165899D01*
X786446Y165972D01*
X786360Y166042D01*
X786271Y166109D01*
X786180Y166172D01*
X786087Y166233D01*
X785993Y166290D01*
X785896Y166343D01*
X785797Y166394D01*
X785696Y166441D01*
X785594Y166484D01*
X785491Y166524D01*
X785386Y166560D01*
X785280Y166592D01*
X785173Y166621D01*
X785065Y166646D01*
X784956Y166667D01*
X784847Y166684D01*
X784737Y166698D01*
X784626Y166707D01*
X784516Y166713D01*
X784405Y166715D01*
X785040Y171795D02*
X781230Y171795D01*
X785040Y171795D02*
X785140Y171793D01*
X785239Y171787D01*
X785339Y171777D01*
X785437Y171764D01*
X785536Y171746D01*
X785633Y171725D01*
X785729Y171700D01*
X785825Y171671D01*
X785919Y171638D01*
X786012Y171602D01*
X786103Y171562D01*
X786193Y171518D01*
X786281Y171471D01*
X786367Y171421D01*
X786451Y171367D01*
X786533Y171310D01*
X786612Y171250D01*
X786690Y171186D01*
X786764Y171120D01*
X786836Y171051D01*
X786905Y170979D01*
X786971Y170905D01*
X787035Y170827D01*
X787095Y170748D01*
X787152Y170666D01*
X787206Y170582D01*
X787256Y170496D01*
X787303Y170408D01*
X787347Y170318D01*
X787387Y170227D01*
X787423Y170134D01*
X787456Y170040D01*
X787485Y169944D01*
X787510Y169848D01*
X787531Y169751D01*
X787549Y169652D01*
X787562Y169554D01*
X787572Y169454D01*
X787578Y169355D01*
X787580Y169255D01*
X787578Y169155D01*
X787572Y169056D01*
X787562Y168956D01*
X787549Y168858D01*
X787531Y168759D01*
X787510Y168662D01*
X787485Y168566D01*
X787456Y168470D01*
X787423Y168376D01*
X787387Y168283D01*
X787347Y168192D01*
X787303Y168102D01*
X787256Y168014D01*
X787206Y167928D01*
X787152Y167844D01*
X787095Y167762D01*
X787035Y167683D01*
X786971Y167605D01*
X786905Y167531D01*
X786836Y167459D01*
X786764Y167390D01*
X786690Y167324D01*
X786612Y167260D01*
X786533Y167200D01*
X786451Y167143D01*
X786367Y167089D01*
X786281Y167039D01*
X786193Y166992D01*
X786103Y166948D01*
X786012Y166908D01*
X785919Y166872D01*
X785825Y166839D01*
X785729Y166810D01*
X785633Y166785D01*
X785536Y166764D01*
X785437Y166746D01*
X785339Y166733D01*
X785239Y166723D01*
X785140Y166717D01*
X785040Y166715D01*
X782500Y166715D01*
X792787Y164810D02*
X800407Y164810D01*
X796597Y161000D02*
X796597Y168620D01*
D10*
X862600Y215900D02*
X867680Y215900D01*
X862600Y215900D02*
X862600Y210820D01*
X888000Y210820D02*
X888000Y215900D01*
X882920Y215900D01*
X888000Y195580D02*
X888000Y190500D01*
X882920Y190500D01*
X867680Y190500D02*
X862600Y190500D01*
X862600Y195580D01*
D12*
X839530Y173065D02*
X836355Y173065D01*
X839530Y173065D02*
X839641Y173063D01*
X839751Y173057D01*
X839862Y173048D01*
X839972Y173034D01*
X840081Y173017D01*
X840190Y172996D01*
X840298Y172971D01*
X840405Y172942D01*
X840511Y172910D01*
X840616Y172874D01*
X840719Y172834D01*
X840821Y172791D01*
X840922Y172744D01*
X841021Y172693D01*
X841118Y172640D01*
X841212Y172583D01*
X841305Y172522D01*
X841396Y172459D01*
X841485Y172392D01*
X841571Y172322D01*
X841654Y172249D01*
X841736Y172174D01*
X841814Y172096D01*
X841889Y172014D01*
X841962Y171931D01*
X842032Y171845D01*
X842099Y171756D01*
X842162Y171665D01*
X842223Y171572D01*
X842280Y171477D01*
X842333Y171381D01*
X842384Y171282D01*
X842431Y171181D01*
X842474Y171079D01*
X842514Y170976D01*
X842550Y170871D01*
X842582Y170765D01*
X842611Y170658D01*
X842636Y170550D01*
X842657Y170441D01*
X842674Y170332D01*
X842688Y170222D01*
X842697Y170111D01*
X842703Y170001D01*
X842705Y169890D01*
X842703Y169779D01*
X842697Y169669D01*
X842688Y169558D01*
X842674Y169448D01*
X842657Y169339D01*
X842636Y169230D01*
X842611Y169122D01*
X842582Y169015D01*
X842550Y168909D01*
X842514Y168804D01*
X842474Y168701D01*
X842431Y168599D01*
X842384Y168498D01*
X842333Y168399D01*
X842280Y168302D01*
X842223Y168208D01*
X842162Y168115D01*
X842099Y168024D01*
X842032Y167935D01*
X841962Y167849D01*
X841889Y167766D01*
X841814Y167684D01*
X841736Y167606D01*
X841654Y167531D01*
X841571Y167458D01*
X841485Y167388D01*
X841396Y167321D01*
X841305Y167258D01*
X841212Y167197D01*
X841118Y167140D01*
X841021Y167087D01*
X840922Y167036D01*
X840821Y166989D01*
X840719Y166946D01*
X840616Y166906D01*
X840511Y166870D01*
X840405Y166838D01*
X840298Y166809D01*
X840190Y166784D01*
X840081Y166763D01*
X839972Y166746D01*
X839862Y166732D01*
X839751Y166723D01*
X839641Y166717D01*
X839530Y166715D01*
X836355Y166715D01*
X836355Y178145D01*
X839530Y178145D01*
X839630Y178143D01*
X839729Y178137D01*
X839829Y178127D01*
X839927Y178114D01*
X840026Y178096D01*
X840123Y178075D01*
X840219Y178050D01*
X840315Y178021D01*
X840409Y177988D01*
X840502Y177952D01*
X840593Y177912D01*
X840683Y177868D01*
X840771Y177821D01*
X840857Y177771D01*
X840941Y177717D01*
X841023Y177660D01*
X841102Y177600D01*
X841180Y177536D01*
X841254Y177470D01*
X841326Y177401D01*
X841395Y177329D01*
X841461Y177255D01*
X841525Y177177D01*
X841585Y177098D01*
X841642Y177016D01*
X841696Y176932D01*
X841746Y176846D01*
X841793Y176758D01*
X841837Y176668D01*
X841877Y176577D01*
X841913Y176484D01*
X841946Y176390D01*
X841975Y176294D01*
X842000Y176198D01*
X842021Y176101D01*
X842039Y176002D01*
X842052Y175904D01*
X842062Y175804D01*
X842068Y175705D01*
X842070Y175605D01*
X842068Y175505D01*
X842062Y175406D01*
X842052Y175306D01*
X842039Y175208D01*
X842021Y175109D01*
X842000Y175012D01*
X841975Y174916D01*
X841946Y174820D01*
X841913Y174726D01*
X841877Y174633D01*
X841837Y174542D01*
X841793Y174452D01*
X841746Y174364D01*
X841696Y174278D01*
X841642Y174194D01*
X841585Y174112D01*
X841525Y174033D01*
X841461Y173955D01*
X841395Y173881D01*
X841326Y173809D01*
X841254Y173740D01*
X841180Y173674D01*
X841102Y173610D01*
X841023Y173550D01*
X840941Y173493D01*
X840857Y173439D01*
X840771Y173389D01*
X840683Y173342D01*
X840593Y173298D01*
X840502Y173258D01*
X840409Y173222D01*
X840315Y173189D01*
X840219Y173160D01*
X840123Y173135D01*
X840026Y173114D01*
X839927Y173096D01*
X839829Y173083D01*
X839729Y173073D01*
X839630Y173067D01*
X839530Y173065D01*
X846579Y166715D02*
X850389Y178145D01*
X854199Y166715D01*
X853246Y169573D02*
X847531Y169573D01*
X861057Y166715D02*
X861057Y178145D01*
X857882Y178145D02*
X864232Y178145D01*
X868550Y166715D02*
X871725Y166715D01*
X871836Y166717D01*
X871946Y166723D01*
X872057Y166732D01*
X872167Y166746D01*
X872276Y166763D01*
X872385Y166784D01*
X872493Y166809D01*
X872600Y166838D01*
X872706Y166870D01*
X872811Y166906D01*
X872914Y166946D01*
X873016Y166989D01*
X873117Y167036D01*
X873216Y167087D01*
X873313Y167140D01*
X873407Y167197D01*
X873500Y167258D01*
X873591Y167321D01*
X873680Y167388D01*
X873766Y167458D01*
X873849Y167531D01*
X873931Y167606D01*
X874009Y167684D01*
X874084Y167766D01*
X874157Y167849D01*
X874227Y167935D01*
X874294Y168024D01*
X874357Y168115D01*
X874418Y168208D01*
X874475Y168302D01*
X874528Y168399D01*
X874579Y168498D01*
X874626Y168599D01*
X874669Y168701D01*
X874709Y168804D01*
X874745Y168909D01*
X874777Y169015D01*
X874806Y169122D01*
X874831Y169230D01*
X874852Y169339D01*
X874869Y169448D01*
X874883Y169558D01*
X874892Y169669D01*
X874898Y169779D01*
X874900Y169890D01*
X874898Y170001D01*
X874892Y170111D01*
X874883Y170222D01*
X874869Y170332D01*
X874852Y170441D01*
X874831Y170550D01*
X874806Y170658D01*
X874777Y170765D01*
X874745Y170871D01*
X874709Y170976D01*
X874669Y171079D01*
X874626Y171181D01*
X874579Y171282D01*
X874528Y171381D01*
X874475Y171477D01*
X874418Y171572D01*
X874357Y171665D01*
X874294Y171756D01*
X874227Y171845D01*
X874157Y171931D01*
X874084Y172014D01*
X874009Y172096D01*
X873931Y172174D01*
X873849Y172249D01*
X873766Y172322D01*
X873680Y172392D01*
X873591Y172459D01*
X873500Y172522D01*
X873407Y172583D01*
X873313Y172640D01*
X873216Y172693D01*
X873117Y172744D01*
X873016Y172791D01*
X872914Y172834D01*
X872811Y172874D01*
X872706Y172910D01*
X872600Y172942D01*
X872493Y172971D01*
X872385Y172996D01*
X872276Y173017D01*
X872167Y173034D01*
X872057Y173048D01*
X871946Y173057D01*
X871836Y173063D01*
X871725Y173065D01*
X872360Y178145D02*
X868550Y178145D01*
X872360Y178145D02*
X872460Y178143D01*
X872559Y178137D01*
X872659Y178127D01*
X872757Y178114D01*
X872856Y178096D01*
X872953Y178075D01*
X873049Y178050D01*
X873145Y178021D01*
X873239Y177988D01*
X873332Y177952D01*
X873423Y177912D01*
X873513Y177868D01*
X873601Y177821D01*
X873687Y177771D01*
X873771Y177717D01*
X873853Y177660D01*
X873932Y177600D01*
X874010Y177536D01*
X874084Y177470D01*
X874156Y177401D01*
X874225Y177329D01*
X874291Y177255D01*
X874355Y177177D01*
X874415Y177098D01*
X874472Y177016D01*
X874526Y176932D01*
X874576Y176846D01*
X874623Y176758D01*
X874667Y176668D01*
X874707Y176577D01*
X874743Y176484D01*
X874776Y176390D01*
X874805Y176294D01*
X874830Y176198D01*
X874851Y176101D01*
X874869Y176002D01*
X874882Y175904D01*
X874892Y175804D01*
X874898Y175705D01*
X874900Y175605D01*
X874898Y175505D01*
X874892Y175406D01*
X874882Y175306D01*
X874869Y175208D01*
X874851Y175109D01*
X874830Y175012D01*
X874805Y174916D01*
X874776Y174820D01*
X874743Y174726D01*
X874707Y174633D01*
X874667Y174542D01*
X874623Y174452D01*
X874576Y174364D01*
X874526Y174278D01*
X874472Y174194D01*
X874415Y174112D01*
X874355Y174033D01*
X874291Y173955D01*
X874225Y173881D01*
X874156Y173809D01*
X874084Y173740D01*
X874010Y173674D01*
X873932Y173610D01*
X873853Y173550D01*
X873771Y173493D01*
X873687Y173439D01*
X873601Y173389D01*
X873513Y173342D01*
X873423Y173298D01*
X873332Y173258D01*
X873239Y173222D01*
X873145Y173189D01*
X873049Y173160D01*
X872953Y173135D01*
X872856Y173114D01*
X872757Y173096D01*
X872659Y173083D01*
X872559Y173073D01*
X872460Y173067D01*
X872360Y173065D01*
X869820Y173065D01*
X880107Y171160D02*
X887727Y171160D01*
X57180Y55910D02*
X57180Y27910D01*
X29180Y27910D01*
X29180Y55910D01*
X57180Y55910D01*
D13*
X58828Y21402D02*
X58828Y13613D01*
X54934Y17507D02*
X62723Y17507D01*
X30828Y20402D02*
X30828Y12613D01*
X33688Y16962D02*
X41477Y20207D01*
X41477Y13716D02*
X33688Y16962D01*
X46642Y16962D02*
X54431Y16962D01*
D17*
X86790Y18540D02*
X117290Y18540D01*
X86790Y18540D02*
X86790Y24040D01*
X86790Y56540D02*
X117290Y56540D01*
X86790Y56540D02*
X86790Y51040D01*
D18*
X105790Y37540D03*
D13*
X114335Y14132D02*
X114335Y2448D01*
X114335Y14132D02*
X117580Y14132D01*
X117693Y14130D01*
X117806Y14124D01*
X117919Y14114D01*
X118032Y14100D01*
X118144Y14083D01*
X118255Y14061D01*
X118365Y14036D01*
X118475Y14006D01*
X118583Y13973D01*
X118690Y13936D01*
X118796Y13896D01*
X118900Y13851D01*
X119003Y13803D01*
X119104Y13752D01*
X119203Y13697D01*
X119300Y13639D01*
X119395Y13577D01*
X119488Y13512D01*
X119578Y13444D01*
X119666Y13373D01*
X119752Y13298D01*
X119835Y13221D01*
X119915Y13141D01*
X119992Y13058D01*
X120067Y12972D01*
X120138Y12884D01*
X120206Y12794D01*
X120271Y12701D01*
X120333Y12606D01*
X120391Y12509D01*
X120446Y12410D01*
X120497Y12309D01*
X120545Y12206D01*
X120590Y12102D01*
X120630Y11996D01*
X120667Y11889D01*
X120700Y11781D01*
X120730Y11671D01*
X120755Y11561D01*
X120777Y11450D01*
X120794Y11338D01*
X120808Y11225D01*
X120818Y11112D01*
X120824Y10999D01*
X120826Y10886D01*
X120824Y10773D01*
X120818Y10660D01*
X120808Y10547D01*
X120794Y10434D01*
X120777Y10322D01*
X120755Y10211D01*
X120730Y10101D01*
X120700Y9991D01*
X120667Y9883D01*
X120630Y9776D01*
X120590Y9670D01*
X120545Y9566D01*
X120497Y9463D01*
X120446Y9362D01*
X120391Y9263D01*
X120333Y9166D01*
X120271Y9071D01*
X120206Y8978D01*
X120138Y8888D01*
X120067Y8800D01*
X119992Y8714D01*
X119915Y8631D01*
X119835Y8551D01*
X119752Y8474D01*
X119666Y8399D01*
X119578Y8328D01*
X119488Y8260D01*
X119395Y8195D01*
X119300Y8133D01*
X119203Y8075D01*
X119104Y8020D01*
X119003Y7969D01*
X118900Y7921D01*
X118796Y7876D01*
X118690Y7836D01*
X118583Y7799D01*
X118475Y7766D01*
X118365Y7736D01*
X118255Y7711D01*
X118144Y7689D01*
X118032Y7672D01*
X117919Y7658D01*
X117806Y7648D01*
X117693Y7642D01*
X117580Y7640D01*
X117580Y7641D02*
X114335Y7641D01*
X118229Y7641D02*
X120826Y2448D01*
X132182Y11211D02*
X132180Y11318D01*
X132174Y11424D01*
X132164Y11530D01*
X132151Y11636D01*
X132133Y11742D01*
X132112Y11846D01*
X132087Y11950D01*
X132058Y12053D01*
X132026Y12154D01*
X131989Y12254D01*
X131949Y12353D01*
X131906Y12451D01*
X131859Y12547D01*
X131808Y12641D01*
X131754Y12733D01*
X131697Y12823D01*
X131637Y12911D01*
X131573Y12996D01*
X131506Y13079D01*
X131436Y13160D01*
X131364Y13238D01*
X131288Y13314D01*
X131210Y13386D01*
X131129Y13456D01*
X131046Y13523D01*
X130961Y13587D01*
X130873Y13647D01*
X130783Y13704D01*
X130691Y13758D01*
X130597Y13809D01*
X130501Y13856D01*
X130403Y13899D01*
X130304Y13939D01*
X130204Y13976D01*
X130103Y14008D01*
X130000Y14037D01*
X129896Y14062D01*
X129792Y14083D01*
X129686Y14101D01*
X129580Y14114D01*
X129474Y14124D01*
X129368Y14130D01*
X129261Y14132D01*
X129140Y14130D01*
X129019Y14124D01*
X128899Y14114D01*
X128778Y14101D01*
X128659Y14083D01*
X128539Y14062D01*
X128421Y14037D01*
X128304Y14008D01*
X128187Y13975D01*
X128072Y13939D01*
X127958Y13898D01*
X127845Y13855D01*
X127733Y13807D01*
X127624Y13756D01*
X127516Y13701D01*
X127409Y13643D01*
X127305Y13582D01*
X127203Y13517D01*
X127103Y13449D01*
X127005Y13378D01*
X126909Y13304D01*
X126816Y13227D01*
X126726Y13146D01*
X126638Y13063D01*
X126553Y12977D01*
X126470Y12888D01*
X126391Y12797D01*
X126314Y12703D01*
X126241Y12607D01*
X126171Y12509D01*
X126104Y12408D01*
X126040Y12305D01*
X125980Y12200D01*
X125923Y12093D01*
X125869Y11985D01*
X125819Y11875D01*
X125773Y11763D01*
X125730Y11650D01*
X125691Y11535D01*
X131209Y8939D02*
X131288Y9016D01*
X131364Y9097D01*
X131437Y9180D01*
X131507Y9265D01*
X131574Y9353D01*
X131638Y9443D01*
X131698Y9535D01*
X131755Y9630D01*
X131809Y9726D01*
X131860Y9824D01*
X131907Y9924D01*
X131951Y10026D01*
X131991Y10129D01*
X132027Y10233D01*
X132059Y10339D01*
X132088Y10445D01*
X132113Y10553D01*
X132135Y10661D01*
X132152Y10771D01*
X132166Y10880D01*
X132175Y10990D01*
X132181Y11101D01*
X132183Y11211D01*
X131208Y8939D02*
X125691Y2448D01*
X132182Y2448D01*
X21938Y99088D02*
X21938Y110772D01*
X21938Y99088D02*
X27131Y99088D01*
X31844Y99088D02*
X37037Y99088D01*
X31844Y99088D02*
X31844Y110772D01*
X37037Y110772D01*
X35739Y105579D02*
X31844Y105579D01*
X41727Y110772D02*
X41727Y99088D01*
X41727Y110772D02*
X44973Y110772D01*
X45086Y110770D01*
X45199Y110764D01*
X45312Y110754D01*
X45425Y110740D01*
X45537Y110723D01*
X45648Y110701D01*
X45758Y110676D01*
X45868Y110646D01*
X45976Y110613D01*
X46083Y110576D01*
X46189Y110536D01*
X46293Y110491D01*
X46396Y110443D01*
X46497Y110392D01*
X46596Y110337D01*
X46693Y110279D01*
X46788Y110217D01*
X46881Y110152D01*
X46971Y110084D01*
X47059Y110013D01*
X47145Y109938D01*
X47228Y109861D01*
X47308Y109781D01*
X47385Y109698D01*
X47460Y109612D01*
X47531Y109524D01*
X47599Y109434D01*
X47664Y109341D01*
X47726Y109246D01*
X47784Y109149D01*
X47839Y109050D01*
X47890Y108949D01*
X47938Y108846D01*
X47983Y108742D01*
X48023Y108636D01*
X48060Y108529D01*
X48093Y108421D01*
X48123Y108311D01*
X48148Y108201D01*
X48170Y108090D01*
X48187Y107978D01*
X48201Y107865D01*
X48211Y107752D01*
X48217Y107639D01*
X48219Y107526D01*
X48219Y102334D01*
X48217Y102221D01*
X48211Y102108D01*
X48201Y101995D01*
X48187Y101882D01*
X48170Y101770D01*
X48148Y101659D01*
X48123Y101549D01*
X48093Y101439D01*
X48060Y101331D01*
X48023Y101224D01*
X47983Y101118D01*
X47938Y101014D01*
X47890Y100911D01*
X47839Y100810D01*
X47784Y100711D01*
X47726Y100614D01*
X47664Y100519D01*
X47599Y100426D01*
X47531Y100336D01*
X47460Y100248D01*
X47385Y100162D01*
X47308Y100079D01*
X47228Y99999D01*
X47145Y99922D01*
X47059Y99847D01*
X46971Y99776D01*
X46881Y99708D01*
X46788Y99643D01*
X46693Y99581D01*
X46596Y99523D01*
X46497Y99468D01*
X46396Y99417D01*
X46293Y99369D01*
X46189Y99324D01*
X46083Y99284D01*
X45976Y99247D01*
X45868Y99214D01*
X45758Y99184D01*
X45648Y99159D01*
X45537Y99137D01*
X45425Y99120D01*
X45312Y99106D01*
X45199Y99096D01*
X45086Y99090D01*
X44973Y99088D01*
X41727Y99088D01*
X56102Y99088D02*
X58698Y99088D01*
X56102Y99088D02*
X56003Y99090D01*
X55903Y99096D01*
X55804Y99105D01*
X55706Y99118D01*
X55608Y99135D01*
X55510Y99156D01*
X55414Y99181D01*
X55319Y99209D01*
X55225Y99241D01*
X55132Y99276D01*
X55040Y99315D01*
X54950Y99358D01*
X54862Y99403D01*
X54775Y99453D01*
X54691Y99505D01*
X54608Y99561D01*
X54528Y99619D01*
X54450Y99681D01*
X54375Y99746D01*
X54302Y99814D01*
X54232Y99884D01*
X54164Y99957D01*
X54099Y100032D01*
X54037Y100110D01*
X53979Y100190D01*
X53923Y100273D01*
X53871Y100357D01*
X53821Y100444D01*
X53776Y100532D01*
X53733Y100622D01*
X53694Y100714D01*
X53659Y100807D01*
X53627Y100901D01*
X53599Y100996D01*
X53574Y101092D01*
X53553Y101190D01*
X53536Y101288D01*
X53523Y101386D01*
X53514Y101485D01*
X53508Y101585D01*
X53506Y101684D01*
X53505Y101684D02*
X53505Y108176D01*
X53506Y108176D02*
X53508Y108275D01*
X53514Y108375D01*
X53523Y108474D01*
X53536Y108572D01*
X53553Y108670D01*
X53574Y108768D01*
X53599Y108864D01*
X53627Y108959D01*
X53659Y109053D01*
X53694Y109146D01*
X53733Y109238D01*
X53776Y109328D01*
X53821Y109416D01*
X53871Y109503D01*
X53923Y109587D01*
X53979Y109670D01*
X54037Y109750D01*
X54099Y109828D01*
X54164Y109903D01*
X54232Y109976D01*
X54302Y110046D01*
X54375Y110114D01*
X54450Y110179D01*
X54528Y110241D01*
X54608Y110299D01*
X54691Y110355D01*
X54775Y110407D01*
X54862Y110457D01*
X54950Y110502D01*
X55040Y110545D01*
X55132Y110584D01*
X55224Y110619D01*
X55319Y110651D01*
X55414Y110679D01*
X55510Y110704D01*
X55608Y110725D01*
X55706Y110742D01*
X55804Y110755D01*
X55903Y110764D01*
X56003Y110770D01*
X56102Y110772D01*
X58698Y110772D01*
X63444Y110772D02*
X63444Y102334D01*
X63446Y102221D01*
X63452Y102108D01*
X63462Y101995D01*
X63476Y101882D01*
X63493Y101770D01*
X63515Y101659D01*
X63540Y101549D01*
X63570Y101439D01*
X63603Y101331D01*
X63640Y101224D01*
X63680Y101118D01*
X63725Y101014D01*
X63773Y100911D01*
X63824Y100810D01*
X63879Y100711D01*
X63937Y100614D01*
X63999Y100519D01*
X64064Y100426D01*
X64132Y100336D01*
X64203Y100248D01*
X64278Y100162D01*
X64355Y100079D01*
X64435Y99999D01*
X64518Y99922D01*
X64604Y99847D01*
X64692Y99776D01*
X64782Y99708D01*
X64875Y99643D01*
X64970Y99581D01*
X65067Y99523D01*
X65166Y99468D01*
X65267Y99417D01*
X65370Y99369D01*
X65474Y99324D01*
X65580Y99284D01*
X65687Y99247D01*
X65795Y99214D01*
X65905Y99184D01*
X66015Y99159D01*
X66126Y99137D01*
X66238Y99120D01*
X66351Y99106D01*
X66464Y99096D01*
X66577Y99090D01*
X66690Y99088D01*
X66803Y99090D01*
X66916Y99096D01*
X67029Y99106D01*
X67142Y99120D01*
X67254Y99137D01*
X67365Y99159D01*
X67475Y99184D01*
X67585Y99214D01*
X67693Y99247D01*
X67800Y99284D01*
X67906Y99324D01*
X68010Y99369D01*
X68113Y99417D01*
X68214Y99468D01*
X68313Y99523D01*
X68410Y99581D01*
X68505Y99643D01*
X68598Y99708D01*
X68688Y99776D01*
X68776Y99847D01*
X68862Y99922D01*
X68945Y99999D01*
X69025Y100079D01*
X69102Y100162D01*
X69177Y100248D01*
X69248Y100336D01*
X69316Y100426D01*
X69381Y100519D01*
X69443Y100614D01*
X69501Y100711D01*
X69556Y100810D01*
X69607Y100911D01*
X69655Y101014D01*
X69700Y101118D01*
X69740Y101224D01*
X69777Y101331D01*
X69810Y101439D01*
X69840Y101549D01*
X69865Y101659D01*
X69887Y101770D01*
X69904Y101882D01*
X69918Y101995D01*
X69928Y102108D01*
X69934Y102221D01*
X69936Y102334D01*
X69935Y102334D02*
X69935Y110772D01*
X75710Y110772D02*
X75710Y99088D01*
X75710Y110772D02*
X78956Y110772D01*
X79069Y110770D01*
X79182Y110764D01*
X79295Y110754D01*
X79408Y110740D01*
X79520Y110723D01*
X79631Y110701D01*
X79741Y110676D01*
X79851Y110646D01*
X79959Y110613D01*
X80066Y110576D01*
X80172Y110536D01*
X80276Y110491D01*
X80379Y110443D01*
X80480Y110392D01*
X80579Y110337D01*
X80676Y110279D01*
X80771Y110217D01*
X80864Y110152D01*
X80954Y110084D01*
X81042Y110013D01*
X81128Y109938D01*
X81211Y109861D01*
X81291Y109781D01*
X81368Y109698D01*
X81443Y109612D01*
X81514Y109524D01*
X81582Y109434D01*
X81647Y109341D01*
X81709Y109246D01*
X81767Y109149D01*
X81822Y109050D01*
X81873Y108949D01*
X81921Y108846D01*
X81966Y108742D01*
X82006Y108636D01*
X82043Y108529D01*
X82076Y108421D01*
X82106Y108311D01*
X82131Y108201D01*
X82153Y108090D01*
X82170Y107978D01*
X82184Y107865D01*
X82194Y107752D01*
X82200Y107639D01*
X82202Y107526D01*
X82200Y107413D01*
X82194Y107300D01*
X82184Y107187D01*
X82170Y107074D01*
X82153Y106962D01*
X82131Y106851D01*
X82106Y106741D01*
X82076Y106631D01*
X82043Y106523D01*
X82006Y106416D01*
X81966Y106310D01*
X81921Y106206D01*
X81873Y106103D01*
X81822Y106002D01*
X81767Y105903D01*
X81709Y105806D01*
X81647Y105711D01*
X81582Y105618D01*
X81514Y105528D01*
X81443Y105440D01*
X81368Y105354D01*
X81291Y105271D01*
X81211Y105191D01*
X81128Y105114D01*
X81042Y105039D01*
X80954Y104968D01*
X80864Y104900D01*
X80771Y104835D01*
X80676Y104773D01*
X80579Y104715D01*
X80480Y104660D01*
X80379Y104609D01*
X80276Y104561D01*
X80172Y104516D01*
X80066Y104476D01*
X79959Y104439D01*
X79851Y104406D01*
X79741Y104376D01*
X79631Y104351D01*
X79520Y104329D01*
X79408Y104312D01*
X79295Y104298D01*
X79182Y104288D01*
X79069Y104282D01*
X78956Y104280D01*
X78956Y104281D02*
X75710Y104281D01*
X79605Y104281D02*
X82201Y99088D01*
X87521Y99088D02*
X87521Y110772D01*
X90766Y110772D01*
X90879Y110770D01*
X90992Y110764D01*
X91105Y110754D01*
X91218Y110740D01*
X91330Y110723D01*
X91441Y110701D01*
X91551Y110676D01*
X91661Y110646D01*
X91769Y110613D01*
X91876Y110576D01*
X91982Y110536D01*
X92086Y110491D01*
X92189Y110443D01*
X92290Y110392D01*
X92389Y110337D01*
X92486Y110279D01*
X92581Y110217D01*
X92674Y110152D01*
X92764Y110084D01*
X92852Y110013D01*
X92938Y109938D01*
X93021Y109861D01*
X93101Y109781D01*
X93178Y109698D01*
X93253Y109612D01*
X93324Y109524D01*
X93392Y109434D01*
X93457Y109341D01*
X93519Y109246D01*
X93577Y109149D01*
X93632Y109050D01*
X93683Y108949D01*
X93731Y108846D01*
X93776Y108742D01*
X93816Y108636D01*
X93853Y108529D01*
X93886Y108421D01*
X93916Y108311D01*
X93941Y108201D01*
X93963Y108090D01*
X93980Y107978D01*
X93994Y107865D01*
X94004Y107752D01*
X94010Y107639D01*
X94012Y107526D01*
X94010Y107413D01*
X94004Y107300D01*
X93994Y107187D01*
X93980Y107074D01*
X93963Y106962D01*
X93941Y106851D01*
X93916Y106741D01*
X93886Y106631D01*
X93853Y106523D01*
X93816Y106416D01*
X93776Y106310D01*
X93731Y106206D01*
X93683Y106103D01*
X93632Y106002D01*
X93577Y105903D01*
X93519Y105806D01*
X93457Y105711D01*
X93392Y105618D01*
X93324Y105528D01*
X93253Y105440D01*
X93178Y105354D01*
X93101Y105271D01*
X93021Y105191D01*
X92938Y105114D01*
X92852Y105039D01*
X92764Y104968D01*
X92674Y104900D01*
X92581Y104835D01*
X92486Y104773D01*
X92389Y104715D01*
X92290Y104660D01*
X92189Y104609D01*
X92086Y104561D01*
X91982Y104516D01*
X91876Y104476D01*
X91769Y104439D01*
X91661Y104406D01*
X91551Y104376D01*
X91441Y104351D01*
X91330Y104329D01*
X91218Y104312D01*
X91105Y104298D01*
X90992Y104288D01*
X90879Y104282D01*
X90766Y104280D01*
X90766Y104281D02*
X87521Y104281D01*
X91416Y104281D02*
X94012Y99088D01*
X99281Y99088D02*
X104474Y99088D01*
X99281Y99088D02*
X99281Y110772D01*
X104474Y110772D01*
X103176Y105579D02*
X99281Y105579D01*
X109164Y110772D02*
X109164Y99088D01*
X115655Y99088D02*
X109164Y110772D01*
X115655Y110772D02*
X115655Y99088D01*
X123459Y99088D02*
X123459Y110772D01*
X126704Y110772D02*
X120213Y110772D01*
X185299Y37432D02*
X185299Y28344D01*
X185297Y28245D01*
X185291Y28145D01*
X185282Y28046D01*
X185269Y27948D01*
X185252Y27850D01*
X185231Y27752D01*
X185206Y27656D01*
X185178Y27561D01*
X185146Y27467D01*
X185111Y27374D01*
X185072Y27282D01*
X185029Y27192D01*
X184984Y27104D01*
X184934Y27017D01*
X184882Y26933D01*
X184826Y26850D01*
X184768Y26770D01*
X184706Y26692D01*
X184641Y26617D01*
X184573Y26544D01*
X184503Y26474D01*
X184430Y26406D01*
X184355Y26341D01*
X184277Y26279D01*
X184197Y26221D01*
X184114Y26165D01*
X184030Y26113D01*
X183943Y26063D01*
X183855Y26018D01*
X183765Y25975D01*
X183673Y25936D01*
X183580Y25901D01*
X183486Y25869D01*
X183391Y25841D01*
X183295Y25816D01*
X183197Y25795D01*
X183099Y25778D01*
X183001Y25765D01*
X182902Y25756D01*
X182802Y25750D01*
X182703Y25748D01*
X181404Y25748D01*
X190953Y28994D02*
X190953Y37432D01*
X190953Y28994D02*
X190955Y28881D01*
X190961Y28768D01*
X190971Y28655D01*
X190985Y28542D01*
X191002Y28430D01*
X191024Y28319D01*
X191049Y28209D01*
X191079Y28099D01*
X191112Y27991D01*
X191149Y27884D01*
X191189Y27778D01*
X191234Y27674D01*
X191282Y27571D01*
X191333Y27470D01*
X191388Y27371D01*
X191446Y27274D01*
X191508Y27179D01*
X191573Y27086D01*
X191641Y26996D01*
X191712Y26908D01*
X191787Y26822D01*
X191864Y26739D01*
X191944Y26659D01*
X192027Y26582D01*
X192113Y26507D01*
X192201Y26436D01*
X192291Y26368D01*
X192384Y26303D01*
X192479Y26241D01*
X192576Y26183D01*
X192675Y26128D01*
X192776Y26077D01*
X192879Y26029D01*
X192983Y25984D01*
X193089Y25944D01*
X193196Y25907D01*
X193304Y25874D01*
X193414Y25844D01*
X193524Y25819D01*
X193635Y25797D01*
X193747Y25780D01*
X193860Y25766D01*
X193973Y25756D01*
X194086Y25750D01*
X194199Y25748D01*
X194312Y25750D01*
X194425Y25756D01*
X194538Y25766D01*
X194651Y25780D01*
X194763Y25797D01*
X194874Y25819D01*
X194984Y25844D01*
X195094Y25874D01*
X195202Y25907D01*
X195309Y25944D01*
X195415Y25984D01*
X195519Y26029D01*
X195622Y26077D01*
X195723Y26128D01*
X195822Y26183D01*
X195919Y26241D01*
X196014Y26303D01*
X196107Y26368D01*
X196197Y26436D01*
X196285Y26507D01*
X196371Y26582D01*
X196454Y26659D01*
X196534Y26739D01*
X196611Y26822D01*
X196686Y26908D01*
X196757Y26996D01*
X196825Y27086D01*
X196890Y27179D01*
X196952Y27274D01*
X197010Y27371D01*
X197065Y27470D01*
X197116Y27571D01*
X197164Y27674D01*
X197209Y27778D01*
X197249Y27884D01*
X197286Y27991D01*
X197319Y28099D01*
X197349Y28209D01*
X197374Y28319D01*
X197396Y28430D01*
X197413Y28542D01*
X197427Y28655D01*
X197437Y28768D01*
X197443Y28881D01*
X197445Y28994D01*
X197444Y28994D02*
X197444Y37432D01*
X203258Y37432D02*
X203258Y25748D01*
X207153Y30941D02*
X203258Y37432D01*
X207153Y30941D02*
X211048Y37432D01*
X211048Y25748D01*
X217031Y25748D02*
X217031Y37432D01*
X220276Y37432D01*
X220389Y37430D01*
X220502Y37424D01*
X220615Y37414D01*
X220728Y37400D01*
X220840Y37383D01*
X220951Y37361D01*
X221061Y37336D01*
X221171Y37306D01*
X221279Y37273D01*
X221386Y37236D01*
X221492Y37196D01*
X221596Y37151D01*
X221699Y37103D01*
X221800Y37052D01*
X221899Y36997D01*
X221996Y36939D01*
X222091Y36877D01*
X222184Y36812D01*
X222274Y36744D01*
X222362Y36673D01*
X222448Y36598D01*
X222531Y36521D01*
X222611Y36441D01*
X222688Y36358D01*
X222763Y36272D01*
X222834Y36184D01*
X222902Y36094D01*
X222967Y36001D01*
X223029Y35906D01*
X223087Y35809D01*
X223142Y35710D01*
X223193Y35609D01*
X223241Y35506D01*
X223286Y35402D01*
X223326Y35296D01*
X223363Y35189D01*
X223396Y35081D01*
X223426Y34971D01*
X223451Y34861D01*
X223473Y34750D01*
X223490Y34638D01*
X223504Y34525D01*
X223514Y34412D01*
X223520Y34299D01*
X223522Y34186D01*
X223520Y34073D01*
X223514Y33960D01*
X223504Y33847D01*
X223490Y33734D01*
X223473Y33622D01*
X223451Y33511D01*
X223426Y33401D01*
X223396Y33291D01*
X223363Y33183D01*
X223326Y33076D01*
X223286Y32970D01*
X223241Y32866D01*
X223193Y32763D01*
X223142Y32662D01*
X223087Y32563D01*
X223029Y32466D01*
X222967Y32371D01*
X222902Y32278D01*
X222834Y32188D01*
X222763Y32100D01*
X222688Y32014D01*
X222611Y31931D01*
X222531Y31851D01*
X222448Y31774D01*
X222362Y31699D01*
X222274Y31628D01*
X222184Y31560D01*
X222091Y31495D01*
X221996Y31433D01*
X221899Y31375D01*
X221800Y31320D01*
X221699Y31269D01*
X221596Y31221D01*
X221492Y31176D01*
X221386Y31136D01*
X221279Y31099D01*
X221171Y31066D01*
X221061Y31036D01*
X220951Y31011D01*
X220840Y30989D01*
X220728Y30972D01*
X220615Y30958D01*
X220502Y30948D01*
X220389Y30942D01*
X220276Y30940D01*
X220276Y30941D02*
X217031Y30941D01*
X228314Y25748D02*
X233507Y25748D01*
X228314Y25748D02*
X228314Y37432D01*
X233507Y37432D01*
X232209Y32239D02*
X228314Y32239D01*
X238271Y37432D02*
X238271Y25748D01*
X238271Y37432D02*
X241516Y37432D01*
X241629Y37430D01*
X241742Y37424D01*
X241855Y37414D01*
X241968Y37400D01*
X242080Y37383D01*
X242191Y37361D01*
X242301Y37336D01*
X242411Y37306D01*
X242519Y37273D01*
X242626Y37236D01*
X242732Y37196D01*
X242836Y37151D01*
X242939Y37103D01*
X243040Y37052D01*
X243139Y36997D01*
X243236Y36939D01*
X243331Y36877D01*
X243424Y36812D01*
X243514Y36744D01*
X243602Y36673D01*
X243688Y36598D01*
X243771Y36521D01*
X243851Y36441D01*
X243928Y36358D01*
X244003Y36272D01*
X244074Y36184D01*
X244142Y36094D01*
X244207Y36001D01*
X244269Y35906D01*
X244327Y35809D01*
X244382Y35710D01*
X244433Y35609D01*
X244481Y35506D01*
X244526Y35402D01*
X244566Y35296D01*
X244603Y35189D01*
X244636Y35081D01*
X244666Y34971D01*
X244691Y34861D01*
X244713Y34750D01*
X244730Y34638D01*
X244744Y34525D01*
X244754Y34412D01*
X244760Y34299D01*
X244762Y34186D01*
X244760Y34073D01*
X244754Y33960D01*
X244744Y33847D01*
X244730Y33734D01*
X244713Y33622D01*
X244691Y33511D01*
X244666Y33401D01*
X244636Y33291D01*
X244603Y33183D01*
X244566Y33076D01*
X244526Y32970D01*
X244481Y32866D01*
X244433Y32763D01*
X244382Y32662D01*
X244327Y32563D01*
X244269Y32466D01*
X244207Y32371D01*
X244142Y32278D01*
X244074Y32188D01*
X244003Y32100D01*
X243928Y32014D01*
X243851Y31931D01*
X243771Y31851D01*
X243688Y31774D01*
X243602Y31699D01*
X243514Y31628D01*
X243424Y31560D01*
X243331Y31495D01*
X243236Y31433D01*
X243139Y31375D01*
X243040Y31320D01*
X242939Y31269D01*
X242836Y31221D01*
X242732Y31176D01*
X242626Y31136D01*
X242519Y31099D01*
X242411Y31066D01*
X242301Y31036D01*
X242191Y31011D01*
X242080Y30989D01*
X241968Y30972D01*
X241855Y30958D01*
X241742Y30948D01*
X241629Y30942D01*
X241516Y30940D01*
X241516Y30941D02*
X238271Y30941D01*
X242166Y30941D02*
X244762Y25748D01*
D10*
X13970Y135100D02*
X8890Y135100D01*
X8890Y130020D01*
X34290Y130020D02*
X34290Y135100D01*
X29210Y135100D01*
X34290Y114780D02*
X34290Y109700D01*
X29210Y109700D01*
X13970Y109700D02*
X8890Y109700D01*
X8890Y114780D01*
D12*
X9525Y138275D02*
X12700Y138275D01*
X12811Y138277D01*
X12921Y138283D01*
X13032Y138292D01*
X13142Y138306D01*
X13251Y138323D01*
X13360Y138344D01*
X13468Y138369D01*
X13575Y138398D01*
X13681Y138430D01*
X13786Y138466D01*
X13889Y138506D01*
X13991Y138549D01*
X14092Y138596D01*
X14191Y138647D01*
X14287Y138700D01*
X14382Y138757D01*
X14475Y138818D01*
X14566Y138881D01*
X14655Y138948D01*
X14741Y139018D01*
X14824Y139091D01*
X14906Y139166D01*
X14984Y139244D01*
X15059Y139326D01*
X15132Y139409D01*
X15202Y139495D01*
X15269Y139584D01*
X15332Y139675D01*
X15393Y139768D01*
X15450Y139862D01*
X15503Y139959D01*
X15554Y140058D01*
X15601Y140159D01*
X15644Y140261D01*
X15684Y140364D01*
X15720Y140469D01*
X15752Y140575D01*
X15781Y140682D01*
X15806Y140790D01*
X15827Y140899D01*
X15844Y141008D01*
X15858Y141118D01*
X15867Y141229D01*
X15873Y141339D01*
X15875Y141450D01*
X15873Y141561D01*
X15867Y141671D01*
X15858Y141782D01*
X15844Y141892D01*
X15827Y142001D01*
X15806Y142110D01*
X15781Y142218D01*
X15752Y142325D01*
X15720Y142431D01*
X15684Y142536D01*
X15644Y142639D01*
X15601Y142741D01*
X15554Y142842D01*
X15503Y142941D01*
X15450Y143037D01*
X15393Y143132D01*
X15332Y143225D01*
X15269Y143316D01*
X15202Y143405D01*
X15132Y143491D01*
X15059Y143574D01*
X14984Y143656D01*
X14906Y143734D01*
X14824Y143809D01*
X14741Y143882D01*
X14655Y143952D01*
X14566Y144019D01*
X14475Y144082D01*
X14382Y144143D01*
X14288Y144200D01*
X14191Y144253D01*
X14092Y144304D01*
X13991Y144351D01*
X13889Y144394D01*
X13786Y144434D01*
X13681Y144470D01*
X13575Y144502D01*
X13468Y144531D01*
X13360Y144556D01*
X13251Y144577D01*
X13142Y144594D01*
X13032Y144608D01*
X12921Y144617D01*
X12811Y144623D01*
X12700Y144625D01*
X13335Y149705D02*
X9525Y149705D01*
X13335Y149705D02*
X13435Y149703D01*
X13534Y149697D01*
X13634Y149687D01*
X13732Y149674D01*
X13831Y149656D01*
X13928Y149635D01*
X14024Y149610D01*
X14120Y149581D01*
X14214Y149548D01*
X14307Y149512D01*
X14398Y149472D01*
X14488Y149428D01*
X14576Y149381D01*
X14662Y149331D01*
X14746Y149277D01*
X14828Y149220D01*
X14907Y149160D01*
X14985Y149096D01*
X15059Y149030D01*
X15131Y148961D01*
X15200Y148889D01*
X15266Y148815D01*
X15330Y148737D01*
X15390Y148658D01*
X15447Y148576D01*
X15501Y148492D01*
X15551Y148406D01*
X15598Y148318D01*
X15642Y148228D01*
X15682Y148137D01*
X15718Y148044D01*
X15751Y147950D01*
X15780Y147854D01*
X15805Y147758D01*
X15826Y147661D01*
X15844Y147562D01*
X15857Y147464D01*
X15867Y147364D01*
X15873Y147265D01*
X15875Y147165D01*
X15873Y147065D01*
X15867Y146966D01*
X15857Y146866D01*
X15844Y146768D01*
X15826Y146669D01*
X15805Y146572D01*
X15780Y146476D01*
X15751Y146380D01*
X15718Y146286D01*
X15682Y146193D01*
X15642Y146102D01*
X15598Y146012D01*
X15551Y145924D01*
X15501Y145838D01*
X15447Y145754D01*
X15390Y145672D01*
X15330Y145593D01*
X15266Y145515D01*
X15200Y145441D01*
X15131Y145369D01*
X15059Y145300D01*
X14985Y145234D01*
X14907Y145170D01*
X14828Y145110D01*
X14746Y145053D01*
X14662Y144999D01*
X14576Y144949D01*
X14488Y144902D01*
X14398Y144858D01*
X14307Y144818D01*
X14214Y144782D01*
X14120Y144749D01*
X14024Y144720D01*
X13928Y144695D01*
X13831Y144674D01*
X13732Y144656D01*
X13634Y144643D01*
X13534Y144633D01*
X13435Y144627D01*
X13335Y144625D01*
X10795Y144625D01*
X20320Y149705D02*
X24130Y138275D01*
X27940Y149705D01*
X32385Y138275D02*
X35560Y138275D01*
X35671Y138277D01*
X35781Y138283D01*
X35892Y138292D01*
X36002Y138306D01*
X36111Y138323D01*
X36220Y138344D01*
X36328Y138369D01*
X36435Y138398D01*
X36541Y138430D01*
X36646Y138466D01*
X36749Y138506D01*
X36851Y138549D01*
X36952Y138596D01*
X37051Y138647D01*
X37147Y138700D01*
X37242Y138757D01*
X37335Y138818D01*
X37426Y138881D01*
X37515Y138948D01*
X37601Y139018D01*
X37684Y139091D01*
X37766Y139166D01*
X37844Y139244D01*
X37919Y139326D01*
X37992Y139409D01*
X38062Y139495D01*
X38129Y139584D01*
X38192Y139675D01*
X38253Y139768D01*
X38310Y139862D01*
X38363Y139959D01*
X38414Y140058D01*
X38461Y140159D01*
X38504Y140261D01*
X38544Y140364D01*
X38580Y140469D01*
X38612Y140575D01*
X38641Y140682D01*
X38666Y140790D01*
X38687Y140899D01*
X38704Y141008D01*
X38718Y141118D01*
X38727Y141229D01*
X38733Y141339D01*
X38735Y141450D01*
X38733Y141561D01*
X38727Y141671D01*
X38718Y141782D01*
X38704Y141892D01*
X38687Y142001D01*
X38666Y142110D01*
X38641Y142218D01*
X38612Y142325D01*
X38580Y142431D01*
X38544Y142536D01*
X38504Y142639D01*
X38461Y142741D01*
X38414Y142842D01*
X38363Y142941D01*
X38310Y143037D01*
X38253Y143132D01*
X38192Y143225D01*
X38129Y143316D01*
X38062Y143405D01*
X37992Y143491D01*
X37919Y143574D01*
X37844Y143656D01*
X37766Y143734D01*
X37684Y143809D01*
X37601Y143882D01*
X37515Y143952D01*
X37426Y144019D01*
X37335Y144082D01*
X37242Y144143D01*
X37148Y144200D01*
X37051Y144253D01*
X36952Y144304D01*
X36851Y144351D01*
X36749Y144394D01*
X36646Y144434D01*
X36541Y144470D01*
X36435Y144502D01*
X36328Y144531D01*
X36220Y144556D01*
X36111Y144577D01*
X36002Y144594D01*
X35892Y144608D01*
X35781Y144617D01*
X35671Y144623D01*
X35560Y144625D01*
X36195Y149705D02*
X32385Y149705D01*
X36195Y149705D02*
X36295Y149703D01*
X36394Y149697D01*
X36494Y149687D01*
X36592Y149674D01*
X36691Y149656D01*
X36788Y149635D01*
X36884Y149610D01*
X36980Y149581D01*
X37074Y149548D01*
X37167Y149512D01*
X37258Y149472D01*
X37348Y149428D01*
X37436Y149381D01*
X37522Y149331D01*
X37606Y149277D01*
X37688Y149220D01*
X37767Y149160D01*
X37845Y149096D01*
X37919Y149030D01*
X37991Y148961D01*
X38060Y148889D01*
X38126Y148815D01*
X38190Y148737D01*
X38250Y148658D01*
X38307Y148576D01*
X38361Y148492D01*
X38411Y148406D01*
X38458Y148318D01*
X38502Y148228D01*
X38542Y148137D01*
X38578Y148044D01*
X38611Y147950D01*
X38640Y147854D01*
X38665Y147758D01*
X38686Y147661D01*
X38704Y147562D01*
X38717Y147464D01*
X38727Y147364D01*
X38733Y147265D01*
X38735Y147165D01*
X38733Y147065D01*
X38727Y146966D01*
X38717Y146866D01*
X38704Y146768D01*
X38686Y146669D01*
X38665Y146572D01*
X38640Y146476D01*
X38611Y146380D01*
X38578Y146286D01*
X38542Y146193D01*
X38502Y146102D01*
X38458Y146012D01*
X38411Y145924D01*
X38361Y145838D01*
X38307Y145754D01*
X38250Y145672D01*
X38190Y145593D01*
X38126Y145515D01*
X38060Y145441D01*
X37991Y145369D01*
X37919Y145300D01*
X37845Y145234D01*
X37767Y145170D01*
X37688Y145110D01*
X37606Y145053D01*
X37522Y144999D01*
X37436Y144949D01*
X37348Y144902D01*
X37258Y144858D01*
X37167Y144818D01*
X37074Y144782D01*
X36980Y144749D01*
X36884Y144720D01*
X36788Y144695D01*
X36691Y144674D01*
X36592Y144656D01*
X36494Y144643D01*
X36394Y144633D01*
X36295Y144627D01*
X36195Y144625D01*
X33655Y144625D01*
X43815Y146530D02*
X43815Y141450D01*
X43815Y146530D02*
X43817Y146641D01*
X43823Y146751D01*
X43832Y146862D01*
X43846Y146972D01*
X43863Y147081D01*
X43884Y147190D01*
X43909Y147298D01*
X43938Y147405D01*
X43970Y147511D01*
X44006Y147616D01*
X44046Y147719D01*
X44089Y147821D01*
X44136Y147922D01*
X44187Y148021D01*
X44240Y148118D01*
X44297Y148212D01*
X44358Y148305D01*
X44421Y148396D01*
X44488Y148485D01*
X44558Y148571D01*
X44631Y148654D01*
X44706Y148736D01*
X44784Y148814D01*
X44866Y148889D01*
X44949Y148962D01*
X45035Y149032D01*
X45124Y149099D01*
X45215Y149162D01*
X45308Y149223D01*
X45402Y149280D01*
X45499Y149333D01*
X45598Y149384D01*
X45699Y149431D01*
X45801Y149474D01*
X45904Y149514D01*
X46009Y149550D01*
X46115Y149582D01*
X46222Y149611D01*
X46330Y149636D01*
X46439Y149657D01*
X46548Y149674D01*
X46658Y149688D01*
X46769Y149697D01*
X46879Y149703D01*
X46990Y149705D01*
X47101Y149703D01*
X47211Y149697D01*
X47322Y149688D01*
X47432Y149674D01*
X47541Y149657D01*
X47650Y149636D01*
X47758Y149611D01*
X47865Y149582D01*
X47971Y149550D01*
X48076Y149514D01*
X48179Y149474D01*
X48281Y149431D01*
X48382Y149384D01*
X48481Y149333D01*
X48578Y149280D01*
X48672Y149223D01*
X48765Y149162D01*
X48856Y149099D01*
X48945Y149032D01*
X49031Y148962D01*
X49114Y148889D01*
X49196Y148814D01*
X49274Y148736D01*
X49349Y148654D01*
X49422Y148571D01*
X49492Y148485D01*
X49559Y148396D01*
X49622Y148305D01*
X49683Y148212D01*
X49740Y148118D01*
X49793Y148021D01*
X49844Y147922D01*
X49891Y147821D01*
X49934Y147719D01*
X49974Y147616D01*
X50010Y147511D01*
X50042Y147405D01*
X50071Y147298D01*
X50096Y147190D01*
X50117Y147081D01*
X50134Y146972D01*
X50148Y146862D01*
X50157Y146751D01*
X50163Y146641D01*
X50165Y146530D01*
X50165Y141450D01*
X50163Y141339D01*
X50157Y141229D01*
X50148Y141118D01*
X50134Y141008D01*
X50117Y140899D01*
X50096Y140790D01*
X50071Y140682D01*
X50042Y140575D01*
X50010Y140469D01*
X49974Y140364D01*
X49934Y140261D01*
X49891Y140159D01*
X49844Y140058D01*
X49793Y139959D01*
X49740Y139862D01*
X49683Y139768D01*
X49622Y139675D01*
X49559Y139584D01*
X49492Y139495D01*
X49422Y139409D01*
X49349Y139326D01*
X49274Y139244D01*
X49196Y139166D01*
X49114Y139091D01*
X49031Y139018D01*
X48945Y138948D01*
X48856Y138881D01*
X48765Y138818D01*
X48672Y138757D01*
X48577Y138700D01*
X48481Y138647D01*
X48382Y138596D01*
X48281Y138549D01*
X48179Y138506D01*
X48076Y138466D01*
X47971Y138430D01*
X47865Y138398D01*
X47758Y138369D01*
X47650Y138344D01*
X47541Y138323D01*
X47432Y138306D01*
X47322Y138292D01*
X47211Y138283D01*
X47101Y138277D01*
X46990Y138275D01*
X46879Y138277D01*
X46769Y138283D01*
X46658Y138292D01*
X46548Y138306D01*
X46439Y138323D01*
X46330Y138344D01*
X46222Y138369D01*
X46115Y138398D01*
X46009Y138430D01*
X45904Y138466D01*
X45801Y138506D01*
X45699Y138549D01*
X45598Y138596D01*
X45499Y138647D01*
X45402Y138700D01*
X45308Y138757D01*
X45215Y138818D01*
X45124Y138881D01*
X45035Y138948D01*
X44949Y139018D01*
X44866Y139091D01*
X44784Y139166D01*
X44706Y139244D01*
X44631Y139326D01*
X44558Y139409D01*
X44488Y139495D01*
X44421Y139584D01*
X44358Y139675D01*
X44297Y139768D01*
X44240Y139863D01*
X44187Y139959D01*
X44136Y140058D01*
X44089Y140159D01*
X44046Y140261D01*
X44006Y140364D01*
X43970Y140469D01*
X43938Y140575D01*
X43909Y140682D01*
X43884Y140790D01*
X43863Y140899D01*
X43846Y141008D01*
X43832Y141118D01*
X43823Y141229D01*
X43817Y141339D01*
X43815Y141450D01*
X55626Y141450D02*
X55626Y149705D01*
X55626Y141450D02*
X55628Y141339D01*
X55634Y141229D01*
X55643Y141118D01*
X55657Y141008D01*
X55674Y140899D01*
X55695Y140790D01*
X55720Y140682D01*
X55749Y140575D01*
X55781Y140469D01*
X55817Y140364D01*
X55857Y140261D01*
X55900Y140159D01*
X55947Y140058D01*
X55998Y139959D01*
X56051Y139863D01*
X56108Y139768D01*
X56169Y139675D01*
X56232Y139584D01*
X56299Y139495D01*
X56369Y139409D01*
X56442Y139326D01*
X56517Y139244D01*
X56595Y139166D01*
X56677Y139091D01*
X56760Y139018D01*
X56846Y138948D01*
X56935Y138881D01*
X57026Y138818D01*
X57119Y138757D01*
X57213Y138700D01*
X57310Y138647D01*
X57409Y138596D01*
X57510Y138549D01*
X57612Y138506D01*
X57715Y138466D01*
X57820Y138430D01*
X57926Y138398D01*
X58033Y138369D01*
X58141Y138344D01*
X58250Y138323D01*
X58359Y138306D01*
X58469Y138292D01*
X58580Y138283D01*
X58690Y138277D01*
X58801Y138275D01*
X58912Y138277D01*
X59022Y138283D01*
X59133Y138292D01*
X59243Y138306D01*
X59352Y138323D01*
X59461Y138344D01*
X59569Y138369D01*
X59676Y138398D01*
X59782Y138430D01*
X59887Y138466D01*
X59990Y138506D01*
X60092Y138549D01*
X60193Y138596D01*
X60292Y138647D01*
X60388Y138700D01*
X60483Y138757D01*
X60576Y138818D01*
X60667Y138881D01*
X60756Y138948D01*
X60842Y139018D01*
X60925Y139091D01*
X61007Y139166D01*
X61085Y139244D01*
X61160Y139326D01*
X61233Y139409D01*
X61303Y139495D01*
X61370Y139584D01*
X61433Y139675D01*
X61494Y139768D01*
X61551Y139862D01*
X61604Y139959D01*
X61655Y140058D01*
X61702Y140159D01*
X61745Y140261D01*
X61785Y140364D01*
X61821Y140469D01*
X61853Y140575D01*
X61882Y140682D01*
X61907Y140790D01*
X61928Y140899D01*
X61945Y141008D01*
X61959Y141118D01*
X61968Y141229D01*
X61974Y141339D01*
X61976Y141450D01*
X61976Y149705D01*
X69850Y149705D02*
X69850Y138275D01*
X66675Y149705D02*
X73025Y149705D01*
D10*
X218280Y212910D02*
X223360Y212910D01*
X218280Y212910D02*
X218280Y207830D01*
X243680Y207830D02*
X243680Y212910D01*
X238600Y212910D01*
X243680Y192590D02*
X243680Y187510D01*
X238600Y187510D01*
X223360Y187510D02*
X218280Y187510D01*
X218280Y192590D01*
D12*
X199865Y179255D02*
X197960Y179255D01*
X199865Y179255D02*
X199865Y172905D01*
X196055Y172905D01*
X195955Y172907D01*
X195856Y172913D01*
X195756Y172923D01*
X195658Y172936D01*
X195559Y172954D01*
X195462Y172975D01*
X195366Y173000D01*
X195270Y173029D01*
X195176Y173062D01*
X195083Y173098D01*
X194992Y173138D01*
X194902Y173182D01*
X194814Y173229D01*
X194728Y173279D01*
X194644Y173333D01*
X194562Y173390D01*
X194483Y173450D01*
X194405Y173514D01*
X194331Y173580D01*
X194259Y173649D01*
X194190Y173721D01*
X194124Y173795D01*
X194060Y173873D01*
X194000Y173952D01*
X193943Y174034D01*
X193889Y174118D01*
X193839Y174204D01*
X193792Y174292D01*
X193748Y174382D01*
X193708Y174473D01*
X193672Y174566D01*
X193639Y174660D01*
X193610Y174756D01*
X193585Y174852D01*
X193564Y174949D01*
X193546Y175048D01*
X193533Y175146D01*
X193523Y175246D01*
X193517Y175345D01*
X193515Y175445D01*
X193515Y181795D01*
X193517Y181895D01*
X193523Y181994D01*
X193533Y182094D01*
X193546Y182192D01*
X193564Y182291D01*
X193585Y182388D01*
X193610Y182484D01*
X193639Y182580D01*
X193672Y182674D01*
X193708Y182767D01*
X193748Y182858D01*
X193792Y182948D01*
X193839Y183036D01*
X193889Y183122D01*
X193943Y183206D01*
X194000Y183288D01*
X194060Y183367D01*
X194124Y183445D01*
X194190Y183519D01*
X194259Y183591D01*
X194331Y183660D01*
X194405Y183726D01*
X194483Y183790D01*
X194562Y183850D01*
X194644Y183907D01*
X194728Y183961D01*
X194814Y184011D01*
X194902Y184058D01*
X194992Y184102D01*
X195083Y184142D01*
X195176Y184178D01*
X195270Y184211D01*
X195366Y184240D01*
X195462Y184265D01*
X195559Y184286D01*
X195658Y184304D01*
X195756Y184317D01*
X195856Y184327D01*
X195955Y184333D01*
X196055Y184335D01*
X199865Y184335D01*
X205707Y184335D02*
X205707Y172905D01*
X212057Y172905D02*
X205707Y184335D01*
X212057Y184335D02*
X212057Y172905D01*
X217899Y172905D02*
X217899Y184335D01*
X221074Y184335D01*
X221185Y184333D01*
X221295Y184327D01*
X221406Y184318D01*
X221516Y184304D01*
X221625Y184287D01*
X221734Y184266D01*
X221842Y184241D01*
X221949Y184212D01*
X222055Y184180D01*
X222160Y184144D01*
X222263Y184104D01*
X222365Y184061D01*
X222466Y184014D01*
X222565Y183963D01*
X222662Y183910D01*
X222756Y183853D01*
X222849Y183792D01*
X222940Y183729D01*
X223029Y183662D01*
X223115Y183592D01*
X223198Y183519D01*
X223280Y183444D01*
X223358Y183366D01*
X223433Y183284D01*
X223506Y183201D01*
X223576Y183115D01*
X223643Y183026D01*
X223706Y182935D01*
X223767Y182842D01*
X223824Y182748D01*
X223877Y182651D01*
X223928Y182552D01*
X223975Y182451D01*
X224018Y182349D01*
X224058Y182246D01*
X224094Y182141D01*
X224126Y182035D01*
X224155Y181928D01*
X224180Y181820D01*
X224201Y181711D01*
X224218Y181602D01*
X224232Y181492D01*
X224241Y181381D01*
X224247Y181271D01*
X224249Y181160D01*
X224249Y176080D01*
X224247Y175969D01*
X224241Y175859D01*
X224232Y175748D01*
X224218Y175638D01*
X224201Y175529D01*
X224180Y175420D01*
X224155Y175312D01*
X224126Y175205D01*
X224094Y175099D01*
X224058Y174994D01*
X224018Y174891D01*
X223975Y174789D01*
X223928Y174688D01*
X223877Y174589D01*
X223824Y174492D01*
X223767Y174398D01*
X223706Y174305D01*
X223643Y174214D01*
X223576Y174125D01*
X223506Y174039D01*
X223433Y173956D01*
X223358Y173874D01*
X223280Y173796D01*
X223198Y173721D01*
X223115Y173648D01*
X223029Y173578D01*
X222940Y173511D01*
X222849Y173448D01*
X222756Y173387D01*
X222661Y173330D01*
X222565Y173277D01*
X222466Y173226D01*
X222365Y173179D01*
X222263Y173136D01*
X222160Y173096D01*
X222055Y173060D01*
X221949Y173028D01*
X221842Y172999D01*
X221734Y172974D01*
X221625Y172953D01*
X221516Y172936D01*
X221406Y172922D01*
X221295Y172913D01*
X221185Y172907D01*
X221074Y172905D01*
X217899Y172905D01*
X229710Y176080D02*
X229710Y181160D01*
X229712Y181271D01*
X229718Y181381D01*
X229727Y181492D01*
X229741Y181602D01*
X229758Y181711D01*
X229779Y181820D01*
X229804Y181928D01*
X229833Y182035D01*
X229865Y182141D01*
X229901Y182246D01*
X229941Y182349D01*
X229984Y182451D01*
X230031Y182552D01*
X230082Y182651D01*
X230135Y182748D01*
X230192Y182842D01*
X230253Y182935D01*
X230316Y183026D01*
X230383Y183115D01*
X230453Y183201D01*
X230526Y183284D01*
X230601Y183366D01*
X230679Y183444D01*
X230761Y183519D01*
X230844Y183592D01*
X230930Y183662D01*
X231019Y183729D01*
X231110Y183792D01*
X231203Y183853D01*
X231298Y183910D01*
X231394Y183963D01*
X231493Y184014D01*
X231594Y184061D01*
X231696Y184104D01*
X231799Y184144D01*
X231904Y184180D01*
X232010Y184212D01*
X232117Y184241D01*
X232225Y184266D01*
X232334Y184287D01*
X232443Y184304D01*
X232553Y184318D01*
X232664Y184327D01*
X232774Y184333D01*
X232885Y184335D01*
X232996Y184333D01*
X233106Y184327D01*
X233217Y184318D01*
X233327Y184304D01*
X233436Y184287D01*
X233545Y184266D01*
X233653Y184241D01*
X233760Y184212D01*
X233866Y184180D01*
X233971Y184144D01*
X234074Y184104D01*
X234176Y184061D01*
X234277Y184014D01*
X234376Y183963D01*
X234473Y183910D01*
X234567Y183853D01*
X234660Y183792D01*
X234751Y183729D01*
X234840Y183662D01*
X234926Y183592D01*
X235009Y183519D01*
X235091Y183444D01*
X235169Y183366D01*
X235244Y183284D01*
X235317Y183201D01*
X235387Y183115D01*
X235454Y183026D01*
X235517Y182935D01*
X235578Y182842D01*
X235635Y182748D01*
X235688Y182651D01*
X235739Y182552D01*
X235786Y182451D01*
X235829Y182349D01*
X235869Y182246D01*
X235905Y182141D01*
X235937Y182035D01*
X235966Y181928D01*
X235991Y181820D01*
X236012Y181711D01*
X236029Y181602D01*
X236043Y181492D01*
X236052Y181381D01*
X236058Y181271D01*
X236060Y181160D01*
X236060Y176080D01*
X236058Y175969D01*
X236052Y175859D01*
X236043Y175748D01*
X236029Y175638D01*
X236012Y175529D01*
X235991Y175420D01*
X235966Y175312D01*
X235937Y175205D01*
X235905Y175099D01*
X235869Y174994D01*
X235829Y174891D01*
X235786Y174789D01*
X235739Y174688D01*
X235688Y174589D01*
X235635Y174492D01*
X235578Y174398D01*
X235517Y174305D01*
X235454Y174214D01*
X235387Y174125D01*
X235317Y174039D01*
X235244Y173956D01*
X235169Y173874D01*
X235091Y173796D01*
X235009Y173721D01*
X234926Y173648D01*
X234840Y173578D01*
X234751Y173511D01*
X234660Y173448D01*
X234567Y173387D01*
X234472Y173330D01*
X234376Y173277D01*
X234277Y173226D01*
X234176Y173179D01*
X234074Y173136D01*
X233971Y173096D01*
X233866Y173060D01*
X233760Y173028D01*
X233653Y172999D01*
X233545Y172974D01*
X233436Y172953D01*
X233327Y172936D01*
X233217Y172922D01*
X233106Y172913D01*
X232996Y172907D01*
X232885Y172905D01*
X232774Y172907D01*
X232664Y172913D01*
X232553Y172922D01*
X232443Y172936D01*
X232334Y172953D01*
X232225Y172974D01*
X232117Y172999D01*
X232010Y173028D01*
X231904Y173060D01*
X231799Y173096D01*
X231696Y173136D01*
X231594Y173179D01*
X231493Y173226D01*
X231394Y173277D01*
X231298Y173330D01*
X231203Y173387D01*
X231110Y173448D01*
X231019Y173511D01*
X230930Y173578D01*
X230844Y173648D01*
X230761Y173721D01*
X230679Y173796D01*
X230601Y173874D01*
X230526Y173956D01*
X230453Y174039D01*
X230383Y174125D01*
X230316Y174214D01*
X230253Y174305D01*
X230192Y174398D01*
X230135Y174493D01*
X230082Y174589D01*
X230031Y174688D01*
X229984Y174789D01*
X229941Y174891D01*
X229901Y174994D01*
X229865Y175099D01*
X229833Y175205D01*
X229804Y175312D01*
X229779Y175420D01*
X229758Y175529D01*
X229741Y175638D01*
X229727Y175748D01*
X229718Y175859D01*
X229712Y175969D01*
X229710Y176080D01*
X241521Y176080D02*
X241521Y184335D01*
X241521Y176080D02*
X241523Y175969D01*
X241529Y175859D01*
X241538Y175748D01*
X241552Y175638D01*
X241569Y175529D01*
X241590Y175420D01*
X241615Y175312D01*
X241644Y175205D01*
X241676Y175099D01*
X241712Y174994D01*
X241752Y174891D01*
X241795Y174789D01*
X241842Y174688D01*
X241893Y174589D01*
X241946Y174493D01*
X242003Y174398D01*
X242064Y174305D01*
X242127Y174214D01*
X242194Y174125D01*
X242264Y174039D01*
X242337Y173956D01*
X242412Y173874D01*
X242490Y173796D01*
X242572Y173721D01*
X242655Y173648D01*
X242741Y173578D01*
X242830Y173511D01*
X242921Y173448D01*
X243014Y173387D01*
X243109Y173330D01*
X243205Y173277D01*
X243304Y173226D01*
X243405Y173179D01*
X243507Y173136D01*
X243610Y173096D01*
X243715Y173060D01*
X243821Y173028D01*
X243928Y172999D01*
X244036Y172974D01*
X244145Y172953D01*
X244254Y172936D01*
X244364Y172922D01*
X244475Y172913D01*
X244585Y172907D01*
X244696Y172905D01*
X244807Y172907D01*
X244917Y172913D01*
X245028Y172922D01*
X245138Y172936D01*
X245247Y172953D01*
X245356Y172974D01*
X245464Y172999D01*
X245571Y173028D01*
X245677Y173060D01*
X245782Y173096D01*
X245885Y173136D01*
X245987Y173179D01*
X246088Y173226D01*
X246187Y173277D01*
X246283Y173330D01*
X246378Y173387D01*
X246471Y173448D01*
X246562Y173511D01*
X246651Y173578D01*
X246737Y173648D01*
X246820Y173721D01*
X246902Y173796D01*
X246980Y173874D01*
X247055Y173956D01*
X247128Y174039D01*
X247198Y174125D01*
X247265Y174214D01*
X247328Y174305D01*
X247389Y174398D01*
X247446Y174492D01*
X247499Y174589D01*
X247550Y174688D01*
X247597Y174789D01*
X247640Y174891D01*
X247680Y174994D01*
X247716Y175099D01*
X247748Y175205D01*
X247777Y175312D01*
X247802Y175420D01*
X247823Y175529D01*
X247840Y175638D01*
X247854Y175748D01*
X247863Y175859D01*
X247869Y175969D01*
X247871Y176080D01*
X247871Y184335D01*
X255745Y184335D02*
X255745Y172905D01*
X252570Y184335D02*
X258920Y184335D01*
D16*
X101539Y66595D02*
X98886Y69911D01*
X101539Y66595D02*
X89601Y66595D01*
X89601Y69911D02*
X89601Y63279D01*
X91591Y58199D02*
X97560Y58199D01*
X91591Y58199D02*
X91504Y58197D01*
X91418Y58191D01*
X91331Y58182D01*
X91245Y58169D01*
X91160Y58152D01*
X91076Y58131D01*
X90993Y58107D01*
X90910Y58079D01*
X90829Y58048D01*
X90750Y58013D01*
X90672Y57974D01*
X90596Y57932D01*
X90522Y57887D01*
X90450Y57839D01*
X90380Y57788D01*
X90312Y57733D01*
X90247Y57676D01*
X90184Y57616D01*
X90124Y57553D01*
X90067Y57488D01*
X90012Y57420D01*
X89961Y57350D01*
X89913Y57278D01*
X89868Y57204D01*
X89826Y57128D01*
X89787Y57050D01*
X89752Y56971D01*
X89721Y56890D01*
X89693Y56807D01*
X89669Y56724D01*
X89648Y56640D01*
X89631Y56555D01*
X89618Y56469D01*
X89609Y56382D01*
X89603Y56296D01*
X89601Y56209D01*
X89601Y52893D01*
X97560Y52893D01*
X99549Y47268D02*
X89601Y47268D01*
X99549Y47269D02*
X99636Y47267D01*
X99722Y47261D01*
X99809Y47252D01*
X99895Y47239D01*
X99980Y47222D01*
X100064Y47201D01*
X100147Y47177D01*
X100230Y47149D01*
X100311Y47118D01*
X100390Y47083D01*
X100468Y47044D01*
X100544Y47002D01*
X100618Y46957D01*
X100690Y46909D01*
X100760Y46858D01*
X100828Y46803D01*
X100893Y46746D01*
X100956Y46686D01*
X101016Y46623D01*
X101073Y46558D01*
X101128Y46490D01*
X101179Y46420D01*
X101227Y46348D01*
X101272Y46274D01*
X101314Y46198D01*
X101353Y46120D01*
X101388Y46041D01*
X101419Y45960D01*
X101447Y45877D01*
X101471Y45794D01*
X101492Y45710D01*
X101509Y45625D01*
X101522Y45539D01*
X101531Y45452D01*
X101537Y45366D01*
X101539Y45279D01*
X101539Y44615D01*
X97560Y44615D02*
X97560Y48595D01*
M02*
